<?xml version="1.0" encoding="UTF-8" standalone="no"?>
<!-- Created with Inkscape (http://www.inkscape.org/) -->

<svg
   width="182.157mm"
   height="182.157mm"
   viewBox="0 0 182.157 182.157"
   version="1.1"
   id="svg8"
   inkscape:version="1.2.2 (b0a8486, 2022-12-01)"
   sodipodi:docname="caution-surferdude.svg"
   inkscape:export-filename="/home/algot/Documents/runeman.org/clipart/2019/caution-moose-f.png"
   inkscape:export-xdpi="91.277344"
   inkscape:export-ydpi="91.277344"
   xml:space="preserve"
   xmlns:inkscape="http://www.inkscape.org/namespaces/inkscape"
   xmlns:sodipodi="http://sodipodi.sourceforge.net/DTD/sodipodi-0.dtd"
   xmlns="http://www.w3.org/2000/svg"
   xmlns:svg="http://www.w3.org/2000/svg"
   xmlns:rdf="http://www.w3.org/1999/02/22-rdf-syntax-ns#"
   xmlns:cc="http://creativecommons.org/ns#"
   xmlns:dc="http://purl.org/dc/elements/1.1/"><title
     id="title121">Caution Surfer Dude</title><defs
     id="defs2" /><sodipodi:namedview
     id="base"
     pagecolor="#ffffff"
     bordercolor="#666666"
     borderopacity="1.0"
     inkscape:pageopacity="0.0"
     inkscape:pageshadow="2"
     inkscape:zoom="0.61580177"
     inkscape:cx="351.57417"
     inkscape:cy="208.67105"
     inkscape:document-units="mm"
     inkscape:current-layer="g121952"
     showgrid="false"
     inkscape:snap-global="false"
     fit-margin-top="0"
     fit-margin-left="0"
     fit-margin-right="0"
     fit-margin-bottom="0"
     inkscape:window-width="1390"
     inkscape:window-height="1099"
     inkscape:window-x="60"
     inkscape:window-y="25"
     inkscape:window-maximized="0"
     inkscape:showpageshadow="2"
     inkscape:pagecheckerboard="0"
     inkscape:deskcolor="#d1d1d1" /><metadata
     id="metadata5"><rdf:RDF><cc:Work
         rdf:about=""><dc:format>image/svg+xml</dc:format><dc:type
           rdf:resource="http://purl.org/dc/dcmitype/StillImage" /><dc:title>Caution Surfer Dude</dc:title><cc:license
           rdf:resource="http://creativecommons.org/publicdomain/zero/1.0/" /><dc:creator><cc:Agent><dc:title>j4p4n</dc:title></cc:Agent></dc:creator></cc:Work><cc:License
         rdf:about="http://creativecommons.org/publicdomain/zero/1.0/"><cc:permits
           rdf:resource="http://creativecommons.org/ns#Reproduction" /><cc:permits
           rdf:resource="http://creativecommons.org/ns#Distribution" /><cc:permits
           rdf:resource="http://creativecommons.org/ns#DerivativeWorks" /></cc:License></rdf:RDF></metadata><g
     inkscape:label="Layer 1"
     inkscape:groupmode="layer"
     id="layer1"
     transform="translate(416.0504,6.147707)"><g
       id="g119"
       inkscape:export-xdpi="41.832047"
       inkscape:export-ydpi="41.832047"><g
         transform="matrix(2.1946625,0,0,2.1946625,-274.5071,-34.301782)"
         id="g110"><g
           id="g121952"><g
             id="g18120"><rect
               style="opacity:1;fill:#ffde00;fill-opacity:1;stroke:none;stroke-width:0.664653;stroke-linecap:butt;stroke-linejoin:miter;stroke-miterlimit:4;stroke-dasharray:none;stroke-dashoffset:0;stroke-opacity:1"
               id="rect106"
               width="60.042831"
               height="60.042831"
               x="-84.696869"
               y="-7.8648629"
               ry="2.3147411"
               transform="rotate(-44.999999)" /><rect
               style="color:#000000;display:inline;overflow:visible;visibility:visible;fill:#ffde00;fill-opacity:1;fill-rule:nonzero;stroke:#000000;stroke-width:2;stroke-linecap:round;stroke-linejoin:round;stroke-miterlimit:4;stroke-dasharray:none;stroke-dashoffset:0;stroke-opacity:1;marker:none;enable-background:accumulate"
               id="rect3007"
               width="54.61396"
               height="54.61396"
               x="-81.987625"
               y="-5.1376224"
               ry="1.6894252"
               transform="matrix(0.70727234,-0.70694119,0.70727229,0.70694124,0,0)" /><path
               id="path17999"
               style="fill:#000000;stroke-width:0.0438608"
               d="M -21.669766 31.223596 L -21.6846 31.231366 L -22.082063 31.331438 L -22.037561 31.431039 C -22.085367 31.419127 -22.133166 31.407166 -22.180958 31.395249 C -22.232689 31.382345 -22.286001 31.369309 -22.338955 31.376412 C -22.405019 31.385271 -22.451105 31.424994 -22.519791 31.397133 C -22.561218 31.380326 -22.598517 31.352674 -22.642704 31.344389 C -22.72481 31.328995 -22.800914 31.382984 -22.872046 31.424917 C -23.023181 31.514013 -23.197388 31.557141 -23.37123 31.584562 C -23.454252 31.597661 -23.538849 31.609507 -23.621999 31.619411 C -23.697344 31.628382 -23.776714 31.624124 -23.838626 31.674038 C -23.918358 31.738329 -24.016889 31.762552 -24.113413 31.730785 C -24.308466 31.66659 -24.473117 31.743087 -24.625076 31.83227 C -24.865056 31.973111 -25.046799 32.180592 -25.195841 32.401858 C -25.278669 32.524818 -25.364509 32.678248 -25.283669 32.845473 C -25.261823 32.890669 -25.280767 33.043725 -25.307922 33.089884 C -25.319892 33.110229 -25.324071 33.134677 -25.33194 33.157227 C -25.385195 33.309818 -25.434416 33.463636 -25.493233 33.614263 C -25.523882 33.692752 -25.67443 33.749227 -25.533261 33.853495 C -25.531547 33.85476 -25.536709 33.868905 -25.541974 33.873744 C -25.616423 33.942167 -25.609914 34.04264 -25.649345 34.125456 C -25.689741 34.210308 -25.718531 34.31102 -25.618264 34.389175 C -25.588574 34.412321 -25.575574 34.448758 -25.592598 34.476768 C -25.666877 34.598991 -25.677127 34.744976 -25.755775 34.865048 C -25.904025 35.091366 -26.126807 35.271825 -26.205276 35.542008 C -26.225639 35.612129 -26.236959 35.67046 -26.199625 35.736972 C -26.14023 35.842787 -26.051011 35.890478 -25.926251 35.886256 C -25.85989 35.884011 -25.815474 35.878479 -25.796981 35.978558 C -25.770957 36.119401 -25.71959 36.274886 -25.561046 36.344941 C -25.449908 36.394052 -25.488124 36.438599 -25.556101 36.477036 C -25.658821 36.535117 -25.660381 36.605588 -25.613319 36.697195 C -25.57441 36.772944 -25.534406 36.857026 -25.582709 36.938075 C -25.621764 37.003609 -25.631627 37.072553 -25.652642 37.141516 C -25.753451 37.472332 -25.434837 37.745305 -25.193016 37.773502 C -24.966141 37.799952 -24.766899 37.907145 -24.539603 37.921609 C -24.359356 37.933074 -24.181197 37.989984 -23.999683 37.973411 C -23.868837 37.961463 -23.829223 37.969252 -23.824969 38.091614 C -23.818886 38.266336 -23.709971 38.387624 -23.605281 38.512388 C -23.514047 38.621108 -23.384455 38.693952 -23.3385 38.846512 C -23.310105 38.94078 -23.222592 39.047121 -23.131527 39.08904 C -23.012445 39.14386 -23.064042 39.178027 -23.112925 39.225138 C -23.223993 39.344876 -23.350199 39.305973 -23.402782 39.280943 C -24.225651 39.034556 -24.553323 39.442971 -25.50736 40.628975 C -26.970803 42.448251 -27.248606 42.276096 -28.110652 42.928518 C -28.716205 43.386836 -29.031172 43.56446 -29.170711 43.525891 C -29.442462 43.450698 -31.783436 42.043248 -32.307329 41.311115 C -32.918269 40.457344 -33.02064 40.147264 -32.93696 39.402678 C -32.858571 38.705107 -32.368107 37.639564 -31.981447 37.327062 C -31.777737 37.162408 -31.769415 37.127846 -31.903979 37.006595 C -31.97238 36.944948 -32.076568 36.904284 -32.192187 36.884624 L -32.192187 36.88486 C -32.384919 36.852537 -32.608983 36.880073 -32.751179 36.972453 C -32.84237 37.031719 -33.033532 37.270905 -33.175721 37.503895 C -33.319355 37.739268 -33.502454 37.919052 -33.587783 37.908423 C -33.672255 37.897886 -33.961419 37.635995 -34.2306 37.326591 C -34.499783 37.017194 -34.774589 36.757297 -34.841159 36.748997 C -34.907728 36.740699 -35.136492 36.845668 -35.349291 36.982107 C -35.562076 37.118578 -35.923116 37.290455 -36.151517 37.364265 C -36.60567 37.511018 -36.929637 37.78695 -37.013787 38.098442 C -37.043509 38.208488 -37.211749 38.385934 -37.387704 38.492845 C -37.78892 38.736621 -37.825625 39.100246 -37.495075 39.55573 C -37.117534 40.075983 -37.165718 40.106467 -38.169916 39.981213 C -38.666742 39.919224 -39.191905 39.893627 -39.336876 39.924466 C -39.634648 39.987792 -39.70712 40.245332 -39.436948 40.279782 C -39.339657 40.29228 -38.739768 40.430328 -38.103986 40.586592 C -37.140669 40.823343 -36.764229 40.875795 -35.844943 40.900465 L -34.741793 40.929898 L -34.343388 41.402946 C -33.832566 42.009697 -33.446481 42.492594 -32.8934 43.215313 C -32.07041 44.261262 -31.951525 44.782867 -30.66379 45.659667 C -30.618417 45.700683 -30.576709 45.739546 -30.537816 45.775986 C -30.585755 45.786827 -30.633864 45.796742 -30.681685 45.808009 C -33.282701 46.420791 -35.830776 47.301411 -38.310723 48.261074 C -40.755165 49.206997 -43.130432 50.314667 -45.413263 51.574055 C -45.92249 51.854986 -46.42201 52.235673 -46.899278 52.571952 C -47.202302 52.782363 -47.497553 53.003153 -47.783916 53.235019 C -48.110573 53.499511 -48.436863 53.763088 -48.743433 54.049489 C -48.999963 54.289135 -49.249486 54.533831 -49.473136 54.801091 C -49.530464 54.869599 -49.601227 54.93486 -49.613237 55.034201 C -49.639389 55.250533 -49.541468 55.405382 -49.360349 55.52114 C -49.00643 55.747342 -48.657494 55.979615 -48.292754 56.191742 C -46.62589 57.161175 -44.743945 57.639533 -42.848117 58.008819 C -42.828043 58.012727 -42.807922 58.016726 -42.787838 58.020592 C -40.774745 58.40843 -38.686927 58.613139 -36.633041 58.596773 C -34.535903 58.580061 -32.439939 58.453142 -30.357451 58.217205 C -28.409657 57.996527 -26.454482 57.712887 -24.550199 57.260043 C -24.351277 57.211583 -24.189384 57.231064 -24.029116 57.341985 C -23.968632 57.383843 -23.896242 57.435726 -23.910207 57.500216 C -23.92034 57.54699 -23.992251 57.594673 -24.070323 57.596992 C -24.096779 57.597795 -24.159014 57.595168 -24.148968 57.651149 C -24.112882 57.852261 -24.303995 58.060614 -24.40374 58.221914 C -24.387572 58.18155 -24.458738 58.152965 -24.494158 58.180001 C -24.529571 58.207036 -24.534607 58.255174 -24.54078 58.297969 C -24.563698 58.456831 -24.637886 58.604417 -24.711021 58.748883 L -25.255414 59.824483 C -25.36381 60.038615 -25.422104 60.25267 -25.495352 60.475777 C -25.592441 60.771474 -25.679468 61.070019 -25.772258 61.367009 C -25.794892 61.439466 -25.845969 61.504594 -25.848312 61.581752 C -25.850487 61.653153 -25.83937 61.723732 -25.729168 61.700426 C -25.701644 61.694608 -25.649976 61.689998 -25.646991 61.697836 C -25.632376 61.736212 -25.676414 61.752406 -25.699499 61.76824 C -25.780646 61.823904 -25.868413 61.870729 -25.95121 61.924352 C -26.101372 62.021588 -26.106053 62.117556 -25.999951 62.25306 C -25.946169 62.321748 -25.873317 62.277939 -25.819821 62.314516 C -25.803032 62.325994 -25.776321 62.330773 -25.775554 62.351955 C -25.774684 62.375665 -25.799487 62.378954 -25.820763 62.38492 C -25.969468 62.426566 -26.079911 62.526993 -26.198919 62.61332 C -26.242834 62.645177 -26.27599 62.690886 -26.277564 62.745887 C -26.279275 62.805754 -26.325297 62.869176 -26.221759 62.916363 C -26.174965 62.937683 -26.208935 63.038545 -26.239183 63.10285 C -26.313037 63.259868 -26.309534 63.274412 -26.212811 63.394119 C -26.199028 63.411182 -26.208705 63.42186 -26.222229 63.434148 C -26.334916 63.536567 -26.433979 63.653266 -26.543874 63.755086 C -26.640733 63.844827 -26.683881 63.930479 -26.702105 64.050829 C -26.719158 64.163399 -26.678773 64.207876 -26.568362 64.208825 C -26.493989 64.209458 -26.441433 64.230782 -26.413662 64.304424 C -26.339752 64.500435 -26.236818 64.683822 -26.132282 64.866241 C -26.090625 64.938932 -26.024964 65.006598 -26.008899 65.08381 C -25.960453 65.316672 -25.811767 65.492627 -25.669595 65.673177 C -25.630599 65.722695 -25.608145 65.767589 -25.589537 65.830702 C -25.518073 66.073083 -25.459659 66.316285 -25.461445 66.56747 C -25.462366 66.695436 -25.449123 66.829019 -25.420003 66.943035 C -25.376809 67.112158 -25.39113 67.280765 -25.368907 67.447635 C -25.303869 67.936044 -25.290867 68.430063 -25.312632 68.92164 C -25.323524 69.167664 -25.34324 69.413317 -25.370556 69.658172 C -25.394482 69.87263 -25.388994 70.080579 -25.38539 70.296986 C -25.380041 70.618126 -25.41031 70.938806 -25.408936 71.260505 C -25.407197 71.668802 -25.382447 72.077377 -25.50477 72.480916 C -25.57932 72.726862 -25.631088 72.980114 -25.701618 73.228515 C -25.75711 73.423947 -25.832001 73.613565 -25.894934 73.806815 C -25.924194 73.896675 -25.938406 73.994489 -25.970047 74.082543 C -26.04804 74.299549 -26.170418 74.501012 -26.319947 74.680387 C -26.387582 74.761523 -26.46016 74.85262 -26.54717 74.91538 C -26.615754 74.964852 -26.673627 75.005412 -26.726829 75.072199 C -26.814494 75.182253 -26.855651 75.291946 -26.987252 75.368413 C -27.084316 75.424808 -27.193638 75.458618 -27.300891 75.494622 C -27.589101 75.591371 -27.862871 75.725454 -28.153035 75.809437 C -28.231491 75.832145 -28.329451 75.832124 -28.422877 75.82121 C -28.550459 75.806311 -28.648186 75.708509 -28.779606 75.719019 C -28.882478 75.727251 -28.949002 75.679768 -28.992465 75.598461 C -29.042323 75.50519 -29.126824 75.440389 -29.200615 75.368177 C -29.286193 75.284427 -29.438143 75.307149 -29.528382 75.394785 C -29.622544 75.486234 -29.615459 75.602264 -29.639521 75.713839 C -29.685772 75.928331 -29.593351 76.155766 -29.386397 76.252581 C -29.229002 76.326213 -29.135302 76.439784 -29.099601 76.594475 C -29.013571 76.967252 -28.589906 77.173165 -28.280892 77.181487 C -28.132679 77.185482 -28.000664 77.138349 -27.862002 77.107787 C -27.74225 77.081397 -27.637304 77.151213 -27.525053 77.1756 C -27.174595 77.251732 -26.818366 77.280141 -26.458165 77.279204 C -26.279136 77.278742 -26.076789 77.235107 -25.959216 77.435788 C -25.93741 77.473006 -25.881146 77.495304 -25.836775 77.516788 C -25.521092 77.669627 -25.195736 77.773222 -24.832049 77.71599 C -24.643498 77.686318 -24.460924 77.642614 -24.370539 77.468518 C -24.206854 77.153235 -24.176899 76.813608 -24.24127 76.472269 C -24.289212 76.21804 -24.335713 75.961765 -24.328156 75.706775 C -24.317309 75.34085 -24.279316 74.976894 -24.197473 74.61375 C -24.142379 74.369299 -24.071073 74.13069 -23.998742 73.892524 C -23.930999 73.669478 -23.892258 73.440584 -23.823321 73.21839 C -23.752097 72.988813 -23.688127 72.756701 -23.617525 72.527538 C -23.535319 72.260712 -23.448658 71.993268 -23.372172 71.725783 C -23.264463 71.349109 -23.175264 70.967095 -23.063007 70.590845 C -22.959694 70.244564 -22.895461 69.889294 -22.803997 69.539969 C -22.697457 69.133069 -22.606482 68.719291 -22.583367 68.300015 C -22.566846 68.000371 -22.511412 67.697347 -22.594904 67.396303 C -22.676471 67.102229 -22.7503 66.806341 -22.82354 66.510252 C -22.861188 66.358048 -22.899159 66.20574 -22.928322 66.051803 C -22.939841 65.991009 -22.942098 65.930483 -22.967173 65.873086 C -22.997477 65.803724 -23.035616 65.74739 -22.993545 65.673412 C -22.973947 65.638956 -22.944419 65.610528 -22.915371 65.582759 C -22.875868 65.544993 -22.835932 65.506928 -22.787985 65.47939 C -22.754159 65.459967 -22.716979 65.446142 -22.683203 65.426646 C -22.6264 65.393859 -22.588435 65.332902 -22.54216 65.287722 C -22.450899 65.198626 -22.35807 65.110012 -22.282208 65.008226 C -22.096527 64.759083 -21.848963 64.556559 -21.688603 64.28747 C -21.562647 64.076102 -21.42446 63.871352 -21.295849 63.661371 C -21.256978 63.597898 -21.216573 63.564256 -21.17223 63.644653 C -21.063821 63.841207 -20.940922 64.034738 -20.866598 64.243203 C -20.77563 64.498369 -20.703279 64.760843 -20.627601 65.021177 C -20.500421 65.458661 -20.395536 65.902206 -20.185635 66.313639 C -20.136271 66.410395 -20.051128 66.498985 -20.022223 66.593371 C -19.979512 66.732807 -19.902834 66.711389 -19.817369 66.676019 C -19.698705 66.626907 -19.56713 66.615798 -19.452871 66.551223 C -19.414115 66.52932 -19.335307 66.496965 -19.297935 66.567234 C -19.24918 66.658902 -19.172213 66.73794 -19.103913 66.803876 C -18.889809 67.010564 -18.821246 67.29632 -18.631807 67.514742 C -18.423175 67.75529 -18.379401 68.069252 -18.307338 68.357939 C -18.208992 68.751901 -18.050779 69.122391 -17.908932 69.49994 C -17.866807 69.612068 -17.822528 69.724189 -17.734924 69.815933 C -17.668011 69.886013 -17.772823 70.034974 -17.612483 70.067644 C -17.608252 70.068496 -17.604824 70.090871 -17.607538 70.101786 C -17.643992 70.248396 -17.533965 70.355992 -17.495928 70.482532 C -17.429386 70.703884 -17.303864 70.901837 -17.219258 71.116872 C -17.108524 71.398342 -16.947635 71.660186 -16.843222 71.946177 C -16.774991 72.133054 -16.66101 72.304471 -16.591511 72.491041 C -16.518176 72.687904 -16.437583 72.883761 -16.394427 73.090768 C -16.361181 73.250202 -16.253275 73.387906 -16.228189 73.549688 C -16.215614 73.630815 -16.188578 73.709055 -16.173562 73.789155 C -16.120938 74.069809 -15.902431 74.564925 -15.862749 74.847095 C -15.803505 75.268374 -15.86193 75.44993 -15.778217 75.8643 C -15.756783 75.970376 -15.774298 76.110149 -15.855921 76.189005 C -15.966699 76.296025 -16.116045 76.38268 -16.242317 76.47274 C -16.449773 76.620693 -16.660795 76.764206 -16.875009 76.903168 C -17.07828 77.035032 -17.288595 77.133417 -17.510998 77.232583 C -17.743321 77.33066 -17.945345 77.448652 -18.213152 77.435317 C -18.247549 77.433614 -18.282111 77.42978 -18.316285 77.433904 C -18.364164 77.439666 -18.39091 77.469918 -18.432605 77.487119 C -18.483696 77.508197 -18.540064 77.509923 -18.59484 77.51302 C -18.756832 77.522187 -18.91764 77.547463 -19.074245 77.587898 C -19.221591 77.625945 -19.367837 77.712146 -19.524216 77.675726 C -19.67527 77.640547 -19.780704 77.75963 -19.756384 77.913309 C -19.748203 77.965039 -19.775123 78.007623 -19.793117 78.050114 C -19.851235 78.187348 -19.738153 78.358203 -19.620521 78.427798 C -19.524747 78.484461 -19.411966 78.508228 -19.300996 78.5274 C -19.187159 78.547066 -19.072552 78.585196 -18.960044 78.599216 C -18.822247 78.616388 -18.679281 78.600164 -18.540683 78.604632 C -18.359615 78.61047 -18.178702 78.621838 -17.998409 78.638774 C -17.91716 78.646408 -17.823289 78.670908 -17.742224 78.664204 C -17.663696 78.657708 -17.583355 78.640597 -17.504641 78.630769 C -17.375234 78.614541 -17.245731 78.599089 -17.116125 78.584382 C -16.791504 78.547547 -16.466054 78.515103 -16.140126 78.490667 C -15.819764 78.466648 -15.497874 78.448084 -15.176371 78.453464 C -14.994807 78.456501 -14.800068 78.459807 -14.625856 78.514449 C -13.974094 78.718873 -13.513329 78.590522 -13.244859 78.515391 C -13.007918 78.441679 -12.950494 77.969913 -12.942052 77.792516 C -12.935457 77.653963 -13.00067 77.511881 -13.026819 77.377157 C -13.055023 77.231842 -13.03182 77.078547 -13.068732 76.938488 C -13.16701 76.565547 -13.378393 76.200548 -13.500337 75.830394 C -13.672132 75.308933 -13.804574 74.775749 -13.896388 74.236301 C -13.96917 73.808682 -14.038269 73.379721 -14.150218 72.959379 C -14.261899 72.540057 -14.326267 72.11981 -14.422179 71.697527 C -14.554625 71.114401 -14.600468 70.524838 -14.634568 69.9339 C -14.651749 69.636084 -14.69677 69.345641 -14.776788 69.059858 C -14.898247 68.626062 -15.050131 68.200552 -15.2164 67.781052 C -15.378525 67.372006 -15.522754 66.955358 -15.737011 66.565586 C -15.887538 66.291755 -16.022298 66.010139 -16.167204 65.733456 C -16.240127 65.594228 -16.238041 65.579083 -16.092562 65.518712 C -15.753352 65.377933 -15.482536 65.167653 -15.246304 64.889081 C -15.066528 64.677093 -14.929621 64.438409 -14.742175 64.23402 C -14.689726 64.17683 -14.62624 64.113215 -14.673184 64.031521 C -14.793591 63.821985 -14.913175 63.61344 -14.989648 63.383759 C -15.042272 63.22571 -15.17516 63.108184 -15.253368 62.959688 C -15.287197 62.895453 -15.182556 62.926313 -15.226996 62.873979 C -15.286381 62.804038 -15.360875 62.738243 -15.434204 62.709861 C -15.519582 62.676806 -15.562057 62.609308 -15.563003 62.562696 C -15.564513 62.489066 -15.606602 62.446002 -15.632465 62.389865 C -15.664805 62.319676 -15.744636 62.28536 -15.781749 62.233988 C -15.864902 62.118884 -15.976757 62.031103 -16.064777 61.921762 C -16.209415 61.742078 -16.410412 61.60977 -16.555485 61.427287 C -16.630945 61.332366 -16.722862 61.249369 -16.74103 61.122126 C -16.747134 61.079363 -16.767797 61.046235 -16.831684 61.043481 C -16.938267 61.038889 -17.02133 60.992744 -16.999805 60.872063 C -16.978189 60.750891 -17.03275 60.651171 -17.079157 60.546181 C -17.104199 60.489533 -17.127471 60.435494 -17.176639 60.3936 C -17.209764 60.365376 -17.214381 60.336155 -17.205601 60.288347 C -17.188193 60.193521 -17.107765 60.115533 -17.131901 60.010029 C -17.11062 59.707628 -17.169169 59.612161 -17.385496 59.310936 C -17.475612 59.189946 -17.45965 59.017007 -17.61366 58.930897 C -17.72001 58.871434 -17.691594 58.755767 -17.70196 58.660819 C -17.723688 58.57484 -17.677759 58.509839 -17.638855 58.439012 C -17.598743 58.365983 -17.561149 58.291863 -17.523478 58.217676 C -17.504645 58.180585 -17.485702 58.143457 -17.466495 58.106537 C -17.448578 58.072093 -17.4327 58.034478 -17.409749 58.002932 C -17.375971 57.956514 -17.333127 57.916251 -17.304261 57.866599 C -17.286852 57.836652 -17.275204 57.804251 -17.266115 57.771236 C -17.257827 57.741128 -17.256729 57.703777 -17.239037 57.677285 C -16.721002 56.979041 -16.352537 56.187523 -16.03087 55.331121 C -15.777269 55.025948 -15.390391 54.924482 -15.123627 54.668054 C -14.86376 54.544462 -14.565185 54.472976 -14.291026 54.383142 C -14.024569 54.295833 -13.762432 54.193821 -13.499866 54.096111 C -12.858826 53.857559 -12.222486 53.607456 -11.59143 53.345923 C -11.565723 53.33527 -11.539886 53.324591 -11.514197 53.313899 C -10.273287 52.797455 -9.0388625 52.243929 -7.8725089 51.585593 C -7.3174295 51.271651 -6.7811418 50.931179 -6.2536929 50.5771 C -5.7223019 50.220381 -5.2167896 49.828954 -4.7417777 49.406372 C -4.2761822 48.992161 -3.8168606 48.573659 -3.4415447 48.080238 C -3.2696372 47.854241 -3.1135393 47.61751 -2.9743838 47.371962 C -2.904815 47.249193 -2.8394435 47.124279 -2.7787131 46.997338 C -2.5682442 46.557458 -2.5529713 46.060614 -2.7247918 45.601036 C -2.8967479 45.141083 -3.3025073 44.72406 -3.7104447 44.436901 C -4.1437436 44.131897 -4.6622331 43.958196 -5.1745607 43.814805 C -5.7772933 43.646106 -6.3901773 43.510582 -7.0092973 43.408865 C -7.2510345 43.369148 -7.4945878 43.335852 -7.7392362 43.307615 C -9.1252143 43.147656 -10.522442 43.075335 -11.918489 43.090988 C -12.616513 43.098819 -13.314171 43.12865 -14.010117 43.180465 C -14.684555 43.230681 -15.363156 43.250805 -16.035344 43.329749 C -16.20882 43.350121 -16.209641 43.341515 -16.228896 43.186116 C -16.230303 43.174801 -16.242159 43.164689 -16.243495 43.153386 C -16.258856 43.023632 -16.291334 42.897615 -16.320962 42.770286 C -16.372064 42.550677 -16.449681 42.339406 -16.55313 42.143716 C -16.669198 41.924163 -16.760631 41.693432 -16.89314 41.480884 C -16.973333 41.352257 -17.031387 41.199741 -17.118715 41.087188 C -17.197874 40.985174 -17.286535 40.873339 -17.378432 40.773315 C -17.61923 40.511217 -17.854267 40.245212 -18.12344 40.008527 C -18.364832 39.796276 -18.603918 39.581702 -18.878574 39.406681 C -18.963781 39.352384 -19.060578 39.297863 -19.114744 39.219958 C -19.196027 39.103059 -19.31548 39.009912 -19.420848 38.946113 C -19.684278 38.786604 -19.862585 38.565686 -20.038235 38.336496 C -20.308147 37.984313 -20.381942 37.568541 -20.442762 37.150934 C -20.453831 37.074925 -20.502851 36.992852 -20.443233 36.918767 C -20.385565 36.847076 -20.383091 36.768941 -20.391431 36.686128 C -20.394309 36.657518 -20.377986 36.631876 -20.372594 36.605835 C -20.347133 36.48291 -20.263824 36.376505 -20.268754 36.244633 C -19.836944 36.252692 -19.694842 36.220539 -19.743198 36.133258 C -19.772528 36.080338 -19.725645 36.037617 -19.543995 35.952186 C -19.413281 35.890716 -19.196088 35.736145 -19.061294 35.608644 L -18.816176 35.376712 L -18.369029 35.364468 C -18.077344 35.356368 -17.873414 35.333778 -17.826049 35.311018 L -17.826285 35.310782 C -17.797865 35.297122 -17.825786 35.283377 -17.92518 35.272637 C -18.220955 35.240697 -18.334257 35.200157 -18.514311 35.061661 C -18.773279 34.862462 -18.784061 34.706147 -18.547276 34.582256 C -18.372026 34.490536 -18.371746 34.489034 -18.514075 34.393414 C -18.624358 34.319324 -18.653523 34.27466 -18.640284 34.200333 C -18.623974 34.108763 -18.605116 34.102732 -18.28285 34.087075 C -17.503231 34.049195 -17.31596 33.980666 -17.097052 33.652644 C -16.989641 33.491695 -17.045731 33.423261 -17.218552 33.504537 C -17.274862 33.531017 -17.350352 33.542286 -17.386438 33.529496 C -17.422548 33.516686 -17.478043 33.518509 -17.509821 33.533499 C -17.597751 33.574849 -17.909091 33.501639 -18.025016 33.41247 C -18.252029 33.237851 -18.333417 33.054283 -18.253887 32.896568 C -18.184898 32.759807 -18.095137 32.70302 -17.344054 32.321094 C -16.885658 32.088003 -16.51284 31.882997 -16.515691 31.865471 C -16.518591 31.847941 -16.60635 31.843607 -16.710655 31.855817 C -17.030556 31.893277 -17.593388 31.885984 -17.782959 31.841924 C -18.007212 31.789804 -18.048477 31.70275 -17.905871 31.582678 C -17.665515 31.380291 -18.118721 31.493134 -19.005489 31.856288 C -19.802882 32.182847 -19.88914 32.198754 -20.076615 32.054548 C -20.228547 31.937683 -20.178071 31.801718 -19.880238 31.527109 L -19.61746 31.285052 L -19.963357 31.442813 C -20.404251 31.64405 -20.562758 31.680607 -20.662215 31.604106 C -20.704325 31.571716 -20.739298 31.512126 -20.739918 31.471539 C -20.740918 31.404949 -20.75394 31.400247 -20.872013 31.424917 C -20.943983 31.439937 -21.059627 31.476246 -21.129376 31.505446 C -21.267627 31.563436 -21.490475 31.539717 -21.600539 31.455057 C -21.638859 31.425577 -21.669132 31.334134 -21.667882 31.251851 C -21.667762 31.243351 -21.668966 31.233176 -21.669766 31.223596 z M -24.983688 43.673056 C -25.001999 43.73914 -25.028129 43.803404 -25.037374 43.873436 C -25.117956 43.996123 -25.148896 44.167935 -25.137211 44.311634 C -25.131749 44.378835 -25.152273 44.449362 -25.158873 44.516017 C -25.218158 44.624337 -25.291775 44.627471 -25.391041 44.623624 C -25.416287 44.632292 -25.441827 44.640179 -25.467567 44.647406 C -25.622043 44.690766 -25.783648 44.708599 -25.93826 44.74842 C -26.1075 44.792013 -26.282242 44.821568 -26.453455 44.857676 L -26.46099 44.859324 C -26.344429 44.630134 -26.115695 44.642433 -25.963925 44.444436 C -25.715959 44.122505 -25.253243 43.768873 -24.983688 43.673056 z " /><g
               id="g18086"
               transform="matrix(0.02558149,0,0,0.02433324,-51.632479,30.27236)">
	
	<path
   d="m 1866.601,574.5856 c 0.1133,-0.1094 0.3125,-0.2159 0.3164,-0.329 0,-0.1131 -0.188,-0.2324 -0.3179,-0.3757 -0.1064,0.1189 -0.2935,0.2368 -0.2932,0.3542 2e-4,0.1171 0.1887,0.2337 0.2947,0.3505 z"
   id="path18084" />
</g></g></g></g></g></g></svg>
