<?xml version="1.0" encoding="UTF-8" standalone="no"?>
<!-- Created with Inkscape (http://www.inkscape.org/) -->

<svg
   xmlns:dc="http://purl.org/dc/elements/1.1/"
   xmlns:cc="http://creativecommons.org/ns#"
   xmlns:rdf="http://www.w3.org/1999/02/22-rdf-syntax-ns#"
   xmlns:svg="http://www.w3.org/2000/svg"
   xmlns="http://www.w3.org/2000/svg"
   xmlns:sodipodi="http://sodipodi.sourceforge.net/DTD/sodipodi-0.dtd"
   xmlns:inkscape="http://www.inkscape.org/namespaces/inkscape"
   width="83.424126mm"
   height="83.087456mm"
   viewBox="0 0 295.5973 294.40437"
   id="svg5180"
   version="1.1"
   inkscape:version="0.91 r13725"
   sodipodi:docname="workpromotesconfidence.svg">
  <defs
     id="defs5182" />
  <sodipodi:namedview
     id="base"
     pagecolor="#ffffff"
     bordercolor="#666666"
     borderopacity="1.0"
     inkscape:pageopacity="0.0"
     inkscape:pageshadow="2"
     inkscape:zoom="1.5027608"
     inkscape:cx="154.25186"
     inkscape:cy="166.56842"
     inkscape:document-units="px"
     inkscape:current-layer="layer1"
     showgrid="false"
     fit-margin-top="0"
     fit-margin-left="0"
     fit-margin-right="0"
     fit-margin-bottom="0"
     inkscape:window-width="1366"
     inkscape:window-height="705"
     inkscape:window-x="-8"
     inkscape:window-y="-8"
     inkscape:window-maximized="1" />
  <metadata
     id="metadata5185">
    <rdf:RDF>
      <cc:Work
         rdf:about="">
        <dc:format>image/svg+xml</dc:format>
        <dc:type
           rdf:resource="http://purl.org/dc/dcmitype/StillImage" />
        <dc:title></dc:title>
      </cc:Work>
    </rdf:RDF>
  </metadata>
  <g
     inkscape:label="Layer 1"
     inkscape:groupmode="layer"
     id="layer1"
     transform="translate(480.49339,-188.94995)">
    <path
       style="fill:#000000"
       d="m -333.79373,526.75569 c 222.52915,350.40434 111.26458,175.20217 0,0 z"
       id="path5805"
       inkscape:connector-curvature="0" />
    <path
       style="fill:#1a1a1a;stroke:none"
       d="m -333.31455,188.95 c -16.9193,0.005 -20.25937,0.29402 -30.5,2.63477 -39.9157,9.12373 -71.72461,30.96778 -92.13281,63.26953 -11.7667,18.62428 -17.76258,33.08199 -22.01758,53.08789 -3.3496,15.74928 -3.37513,43.13065 -0.0527,58.64453 3.05,14.24155 5.39122,21.23577 11.19922,33.47852 7.4596,15.72385 16.9903,29.24017 29.5039,41.83984 14.8247,14.9267 30.2984,25.42837 48.5,32.91601 4.675,1.92317 9.19558,3.50358 10.04688,3.51368 1.3567,0.016 1.49899,-2.31404 1.1543,-18.88282 l -0.39258,-18.90039 5.8457,-1.66211 c 14.67872,-4.1706 32.50403,-12.60542 46.11719,-21.82226 l 8.24609,-5.58203 10.74024,4.98047 c 5.90758,2.73927 11.80848,5.52148 13.11328,6.18359 l 2.37304,1.20508 -0.17187,27.25 c -0.14733,23.4727 0.0353,27.25 1.31055,27.25 2.14425,0 16.69872,-5.48848 23.38672,-8.81836 13.01829,-6.48172 29.9239,-18.57228 39.24218,-28.06641 19.24616,-19.60933 33.32317,-45.16703 39.66016,-72.0039 3.37062,-14.27445 4.26721,-38.82359 1.97656,-54.11133 -3.06282,-20.44127 -12.45528,-45.91923 -21.26562,-57.6836 -1.31118,-1.7508 -2.38282,-3.47885 -2.38282,-3.83984 0,-0.96542 -11.57887,-15.13508 -17.4375,-21.33984 -2.78497,-2.94951 -7.75785,-7.44951 -11.05078,-10 -22.10256,-17.11921 -39.79797,-25.51712 -66.01172,-31.32813 -8.39953,-1.86199 -13.0409,-2.21789 -29,-2.21289 z m 6.09571,42.81836 c 1.91217,-0.001 4.044,0.0748 6.41797,0.20898 l 11.95117,0.67383 0.58593,3.1211 c 0.32197,1.71621 0.71025,8.51226 0.86329,15.10156 0.15304,6.58929 0.64104,14.16817 1.08398,16.84375 l 0.80469,4.86523 -5.15235,-0.70898 c -3.17102,-0.43613 -5.15039,-0.33198 -5.15039,0.26953 0,0.53746 0.9,1.21234 2,1.5 1.53195,0.40061 2,1.36457 2,4.11719 l 0,3.59375 -4.75,0.0156 c -8.96893,0.0289 -9.74426,3.72402 -0.98828,4.71094 l 4.4375,0.5 0.17578,5.38672 0.17578,5.38672 -11.13281,0 c -10.68255,0 -11.21046,-0.10083 -13.09765,-2.5 -1.08158,-1.375 -2.3825,-2.5 -2.89258,-2.5 -0.51008,0 -0.92774,3.825 -0.92774,8.5 0,5.42817 0.39122,8.5 1.08204,8.5 0.59494,0 3.76822,-1.575 7.05273,-3.5 3.28451,-1.925 6.4886,-3.5 7.11914,-3.5 1.88849,0 -0.24919,1.56823 -8.25391,6.05468 -4.125,2.31201 -7.65655,4.33789 -7.84765,4.50391 -0.1911,0.16602 1.12888,2.77179 2.93359,5.78906 l 3.28125,5.48438 5.04883,-4.41602 c 4.71614,-4.12556 5.4283,-4.41601 10.80273,-4.41601 5.63822,0 5.78338,0.0712 7.22657,3.52539 0.81002,1.93865 1.76643,5.08865 2.125,7 l 0.65234,3.47461 -5.36133,0.002 c -4.59932,0.003 -6.21408,0.57628 -11.36133,4.0332 l -6,4.0293 -21,-0.18945 c -11.55,-0.10497 -21.5625,-0.38328 -22.25,-0.61719 -0.6875,-0.23391 -1.25857,-1.17514 -1.26757,-2.0918 -0.009,-0.91667 -1.57593,-5.49101 -3.48243,-10.16601 -1.9065,-4.675 -3.47437,-8.6125 -3.48437,-8.75 -0.009,-0.1375 2.81998,-0.25 6.28711,-0.25 5.89156,0 6.52679,0.2289 9.69726,3.5 1.86578,1.925 3.7213,3.5 4.12305,3.5 1.31185,0 7.13939,-11.13947 6.24609,-11.93946 -0.47821,-0.42826 -4.35664,-3.37192 -8.61914,-6.54101 -4.2625,-3.16909 -7.75,-6.18535 -7.75,-6.70117 0,-1.16493 0.46893,-0.87372 9.32032,5.79101 l 7.17968,5.40625 0.82618,-16.25781 c 0.70932,-13.95257 1.09936,-16.55062 2.75,-18.32227 2.43588,-2.61446 2.46011,-4.43554 0.0586,-4.43554 -2.50622,0 -6.83727,-3.52155 -8.65625,-7.03906 -2.69948,-5.22024 -1.59237,-15.96094 1.64453,-15.96094 2.11698,0 6.87814,5.49256 7.46289,8.60937 0.64621,3.44461 0.71364,3.48546 5.26172,3.18946 l 4.60742,-0.29883 0.0391,-8.5 c 0.0631,-13.81156 2.71633,-17.57888 16.10157,-17.58594 z m 8.69726,17.60352 c -1.37109,-0.022 -3.4126,0.0814 -6.4375,0.27734 -5.02943,0.32584 -9.58432,1.03354 -10.12109,1.57031 -0.6346,0.6346 1.60204,2.17463 6.39453,4.40625 7.78954,3.62719 9.2045,3.51655 10.29102,-0.8125 0.33944,-1.35244 1.05813,-2.45898 1.59765,-2.45898 0.53952,0 0.98242,-0.74203 0.98242,-1.64844 0,-0.90859 -0.42187,-1.29735 -2.70703,-1.33398 z m -36.29297,63.00976 c -0.91627,0.022 -6.82644,10.81223 -6.24218,11.39649 0.87314,0.87315 23.24218,0.68899 23.24218,-0.19141 0,-0.63754 -4.29078,-7.54339 -5.73242,-9.22656 -0.23253,-0.27148 -1.67756,1.04461 -3.21289,2.92578 l -2.79297,3.42187 -2.38086,-4.16992 c -1.30985,-2.29294 -2.60586,-4.16325 -2.88086,-4.15625 z m -40.5,3.47266 3.21289,6.5 c 3.3038,6.68488 6.63169,19.11466 7.83399,29.25 0.3751,3.1625 0.87041,5.75 1.09961,5.75 0.2293,0 2.03331,-0.675 4.00781,-1.5 2.68458,-1.12167 7.63285,-1.5 19.62109,-1.5 l 16.03125,0 6.59766,3.625 c 10.03184,5.51298 16.0957,9.47923 16.0957,10.52929 0,2.61703 -7.2486,3.84736 -23.21875,3.93946 -8.95517,0.0517 -20.33125,0.42328 -25.28125,0.82617 -4.95,0.40288 -9.7875,1.08439 -10.75,1.51367 -2.9464,1.31412 -1.94248,-0.28353 1.19922,-1.9082 1.62273,-0.83912 5.42711,-1.52539 8.45313,-1.52539 l 5.50195,0 -0.33203,-3.75 -0.33203,-3.75 -5.07227,-0.30078 c -3.25085,-0.19266 -6.19955,0.2831 -8.21289,1.32422 -1.7276,0.89334 -3.36562,1.39804 -3.64062,1.12304 -1.242,-1.242 6.10075,-3.64648 11.13476,-3.64648 l 5.55078,0 0,-3.5 c 0,-3.4853 -0.019,-3.5 -4.5332,-3.5 -2.76573,0 -6.37236,0.92091 -9.25,2.36133 -4.2057,2.10514 -6.52747,2.42235 -21.42187,2.92968 l -16.70508,0.56836 -2.23438,-5.67969 c -3.2077,-8.15273 -3.31202,-24.61109 -0.19922,-31.3457 3.141,-6.79591 5.77457,-8.13983 16.16407,-8.24609 l 8.67968,-0.0879 z m 91.77539,0.5 4.61133,0.0195 c 7.30523,0.0318 16.60231,1.64495 20.77539,3.60547 6.00207,2.81977 13.73836,11.23712 17.89453,19.46875 3.77778,7.48218 6.40985,15.52565 6.43164,19.65625 0.0114,2.15271 -0.34583,2.25 -8.24804,2.25 -7.17645,0 -8.42256,-0.26225 -9.50781,-2 -0.94227,-1.50881 -2.33342,-2 -5.66016,-2 -4.69518,0 -7.57227,-0.74298 -7.57227,-1.95508 0,-0.40763 1.9125,-1.57323 4.25,-2.58984 2.3375,-1.01661 4.41806,-1.96664 4.625,-2.11133 0.20693,-0.14469 -1.52943,-5.00746 -3.85937,-10.80469 l -4.23633,-10.53906 -7.19726,0 -7.19922,0 -2.55274,-6.5 -2.55469,-6.5 z m 2.06836,15 17.34375,0 3.15625,8.0625 c 1.73605,4.43517 3.15625,8.48517 3.15625,9 0,0.54355 -6.91534,0.9375 -16.49023,0.9375 l -16.48828,0 -4.01172,-7.97852 c -2.20614,-4.38779 -4.00977,-8.43779 -4.00977,-9 0,-0.65697 6.19698,-1.02148 17.34375,-1.02148 z m -63.41211,11.11914 c 3.15658,0.002 7.31218,0.0466 12.78711,0.11133 l 22.72071,0.26953 3.1289,6.5 c 2.95368,6.13829 3.34666,6.52782 7.08008,7 l 3.95313,0.5 -2.17969,3.21679 -2.17969,3.2168 -11.72656,-6.9668 -11.72852,-6.96679 -15.28711,0 c -16.28586,0 -16.5,-0.0675 -16.5,-5.10156 0,-1.40028 0.46191,-1.78414 9.93164,-1.7793 z m 71.8711,10.88086 c 2.75542,0 3.19014,0.46248 4.69726,5 l 1.66016,5 6.45117,0 c 6.96887,0 8.46257,1.12311 6.46094,4.86328 -0.7857,1.46807 -0.76237,2.72059 0.084,4.57812 0.87569,1.92202 0.88155,3.17954 0.0254,5.0586 l -1.13867,2.5 -15.44531,0 -15.44336,0 -4.32812,4.86914 c -5.95948,6.70569 -19.19963,18.14282 -25.82618,22.30859 -10.06653,6.32831 -22.56306,11.41581 -37.71093,15.35156 -5.22935,1.3587 -10.02114,2.46504 -10.64844,2.45704 -1.7768,-0.022 -8.74519,-6.88957 -13.49219,-13.29688 -5.2919,-7.14284 -11.76736,-20.47417 -10.53906,-21.69727 0.4893,-0.48722 6.17326,-1.20091 12.63086,-1.58593 l 11.74219,-0.69922 2.08007,2.64648 c 1.1449,1.45542 2.93838,2.64649 3.98438,2.64649 1.0925,0 2.54754,1.24854 3.41992,2.93554 0.83521,1.61512 1.89211,3.16843 2.34961,3.45118 0.4575,0.28275 3.9489,-1.08385 7.75781,-3.03711 3.80891,-1.95326 16.21248,-8.2266 27.5625,-13.93946 20.13105,-10.13264 20.65092,-10.4721 21.29297,-13.89453 0.85062,-4.53423 4.19825,-8.30684 8.42383,-9.49414 2.88377,-0.81028 3.42146,-0.68192 3.83984,0.91797 0.52178,1.99528 4.25916,3.14708 7.48047,2.30469 1.99805,-0.5225 1.99901,-0.57248 0.2168,-6.99414 -0.54852,-1.97641 -0.25496,-2.25 2.41211,-2.25 z m 29.00586,36.0625 c 0.5436,-0.002 1.15768,0.005 1.85351,0.0137 3.21027,0.0418 7.41289,0.64016 9.33789,1.33008 3.30055,1.18291 3.56365,1.62013 4.64063,7.67383 0.62814,3.53074 1.1906,9.66661 1.25,13.63476 0.0924,6.1744 -0.17084,7.36409 -1.82617,8.25 -5.13543,2.7484 -22.64829,-0.74131 -40.08594,-7.98633 -6.86314,-2.8515 -13.94102,-5.69802 -15.72852,-6.32617 -3.9883,-1.40153 -4.06335,-2.50022 -0.40625,-6.0039 2.77307,-2.65676 2.99319,-2.6965 8.75,-1.60938 11.18065,2.11135 14.46613,2.23545 17.74805,0.67383 1.73698,-0.8265 4.30754,-2.02838 5.71289,-2.67188 1.40536,-0.6435 3.05469,-2.49107 3.66406,-4.10547 0.92458,-2.44947 1.28463,-2.85806 5.08985,-2.87304 z m -71.85547,53.38086 c -0.98613,0.008 -2.06875,0.0406 -3.20313,0.0996 -4.5375,0.23617 -11.9625,0.43636 -16.5,0.44336 l -8.25,0.0137 0,19.42578 c 0,17.66071 0.15908,19.46901 1.75,19.88476 0.9625,0.25153 2.81081,0.50847 4.10743,0.57227 l 2.35742,0.11719 -0.71875,-17.25 -0.71875,-17.25 9.36133,-0.0117 c 8.06407,-0.01 9.88094,-0.33592 13.11132,-2.34961 2.0625,-1.28568 3.75,-2.71733 3.75,-3.18164 0,-0.34823 -2.08847,-0.53904 -5.04687,-0.51367 z"
       id="path5793"
       inkscape:connector-curvature="0" />
  </g>
</svg>
