<?xml version="1.0" encoding="UTF-8"?>
<!DOCTYPE svg PUBLIC "-//W3C//DTD SVG 1.1//EN" "http://www.w3.org/Graphics/SVG/1.1/DTD/svg11.dtd">
<svg version="1.1" xmlns="http://www.w3.org/2000/svg" xmlns:xlink="http://www.w3.org/1999/xlink" x="0" y="0" width="600.6" height="1267.5" viewBox="0, 0, 462, 975">
  <g id="Layer_1">
    <path d="M179.669,448.54 C163.099,468.508 152.943,484.21 136.032,503.917 C132.757,507.729 154.539,521.829 130.101,544.762 C183.538,524.34 155.833,568.895 173.642,576.317 C201.18,587.792 225.885,555.717 256.423,559.905 C262.292,580.26 284.565,593.54 306.74,593.016 C317.936,592.747 328.545,585.045 339.331,585.426 C353.873,585.973 341.995,603.665 351.77,611.592 C361.745,619.661 393.331,607.878 407.182,609.735 C413.691,610.616 405.334,556.419 403.859,550.946 C401.153,540.866 404.519,530.2 403.886,519.647 C402.903,503.419 395.508,487.837 390.954,471.726 C383.602,445.736 377.339,418.696 366.969,392.808 C359.484,374.13 350.344,357.859 327.786,359.138 C311.663,360.048 303.114,371.343 288.073,375.525 C274.662,379.247 259.838,376.336 246.562,379.205 C208.159,387.502 200.793,423.066 179.669,448.54" fill="#2E486D"/>
    <path d="M179.669,448.54 C163.099,468.508 152.943,484.21 136.032,503.917 C132.757,507.729 154.539,521.829 130.101,544.762 C183.538,524.34 155.833,568.895 173.642,576.317 C201.18,587.792 225.885,555.717 256.423,559.905 C262.292,580.26 284.565,593.54 306.74,593.016 C317.936,592.747 328.545,585.045 339.331,585.426 C353.873,585.973 341.995,603.665 351.77,611.592 C361.745,619.661 393.331,607.878 407.182,609.735 C413.691,610.616 405.334,556.419 403.859,550.946 C401.153,540.866 404.519,530.2 403.886,519.647 C402.903,503.419 395.508,487.837 390.954,471.726 C383.602,445.736 377.339,418.696 366.969,392.808 C359.484,374.13 350.344,357.859 327.786,359.138 C311.663,360.048 303.114,371.343 288.073,375.525 C274.662,379.247 259.838,376.336 246.562,379.205 C208.159,387.502 200.793,423.066 179.669,448.54 z" fill-opacity="0" stroke="#1A1919" stroke-width="2.833" stroke-linecap="round" stroke-linejoin="round"/>
    <g>
      <path d="M438.85,360.993 C464.577,365.313 460.233,396.908 459.305,409.87 C458.618,419.495 451.799,429.608 435.879,434.307 C436,439.108 441.087,441.607 440.832,446.375 C439.84,464.944 421.043,482.581 406.203,485.356 C388.91,488.602 394.332,456.584 392.072,448.35 C383.406,416.673 378.816,388.299 378.816,355.726 C378.816,340.259 375.858,324.26 379.495,308.942 C384.031,289.869 407.78,297.084 418.386,305.919 C434.91,319.639 430.237,342.727 438.85,360.993" fill="#426389"/>
      <path d="M438.85,360.993 C464.577,365.313 460.233,396.908 459.305,409.87 C458.618,419.495 451.799,429.608 435.879,434.307 C436,439.108 441.087,441.607 440.832,446.375 C439.84,464.944 421.043,482.581 406.203,485.356 C388.91,488.602 394.332,456.584 392.072,448.35 C383.406,416.673 378.816,388.299 378.816,355.726 C378.816,340.259 375.858,324.26 379.495,308.942 C384.031,289.869 407.78,297.084 418.386,305.919 C434.91,319.639 430.237,342.727 438.85,360.993 z" fill-opacity="0" stroke="#1A1919" stroke-width="2.833" stroke-linecap="round" stroke-linejoin="round"/>
    </g>
    <path d="M231.036,203.198 L292.395,212.483 C292.395,212.483 354.737,231.969 366.612,248.686 C371.545,255.627 389.366,281.165 388.385,291.377 C387.545,299.952 424.004,345.201 422.027,365.629 C420.045,386.047 404.948,401.055 391.348,398.111 C374.192,394.407 357.704,387.906 355.057,355.421 C352.424,369.03 355.629,443.479 351.104,465.559 C349.887,471.505 318.231,544.655 322.079,546.626 C322.069,546.622 179.581,474.215 179.581,474.215 L231.036,203.198" fill="#FFFFFE"/>
    <path d="M231.036,203.198 L292.395,212.483 C292.395,212.483 354.737,231.969 366.612,248.686 C371.545,255.627 389.366,281.165 388.385,291.377 C387.545,299.952 424.004,345.201 422.027,365.629 C420.045,386.047 404.948,401.055 391.348,398.111 C374.192,394.407 357.704,387.906 355.057,355.421 C352.424,369.03 355.629,443.479 351.104,465.559 C349.887,471.505 318.231,544.655 322.079,546.626 C322.069,546.622 179.581,474.215 179.581,474.215 L231.036,203.198 z" fill-opacity="0" stroke="#1A1919" stroke-width="2.833" stroke-linecap="round" stroke-linejoin="round"/>
    <path d="M285.577,889.647 C285.521,890.446 270.62,974.757 320.768,973.571 C368.899,972.424 350.914,854.116 329.848,847.739 C292.191,836.337 287.752,860.18 285.577,889.647" fill="#29262B"/>
    <g>
      <path d="M285.577,889.647 C285.521,890.446 270.62,974.757 320.768,973.571 C368.899,972.424 350.914,854.116 329.848,847.739 C292.191,836.337 287.752,860.18 285.577,889.647 z" fill-opacity="0" stroke="#1A1919" stroke-width="2.833" stroke-linecap="round" stroke-linejoin="round"/>
      <path d="M351.104,929.518 C352.558,913.618 349.437,881.465 342.913,858.881 C336.153,835.534 306.733,819.016 289.584,835.962 C284.762,840.741 287.229,854.731 286.307,861.821 C282.674,889.647 284.411,916.848 285.141,928.327 C287.77,970.001 346.147,983.981 351.104,929.518" fill="#956954"/>
      <path d="M351.104,929.518 C352.558,913.618 349.437,881.465 342.913,858.881 C336.153,835.534 306.733,819.016 289.584,835.962 C284.762,840.741 287.229,854.731 286.307,861.821 C282.674,889.647 284.411,916.848 285.141,928.327 C287.77,970.001 346.147,983.981 351.104,929.518 z M319.436,872.713 C328.675,862.807 359.032,881.376 355.075,888.801 C346.622,904.643 324.614,872.565 320.768,868.999 C315.817,873.733 309.492,899.217 297.012,893.755 C277.219,885.089 310.731,867.413 319.436,872.713 z M322.322,872.102 C320.543,877.366 340.075,905.963 343.2,909.84 M319.658,870.764 C320.768,881.376 311.308,899.477 306.245,907.669" fill-opacity="0" stroke="#1A1919" stroke-width="2.833" stroke-linecap="round" stroke-linejoin="round"/>
    </g>
    <path d="M238.311,701.93 C238.374,702.596 252.27,777.049 212.235,770.335 C199,768.126 189.885,757.883 187.305,739.155 C183.397,710.837 191.761,670.434 201.971,667.087 C232.344,657.106 236.216,677.147 238.311,701.93" fill="#29262B"/>
    <path d="M238.311,701.93 C238.374,702.596 252.27,777.049 212.235,770.335 C199,768.126 189.885,757.883 187.305,739.155 C183.397,710.837 191.761,670.434 201.971,667.087 C232.344,657.106 236.216,677.147 238.311,701.93 z" fill-opacity="0" stroke="#1A1919" stroke-width="2.833" stroke-linecap="round" stroke-linejoin="round"/>
    <path d="M188.866,740.29 C183.524,727.829 186.49,695.657 191.529,676.575 C196.724,656.876 220.367,642.676 234.448,656.778 C238.413,660.753 236.293,672.592 237.4,678.501 C243.118,709.087 243.407,721.673 243.118,731.358 C241.923,770.335 205.112,778.139 188.866,740.29" fill="#956954"/>
    <path d="M188.866,740.29 C183.524,727.829 186.49,695.657 191.529,676.575 C196.724,656.876 220.367,642.676 234.448,656.778 C238.413,660.753 236.293,672.592 237.4,678.501 C243.118,709.087 243.407,721.673 243.118,731.358 C241.923,770.335 205.112,778.139 188.866,740.29 z M212.531,687.923 C208.855,684.567 184.037,700.442 190.272,704.622 C199.211,710.62 212.13,694.303 215.202,691.257 C219.264,695.186 230.498,711.438 234.797,707.962 C246.871,698.221 223.277,680.936 212.531,687.923 z M209.311,692.516 C210.815,696.924 204.004,713.477 198.958,719.005 M211.455,691.36 C219.172,699.547 224.162,712.629 228.354,719.475" fill-opacity="0" stroke="#1A1919" stroke-width="2.833" stroke-linecap="round" stroke-linejoin="round"/>
    <path d="M289.39,166 C289.39,153.422 286.75,163.277 273.15,158.104 C263.191,154.321 246.5,152.334 248.902,163.048 C250.287,169.279 243.286,211.618 241.923,211.555 C252.424,247.471 289.112,219.883 294.373,208.772 C292.409,200.907 289.366,176.285 289.39,166" fill="#FADAC2"/>
    <path d="M289.39,166 C289.39,153.422 286.75,163.277 273.15,158.104 C263.191,154.321 246.5,152.334 248.902,163.048 C250.287,169.279 243.286,211.618 241.923,211.555 C252.424,247.471 289.112,219.883 294.373,208.772 C292.409,200.907 289.366,176.285 289.39,166 z" fill-opacity="0" stroke="#1A1919" stroke-width="2.833" stroke-linecap="round" stroke-linejoin="round"/>
    <path d="M353.745,355.421 C354.146,342.839 351.447,306.534 364.313,287.349" fill="#FFFFFE"/>
    <path d="M353.745,355.421 C354.146,342.839 351.447,306.534 364.313,287.349" fill-opacity="0" stroke="#1A1919" stroke-width="2.833" stroke-linecap="round" stroke-linejoin="round"/>
    <path d="M385.121,405.473 C391.129,428.083 395.446,450.058 402.877,472.717 C409.129,491.694 413.919,509.878 417.016,529.846 C418.569,539.903 424.993,637.583 407.182,624.579 C383.426,596.737 397.294,560.551 399.269,544.762 C401.321,528.376 391.819,517.454 385.409,502.073 C381.811,493.413 388.582,470.293 385.715,460.546 C380.432,442.742 368.155,431.004 363.641,412.965 C360.444,400.177 352.446,381.72 353.745,352.629 C359.685,373.986 380.376,387.582 385.121,405.473" fill="#426389"/>
    <path d="M385.121,405.473 C391.129,428.083 395.446,450.058 402.877,472.717 C409.129,491.694 413.919,509.878 417.016,529.846 C418.569,539.903 424.993,637.583 407.182,624.579 C383.426,596.737 397.294,560.551 399.269,544.762 C401.321,528.376 391.819,517.454 385.409,502.073 C381.811,493.413 388.582,470.293 385.715,460.546 C380.432,442.742 368.155,431.004 363.641,412.965 C360.444,400.177 352.446,381.72 353.745,352.629 C359.685,373.986 380.376,387.582 385.121,405.473 z M422.027,365.629 C430.932,385.115 424.993,407.396 409.165,420.391" fill-opacity="0" stroke="#1A1919" stroke-width="2.833" stroke-linecap="round" stroke-linejoin="round"/>
    <path d="M269.303,536.092 C254.637,573.415 259.536,603.823 257.435,625.2 C254.834,651.528 254.793,699.456 225.758,703.159 C217.331,704.249 209.789,705.815 199.374,701.93 C181.767,695.366 174.454,682.876 172.975,668.524 C171.086,650.09 170.269,632.229 167.703,602.923 C165.292,575.397 170.342,545.997 165.763,513.28 C163.957,500.362 164.955,457.944 178.583,443.602 C197.394,437.097 231.036,442.667 272.603,444.52 C294.152,445.483 341.881,442.355 357.704,443.287 C355.995,451.07 359.431,460.208 362.049,467.911 C369.587,476.702 374.321,493.544 375.512,503.917 C384.102,578.173 377.045,633.967 367.602,721.112 C360.577,785.93 344.958,840.755 345.832,860.344 C344.833,881.68 284.368,879.489 282.499,864.047 C282.259,862.059 280.888,720.893 280.513,714.624 C278.198,675.003 286.307,590.739 269.303,536.092" fill="#426389"/>
    <path d="M269.303,536.092 C254.637,573.415 259.536,603.823 257.435,625.2 C254.834,651.528 254.793,699.456 225.758,703.159 C217.331,704.249 209.789,705.815 199.374,701.93 C181.767,695.366 174.454,682.876 172.975,668.524 C171.086,650.09 170.269,632.229 167.703,602.923 C165.292,575.397 170.342,545.997 165.763,513.28 C163.957,500.362 164.955,457.944 178.583,443.602 C197.394,437.097 231.036,442.667 272.603,444.52 C294.152,445.483 341.881,442.355 357.704,443.287 C355.995,451.07 359.431,460.208 362.049,467.911 C369.587,476.702 374.321,493.544 375.512,503.917 C384.102,578.173 377.045,633.967 367.602,721.112 C360.577,785.93 344.958,840.755 345.832,860.344 C344.833,881.68 284.368,879.489 282.499,864.047 C282.259,862.059 280.888,720.893 280.513,714.624 C278.198,675.003 286.307,590.739 269.303,536.092 z M217.844,533.629 C217.844,552.09 210.373,638.874 219.162,662.329 M336.596,541.042 C346.605,576.354 329.356,688.526 330.053,709.458 M332.141,740.825 C325.358,761.413 310.633,845.633 321.084,860.344 M296.352,711.829 C306.245,724.827 339.895,726.676 353.745,709.977 M292.436,734.942 C308.219,741.542 341.881,735.03 354.737,719.255 M437.862,433.383 C429.576,433.383 416.088,441.743 420.045,454.735" fill-opacity="0" stroke="#1A1919" stroke-width="2.833" stroke-linecap="round" stroke-linejoin="round"/>
    <path d="M438.85,360.059 C443.797,382.332 446.958,388.235 440.832,403.68" fill="#3B6CA6"/>
    <path d="M438.85,360.059 C443.797,382.332 446.958,388.235 440.832,403.68" fill-opacity="0" stroke="#1A1919" stroke-width="2.833" stroke-linecap="round" stroke-linejoin="round"/>
    <path d="M251.373,221.865 L266.663,248.985 L281.184,246.514 L285.76,223.882 L270.62,219.089 L251.373,221.865" fill="#4A6E99"/>
    <path d="M251.373,221.865 L266.663,248.985 L281.184,246.514 L285.76,223.882 L270.62,219.089 L251.373,221.865 z M270.62,248.985 C261.393,292.705 270.62,411.107 270.62,443.287" fill-opacity="0" stroke="#1A1919" stroke-width="2.833" stroke-linecap="round" stroke-linejoin="round"/>
    <path d="M244.889,196.703 C245.136,207.641 256.304,215.385 269.959,219.549 C262.229,220.941 243.579,240.652 242.915,247.755 C227.083,227.334 223.115,208.772 223.115,208.772 C223.115,208.772 238.964,203.198 244.889,196.703" fill="#FFFFFE"/>
    <path d="M244.889,196.703 C245.136,207.641 256.304,215.385 269.959,219.549 C262.229,220.941 243.579,240.652 242.915,247.755 C227.083,227.334 223.115,208.772 223.115,208.772 C223.115,208.772 238.964,203.198 244.889,196.703 z" fill-opacity="0" stroke="#1A1919" stroke-width="2.833" stroke-linecap="round" stroke-linejoin="round"/>
    <path d="M293.376,200.415 C291.395,206.607 286.934,212.75 271.116,219.549 C279.68,222.642 298.327,244.033 298.327,244.033 L307.561,216.82 C307.561,216.82 297.321,205.355 293.376,200.415" fill="#FFFFFE"/>
    <path d="M293.376,200.415 C291.395,206.607 286.934,212.75 271.116,219.549 C279.68,222.642 298.327,244.033 298.327,244.033 L307.561,216.82 C307.561,216.82 297.321,205.355 293.376,200.415 z" fill-opacity="0" stroke="#1A1919" stroke-width="2.833" stroke-linecap="round" stroke-linejoin="round"/>
    <path d="M274.578,258.888 L316.144,383.26 L347.143,401.211 L347.807,367.488 L274.578,247.755 L274.578,258.888" fill="#4A6E99"/>
    <path d="M274.578,258.888 L316.144,383.26 L347.143,401.211 L347.807,367.488 L274.578,247.755 L274.578,258.888 z M410.163,403.68 C399.269,411.107 384.424,403.68 383.426,396.255" fill-opacity="0" stroke="#1A1919" stroke-width="2.833" stroke-linecap="round" stroke-linejoin="round"/>
    <path d="M112.564,145.776 C120.314,152.165 132.469,137.981 137.228,133.111 C129.693,129.807 100.409,135.753 112.564,145.776" fill="#FFFFFE"/>
    <path d="M112.564,145.776 C120.314,152.165 132.469,137.981 137.228,133.111 C129.693,129.807 100.409,135.753 112.564,145.776 z" fill-opacity="0" stroke="#1A1919" stroke-width="2.833" stroke-linecap="round" stroke-linejoin="round"/>
    <path d="M121.941,105.58 C125.177,110.831 137.859,106.631 151.025,102.432 C140.539,93.884 113.127,91.224 121.941,105.58" fill="#FFFFFE"/>
    <path d="M121.941,105.58 C125.177,110.831 137.859,106.631 151.025,102.432 C140.539,93.884 113.127,91.224 121.941,105.58 z" fill-opacity="0" stroke="#1A1919" stroke-width="2.833" stroke-linecap="round" stroke-linejoin="round"/>
    <path d="M399.079,125.653 C402.277,115.715 377.052,115.09 368.773,119.24 C377.339,122.354 395.811,135.845 399.079,125.653" fill="#FFFFFE"/>
    <path d="M399.079,125.653 C402.277,115.715 377.052,115.09 368.773,119.24 C377.339,122.354 395.811,135.845 399.079,125.653 z" fill-opacity="0" stroke="#1A1919" stroke-width="2.833" stroke-linecap="round" stroke-linejoin="round"/>
    <path d="M400.256,168.865 C394.258,181.09 377.067,148.355 375.512,148.436 C385.893,147.838 405.444,158.307 400.256,168.865" fill="#FFFFFE"/>
    <path d="M400.256,168.865 C394.258,181.09 377.067,148.355 375.512,148.436 C385.893,147.838 405.444,158.307 400.256,168.865 z" fill-opacity="0" stroke="#1A1919" stroke-width="2.833" stroke-linecap="round" stroke-linejoin="round"/>
    <path d="M388.385,293.229 C387.391,303.438 386.407,313.65 389.366,322" fill="#FFFFFE"/>
    <path d="M388.385,293.229 C387.391,303.438 386.407,313.65 389.366,322 M283.155,369.639 C283.155,373.055 280.792,375.831 277.867,375.831 C274.958,375.831 272.588,373.055 272.588,369.639 C272.588,366.223 274.958,363.457 277.867,363.457 C280.792,363.457 283.155,366.223 283.155,369.639 z M281.163,318.907 C281.163,322.327 278.795,325.093 275.891,325.093 C272.971,325.093 270.607,322.327 270.607,318.907 C270.607,315.487 272.971,312.715 275.891,312.715 C278.795,312.715 281.163,315.487 281.163,318.907 z M284.481,420.391 C284.481,423.81 282.112,426.58 279.196,426.58 C276.278,426.58 273.91,423.81 273.91,420.391 C273.91,416.978 276.278,414.206 279.196,414.206 C282.112,414.206 284.481,416.978 284.481,420.391 z" fill-opacity="0" stroke="#1A1919" stroke-width="2.833" stroke-linecap="round" stroke-linejoin="round"/>
    <path d="M265.349,246.514 L295.364,404.612 L322.079,429.669 L332.963,394.407 L279.848,245.277 L265.349,246.514" fill="#4A6E99"/>
    <path d="M265.349,246.514 L295.364,404.612 L322.079,429.669 L332.963,394.407 L279.848,245.277 L265.349,246.514 z M268.432,444.889 C268.432,464.691 266.241,524.717 269.303,538.579" fill-opacity="0" stroke="#1A1919" stroke-width="2.833" stroke-linecap="round" stroke-linejoin="round"/>
    <path d="M178.583,448.231 C193.103,449.471 342.682,455.889 359.682,447.389 C358.705,458.53 361.932,461.328 361.932,466.389 C340.84,467.623 173.642,471.126 173.642,464.944 C173.642,458.753 175.951,458.126 178.583,448.231" fill="#956954"/>
    <path d="M178.583,448.231 C193.103,449.471 342.682,455.889 359.682,447.389 C358.705,458.53 361.932,461.328 361.932,466.389 C340.84,467.623 173.642,471.126 173.642,464.944 C173.642,458.753 175.951,458.126 178.583,448.231 z" fill-opacity="0" stroke="#1A1919" stroke-width="2.833" stroke-linecap="round" stroke-linejoin="round"/>
    <path d="M178.583,448.231 C193.103,449.471 320.682,452.139 335.432,450.639 C347.682,452.139 341.682,469.389 336.682,470.139 C315.59,471.373 173.642,471.126 173.642,464.944 C173.642,458.753 175.951,458.126 178.583,448.231" fill="#956954"/>
    <path d="M178.583,448.231 C193.103,449.471 320.682,452.139 335.432,450.639 C347.682,452.139 341.682,469.389 336.682,470.139 C315.59,471.373 173.642,471.126 173.642,464.944 C173.642,458.753 175.951,458.126 178.583,448.231 z" fill-opacity="0" stroke="#1A1919" stroke-width="2.833" stroke-linecap="round" stroke-linejoin="round"/>
    <path d="M254.432,449.306 C250.727,451.322 250.099,467.306 253.432,470.972 C255.695,473.461 266.432,474.555 270.432,471.889 C268.182,469.389 260.099,470.972 258.432,468.139 C256.693,465.182 255.533,456.362 257.682,453.139 C259.182,450.889 266.432,451.389 269.682,451.139 C269.182,446.889 258.137,447.289 254.432,449.306" fill="#BBBCBA"/>
    <path d="M254.432,449.306 C250.727,451.322 250.099,467.306 253.432,470.972 C255.695,473.461 266.432,474.555 270.432,471.889 C268.182,469.389 260.099,470.972 258.432,468.139 C256.693,465.182 255.533,456.362 257.682,453.139 C259.182,450.889 266.432,451.389 269.682,451.139 C269.182,446.889 258.137,447.289 254.432,449.306 z" fill-opacity="0" stroke="#1A1919" stroke-width="2.833" stroke-linecap="round" stroke-linejoin="round"/>
    <path d="M313.932,474.889 L311.192,443.602 L322.079,442.667 L325.048,474.215 L313.932,474.889" fill="#426389"/>
    <path d="M313.932,474.889 L311.192,443.602 L322.079,442.667 L325.048,474.215 L313.932,474.889 z" fill-opacity="0" stroke="#1A1919" stroke-width="2.833" stroke-linecap="round" stroke-linejoin="round"/>
    <path d="M220.615,442.493 L219.631,475.903 L229.932,475.139 L231.432,442.139 L220.615,442.493" fill="#426389"/>
    <path d="M220.615,442.493 L219.631,475.903 L229.932,475.139 L231.432,442.139 L220.615,442.493 z" fill-opacity="0" stroke="#1A1919" stroke-width="2.833" stroke-linecap="round" stroke-linejoin="round"/>
    <path d="M240.932,195.779 C230.045,190.202 199.374,173.499 177.605,192.058 C170.381,198.222 141.979,271.888 157.806,305.293 C163.743,359.131 150.877,400.905 155.833,420.391 C149.689,447.257 135.049,476.079 125.476,506.397 C110.302,542.899 118.227,555.899 126.137,565.184 C141.979,565.184 144.249,550.801 147.911,533.629 C149.894,524.34 150.202,523.006 165.06,505.167 C170.416,498.745 183.173,491.874 189.473,485.356 C199.374,475.153 208.897,453.123 211.248,431.528 C212.13,423.399 206.992,408.235 208.602,399.973 C214.709,368.711 213.227,347.063 213.227,347.063 C203.983,276.519 212.566,266.314 240.932,195.779" fill="#426389"/>
    <path d="M240.932,195.779 C230.045,190.202 199.374,173.499 177.605,192.058 C170.381,198.222 141.979,271.888 157.806,305.293 C163.743,359.131 150.877,400.905 155.833,420.391 C149.689,447.257 135.049,476.079 125.476,506.397 C110.302,542.899 118.227,555.899 126.137,565.184 C141.979,565.184 144.249,550.801 147.911,533.629 C149.894,524.34 150.202,523.006 165.06,505.167 C170.416,498.745 183.173,491.874 189.473,485.356 C199.374,475.153 208.897,453.123 211.248,431.528 C212.13,423.399 206.992,408.235 208.602,399.973 C214.709,368.711 213.227,347.063 213.227,347.063 C203.983,276.519 212.566,266.314 240.932,195.779 z M171.667,447.3 C164.737,442.667 160.429,435.516 156.823,423.171" fill-opacity="0" stroke="#1A1919" stroke-width="2.833" stroke-linecap="round" stroke-linejoin="round"/>
    <path d="M143.954,451.956 C158.201,457.519 159.782,457.519 169.685,463.089 C167.204,470.504 165.057,471.136 163.743,479.79 C153.189,477.944 152.444,478.116 137.031,471.439 C138.212,464.755 142.731,457.114 143.954,451.956" fill="#426389"/>
    <path d="M143.954,451.956 C158.201,457.519 159.782,457.519 169.685,463.089 C167.204,470.504 165.057,471.136 163.743,479.79 C153.189,477.944 152.444,478.116 137.031,471.439 C138.212,464.755 142.731,457.114 143.954,451.956 z M209.269,392.548 C208.271,407.058 195.023,414.782 182.541,414.824" fill-opacity="0" stroke="#1A1919" stroke-width="2.833" stroke-linecap="round" stroke-linejoin="round"/>
    <path d="M169.685,500.215 C155.833,503.917 146.924,507.635 136.032,519.702" fill="#3B6CA6"/>
    <path d="M169.685,500.215 C155.833,503.917 146.924,507.635 136.032,519.702" fill-opacity="0" stroke="#1A1919" stroke-width="2.833" stroke-linecap="round" stroke-linejoin="round"/>
    <path d="M215.798,247.703 L217.517,249.473 C217.517,249.473 201.369,218.127 195.409,214.342 C204.708,209.425 230.389,193.618 237.962,189.275 C241.691,190.157 240.932,190.202 249.841,194.856 C240.328,195.178 226.088,246.472 226.088,246.472 L215.798,247.703" fill="#426389"/>
    <path d="M215.798,247.703 L217.517,249.473 C217.517,249.473 201.369,218.127 195.409,214.342 C204.708,209.425 230.389,193.618 237.962,189.275 C241.691,190.157 240.932,190.202 249.841,194.856 C240.328,195.178 226.088,246.472 226.088,246.472 L215.798,247.703 z" fill-opacity="0" stroke="#1A1919" stroke-width="2.833" stroke-linecap="round" stroke-linejoin="round"/>
    <path d="M232.449,223.767 C225.646,239.197 221.14,336.858 213.227,362.842 C212.235,347.988 198.375,257.964 188.486,244.033 C206.851,233.111 218.723,228.806 232.449,223.767" fill="#426389"/>
    <path d="M232.449,223.767 C225.646,239.197 221.14,336.858 213.227,362.842 C212.235,347.988 198.375,257.964 188.486,244.033 C206.851,233.111 218.723,228.806 232.449,223.767 z" fill-opacity="0" stroke="#1A1919" stroke-width="2.833" stroke-linecap="round" stroke-linejoin="round"/>
    <path d="M73.694,341.497 C81.934,336.236 89.195,334.995 90.516,330.047 C91.858,324.987 85.541,314.89 81.934,309.629 C75.216,299.815 81.225,282.033 69.761,273.946 C62.089,268.552 46.378,265.529 37.009,268.871 C26.655,272.551 15.853,291.602 11.847,308.543 C7.827,325.486 10.933,336.78 16.619,337.476 C25.525,339.325 23.219,323.862 23.247,314.676 C24.216,327.573 21.911,346.129 34.437,344.276 C41.697,342.424 39.553,333.14 37.574,315.042 C39.553,331.748 38.397,346.757 46.975,346.129 C56.207,346.129 56.864,341.805 56.864,336.391 C56.864,333.126 55.381,320.615 53.905,311.795 C56.372,328.037 55.381,348.455 65.277,347.063 C75.11,345.682 77.65,328.502 72.706,311.795 C76.66,319.217 74.681,336.391 73.694,341.497" fill="#FADAC2"/>
    <path d="M73.694,341.497 C81.934,336.236 89.195,334.995 90.516,330.047 C91.858,324.987 85.541,314.89 81.934,309.629 C75.216,299.815 81.225,282.033 69.761,273.946 C62.089,268.552 46.378,265.529 37.009,268.871 C26.655,272.551 15.853,291.602 11.847,308.543 C7.827,325.486 10.933,336.78 16.619,337.476 C25.525,339.325 23.219,323.862 23.247,314.676 C24.216,327.573 21.911,346.129 34.437,344.276 C41.697,342.424 39.553,333.14 37.574,315.042 C39.553,331.748 38.397,346.757 46.975,346.129 C56.207,346.129 56.864,341.805 56.864,336.391 C56.864,333.126 55.381,320.615 53.905,311.795 C56.372,328.037 55.381,348.455 65.277,347.063 C75.11,345.682 77.65,328.502 72.706,311.795 C76.66,319.217 74.681,336.391 73.694,341.497 z" fill-opacity="0" stroke="#1A1919" stroke-width="2.833" stroke-linecap="round" stroke-linejoin="round"/>
    <path d="M153.85,291.377 C155.833,267.238 163.743,203.198 193.428,184.636 C177.605,181.853 161.764,182.784 153.85,188.351 C131.502,184.608 101.285,179.414 84.574,180.925 C65.031,182.7 48.472,201.389 39.061,218.046 C28.501,236.731 3.448,274.67 1.417,295.665 C13.832,306.804 66.395,316.067 91.501,317.368 C84.574,293.229 82.757,283.445 88.541,264.455 C92.452,251.589 111.279,254.112 122.184,258.888 C129.117,270.025 148.902,283.02 153.85,291.377" fill="#426389"/>
    <path d="M153.85,291.377 C155.833,267.238 163.743,203.198 193.428,184.636 C177.605,181.853 161.764,182.784 153.85,188.351 C131.502,184.608 101.285,179.414 84.574,180.925 C65.031,182.7 48.472,201.389 39.061,218.046 C28.501,236.731 3.448,274.67 1.417,295.665 C13.832,306.804 66.395,316.067 91.501,317.368 C84.574,293.229 82.757,283.445 88.541,264.455 C92.452,251.589 111.279,254.112 122.184,258.888 C129.117,270.025 148.902,283.02 153.85,291.377" fill="#426389"/>
    <path d="M153.85,291.377 C155.833,267.238 163.743,203.198 193.428,184.636 C177.605,181.853 161.764,182.784 153.85,188.351 C131.502,184.608 101.285,179.414 84.574,180.925 C65.031,182.7 48.472,201.389 39.061,218.046 C28.501,236.731 3.448,274.67 1.417,295.665 C13.832,306.804 66.395,316.067 91.501,317.368 C84.574,293.229 82.757,283.445 88.541,264.455 C92.452,251.589 111.279,254.112 122.184,258.888 C129.117,270.025 148.902,283.02 153.85,291.377 z M153.85,291.377 C155.833,267.238 163.743,203.198 193.428,184.636 C177.605,181.853 161.764,182.784 153.85,188.351 C131.502,184.608 101.285,179.414 84.574,180.925 C65.031,182.7 48.472,201.389 39.061,218.046 C28.501,236.731 3.448,274.67 1.417,295.665 C13.832,306.804 66.395,316.067 91.501,317.368 C84.574,293.229 82.757,283.445 88.541,264.455 C92.452,251.589 111.279,254.112 122.184,258.888 C129.117,270.025 148.902,283.02 153.85,291.377 z M92.491,257.964 C96.456,247.755 98.43,232.904 88.541,223.623 M89.525,261.675 C92.491,249.61 86.559,238.47 76.66,234.756" fill-opacity="0" stroke="#1A1919" stroke-width="2.833" stroke-linecap="round" stroke-linejoin="round"/>
    <path d="M125.146,261.675 C119.214,257.964 114.891,239.12 115.253,233.831" fill="#3B6CA6"/>
    <path d="M125.146,261.675 C119.214,257.964 114.891,239.12 115.253,233.831 M87.874,304.063 C86.559,297.253 73.585,286.035 67.424,282.402" fill-opacity="0" stroke="#1A1919" stroke-width="2.833" stroke-linecap="round" stroke-linejoin="round"/>
    <path d="M151.871,188.351 C143.876,192.771 133.531,205.033 132.076,214.342" fill="#3B6CA6"/>
    <path d="M151.871,188.351 C143.876,192.771 133.531,205.033 132.076,214.342 M155.833,186.495 C140.988,187.42 130.129,191.348 124.162,204.126" fill-opacity="0" stroke="#1A1919" stroke-width="2.833" stroke-linecap="round" stroke-linejoin="round"/>
    <path d="M333.28,106.206 C334.983,78.549 326.971,53.344 305.749,39.47 C277.199,20.768 242.774,7.589 215.624,36.554 C200.652,52.53 196.601,113.715 196.115,113.476 C188.556,109.755 182.427,119.268 184.564,127.337 C186.904,136.147 199.215,147.835 207.399,148.629 C216.719,177.695 244.552,205.068 269.032,202.27 C289.352,199.958 315.792,175.38 324.303,141.503 C331.852,142.891 342.944,134.06 345.096,125.232 C346.844,118.126 346.52,106.206 333.28,106.206" fill="#FADAC2"/>
    <path d="M333.28,106.206 C334.983,78.549 326.971,53.344 305.749,39.47 C277.199,20.768 242.774,7.589 215.624,36.554 C200.652,52.53 196.601,113.715 196.115,113.476 C188.556,109.755 182.427,119.268 184.564,127.337 C186.904,136.147 199.215,147.835 207.399,148.629 C216.719,177.695 244.552,205.068 269.032,202.27 C289.352,199.958 315.792,175.38 324.303,141.503 C331.852,142.891 342.944,134.06 345.096,125.232 C346.844,118.126 346.52,106.206 333.28,106.206" fill="#FADAC2"/>
    <path d="M333.28,106.206 C334.983,78.549 326.971,53.344 305.749,39.47 C277.199,20.768 242.774,7.589 215.624,36.554 C200.652,52.53 196.601,113.715 196.115,113.476 C188.556,109.755 182.427,119.268 184.564,127.337 C186.904,136.147 199.215,147.835 207.399,148.629 C216.719,177.695 244.552,205.068 269.032,202.27 C289.352,199.958 315.792,175.38 324.303,141.503 C331.852,142.891 342.944,134.06 345.096,125.232 C346.844,118.126 346.52,106.206 333.28,106.206 z M333.28,106.206 C334.983,78.549 326.971,53.344 305.749,39.47 C277.199,20.768 242.774,7.589 215.624,36.554 C200.652,52.53 196.601,113.715 196.115,113.476 C188.556,109.755 182.427,119.268 184.564,127.337 C186.904,136.147 199.215,147.835 207.399,148.629 C216.719,177.695 244.552,205.068 269.032,202.27 C289.352,199.958 315.792,175.38 324.303,141.503 C331.852,142.891 342.944,134.06 345.096,125.232 C346.844,118.126 346.52,106.206 333.28,106.206 z" fill-opacity="0" stroke="#1A1919" stroke-width="2.769" stroke-linecap="round" stroke-linejoin="round"/>
    <g>
      <path d="M203.351,133.588 C194.081,117.732 185.492,99.17 184.593,79.719 C183.883,64.263 194.851,21.28 238.318,18.498 C229.504,14.474 231.395,16.329 218.167,15.092 C227.248,12.523 259.115,4.574 278.639,10.136 C275.976,7.076 276.586,3.909 272.971,2.097 C284.315,2.718 289.352,8.286 293.126,12.924 C298.165,10.759 305.72,8.903 319.581,11.381 C312.024,11.993 313.919,13.858 306.353,15.714 C318.907,16.526 338.495,21.896 346.042,31.177 C339.678,31.669 335.169,25.347 329.672,28.71 C370.305,48.193 341.313,112.092 328.092,130.34 C330.165,117.114 333.034,98.193 329.672,85.007 C328.04,78.682 314.555,69.548 305.72,52.219 C303.204,57.168 307.428,69.158 312.665,77.586 C304.708,74.025 293.554,65.213 290.286,53.766 C271.696,55.657 250.28,72.996 236.771,84.248 C237.773,76.506 241.495,70.107 247.146,64.305 C233.598,66.765 223.319,72.019 215.603,82.847 C214.956,78.695 221.681,66.351 222.261,62.116 C201.468,71.401 199.745,118.66 203.351,133.588" fill="#6C5334"/>
      <path d="M203.351,133.588 C194.081,117.732 185.492,99.17 184.593,79.719 C183.883,64.263 194.851,21.28 238.318,18.498 C229.504,14.474 231.395,16.329 218.167,15.092 C227.248,12.523 259.115,4.574 278.639,10.136 C275.976,7.076 276.586,3.909 272.971,2.097 C284.315,2.718 289.352,8.286 293.126,12.924 C298.165,10.759 305.72,8.903 319.581,11.381 C312.024,11.993 313.919,13.858 306.353,15.714 C318.907,16.526 338.495,21.896 346.042,31.177 C339.678,31.669 335.169,25.347 329.672,28.71 C370.305,48.193 341.313,112.092 328.092,130.34 C330.165,117.114 333.034,98.193 329.672,85.007 C328.04,78.682 314.555,69.548 305.72,52.219 C303.204,57.168 307.428,69.158 312.665,77.586 C304.708,74.025 293.554,65.213 290.286,53.766 C271.696,55.657 250.28,72.996 236.771,84.248 C237.773,76.506 241.495,70.107 247.146,64.305 C233.598,66.765 223.319,72.019 215.603,82.847 C214.956,78.695 221.681,66.351 222.261,62.116 C201.468,71.401 199.745,118.66 203.351,133.588 z M219.503,97.42 C219.503,97.42 218.118,84.72 226.988,86.878 C235.854,89.035 247.771,101.722 247.771,101.722 M270.761,102.027 C270.761,102.027 289.274,86.065 295.965,86.255 C302.649,86.444 305.412,94.608 305.412,94.608 M258.432,125.139 C261.749,130.78 264.432,139.139 261.005,141.945 C257.432,141.639 252.733,139.204 252.554,147.333 C252.375,155.461 261.943,159.579 261.943,159.579" fill-opacity="0" stroke="#1A1919" stroke-width="2.769" stroke-linecap="round" stroke-linejoin="round"/>
    </g>
    <path d="M237.706,116.242 C243.276,116.242 243.895,124.662 238.328,124.662 C231.416,124.662 233.946,116.242 237.706,116.242" fill="#1A1919"/>
    <path d="M285.338,116.242 C290.897,115.595 291.52,124.662 285.338,124.662 C281.626,124.662 279.87,116.875 285.338,116.242" fill="#1A1919"/>
    <path d="M269.303,536.092 C277.219,516.301 301.218,494.032 324.719,491.547 M267.978,534.872 C283.813,522.487 298.327,505.167 316.807,506.397 M265.349,533.629 C252.161,534.93 226.91,524.962 221.808,513.821 M266.663,533.629 C249.514,526.198 234.448,515.262 227.083,501.456 M310.872,891.901 C318.119,894.368 325.048,893.755 333.951,890.047 M308.89,900.567 C317.127,903.032 328.078,902.969 335.929,900.247 M309.213,910.456 C321.084,914.155 327.028,913.237 334.938,909.528 M203.33,710.909 C209.325,714.739 218.8,714.87 224.109,710.909 M204.317,720.182 C212.039,722.835 217.75,722.249 225.104,719.255" fill-opacity="0" stroke="#1A1919" stroke-width="2.833" stroke-linecap="round" stroke-linejoin="round"/>
    <path d="M269.803,230.974 C266.828,224.035 249.942,195.454 248.722,190.976 C246.922,184.376 244.522,175.976 253.522,174.776 C262.522,173.576 298.61,159.934 303.922,159.175 C312.321,157.976 315.922,166.976 319.522,173.576 C326.094,185.626 333.725,197.788 335.721,204.776 C337.346,210.458 334.522,217.976 328.522,220.976 C323.155,223.659 302.721,226.976 294.321,230.576 C289.876,232.481 269.803,230.974 269.803,230.974" fill="#FCEBD3"/>
    <path d="M269.803,230.974 C266.828,224.035 249.942,195.454 248.722,190.976 C246.922,184.376 244.522,175.976 253.522,174.776 C262.522,173.576 298.61,159.934 303.922,159.175 C312.321,157.976 315.922,166.976 319.522,173.576 C326.094,185.626 333.725,197.788 335.721,204.776 C337.346,210.458 334.522,217.976 328.522,220.976 C323.155,223.659 302.721,226.976 294.321,230.576 C289.876,232.481 269.803,230.974 269.803,230.974 z" fill-opacity="0" stroke="#1A1919" stroke-width="2.769" stroke-linecap="round" stroke-linejoin="round"/>
    <path d="M267.922,226.376 C269.722,232.976 271.522,234.175 273.922,237.175 C276.321,240.175 287.721,238.376 291.922,237.175 C296.122,235.976 333.321,223.376 337.522,219.776 C341.721,216.175 338.122,209.576 335.122,201.776 C325.522,212.576 279.321,226.976 267.922,226.376" fill="#C99062"/>
    <path d="M267.922,226.376 C269.722,232.976 271.522,234.175 273.922,237.175 C276.321,240.175 287.721,238.376 291.922,237.175 C296.122,235.976 333.321,223.376 337.522,219.776 C341.721,216.175 338.122,209.576 335.122,201.776 C325.522,212.576 279.321,226.976 267.922,226.376 z" fill-opacity="0" stroke="#1A1919" stroke-width="2.769" stroke-linecap="round" stroke-linejoin="round"/>
    <path d="M256.766,168.306 C261.433,175.639 272.308,175.56 278.765,174.973 C286.097,174.306 293.432,168.973 291.432,159.639" fill="#FADAC2"/>
    <path d="M256.766,168.306 C261.433,175.639 272.308,175.56 278.765,174.973 C286.097,174.306 293.432,168.973 291.432,159.639" fill-opacity="0" stroke="#1A1919" stroke-width="2.769" stroke-linecap="round" stroke-linejoin="round"/>
    <path d="M253.983,460.821 C255.575,464.465 265.087,461.819 260.688,457.861 C258.703,456.074 252.487,457.394 253.983,460.821" fill="#BBBCBA"/>
    <path d="M253.983,460.821 C255.575,464.465 265.087,461.819 260.688,457.861 C258.703,456.074 252.487,457.394 253.983,460.821 z" fill-opacity="0" stroke="#1A1919" stroke-width="2.833" stroke-linecap="round" stroke-linejoin="round"/>
    <path d="M269.932,458.389 C272.586,458.151 272.998,463.43 269.682,462.389 C267.784,461.794 267.607,458.598 269.932,458.389" fill="#3F2E24"/>
    <path d="M287.932,458.639 C290.586,458.401 290.998,463.68 287.682,462.639 C285.784,462.044 285.607,458.848 287.932,458.639" fill="#3F2E24"/>
    <path d="M303.432,459.139 C306.086,458.901 306.498,464.18 303.182,463.139 C301.284,462.544 301.107,459.348 303.432,459.139" fill="#3F2E24"/>
    <path d="M275.182,448.639 L280.682,448.389 L282.182,472.639 L275.932,472.639 L275.182,448.639" fill="#956954"/>
    <path d="M275.182,448.639 L280.682,448.389 L282.182,472.639 L275.932,472.639 L275.182,448.639 z" fill-opacity="0" stroke="#1A1919" stroke-width="2.833" stroke-linecap="round" stroke-linejoin="round"/>
  </g>
</svg>
