<?xml version="1.0" encoding="UTF-8"?>
<!DOCTYPE svg PUBLIC "-//W3C//DTD SVG 1.1//EN" "http://www.w3.org/Graphics/SVG/1.1/DTD/svg11.dtd">
<svg version="1.1" xmlns="http://www.w3.org/2000/svg" xmlns:xlink="http://www.w3.org/1999/xlink" x="0" y="0" width="437.5" height="642.5" viewBox="0, 0, 437.5, 642.5">
  <g id="Layer_1">
    <path d="M401.81,439.557 C400.293,439.557 398.855,439.615 397.527,439.717 C367.625,442.037 341.233,461.16 317.405,477.697 C263.585,515.025 207.155,552.195 140.555,559.71 L95.87,586.8 C85.7,591.772 36.313,611.01 50.735,629.505 C57.058,637.605 69.973,640.215 79.49,641.452 C83.56,641.982 87.685,642.253 91.813,642.253 C101.008,642.253 110.22,640.91 118.933,638.1 C143.21,630.27 157.475,610.132 175.678,593.775 C201.575,570.51 234.92,558.54 267.455,547.765 C307.19,534.6 348.027,523.62 386.143,506.025 C399.328,499.927 412.738,493.02 423.74,483.39 C429.995,477.922 436.768,470.452 436.97,461.632 C437.378,444.557 416.155,439.557 401.81,439.557" fill="#C8C9C8"/>
    <path d="M336.31,266.645 C332.647,244.625 316.133,239.117 316.133,239.117 L299.612,196.92 C294.108,184.693 290.445,178.577 283.712,175.51 C276.985,172.455 248.848,165.73 248.848,165.73 C219.495,157.775 201.148,163.28 201.148,163.28 C196.257,233.003 232.337,236.062 232.337,236.062 C229.285,225.05 228.062,207.935 228.062,207.935 C240.292,206.092 268.422,206.708 268.422,206.708 L291.663,241.568 C294.152,245.83 294.158,251.93 293.73,256.31 C291.217,261.027 288.265,269.245 290.983,278.943 C290.983,278.943 292,284.337 290.055,291.177 C289.36,293.625 295.293,293.825 296.655,293.418 C299.402,292.587 302.348,288.785 302.348,283.615 C304.245,285.902 307.055,289.367 309.995,287.663 C310.358,287.457 312.758,283.812 312.337,283.275 C318.508,291.217 322.247,282.547 322.247,282.547 C332.025,286.212 332.027,278.878 332.027,278.878 C339.978,279.49 336.31,266.645 336.31,266.645" fill="#F5C4AD"/>
    <path d="M336.31,266.645 L338.895,266.215 C336.973,254.6 331.555,247.122 326.6,242.677 C321.64,238.223 317.193,236.715 316.96,236.635 L316.133,239.117 L318.57,238.165 L302.048,195.965 L302,195.845 C299.22,189.685 296.888,184.973 294.255,181.262 C291.64,177.56 288.615,174.852 284.798,173.128 C282.848,172.247 279.81,171.265 276.17,170.182 C265.305,166.973 249.478,163.19 249.455,163.182 L248.848,165.73 L249.53,163.202 C236.985,159.802 226.375,158.807 218.265,158.807 C207.035,158.807 200.598,160.712 200.395,160.775 C199.35,161.087 198.613,162.01 198.538,163.098 C198.223,167.58 198.073,171.798 198.073,175.768 C198.073,190.408 200.083,201.677 203.17,210.367 C207.785,223.408 214.895,230.598 220.928,234.387 C226.958,238.19 231.825,238.643 232.115,238.67 C232.968,238.742 233.805,238.393 234.35,237.732 C234.898,237.072 235.088,236.19 234.858,235.363 C233.395,230.098 232.33,223.137 231.653,217.555 C231.313,214.757 231.068,212.298 230.908,210.542 C230.828,209.665 230.768,208.962 230.73,208.482 C230.69,208 230.673,207.75 230.673,207.75 L228.063,207.935 L228.453,210.522 C231.93,209.997 236.985,209.662 242.278,209.473 C247.575,209.28 253.135,209.225 257.755,209.225 C260.828,209.225 263.485,209.25 265.37,209.275 C267.255,209.3 268.363,209.322 268.368,209.322 L268.423,206.707 L266.245,208.158 L289.485,243.018 L291.663,241.567 L289.403,242.887 C290.795,245.225 291.34,248.772 291.325,252.125 C291.325,253.503 291.243,254.848 291.125,256.057 L293.73,256.31 L291.42,255.08 C289.485,258.72 287.285,264.305 287.28,271.122 C287.28,273.802 287.625,276.67 288.463,279.65 L290.983,278.943 L288.408,279.43 L289.235,279.272 L288.408,279.42 L288.408,279.43 L289.235,279.272 L288.408,279.42 C288.415,279.462 288.63,280.688 288.63,282.652 C288.63,284.647 288.408,287.405 287.54,290.462 C287.443,290.802 287.383,291.175 287.383,291.562 C287.378,292.165 287.54,292.788 287.805,293.295 C288.283,294.198 288.967,294.717 289.58,295.07 C290.518,295.592 291.433,295.82 292.34,295.985 C293.248,296.142 294.135,296.2 294.945,296.2 C295.39,296.2 295.81,296.182 296.205,296.142 C296.608,296.103 296.963,296.055 297.405,295.925 C299.59,295.242 301.383,293.66 302.743,291.547 C304.09,289.425 304.965,286.7 304.965,283.615 L302.348,283.615 L300.335,285.288 C301.105,286.212 302.098,287.443 303.342,288.538 C303.97,289.082 304.668,289.603 305.493,290.017 C306.312,290.427 307.288,290.735 308.373,290.735 C309.36,290.742 310.4,290.46 311.305,289.927 L311.288,289.94 C311.703,289.693 311.8,289.562 311.928,289.448 L312.388,288.915 C312.845,288.323 313.383,287.508 313.885,286.63 C314.133,286.193 314.365,285.75 314.565,285.288 C314.665,285.055 314.758,284.818 314.838,284.54 C314.918,284.26 315,283.955 315.005,283.46 C314.998,283.057 314.958,282.408 314.405,281.668 C313.515,280.527 311.873,280.323 310.733,281.21 C309.59,282.098 309.385,283.74 310.27,284.883 C311.38,286.305 312.49,287.365 313.678,288.107 C314.855,288.85 316.15,289.247 317.393,289.242 C318.753,289.245 319.95,288.783 320.865,288.195 C322.243,287.305 323.113,286.175 323.713,285.277 C324.308,284.375 324.61,283.68 324.65,283.582 L322.248,282.547 L321.328,284.997 C323.498,285.81 325.358,286.188 327.02,286.19 C328.675,286.198 330.15,285.783 331.3,285.057 C333.048,283.965 333.88,282.35 334.258,281.16 C334.64,279.95 334.643,279.052 334.645,278.878 L332.028,278.878 L331.828,281.487 C332.078,281.505 332.325,281.515 332.565,281.515 C333.858,281.52 335.098,281.225 336.14,280.625 C337.725,279.72 338.668,278.237 339.145,276.832 C339.638,275.408 339.768,273.97 339.773,272.612 C339.76,269.133 338.855,266.052 338.828,265.927 L336.31,266.645 L338.895,266.215 L336.31,266.645 L333.795,267.365 L333.798,267.375 C333.865,267.587 334.548,270.235 334.538,272.612 C334.553,273.922 334.303,275.098 333.98,275.607 C333.82,275.875 333.695,275.987 333.535,276.085 C333.373,276.175 333.115,276.277 332.565,276.28 L332.23,276.267 C331.505,276.21 330.788,276.462 330.253,276.955 C329.717,277.45 329.413,278.147 329.413,278.875 L329.41,278.88 C329.408,279.073 329.273,279.785 328.978,280.182 C328.83,280.39 328.68,280.543 328.423,280.68 C328.165,280.812 327.76,280.952 327.02,280.955 C326.18,280.957 324.91,280.75 323.168,280.095 C321.858,279.605 320.398,280.225 319.845,281.51 L320.07,281.607 L319.845,281.505 L319.845,281.51 L320.07,281.607 L319.845,281.505 C319.81,281.595 319.403,282.425 318.838,283.07 C318.562,283.392 318.255,283.663 318,283.812 C317.74,283.965 317.57,284.008 317.393,284.008 C317.217,284.005 316.953,283.975 316.445,283.665 C315.945,283.355 315.238,282.742 314.408,281.67 C313.978,281.117 313.358,280.767 312.663,280.677 C311.97,280.592 311.285,280.78 310.733,281.21 C310.18,281.64 309.828,282.258 309.743,282.952 C309.655,283.645 309.842,284.332 310.273,284.885 L312.103,283.46 L309.77,283.46 C309.778,283.705 309.785,284.23 310.273,284.885 L312.103,283.46 L309.77,283.46 L311.425,283.46 L309.803,283.125 L309.77,283.46 L311.425,283.46 L309.803,283.125 L310.27,283.223 L309.815,283.073 L309.803,283.125 L310.27,283.223 L309.815,283.073 C309.803,283.12 309.68,283.41 309.51,283.725 C309.253,284.21 308.888,284.797 308.588,285.235 L308.23,285.732 L308.19,285.783 L308.188,285.783 L309.21,286.707 L308.275,285.698 L308.188,285.783 L309.21,286.707 L308.275,285.698 L309.838,287.39 L308.703,285.387 C308.418,285.555 308.342,285.64 308.275,285.698 L309.838,287.39 L308.703,285.387 L308.685,285.397 L308.373,285.503 C308.29,285.503 308.123,285.478 307.835,285.335 C307.41,285.13 306.795,284.647 306.183,284.02 C305.565,283.395 304.945,282.647 304.363,281.945 C303.658,281.092 302.503,280.777 301.46,281.152 C300.42,281.527 299.733,282.508 299.733,283.615 C299.733,285.7 299.135,287.46 298.323,288.74 C297.523,290.027 296.467,290.762 295.898,290.913 L295.905,290.908 C295.773,290.932 295.383,290.967 294.945,290.967 C294.133,290.975 293.07,290.845 292.503,290.655 L292.203,290.535 L292.16,290.515 L292.15,290.527 L292.16,290.515 L292.15,290.527 L292.16,290.515 L291.603,291.288 L292.405,290.8 L292.16,290.515 L291.603,291.288 L292.405,290.8 L291.153,291.562 L292.618,291.562 C292.623,291.305 292.528,290.987 292.405,290.8 L291.153,291.562 L292.618,291.562 L291.405,291.562 L292.573,291.892 L292.618,291.562 L291.405,291.562 L292.573,291.892 C293.603,288.27 293.865,285.035 293.865,282.652 C293.865,280.152 293.578,278.585 293.555,278.457 L293.5,278.235 C292.8,275.735 292.518,273.357 292.518,271.122 C292.513,265.457 294.373,260.67 296.04,257.543 C296.203,257.235 296.303,256.913 296.335,256.565 C296.467,255.217 296.56,253.71 296.56,252.125 C296.545,248.28 296.058,243.945 293.923,240.247 L293.84,240.115 L270.6,205.255 C270.125,204.54 269.338,204.11 268.48,204.09 C268.467,204.09 263.958,203.99 257.755,203.99 C253.093,203.99 247.48,204.048 242.088,204.24 C236.69,204.438 231.533,204.768 227.67,205.348 C226.32,205.55 225.355,206.757 225.453,208.12 C225.453,208.15 225.763,212.465 226.455,218.185 C227.153,223.912 228.225,231.015 229.815,236.762 L232.338,236.062 L232.558,233.452 L232.473,234.457 L232.57,233.455 L232.558,233.452 L232.473,234.457 L232.57,233.455 C232.468,233.44 225.228,232.705 218.018,225.315 C214.4,221.613 210.748,216.212 207.97,208.24 C205.195,200.268 203.31,189.71 203.31,175.768 C203.31,171.927 203.453,167.832 203.758,163.465 L201.148,163.28 L201.9,165.787 L201.855,165.643 L201.898,165.787 L201.9,165.787 L201.855,165.643 L201.898,165.787 C202.073,165.738 207.963,164.042 218.265,164.042 C225.948,164.042 236.088,164.985 248.165,168.257 L248.24,168.275 C248.245,168.275 249.985,168.695 252.72,169.37 C256.82,170.382 263.135,171.977 269.03,173.598 C271.978,174.408 274.823,175.223 277.217,175.973 C279.605,176.715 281.578,177.412 282.633,177.893 C285.543,179.232 287.715,181.117 289.988,184.295 C292.248,187.467 294.498,191.927 297.225,197.992 L299.613,196.92 L297.175,197.872 L313.695,240.072 C313.98,240.795 314.568,241.357 315.305,241.602 L315.308,241.602 C315.562,241.69 319.388,243.095 323.493,246.932 C327.603,250.785 332.04,256.992 333.728,267.075 L333.795,267.365 L336.31,266.645" fill="#4D4E4C"/>
    <path d="M282.497,276.452 C282.497,276.452 248.475,245.645 207.393,237.292 L207.393,255.262 C207.393,255.262 267.09,277.74 279.927,296.35 C279.927,296.35 285.062,284.8 282.497,276.452" fill="#C87C8B"/>
    <path d="M282.497,276.453 L284.255,274.513 C284.177,274.445 275.573,266.658 261.763,257.803 C247.95,248.95 228.93,239.008 207.913,234.728 C207.143,234.57 206.345,234.768 205.735,235.265 C205.128,235.763 204.775,236.505 204.775,237.293 L204.775,255.263 C204.775,256.355 205.45,257.33 206.47,257.712 C206.47,257.712 206.693,257.798 207.128,257.962 C210.385,259.215 225.288,265.043 240.803,272.693 C248.557,276.515 256.467,280.798 263.115,285.155 C269.763,289.495 275.145,293.99 277.77,297.835 C278.307,298.613 279.228,299.045 280.168,298.955 C281.108,298.87 281.935,298.275 282.32,297.413 C282.35,297.34 283.212,295.4 284.08,292.497 C284.945,289.59 285.828,285.733 285.832,281.725 C285.832,279.72 285.608,277.67 285,275.682 C284.86,275.233 284.605,274.83 284.255,274.513 L282.497,276.453 L279.995,277.223 C280.413,278.573 280.598,280.113 280.598,281.725 C280.603,284.945 279.845,288.4 279.062,291 C278.675,292.3 278.285,293.39 277.995,294.148 C277.853,294.525 277.733,294.818 277.65,295.013 L277.557,295.23 L277.535,295.288 L279.927,296.35 L282.082,294.863 C278.467,289.665 272.128,284.705 264.585,279.872 C253.28,272.66 239.255,265.928 228.015,260.962 C216.78,256 208.345,252.825 208.315,252.812 L207.393,255.263 L210.01,255.263 L210.01,237.293 L207.393,237.293 L206.87,239.858 C226.935,243.93 245.473,253.568 258.938,262.208 C265.675,266.525 271.143,270.59 274.92,273.565 C276.807,275.053 278.272,276.268 279.26,277.108 C279.753,277.527 280.13,277.853 280.378,278.07 L280.658,278.318 L280.74,278.393 L282.497,276.453 L279.995,277.223 L282.497,276.453" fill="#4D4E4C"/>
    <path d="M303.893,345.597 C304.122,344.837 304.478,344.158 305.015,343.61 C308.443,340.115 313.562,337.207 318.6,338.525 C323.393,339.787 326.8,344.352 328.703,348.685 C330.41,352.562 331.36,356.822 331.152,361.077 C330.927,365.592 329.615,369.985 329.562,374.515 C329.492,381.55 332.865,387.927 334.872,394.502 C337.003,401.455 337.16,409.225 333.9,415.887 C330.655,422.517 322.527,427.645 315.375,423.66 C312.975,422.332 310.825,421.24 309.28,418.857 C307.337,415.87 305.755,412.207 304.88,408.762 C303.302,402.522 303.842,395.047 304.565,388.722 C304.325,377.22 304.288,365.69 303.88,354.195 C303.798,351.802 303.108,348.21 303.893,345.597" fill="#976D4F"/>
    <path d="M303.892,345.598 L306.395,346.363 C306.54,345.89 306.71,345.622 306.882,345.445 C308.14,344.16 309.662,342.967 311.26,342.133 C312.857,341.295 314.502,340.815 316.06,340.818 C316.692,340.82 317.315,340.893 317.938,341.058 C319.717,341.523 321.36,342.648 322.807,344.223 C324.247,345.79 325.452,347.785 326.307,349.738 C327.732,352.975 328.565,356.47 328.562,359.915 C328.562,360.258 328.555,360.605 328.537,360.95 C328.36,365.043 327.027,369.467 326.945,374.485 L326.942,374.733 C326.945,378.63 327.87,382.228 328.987,385.605 C330.11,388.988 331.427,392.175 332.37,395.265 C333.285,398.255 333.802,401.39 333.802,404.467 C333.802,408.06 333.102,411.56 331.547,414.74 C330.522,416.842 328.852,418.833 326.905,420.233 C324.955,421.64 322.77,422.448 320.685,422.443 C319.337,422.44 318.007,422.128 316.65,421.372 C315.417,420.693 314.367,420.128 313.53,419.525 C312.688,418.918 312.047,418.308 311.475,417.435 C309.705,414.72 308.21,411.265 307.417,408.118 C306.74,405.445 306.475,402.395 306.475,399.268 C306.475,395.823 306.792,392.288 307.165,389.02 L307.182,388.67 C306.942,377.195 306.905,365.655 306.495,354.103 C306.425,352.32 306.132,350.353 306.137,348.65 C306.135,347.725 306.227,346.908 306.4,346.35 L306.395,346.363 L303.892,345.598 L301.385,344.845 C300.997,346.143 300.905,347.425 300.902,348.65 C300.91,350.863 301.227,352.98 301.262,354.283 C301.67,365.728 301.71,377.243 301.947,388.778 L304.565,388.723 L301.965,388.425 C301.582,391.785 301.24,395.508 301.24,399.268 C301.242,402.685 301.517,406.138 302.345,409.405 C303.297,413.15 304.967,417.02 307.085,420.283 C308.057,421.79 309.265,422.918 310.485,423.785 C311.71,424.655 312.935,425.298 314.11,425.95 C316.222,427.13 318.49,427.68 320.685,427.675 C324.11,427.673 327.305,426.4 329.967,424.478 C332.64,422.548 334.822,419.95 336.25,417.038 C338.205,413.048 339.037,408.733 339.035,404.467 C339.035,400.805 338.427,397.17 337.375,393.735 C336.33,390.323 334.992,387.1 333.957,383.96 C332.915,380.82 332.177,377.785 332.18,374.733 L332.18,374.54 C332.2,370.503 333.495,366.145 333.767,361.205 C333.787,360.775 333.797,360.345 333.797,359.915 C333.797,355.63 332.775,351.445 331.1,347.63 C330.052,345.253 328.597,342.798 326.665,340.683 C324.735,338.583 322.277,336.79 319.267,335.993 C318.19,335.713 317.115,335.583 316.06,335.583 C313.445,335.585 310.992,336.36 308.825,337.497 C306.652,338.64 304.74,340.155 303.145,341.778 C302.245,342.693 301.707,343.788 301.39,344.835 L301.385,344.845 L303.892,345.598" fill="#4D4E4C"/>
    <path d="M296.962,359.613 C296.763,357.07 297.038,354.535 298.092,352.18 C300.642,346.483 307.245,345.17 312.217,348.375 C317.805,351.985 320.45,359.103 321.065,365.47 C321.448,369.535 321.172,373.89 320.348,377.885 C319.735,380.9 318.08,384.608 315.46,386.445 C307.663,391.928 303.85,379.635 301.475,374.66 C299.2,369.913 297.365,364.898 296.962,359.613" fill="#976D4F"/>
    <path d="M296.962,359.613 L299.572,359.408 C299.537,358.967 299.52,358.533 299.52,358.105 C299.522,356.368 299.812,354.745 300.48,353.253 C301.102,351.87 301.98,350.915 303.012,350.265 C304.045,349.62 305.255,349.283 306.532,349.283 C307.952,349.28 309.44,349.7 310.797,350.573 C313.082,352.048 314.857,354.31 316.14,357.01 C317.422,359.703 318.18,362.8 318.46,365.723 L318.46,365.717 C318.565,366.84 318.615,367.997 318.615,369.165 C318.617,371.915 318.325,374.733 317.782,377.355 L317.78,377.363 C317.527,378.628 317.03,380.1 316.347,381.375 C315.67,382.658 314.802,383.717 313.955,384.303 C312.89,385.045 312.187,385.205 311.697,385.208 C311.132,385.2 310.59,385.003 309.837,384.365 C308.73,383.43 307.515,381.53 306.507,379.467 C305.485,377.4 304.637,375.22 303.837,373.533 C301.627,368.93 299.937,364.217 299.572,359.415 L299.572,359.408 L296.962,359.613 L294.352,359.81 C294.795,365.578 296.77,370.893 299.115,375.79 C299.552,376.71 300.107,378.048 300.755,379.51 C301.737,381.713 302.925,384.213 304.565,386.342 C305.39,387.405 306.34,388.39 307.517,389.158 C308.687,389.923 310.132,390.448 311.697,390.443 C313.487,390.445 315.28,389.775 316.965,388.588 C318.737,387.335 320.007,385.622 320.967,383.838 C321.92,382.045 322.555,380.16 322.912,378.408 L322.91,378.415 C323.525,375.43 323.852,372.283 323.852,369.165 C323.852,367.842 323.795,366.523 323.67,365.225 L323.67,365.22 C323.335,361.773 322.462,358.128 320.87,354.765 C319.28,351.413 316.937,348.31 313.637,346.175 C311.447,344.765 308.977,344.045 306.532,344.045 C304.33,344.045 302.14,344.633 300.235,345.828 C298.325,347.02 296.72,348.825 295.702,351.11 C294.682,353.39 294.285,355.78 294.285,358.105 C294.285,358.68 294.31,359.25 294.352,359.818 L294.352,359.81 L296.962,359.613" fill="#4D4E4C"/>
    <path d="M310.807,356.507 C303.842,348.455 297.497,359.102 294.703,364.79 C290.888,372.545 287.865,380.515 284.988,388.662 C283.897,391.755 282.955,394.892 281.908,397.997 C263.027,377.172 263.83,377.94 261.768,375.52 C261.768,375.52 236.4,383.965 232.53,399.21 C232.53,399.21 278.353,444.865 292.048,435.492 C298.983,430.75 302.858,422.908 305.53,415.188 C307.97,408.13 315.837,377.167 315.312,368.695 C315.082,365.2 313.68,359.82 310.807,356.507" fill="#F5C4AD"/>
    <path d="M310.807,356.508 L312.788,354.795 C311.73,353.575 310.612,352.628 309.4,351.973 C308.19,351.318 306.878,350.983 305.608,350.985 C303.763,350.985 302.108,351.658 300.728,352.573 C298.65,353.963 297.025,355.913 295.645,357.91 C294.27,359.913 293.168,361.98 292.353,363.635 C288.47,371.535 285.41,379.608 282.52,387.79 C281.4,390.963 280.457,394.113 279.427,397.16 L281.908,397.998 L283.845,396.24 C274.41,385.83 269.89,380.815 267.485,378.115 C265.075,375.41 264.82,375.062 263.76,373.82 C263.068,373.01 261.953,372.7 260.94,373.038 C260.835,373.073 254.36,375.225 247.273,379.393 C243.728,381.48 240.023,384.073 236.875,387.23 C233.738,390.383 231.12,394.138 229.993,398.565 C229.762,399.463 230.025,400.41 230.68,401.062 C230.72,401.1 240.182,410.533 251.88,420.018 C257.733,424.763 264.135,429.523 270.267,433.148 C273.335,434.96 276.337,436.493 279.207,437.593 C282.08,438.688 284.823,439.373 287.45,439.38 C289.6,439.383 291.728,438.888 293.525,437.655 C297.362,435.028 300.302,431.58 302.615,427.83 C304.927,424.078 306.628,420.015 308.003,416.045 C308.638,414.208 309.545,411.088 310.585,407.2 C312.142,401.38 313.973,393.9 315.42,386.94 C316.143,383.46 316.77,380.108 317.223,377.143 C317.67,374.175 317.953,371.615 317.955,369.58 C317.955,369.22 317.945,368.87 317.925,368.538 L317.925,368.525 C317.79,366.52 317.345,364.125 316.53,361.7 C315.712,359.275 314.538,356.823 312.785,354.793 L308.83,358.22 C309.948,359.503 310.913,361.398 311.57,363.368 C312.235,365.333 312.605,367.375 312.7,368.868 L312.7,368.855 C312.712,369.065 312.72,369.31 312.72,369.58 C312.728,371.65 312.285,375.213 311.557,379.323 C310.475,385.51 308.775,393.045 307.13,399.64 C305.49,406.225 303.885,411.945 303.057,414.333 C301.758,418.08 300.185,421.8 298.16,425.083 C296.13,428.373 293.668,431.215 290.57,433.333 C289.82,433.845 288.84,434.138 287.45,434.143 C285.775,434.15 283.568,433.663 281.08,432.703 C276.717,431.038 271.52,427.988 266.283,424.348 C258.413,418.893 250.405,412.125 244.395,406.735 C241.39,404.04 238.878,401.69 237.122,400.015 C236.245,399.178 235.555,398.51 235.088,398.053 C234.62,397.595 234.378,397.355 234.378,397.353 L232.53,399.21 L235.065,399.853 C235.872,396.658 237.878,393.64 240.585,390.923 C244.633,386.848 250.178,383.553 254.69,381.345 C256.945,380.24 258.94,379.398 260.365,378.833 C261.075,378.553 261.64,378.343 262.025,378.203 L262.46,378.05 L262.595,378.003 L261.768,375.52 L259.775,377.22 C260.78,378.395 261.152,378.878 263.578,381.598 C266.005,384.328 270.525,389.34 279.967,399.755 C280.59,400.443 281.533,400.75 282.443,400.562 C283.348,400.37 284.092,399.713 284.388,398.835 C285.453,395.675 286.392,392.548 287.455,389.535 C290.318,381.423 293.307,373.553 297.05,365.945 C298.04,363.925 299.508,361.273 301.158,359.275 C301.975,358.275 302.837,357.45 303.617,356.938 C304.41,356.415 305.057,356.218 305.608,356.218 C305.995,356.223 306.39,356.305 306.92,356.583 C307.445,356.863 308.092,357.368 308.828,358.218 L310.807,356.508" fill="#4D4E4C"/>
    <path d="M163.963,410.483 C163.963,410.483 143.562,501.005 129.118,532.028 C129.118,532.028 119.335,552.43 112.113,554.98 C112.113,554.98 91.285,555.825 94.255,565.177 L136.338,582.18 C136.338,582.18 143.137,566.878 150.79,548.172 C158.43,529.477 209.008,424.083 209.008,424.083 L163.963,410.483" fill="#F5C4AD"/>
    <path d="M163.963,410.482 L161.41,409.908 C161.408,409.912 161.092,411.312 160.508,413.845 C158.46,422.7 153.14,445.29 146.762,469.027 C143.573,480.895 140.118,493.052 136.68,503.908 C133.247,514.758 129.818,524.328 126.745,530.92 L129.118,532.027 L126.757,530.893 L126.655,531.105 C126.132,532.18 123.628,537.203 120.475,542.162 C118.905,544.638 117.165,547.102 115.488,549.008 C114.65,549.962 113.83,550.777 113.088,551.378 C112.35,551.98 111.685,552.357 111.24,552.513 L112.113,554.98 L112.005,552.365 C111.908,552.372 107.26,552.55 102.398,553.775 C99.958,554.397 97.455,555.26 95.333,556.685 C94.275,557.402 93.3,558.282 92.555,559.412 C91.81,560.535 91.34,561.938 91.348,563.42 C91.348,564.265 91.49,565.122 91.76,565.972 C91.995,566.712 92.555,567.315 93.275,567.605 L135.357,584.607 C136.67,585.138 138.155,584.535 138.73,583.242 C138.738,583.227 145.542,567.907 153.213,549.165 C155.077,544.602 159.678,534.49 165.482,522 C174.202,503.25 185.673,479.05 194.965,459.54 C199.613,449.787 203.713,441.202 206.652,435.06 C209.59,428.917 211.363,425.225 211.368,425.215 C211.7,424.525 211.713,423.727 211.402,423.027 C211.095,422.325 210.5,421.797 209.765,421.577 L164.72,407.977 C164.02,407.765 163.273,407.855 162.645,408.223 C162.015,408.587 161.568,409.197 161.41,409.908 L163.963,410.482 L163.205,412.987 L208.253,426.587 L209.008,424.082 L206.65,422.95 C206.648,422.952 194.003,449.302 180.4,477.995 C173.598,492.342 166.558,507.272 160.738,519.792 C154.913,532.325 150.325,542.397 148.368,547.182 C144.55,556.513 140.943,565.003 138.29,571.155 C136.965,574.23 135.878,576.725 135.122,578.445 C134.368,580.167 133.948,581.115 133.945,581.117 L136.338,582.18 L137.318,579.753 L95.235,562.753 L94.255,565.177 L96.75,564.385 C96.625,563.99 96.583,563.677 96.583,563.42 C96.59,562.975 96.688,562.672 96.935,562.28 C97.353,561.607 98.445,560.76 99.99,560.083 C102.288,559.05 105.415,558.38 107.908,558.03 C109.155,557.85 110.248,557.74 111.023,557.675 C111.408,557.645 111.715,557.625 111.923,557.612 L112.153,557.6 L112.218,557.595 C112.488,557.585 112.73,557.54 112.983,557.45 C114.315,556.972 115.478,556.2 116.598,555.268 C118.54,553.635 120.358,551.472 122.08,549.12 C127.218,542.075 131.44,533.23 131.48,533.16 L131.493,533.133 C135.2,525.16 139.195,513.625 143.16,500.715 C155.033,462.022 166.508,411.09 166.515,411.06 L163.963,410.482 L163.205,412.987 L163.963,410.482" fill="#4D4E4C"/>
    <path d="M143.66,155.947 L146.72,170.012 C146.72,170.012 138.765,169.4 131.428,174.902 C131.428,174.902 133.875,226.89 168.125,221.387 C168.125,221.387 205.425,220.775 192.585,162.667 C192.585,162.667 182.19,160.84 175.463,163.28 L174.238,146.77 L143.66,155.947" fill="#F5C4AD"/>
    <path d="M143.66,155.947 L141.102,156.505 L144.162,170.57 L146.72,170.012 L146.922,167.402 C146.86,167.397 146.53,167.375 145.98,167.375 C143.525,167.382 136.542,167.812 129.857,172.81 C129.162,173.33 128.772,174.16 128.812,175.025 C128.827,175.167 129.367,187.068 133.765,199.24 C135.977,205.325 139.152,211.512 143.902,216.312 C148.632,221.11 155.097,224.435 163.197,224.412 C164.907,224.412 166.69,224.268 168.54,223.97 L168.125,221.387 L168.167,224.005 C168.447,223.988 175.71,223.875 183.175,218.8 C186.897,216.26 190.63,212.445 193.377,206.895 C196.13,201.348 197.895,194.105 197.892,184.727 C197.892,178.268 197.06,170.79 195.142,162.102 C194.912,161.07 194.082,160.272 193.04,160.09 C192.947,160.077 189.1,159.395 184.402,159.393 C181.26,159.4 177.745,159.68 174.57,160.82 L175.462,163.28 L178.072,163.087 L176.847,146.575 C176.79,145.785 176.377,145.062 175.722,144.613 C175.067,144.162 174.247,144.035 173.485,144.262 L142.907,153.44 C141.6,153.833 140.812,155.167 141.102,156.505 L143.66,155.947 L144.412,158.455 L171.87,150.212 L172.855,163.475 C172.912,164.295 173.352,165.033 174.042,165.477 C174.732,165.925 175.585,166.022 176.357,165.742 C178.567,164.928 181.612,164.62 184.402,164.63 C186.497,164.628 188.455,164.785 189.872,164.943 C190.582,165.02 191.16,165.098 191.552,165.155 L191.997,165.223 L192.132,165.247 L192.585,162.667 L190.03,163.232 C191.88,171.613 192.657,178.72 192.657,184.727 C192.655,193.458 191.025,199.85 188.687,204.57 C185.175,211.632 180.052,215.095 175.71,216.92 C173.542,217.822 171.585,218.29 170.192,218.527 C169.495,218.645 168.94,218.705 168.572,218.738 L168.17,218.765 L168.085,218.77 L168.082,218.77 L167.71,218.803 C166.117,219.057 164.615,219.178 163.197,219.178 C156.515,219.155 151.62,216.617 147.62,212.622 C141.64,206.643 138.105,197.145 136.232,189.137 C135.287,185.137 134.737,181.52 134.425,178.917 C134.27,177.617 134.172,176.57 134.117,175.852 C134.087,175.495 134.067,175.22 134.057,175.037 L134.042,174.78 L131.427,174.902 L133,176.995 C138.315,172.988 144.157,172.6 145.98,172.61 L146.42,172.617 L146.515,172.622 C147.345,172.685 148.145,172.357 148.692,171.732 C149.237,171.105 149.452,170.268 149.275,169.455 L146.217,155.39 L143.66,155.947 L144.412,158.455 L143.66,155.947" fill="#4D4E4C"/>
    <path d="M91.675,89.9 C91.565,87.522 84.92,84.535 83.14,84.202 C73.113,82.307 71.253,94.65 72.96,101.885 C75.268,111.645 83.338,115.978 92.895,116.807 L91.675,89.9" fill="#F5C4AD"/>
    <path d="M91.675,89.9 L94.29,89.78 C94.243,88.877 93.92,88.157 93.562,87.587 C92.92,86.595 92.125,85.907 91.265,85.26 C89.975,84.31 88.507,83.517 87.155,82.892 C86.478,82.582 85.835,82.317 85.253,82.105 C84.66,81.892 84.165,81.732 83.62,81.627 C82.78,81.47 81.955,81.39 81.155,81.39 C79.103,81.382 77.205,81.947 75.668,82.942 C73.348,84.442 71.9,86.745 71.018,89.172 C70.138,91.617 69.785,94.262 69.78,96.815 C69.783,98.807 70,100.74 70.412,102.487 C71.688,107.955 74.73,112.127 78.725,114.85 C82.72,117.592 87.567,118.967 92.668,119.415 C93.425,119.48 94.162,119.22 94.708,118.695 C95.255,118.172 95.545,117.445 95.51,116.687 L94.29,89.782 L91.675,89.9 L89.06,90.017 L90.28,116.925 L92.895,116.807 L93.122,114.2 C88.665,113.815 84.698,112.61 81.692,110.537 C78.688,108.45 76.54,105.575 75.507,101.282 C75.198,99.982 75.015,98.415 75.015,96.815 C75.003,94.077 75.577,91.25 76.647,89.405 C77.18,88.475 77.8,87.797 78.5,87.347 C79.205,86.9 80.005,86.63 81.155,86.622 C81.603,86.622 82.1,86.67 82.653,86.775 C82.74,86.78 83.445,86.992 84.202,87.315 C85.37,87.795 86.85,88.55 87.897,89.287 C88.423,89.647 88.833,90.01 89.02,90.235 L89.12,90.362 L89.143,90.395 L89.89,89.982 L89.06,90.02 C89.073,90.277 89.143,90.395 89.143,90.395 L89.89,89.982 L89.06,90.02 L91.675,89.9" fill="#4D4E4C"/>
    <path d="M197.728,84.028 C197.835,81.65 204.482,78.665 206.255,78.33 C216.288,76.435 218.145,88.783 216.44,96.01 C214.133,105.775 206.065,110.108 196.503,110.933 L197.728,84.028" fill="#F5C4AD"/>
    <path d="M197.727,84.027 L200.342,84.147 L199.268,84.097 L200.283,84.465 L200.342,84.147 L199.268,84.097 L200.283,84.465 L199.803,84.29 L200.26,84.517 L200.283,84.465 L199.803,84.29 L200.26,84.517 L200.262,84.515 C200.292,84.442 200.66,84.025 201.223,83.617 C202.065,82.985 203.303,82.297 204.415,81.787 C204.973,81.53 205.5,81.312 205.928,81.155 C206.348,81 206.7,80.905 206.74,80.902 C207.295,80.797 207.792,80.752 208.238,80.752 C209.39,80.76 210.19,81.027 210.897,81.475 C211.94,82.137 212.837,83.372 213.458,85.087 C214.077,86.787 214.385,88.895 214.382,90.945 C214.382,92.545 214.2,94.112 213.893,95.41 C212.86,99.702 210.715,102.577 207.708,104.667 C204.702,106.74 200.735,107.942 196.277,108.325 L196.503,110.932 L199.117,111.052 L200.342,84.147 L197.727,84.027 L195.113,83.91 L193.887,110.812 C193.852,111.57 194.143,112.295 194.688,112.82 C195.235,113.345 195.973,113.605 196.725,113.54 C201.83,113.097 206.68,111.722 210.675,108.98 C214.673,106.255 217.712,102.08 218.988,96.612 C219.397,94.867 219.617,92.935 219.617,90.945 C219.605,87.547 219.005,83.967 217.298,80.942 C216.44,79.437 215.272,78.065 213.73,77.072 C212.19,76.075 210.295,75.51 208.238,75.517 C207.44,75.517 206.615,75.597 205.77,75.757 C204.965,75.92 204.175,76.205 203.182,76.61 C201.725,77.222 200.015,78.075 198.507,79.12 C197.753,79.65 197.045,80.222 196.423,80.935 C196.115,81.292 195.822,81.69 195.58,82.175 C195.34,82.655 195.145,83.235 195.113,83.91 L197.727,84.027" fill="#4D4E4C"/>
    <path d="M195.643,62.983 C222.8,160.253 147.945,160.232 147.945,160.232 C66.605,160.232 92.29,64.21 92.29,64.21 C92.29,64.21 92.475,36.255 128.367,31.513 C128.367,31.513 180.98,10.485 195.643,62.983" fill="#F5C4AD"/>
    <path d="M195.643,62.982 L193.122,63.687 C197.24,78.44 198.96,90.847 198.96,101.26 C198.955,115.607 195.715,126.142 190.965,133.99 C183.845,145.742 173.167,151.637 164.117,154.632 C159.6,156.122 155.518,156.872 152.583,157.245 C151.115,157.432 149.938,157.522 149.132,157.57 C148.732,157.592 148.425,157.605 148.223,157.607 L148,157.612 L147.943,157.615 C146.497,157.615 145.325,158.787 145.327,160.232 C145.327,161.677 146.5,162.85 147.945,162.85 C147.275,162.847 146.78,162.602 146.492,162.41 C145.988,162.052 145.867,161.815 145.75,161.66 L147.943,160.232 L145.525,161.235 C145.565,161.32 145.602,161.427 145.75,161.66 L147.943,160.232 L145.525,161.235 L147.943,160.232 L145.462,161.06 L145.525,161.235 L147.943,160.232 L145.462,161.06 L147.945,160.232 L147.945,157.615 C135.792,157.612 126.252,155.42 118.752,151.802 C107.517,146.367 100.697,137.735 96.54,127.752 C92.4,117.782 91.055,106.482 91.057,96.235 C91.057,87.607 92.002,79.732 92.947,74.035 C93.42,71.187 93.893,68.885 94.245,67.3 C94.42,66.507 94.565,65.895 94.667,65.487 L94.783,65.027 L94.817,64.885 L94.908,64.225 L94.285,64.222 L94.908,64.232 L94.908,64.225 L94.285,64.222 L94.908,64.232 C94.9,64.082 95.072,57.525 99.315,50.655 C101.435,47.212 104.55,43.667 109.235,40.675 C113.92,37.685 120.2,35.235 128.71,34.11 L129.337,33.945 L129.425,33.912 C130.438,33.512 140.102,29.96 151.622,29.97 C159.303,29.972 167.73,31.525 175.152,36.422 C182.568,41.33 189.167,49.59 193.122,63.687 L195.643,62.982 L198.162,62.28 C193.977,47.23 186.583,37.672 178.035,32.052 C169.492,26.422 159.982,24.737 151.622,24.737 C138.215,24.747 127.572,29.022 127.395,29.082 L128.367,31.512 L128.025,28.917 C118.722,30.145 111.582,32.907 106.162,36.427 C98.02,41.705 93.85,48.642 91.787,54.2 C89.717,59.765 89.677,63.982 89.673,64.192 L92.29,64.21 L89.76,63.532 C89.73,63.665 85.83,78.222 85.825,96.235 C85.838,110.485 88.243,126.985 97.345,140.192 C101.892,146.785 108.147,152.502 116.478,156.518 C124.807,160.535 135.167,162.85 147.945,162.85 C148.785,162.85 149.577,162.442 150.068,161.762 C150.56,161.082 150.693,160.202 150.428,159.405 L150.285,159.062 C150.227,158.955 150.167,158.817 149.955,158.555 C149.842,158.425 149.693,158.255 149.395,158.055 C149.11,157.862 148.615,157.617 147.945,157.615 C147.255,157.615 146.58,157.893 146.092,158.382 C145.605,158.867 145.327,159.542 145.327,160.232 C145.327,160.92 145.605,161.595 146.092,162.082 C146.58,162.57 147.255,162.85 147.945,162.85 C148.208,162.835 161.982,162.86 176.042,155.15 C183.062,151.29 190.15,145.445 195.443,136.705 C200.74,127.967 204.2,116.392 204.195,101.26 C204.195,90.272 202.385,77.4 198.162,62.28 L195.643,62.982" fill="#4D4E4C"/>
    <path d="M143.652,333.395 C143.652,333.395 151.107,349.213 173.408,371.65 C197.442,395.83 228.587,418.855 228.587,418.855 C228.587,418.855 273.955,398.655 273.955,371.463 C273.955,371.463 257.03,361.303 246.08,317.248 L143.652,333.395" fill="#5CBDBB"/>
    <path d="M143.652,333.395 L141.285,334.512 C141.398,334.75 149.023,350.827 171.553,373.495 C195.785,397.87 226.977,420.915 227.03,420.96 C227.788,421.52 228.79,421.63 229.65,421.245 C229.753,421.197 241.225,416.095 252.835,407.455 C258.64,403.127 264.487,397.915 268.967,391.902 C273.432,385.897 276.568,379.01 276.573,371.462 C276.573,370.545 276.087,369.69 275.302,369.22 L274.538,370.49 L275.318,369.227 L275.302,369.22 L274.538,370.49 L275.318,369.227 L275.15,369.117 C273.443,367.92 258.622,356.8 248.618,316.617 C248.29,315.3 247.015,314.452 245.673,314.662 L143.245,330.81 C142.432,330.938 141.725,331.445 141.34,332.17 C140.955,332.897 140.932,333.77 141.285,334.512 L143.652,333.395 L144.06,335.982 L246.488,319.835 L246.08,317.247 L243.54,317.88 C254.59,362.445 271.97,373.347 272.608,373.705 L273.955,371.462 L271.337,371.462 C271.342,377.51 268.805,383.345 264.765,388.777 C258.725,396.917 249.378,403.93 241.553,408.81 C237.645,411.255 234.115,413.18 231.577,414.485 C230.305,415.137 229.283,415.637 228.583,415.97 C228.232,416.137 227.962,416.262 227.783,416.345 L227.523,416.465 L228.587,418.855 L230.143,416.75 C230.143,416.747 229.667,416.4 228.777,415.727 C222.538,411.032 196.115,390.787 175.265,369.805 C164.227,358.7 156.89,349.26 152.325,342.625 C150.042,339.307 148.45,336.692 147.44,334.92 C146.932,334.032 146.57,333.36 146.34,332.912 L146.087,332.417 L146.033,332.302 L146.02,332.28 L143.652,333.395 L144.06,335.982 L143.652,333.395" fill="#4D4E4C"/>
    <path d="M25.167,230.595 C18.923,230.495 14.738,228.158 12.908,221.99 C11.38,216.83 11.167,209.912 13.135,204.78 C14.632,200.867 17.705,198.09 21.82,197.392 C23.503,197.102 25.542,197.042 27.215,197.037 C28.28,197.02 30.38,197.517 31.23,198.112 C32.16,198.777 32.208,199.61 32.425,200.732 C32.805,202.555 33.173,203.735 34.485,205.11 C35.472,206.14 36.217,207.352 37.185,208.425 C39.158,210.642 39.415,212.673 39.458,215.612 C39.535,220.055 38.752,223.435 36.092,227.087 C33.855,230.162 32.702,230.94 28.837,231.177 C26.163,231.34 22.08,231.812 19.57,230.595 L25.167,230.595" fill="#F5C4AD"/>
    <path d="M7.275,195.193 C5.032,191.38 6.922,187.55 9.165,185.21 C10.435,183.903 13.972,182.595 15.747,182.13 C19.755,181.04 25.875,181.943 29.297,183.995 C32.427,185.883 34.44,189.643 35.333,192.493 C36.815,197.283 34.877,199.482 32.407,203.702" fill="#F5C4AD"/>
    <path d="M9.53,193.865 C9.05,193.037 8.89,192.327 8.885,191.605 C8.885,190.832 9.097,190.022 9.492,189.22 C9.882,188.422 10.452,187.65 11.055,187.02 L11.042,187.035 C11.087,186.98 11.385,186.74 11.797,186.505 C13.05,185.76 15.317,184.937 16.413,184.66 L16.432,184.655 C17.31,184.415 18.445,184.28 19.667,184.28 C22.64,184.257 26.147,185.125 27.952,186.24 L27.945,186.235 C29.062,186.905 30.118,188.02 30.965,189.32 C31.817,190.612 32.46,192.07 32.833,193.275 L32.833,193.267 C33.127,194.225 33.23,194.957 33.23,195.572 C33.225,196.532 33.002,197.292 32.482,198.365 C31.965,199.422 31.127,200.715 30.147,202.382 C29.417,203.63 29.837,205.232 31.085,205.962 C32.333,206.692 33.935,206.272 34.667,205.025 C35.562,203.487 36.443,202.16 37.18,200.677 C37.91,199.207 38.472,197.502 38.465,195.572 C38.467,194.35 38.252,193.072 37.833,191.717 L37.83,191.712 C37.312,190.065 36.505,188.22 35.342,186.447 C34.177,184.682 32.66,182.975 30.65,181.752 L30.642,181.75 C27.595,179.955 23.542,179.07 19.667,179.045 C18.075,179.047 16.52,179.207 15.06,179.602 L15.082,179.597 C14.035,179.875 12.635,180.345 11.225,180.952 C10.52,181.257 9.822,181.597 9.162,181.982 C8.497,182.372 7.877,182.787 7.287,183.385 L7.275,183.4 C6.347,184.37 5.47,185.54 4.792,186.915 C4.12,188.282 3.65,189.872 3.65,191.605 C3.645,193.212 4.075,194.927 5.02,196.52 C5.752,197.765 7.357,198.182 8.602,197.447 C9.85,196.715 10.265,195.11 9.53,193.865" fill="#4D4E4C"/>
    <path d="M5.595,209.812 C0.59,201.54 8.785,190.775 17.44,190.602 C21.4,190.505 26.87,190.773 29.495,193.495 C31.712,195.803 34.875,203.07 30.965,205.152" fill="#F5C4AD"/>
    <path d="M7.835,208.457 C7.032,207.122 6.692,205.767 6.687,204.362 C6.672,201.757 7.977,198.917 10.072,196.772 C12.155,194.617 14.935,193.255 17.493,193.22 L17.502,193.22 C17.895,193.21 18.3,193.205 18.712,193.205 C20.497,193.202 22.445,193.32 24.083,193.682 C25.735,194.032 26.995,194.65 27.61,195.312 C28.02,195.722 28.778,196.845 29.307,198.07 C29.858,199.297 30.21,200.677 30.198,201.585 C30.2,202.062 30.112,202.382 30.035,202.537 L29.733,202.845 C28.458,203.525 27.975,205.11 28.655,206.385 C29.335,207.662 30.92,208.142 32.195,207.462 C33.345,206.862 34.248,205.877 34.75,204.81 C35.265,203.742 35.432,202.635 35.432,201.585 C35.423,199.572 34.84,197.665 34.097,195.957 C33.33,194.247 32.427,192.785 31.38,191.68 C29.64,189.897 27.405,189.06 25.202,188.567 C22.985,188.085 20.717,187.972 18.712,187.967 C18.25,187.967 17.802,187.975 17.375,187.985 L17.387,187.985 C13.115,188.087 9.21,190.157 6.317,193.125 C3.435,196.1 1.467,200.072 1.452,204.362 C1.45,206.65 2.047,209.01 3.355,211.167 C4.105,212.402 5.715,212.8 6.95,212.052 C8.187,211.302 8.585,209.692 7.835,208.457" fill="#4D4E4C"/>
    <path d="M7.827,219.413 C-0.68,212.255 10.733,198.863 24.407,200.048 C28.44,200.398 35.952,206.768 30.775,210.095 C27.155,212.433 21.53,207.505 19.32,213.16" fill="#F5C4AD"/>
    <path d="M9.513,217.408 C8.003,216.1 7.545,214.895 7.518,213.5 C7.515,212.447 7.855,211.238 8.583,209.988 C9.665,208.115 11.61,206.217 14.09,204.842 C16.57,203.46 19.555,202.59 22.703,202.59 C23.19,202.59 23.685,202.61 24.18,202.652 C24.485,202.673 25.135,202.85 25.828,203.19 C26.878,203.692 28.055,204.548 28.843,205.412 C29.238,205.842 29.538,206.272 29.708,206.615 C29.882,206.96 29.917,207.195 29.915,207.287 L29.878,207.43 C29.837,207.497 29.715,207.662 29.36,207.893 C29.115,208.05 28.798,208.15 28.145,208.155 C27.608,208.158 26.903,208.067 26.095,207.95 C25.283,207.837 24.372,207.695 23.345,207.692 C22.24,207.69 20.913,207.878 19.667,208.647 C18.417,209.412 17.465,210.685 16.88,212.205 C16.355,213.552 17.02,215.07 18.365,215.598 C19.712,216.122 21.23,215.46 21.757,214.113 C22.073,213.335 22.3,213.182 22.423,213.098 C22.552,213.018 22.785,212.93 23.345,212.927 C23.845,212.925 24.542,213.015 25.355,213.132 C26.17,213.247 27.1,213.387 28.145,213.39 C29.368,213.395 30.84,213.173 32.195,212.295 C33.083,211.725 33.842,211 34.368,210.12 C34.897,209.245 35.158,208.232 35.15,207.287 C35.143,205.783 34.592,204.5 33.895,203.408 C32.823,201.768 31.34,200.445 29.745,199.402 C28.132,198.38 26.458,197.62 24.632,197.44 C23.985,197.382 23.34,197.355 22.703,197.355 C17.218,197.363 12.238,199.342 8.543,202.275 C6.695,203.745 5.16,205.462 4.058,207.355 C2.96,209.247 2.285,211.335 2.283,213.5 C2.255,216.38 3.588,219.305 6.143,221.415 C7.248,222.345 8.9,222.202 9.83,221.095 C10.76,219.99 10.618,218.337 9.513,217.408" fill="#4D4E4C"/>
    <path d="M18.532,225.212 C21.295,223.098 27.76,217.395 23.647,214.285 C21.312,212.522 17.055,214.738 14.85,215.632 C11.77,216.905 6.45,219.337 6.01,223.068 C5.392,228.38 10.73,232.747 14.442,235.632 C18.275,238.607 21.992,240.695 26.63,242.393 C31.08,244.018 36.36,244.75 40.285,247.702 C40.285,247.702 60.69,273.63 68.762,284.68 C76.84,295.732 86.61,303.378 99.785,285.107 L131.077,218.417 L126.56,178.857 C126.35,177.477 118.41,182.447 118.172,182.632 C98.962,197.952 92.572,226.757 84.225,248.82 C83.188,251.57 82.09,254.295 81.087,257.055 L56.587,229.247 C56.752,226.21 56.725,218.68 57.265,215.7 C58.155,210.822 56.685,205.25 55.15,200.247 C53.912,196.21 50.23,191.395 47.887,187.835 C46.235,185.333 43.88,183.497 41.792,181.397 C39.63,179.227 35.985,172.333 32.057,174.693 C26.82,177.845 30.552,186.93 33.455,190.208 C37.802,195.117 35.73,198.902 33.902,204.292 C31.912,210.173 35.45,218.22 38.365,222.97" fill="#F5C4AD"/>
    <path d="M20.125,227.29 C21.277,226.402 22.99,224.985 24.515,223.26 C25.277,222.395 25.997,221.452 26.572,220.4 C27.137,219.348 27.59,218.158 27.597,216.768 C27.6,215.945 27.412,215.055 26.995,214.253 C26.582,213.447 25.96,212.75 25.225,212.195 C24.02,211.285 22.617,211 21.412,211.005 C19.765,211.015 18.3,211.458 16.997,211.923 C15.71,212.393 14.572,212.923 13.867,213.208 L13.852,213.212 C12.252,213.878 10.002,214.85 7.945,216.28 C6.915,217 5.92,217.84 5.087,218.89 C4.262,219.935 3.59,221.24 3.41,222.76 C3.365,223.15 3.342,223.535 3.342,223.913 C3.342,225.59 3.77,227.155 4.42,228.548 C5.402,230.637 6.857,232.378 8.375,233.885 C9.895,235.387 11.5,236.66 12.837,237.7 C16.845,240.818 20.865,243.075 25.732,244.85 C28.15,245.73 30.61,246.322 32.86,247.042 C35.11,247.76 37.125,248.598 38.712,249.795 L40.285,247.702 L38.23,249.32 C38.232,249.325 39.502,250.938 41.54,253.54 C47.647,261.337 60.647,278.008 66.647,286.225 C69.007,289.448 71.54,292.465 74.427,294.775 C77.295,297.073 80.635,298.707 84.4,298.707 C87.282,298.715 90.255,297.723 93.142,295.735 C96.045,293.742 98.923,290.775 101.907,286.638 L102.155,286.22 L133.445,219.53 C133.652,219.09 133.732,218.602 133.677,218.122 L129.16,178.56 L129.147,178.462 C129.095,178.1 128.952,177.678 128.7,177.303 C128.327,176.725 127.747,176.352 127.292,176.193 C126.827,176.025 126.465,176 126.167,175.997 C125.462,176.01 125.025,176.15 124.555,176.292 C123.757,176.555 122.965,176.92 122.132,177.337 C120.89,177.96 119.605,178.695 118.59,179.298 C118.085,179.598 117.65,179.865 117.325,180.065 L116.923,180.32 L116.777,180.415 L116.57,180.562 L116.542,180.585 C106.415,188.673 99.842,200.115 94.717,212.175 C89.595,224.242 85.9,237.005 81.775,247.895 C80.752,250.61 79.65,253.345 78.627,256.163 L81.087,257.055 L83.052,255.325 L58.55,227.518 L56.587,229.247 L59.2,229.39 C59.287,227.765 59.32,225.145 59.402,222.533 C59.44,221.232 59.492,219.94 59.567,218.815 C59.637,217.697 59.737,216.725 59.84,216.17 C60.06,214.967 60.152,213.757 60.152,212.55 C60.142,208.005 58.877,203.495 57.652,199.48 C56.902,197.053 55.562,194.705 54.142,192.458 C52.72,190.223 51.197,188.107 50.075,186.397 C48.092,183.43 45.562,181.507 43.65,179.553 C43.37,179.277 42.857,178.64 42.282,177.89 C41.4,176.753 40.335,175.335 39.025,174.09 C38.365,173.467 37.635,172.88 36.77,172.408 C35.91,171.943 34.877,171.59 33.722,171.59 C32.7,171.583 31.63,171.887 30.71,172.45 C29.315,173.277 28.267,174.5 27.655,175.83 C27.035,177.165 26.815,178.572 26.812,179.938 C26.82,182.322 27.47,184.643 28.337,186.72 C29.225,188.798 30.317,190.602 31.495,191.943 C32.292,192.845 32.757,193.613 33.035,194.29 C33.307,194.97 33.412,195.57 33.415,196.247 C33.417,197.105 33.217,198.107 32.85,199.305 C32.485,200.503 31.96,201.878 31.425,203.452 C30.912,204.967 30.705,206.54 30.705,208.098 C30.71,211.158 31.48,214.193 32.52,216.982 C33.565,219.775 34.895,222.32 36.132,224.34 C36.89,225.572 38.5,225.958 39.732,225.202 C40.965,224.445 41.35,222.835 40.595,221.602 C39.51,219.837 38.32,217.548 37.425,215.15 C36.522,212.755 35.935,210.245 35.94,208.098 C35.94,207 36.087,206.003 36.382,205.132 C36.875,203.68 37.412,202.283 37.855,200.837 C38.295,199.395 38.647,197.885 38.65,196.247 C38.652,194.97 38.42,193.628 37.882,192.315 C37.347,190.997 36.522,189.723 35.415,188.473 C34.747,187.73 33.83,186.28 33.162,184.682 C32.48,183.085 32.04,181.312 32.047,179.938 C32.047,179.145 32.182,178.503 32.4,178.042 C32.625,177.577 32.89,177.255 33.407,176.935 L33.722,176.822 C33.81,176.82 34.115,176.875 34.615,177.223 C35.36,177.723 36.34,178.79 37.24,179.935 C38.165,181.087 38.98,182.268 39.94,183.245 C42.195,185.49 44.38,187.235 45.705,189.277 C46.92,191.122 48.41,193.193 49.725,195.265 C51.04,197.327 52.162,199.405 52.65,201.015 C53.85,204.902 54.927,209.01 54.917,212.55 C54.917,213.49 54.845,214.385 54.69,215.232 C54.522,216.165 54.422,217.253 54.342,218.477 C54.107,222.113 54.092,226.965 53.972,229.105 C53.935,229.792 54.167,230.462 54.622,230.98 L79.125,258.788 C79.737,259.483 80.665,259.8 81.575,259.628 C82.487,259.455 83.232,258.818 83.55,257.948 C84.527,255.245 85.625,252.53 86.673,249.742 C90.895,238.575 94.57,225.902 99.535,214.223 C104.493,202.53 110.722,191.91 119.805,184.678 L118.173,182.632 L119.777,184.7 L118.595,183.175 L119.675,184.775 L119.777,184.7 L118.595,183.175 L119.675,184.775 C119.717,184.745 120.202,184.435 120.817,184.065 C121.752,183.5 123.097,182.72 124.29,182.113 C124.882,181.807 125.442,181.548 125.85,181.387 L126.3,181.232 L126.342,181.223 L126.35,181.22 L126.167,180.217 L126.167,181.232 L126.35,181.22 L126.167,180.217 L126.167,181.232 L126.167,179.13 L125.102,180.925 C125.652,181.235 126.005,181.225 126.167,181.232 L126.167,179.13 L125.102,180.925 L126.312,178.885 L124.337,180.195 C124.545,180.512 124.837,180.77 125.102,180.925 L126.312,178.885 L124.337,180.195 L126.295,178.897 L123.972,179.253 C124.012,179.53 124.127,179.88 124.337,180.195 L126.295,178.897 L123.972,179.253 L126.56,178.857 L123.96,179.155 L128.39,217.977 L97.415,283.995 L99.785,285.108 L97.662,283.577 C94.923,287.378 92.4,289.9 90.182,291.415 C87.957,292.935 86.1,293.467 84.4,293.473 C82.205,293.475 80.012,292.53 77.692,290.682 C75.39,288.853 73.085,286.163 70.875,283.135 C62.74,272 42.352,246.1 42.342,246.085 L41.86,245.61 C39.522,243.857 36.93,242.852 34.45,242.057 C31.965,241.268 29.56,240.68 27.53,239.935 C23.12,238.315 19.707,236.4 16.047,233.565 C14.32,232.225 12.335,230.615 10.877,228.9 C10.147,228.045 9.555,227.173 9.165,226.335 C8.772,225.492 8.58,224.702 8.58,223.913 L8.61,223.37 C8.65,223.027 8.807,222.632 9.2,222.132 C9.775,221.387 10.872,220.538 12.12,219.83 C13.367,219.11 14.737,218.51 15.85,218.053 L15.835,218.057 C16.74,217.69 17.757,217.215 18.785,216.842 C19.8,216.465 20.812,216.23 21.412,216.24 C21.875,216.245 22.015,216.333 22.07,216.372 L22.342,216.65 L22.362,216.768 C22.37,216.91 22.282,217.337 21.972,217.902 C21.517,218.75 20.63,219.825 19.665,220.772 C18.702,221.725 17.67,222.577 16.94,223.132 C15.792,224.012 15.575,225.655 16.455,226.805 C17.332,227.952 18.975,228.17 20.125,227.292" fill="#4D4E4C"/>
    <path d="M118.588,82.25 C118.588,86.473 116.253,89.9 113.385,89.9 C110.513,89.9 108.19,86.473 108.19,82.25 C108.19,78.022 110.513,74.607 113.385,74.607 C116.253,74.607 118.588,78.022 118.588,82.25" fill="#4D4E4C"/>
    <path d="M167.21,77.05 C167.21,81.275 164.878,84.702 162.008,84.702 C159.138,84.702 156.808,81.275 156.808,77.05 C156.808,72.83 159.138,69.412 162.008,69.412 C164.878,69.412 167.21,72.83 167.21,77.05" fill="#4D4E4C"/>
    <path d="M133.15,92.425 L133.632,92.525 L133.15,92.42 L133.15,92.425 L133.632,92.525 L133.15,92.42 C133.137,92.51 132.663,94.49 131.57,96.202 C131.033,97.062 130.357,97.84 129.598,98.36 C128.825,98.882 128.005,99.198 126.838,99.208 C125.805,99.208 124.86,99.823 124.442,100.768 C124.025,101.713 124.207,102.825 124.905,103.588 C125,103.688 126.725,105.575 129.577,107.507 C132.428,109.423 136.447,111.455 141.212,111.473 C142.66,111.473 143.83,110.3 143.83,108.855 C143.83,107.41 142.66,106.238 141.212,106.238 C138.027,106.253 134.86,104.77 132.51,103.173 C131.337,102.38 130.378,101.577 129.725,100.985 C129.397,100.688 129.15,100.445 128.985,100.28 L128.807,100.1 L128.772,100.06 L128.77,100.058 L126.838,101.823 L126.838,104.44 C129.152,104.45 131.182,103.677 132.715,102.567 C135.03,100.893 136.34,98.628 137.15,96.827 C137.955,95.015 138.247,93.61 138.275,93.488 C138.57,92.073 137.66,90.688 136.245,90.393 C134.83,90.1 133.443,91.01 133.15,92.425" fill="#4D4E4C"/>
    <path d="M132.758,124.702 C134.21,127.623 136.383,129.812 138.883,131.205 C141.385,132.603 144.185,133.223 146.965,133.223 C151.562,133.213 156.163,131.565 159.75,128.628 C163.327,125.708 165.903,121.318 165.895,116.107 C165.895,115.662 165.878,115.21 165.838,114.755 C165.72,113.312 164.455,112.243 163.015,112.363 C161.573,112.482 160.503,113.748 160.62,115.188 C160.648,115.5 160.66,115.808 160.66,116.107 C160.653,119.565 159.028,122.425 156.425,124.585 C153.838,126.728 150.28,127.998 146.965,127.988 C144.955,127.988 143.055,127.54 141.438,126.635 C139.82,125.725 138.455,124.378 137.443,122.363 C136.798,121.07 135.225,120.545 133.93,121.19 C132.638,121.835 132.113,123.408 132.758,124.702" fill="#4D4E4C"/>
    <path d="M147.945,12.225 C147.945,12.225 141.83,-1.84 114.305,6.725 C114.305,6.725 129.592,10.393 131.428,15.895 C131.428,15.895 99.628,7.335 81.89,36.69 C81.89,36.69 75.773,47.083 70.27,51.975 C70.27,51.975 83.728,47.695 89.84,47.695 C89.84,47.695 67.22,69.713 88.615,99.073 C88.615,99.073 92.29,59.312 100.853,50.76 C100.853,50.76 97.18,59.312 97.793,66.043 C97.793,66.043 114.918,42.803 133.875,37.303 C133.875,37.303 127.758,46.475 127.14,53.81 C127.14,53.81 143.05,40.972 152.228,37.913 C152.228,37.913 148.553,46.475 149.165,51.975 C149.165,51.975 161.4,38.522 165.068,36.077 C165.068,36.077 176.077,56.263 185.86,64.21 L186.473,57.475 C186.473,57.475 199.523,73.938 201.025,89.35 C201.085,89.94 201.128,90.54 201.148,91.118 C201.763,107.015 216.438,69.095 204.213,48.308 C204.213,48.308 209.1,47.085 213.995,53.2 C213.995,53.2 206.043,25.068 180.965,22.008 C180.965,22.008 190.135,14.673 198.092,15.895 C198.092,15.895 168.125,-7.345 147.945,12.225" fill="#5B5C5B"/>
    <path d="M147.945,12.225 L150.345,11.18 C150.223,10.9 149.1,8.442 145.995,6.025 C142.9,3.602 137.823,1.327 130.273,1.342 C125.673,1.342 120.155,2.162 113.528,4.225 C112.403,4.575 111.65,5.632 111.688,6.81 C111.728,7.987 112.548,8.995 113.695,9.27 L113.84,9.305 C114.61,9.495 118.33,10.472 121.935,11.972 C123.733,12.717 125.5,13.6 126.8,14.505 C128.125,15.395 128.853,16.335 128.945,16.725 L131.428,15.895 L132.108,13.367 C131.953,13.327 127.433,12.117 120.773,12.117 C115.068,12.117 107.773,13.007 100.37,16.378 C92.973,19.737 85.508,25.625 79.65,35.335 L79.633,35.36 C79.633,35.36 79.55,35.505 79.378,35.787 C78.778,36.78 77.173,39.37 75.15,42.205 C73.138,45.037 70.668,48.13 68.533,50.02 C67.61,50.838 67.388,52.197 67.995,53.27 C68.605,54.34 69.89,54.842 71.065,54.47 C71.065,54.47 71.26,54.408 71.633,54.292 C72.93,53.892 76.303,52.88 79.968,51.978 C81.8,51.528 83.705,51.103 85.445,50.798 C87.18,50.49 88.765,50.31 89.84,50.312 L89.84,47.695 L88.015,45.82 C87.895,45.938 85.138,48.635 82.363,53.42 C79.595,58.2 76.798,65.107 76.795,73.548 C76.785,81.527 79.34,90.808 86.5,100.615 C87.143,101.495 88.26,101.885 89.31,101.595 C90.363,101.305 91.123,100.4 91.223,99.312 C91.223,99.312 91.278,98.713 91.393,97.622 C91.798,93.808 92.935,84.09 94.885,74.482 C95.858,69.683 97.038,64.905 98.398,60.962 C99.73,57.022 101.358,53.905 102.703,52.61 L100.853,50.76 L98.448,49.728 C98.42,49.792 97.605,51.695 96.78,54.455 C95.96,57.225 95.113,60.833 95.108,64.46 C95.108,65.065 95.13,65.675 95.188,66.28 C95.285,67.368 96.04,68.27 97.09,68.562 C98.14,68.857 99.253,68.472 99.9,67.595 L100.075,67.36 C100.993,66.15 105.448,60.415 111.798,54.412 C118.133,48.397 126.405,42.17 134.605,39.815 L133.875,37.302 L131.698,35.85 C131.658,35.91 130.08,38.278 128.398,41.635 C126.728,45.005 124.913,49.312 124.533,53.59 C124.445,54.64 124.988,55.63 125.915,56.123 C126.843,56.618 127.968,56.507 128.785,55.847 C128.785,55.847 129.018,55.66 129.463,55.307 C131.018,54.083 135.068,50.947 139.683,47.815 C144.275,44.685 149.533,41.552 153.055,40.395 L152.228,37.912 L149.823,36.88 C149.798,36.935 148.985,38.827 148.163,41.46 C147.348,44.105 146.49,47.445 146.478,50.655 C146.478,51.195 146.505,51.73 146.562,52.265 C146.678,53.285 147.383,54.15 148.358,54.465 C149.335,54.783 150.413,54.495 151.1,53.737 C151.103,53.735 151.858,52.905 153.055,51.615 C154.85,49.677 157.633,46.71 160.288,44.02 C161.613,42.677 162.91,41.4 164.02,40.37 C165.118,39.345 166.083,38.54 166.52,38.255 L165.068,36.077 L162.77,37.33 C162.793,37.37 165.573,42.467 169.61,48.603 C173.668,54.745 178.89,61.892 184.21,66.24 C184.96,66.853 185.985,66.997 186.875,66.62 C187.768,66.245 188.38,65.41 188.465,64.445 L189.078,57.713 L186.473,57.475 L184.423,59.103 L184.548,59.263 C185.213,60.123 188.393,64.342 191.543,70.052 C194.7,75.755 197.788,82.975 198.42,89.605 C198.475,90.15 198.515,90.7 198.533,91.205 L198.533,91.22 C198.598,92.69 198.735,93.823 199.103,94.882 C199.298,95.412 199.548,95.957 200.065,96.505 C200.325,96.775 200.665,97.037 201.08,97.23 C201.49,97.425 201.975,97.53 202.428,97.527 C203.178,97.525 203.783,97.275 204.223,97.01 C205.048,96.495 205.505,95.91 205.963,95.262 C206.735,94.132 207.398,92.72 208.053,90.985 C209.978,85.805 211.67,77.762 211.678,69.155 C211.67,61.623 210.375,53.65 206.468,46.982 L204.213,48.307 L204.848,50.847 L204.843,50.83 L204.845,50.853 L204.848,50.847 L204.843,50.83 L204.845,50.853 L205.295,50.825 C205.833,50.827 206.738,50.92 207.88,51.445 C209.02,51.972 210.425,52.938 211.95,54.838 C212.73,55.81 214.083,56.1 215.193,55.528 C216.303,54.958 216.853,53.69 216.513,52.49 C216.46,52.322 214.413,45.057 209.038,37.265 C206.348,33.37 202.812,29.337 198.233,26.045 C193.658,22.755 188.018,20.227 181.283,19.41 L180.965,22.007 L182.6,24.05 L182.608,24.045 C182.758,23.925 184.658,22.45 187.303,21.047 C189.943,19.635 193.333,18.358 196.24,18.375 C196.74,18.375 197.225,18.41 197.695,18.483 C198.875,18.665 200.025,18.028 200.498,16.93 C200.97,15.832 200.64,14.56 199.698,13.827 C199.608,13.757 195.78,10.792 189.875,7.805 C183.968,4.827 175.978,1.78 167.425,1.77 C160.24,1.745 152.598,4.04 146.123,10.345 L147.945,12.225 L150.345,11.18 L147.945,12.225 L149.768,14.102 C155.25,8.812 161.283,7.025 167.425,7.002 C174.7,6.99 182.043,9.7 187.513,12.477 C190.248,13.86 192.515,15.25 194.088,16.285 C194.873,16.8 195.485,17.23 195.895,17.525 L196.353,17.862 L196.463,17.945 L196.49,17.962 L198.093,15.895 L198.493,13.31 C197.735,13.192 196.983,13.14 196.24,13.14 C191.775,13.162 187.655,14.92 184.558,16.58 C181.465,18.255 179.41,19.9 179.33,19.962 C178.51,20.62 178.16,21.712 178.445,22.722 C178.733,23.733 179.605,24.477 180.648,24.605 C186.45,25.317 191.208,27.452 195.178,30.3 C201.125,34.56 205.25,40.487 207.845,45.368 C209.145,47.805 210.06,49.972 210.648,51.515 C210.943,52.287 211.153,52.903 211.29,53.315 L211.438,53.783 L211.468,53.89 L211.475,53.912 L213.995,53.2 L216.038,51.565 C214.065,49.095 211.978,47.565 210.07,46.688 C208.163,45.81 206.465,45.587 205.295,45.59 C204.355,45.59 203.745,45.725 203.575,45.77 C202.778,45.97 202.115,46.537 201.798,47.298 C201.48,48.055 201.538,48.927 201.955,49.635 C205.193,55.115 206.45,62.222 206.443,69.155 C206.445,75.57 205.383,81.815 204.073,86.332 C203.423,88.588 202.703,90.42 202.1,91.543 C201.81,92.097 201.533,92.475 201.433,92.58 L201.408,92.605 L201.588,92.79 L201.433,92.585 L201.408,92.605 L201.588,92.79 L201.433,92.585 L202.428,93.89 L202.428,92.293 C201.8,92.302 201.498,92.54 201.433,92.585 L202.428,93.89 L202.428,92.293 L202.428,94.317 L203.278,92.48 C203.025,92.36 202.705,92.29 202.428,92.293 L202.428,94.317 L203.278,92.48 L202.578,93.99 L204.005,93.082 C203.94,92.98 203.733,92.695 203.278,92.48 L202.578,93.99 L204.005,93.082 L203.485,93.412 L204.045,93.155 L204.005,93.082 L203.485,93.412 L204.045,93.155 L204,93.018 C203.913,92.722 203.798,92.022 203.763,91.018 L203.763,91.03 C203.743,90.38 203.693,89.728 203.63,89.092 C202.8,80.757 198.998,72.558 195.458,66.335 C191.91,60.123 188.578,55.92 188.523,55.85 C187.86,55.013 186.748,54.662 185.725,54.967 C184.703,55.272 183.963,56.175 183.865,57.24 L183.253,63.972 L185.86,64.21 L187.51,62.177 C183.048,58.577 177.873,51.66 173.983,45.725 C172.025,42.752 170.365,40.015 169.198,38.028 C168.615,37.035 168.153,36.23 167.84,35.675 C167.683,35.395 167.562,35.18 167.485,35.037 L167.365,34.822 C167.013,34.175 166.413,33.712 165.695,33.535 C164.978,33.357 164.23,33.49 163.618,33.9 C162.983,34.322 162.34,34.85 161.605,35.495 C159.062,37.73 155.52,41.368 152.55,44.498 C149.588,47.62 147.235,50.205 147.23,50.213 L149.165,51.975 L151.765,51.685 C151.73,51.373 151.713,51.028 151.713,50.655 C151.703,48.417 152.41,45.388 153.16,43.02 C153.53,41.833 153.905,40.8 154.183,40.07 C154.323,39.705 154.438,39.417 154.518,39.225 L154.605,39.007 L154.633,38.945 C155.04,37.995 154.853,36.903 154.153,36.14 C153.453,35.38 152.38,35.103 151.4,35.43 C148.808,36.298 145.985,37.745 143.11,39.43 C134.523,44.48 125.55,51.735 125.498,51.775 L127.14,53.81 L129.75,54.03 C129.988,50.975 131.54,47.025 133.08,43.978 C133.848,42.445 134.6,41.125 135.155,40.195 C135.433,39.73 135.663,39.362 135.82,39.115 L135.998,38.835 L136.053,38.755 C136.663,37.84 136.635,36.64 135.985,35.755 C135.335,34.868 134.2,34.482 133.145,34.787 C122.933,37.78 113.715,45.225 106.895,51.862 C100.093,58.513 95.74,64.418 95.685,64.49 L97.793,66.043 L100.4,65.805 C100.36,65.375 100.343,64.925 100.343,64.46 C100.335,61.67 101.053,58.43 101.798,55.952 C102.168,54.71 102.54,53.653 102.815,52.915 C102.953,52.548 103.068,52.257 103.145,52.065 L103.233,51.85 L103.258,51.792 C103.753,50.638 103.36,49.298 102.32,48.592 C101.28,47.888 99.893,48.02 99.003,48.908 C97.613,50.305 96.513,52.088 95.51,54.153 C93.77,57.767 92.363,62.298 91.165,67.132 C87.595,81.597 86.02,98.765 86.01,98.832 L88.615,99.073 L90.73,97.53 C84.153,88.485 82.04,80.423 82.03,73.548 C82.028,66.285 84.448,60.265 86.893,56.045 C88.113,53.938 89.335,52.287 90.24,51.182 C90.69,50.63 91.063,50.213 91.315,49.94 L91.598,49.642 L91.66,49.577 L91.67,49.568 L91.053,48.94 L91.668,49.572 L91.67,49.568 L91.053,48.94 L91.668,49.572 C92.433,48.827 92.668,47.697 92.268,46.71 C91.865,45.722 90.908,45.077 89.84,45.077 C88.018,45.083 85.93,45.377 83.718,45.792 C77.123,47.042 69.53,49.467 69.478,49.482 L70.27,51.975 L72.01,53.93 C75.065,51.2 78.013,47.28 80.298,43.985 C82.568,40.695 84.123,38.052 84.145,38.017 L81.89,36.69 L84.13,38.042 C89.475,29.215 96.015,24.122 102.543,21.14 C109.063,18.167 115.608,17.35 120.773,17.35 C123.783,17.35 126.315,17.628 128.078,17.903 C128.955,18.038 129.643,18.175 130.1,18.272 C130.33,18.323 130.503,18.362 130.61,18.387 L130.728,18.417 L130.748,18.422 C131.675,18.672 132.675,18.39 133.333,17.692 C133.993,16.993 134.215,15.98 133.913,15.067 C133.518,13.9 132.843,12.945 132.065,12.122 C130.698,10.69 128.978,9.592 127.148,8.627 C121.68,5.78 115.018,4.212 114.915,4.177 L114.305,6.725 L115.083,9.222 C121.303,7.287 126.3,6.575 130.273,6.575 C136.803,6.59 140.562,8.447 142.783,10.16 C143.89,11.02 144.608,11.862 145.038,12.46 C145.253,12.76 145.395,12.997 145.475,13.142 L145.553,13.287 L145.558,13.297 L146.9,12.677 L145.543,13.267 L145.558,13.297 L146.9,12.677 L145.543,13.267 C145.885,14.055 146.595,14.625 147.438,14.792 C148.278,14.957 149.15,14.7 149.768,14.102 L147.945,12.225" fill="#4D4E4C"/>
    <path d="M165.61,353.17 C165.61,353.17 161.838,390.083 157.16,417.705 L211.988,433.432 C211.988,433.432 224.308,404.108 231.955,388.805 C239.61,373.508 269.358,342.91 248.107,313.585 L169.062,322.083" fill="#5CBDBB"/>
    <path d="M163.007,352.903 C163.005,352.91 162.772,355.198 162.347,359.083 C161.07,370.733 158.07,396.658 154.58,417.268 C154.357,418.585 155.155,419.853 156.44,420.223 L211.265,435.95 C212.542,436.313 213.887,435.67 214.4,434.445 C214.402,434.44 215.167,432.623 216.44,429.638 C220.252,420.698 228.62,401.328 234.297,389.975 C235.612,387.338 237.767,384 240.252,380.203 C243.977,374.5 248.442,367.745 252.005,360.28 C255.562,352.818 258.24,344.613 258.245,335.985 C258.257,328.118 255.957,319.938 250.227,312.048 C249.677,311.29 248.757,310.883 247.827,310.983 L168.782,319.48 C167.345,319.633 166.305,320.925 166.46,322.363 C166.615,323.8 167.905,324.838 169.342,324.685 L248.387,316.188 L248.107,313.585 L245.987,315.12 C251.09,322.183 252.997,329.118 253.01,335.985 C253.025,346.005 248.775,355.983 243.66,364.895 C241.107,369.348 238.36,373.533 235.87,377.34 C233.38,381.153 231.15,384.573 229.615,387.635 C221.892,403.088 209.587,432.39 209.575,432.42 L211.987,433.433 L212.707,430.915 L157.882,415.188 L157.16,417.705 L159.742,418.143 C164.44,390.385 168.21,353.465 168.215,353.435 C168.36,351.998 167.315,350.713 165.877,350.565 C164.437,350.418 163.152,351.465 163.007,352.903" fill="#4D4E4C"/>
    <path d="M104.028,554.215 C105.452,551.485 110.033,551.408 113.028,551.715 C117.888,552.225 121.29,555.163 124.91,557.935 C130.038,561.868 136.97,563.995 140.52,569.728 C144.735,576.55 142.247,584.65 138.462,591.065 C127.698,585.463 117.918,577.67 110.232,568.31 C107.76,565.313 103.22,559.255 103.75,555.06 C103.79,554.773 103.882,554.498 104.028,554.215" fill="#976D4F"/>
    <path d="M104.027,554.215 L106.35,555.425 L106.702,555.037 C106.985,554.823 107.533,554.583 108.253,554.43 C108.967,554.278 109.838,554.21 110.7,554.21 C111.412,554.21 112.125,554.253 112.757,554.318 C114.722,554.528 116.387,555.208 118.088,556.22 C119.783,557.235 121.47,558.592 123.317,560.013 C126.155,562.177 129.247,563.717 131.93,565.383 C134.63,567.045 136.86,568.778 138.295,571.102 C139.575,573.185 140.098,575.352 140.102,577.662 C140.117,581.595 138.46,585.94 136.208,589.735 L138.462,591.065 L139.67,588.742 C129.21,583.297 119.7,575.72 112.255,566.65 C111.132,565.287 109.573,563.273 108.347,561.195 C107.1,559.133 106.287,556.958 106.325,555.76 L106.347,555.39 L106.345,555.412 L106.1,555.38 L106.335,555.458 L106.345,555.412 L106.1,555.38 L106.335,555.458 L106.353,555.417 L106.35,555.425 L104.027,554.215 L101.702,553.01 C101.445,553.505 101.238,554.092 101.155,554.71 L101.152,554.732 C101.11,555.078 101.09,555.422 101.09,555.76 C101.128,558.708 102.41,561.388 103.84,563.857 C105.293,566.31 106.995,568.497 108.213,569.975 C116.135,579.622 126.185,587.625 137.253,593.388 C138.488,594.027 140.01,593.59 140.715,592.395 C143.24,588.1 145.322,583.018 145.337,577.662 C145.342,574.535 144.58,571.31 142.747,568.35 C140.63,564.945 137.617,562.747 134.682,560.927 C131.73,559.112 128.792,557.625 126.503,555.857 C124.73,554.503 122.905,553.008 120.777,551.73 C118.658,550.458 116.192,549.412 113.3,549.112 C112.512,549.03 111.63,548.975 110.7,548.975 C109.192,548.977 107.56,549.11 105.955,549.635 C105.155,549.9 104.355,550.268 103.607,550.812 C102.865,551.355 102.18,552.092 101.707,553.003 L101.702,553.01 L104.027,554.215" fill="#4D4E4C"/>
    <path d="M136.93,169.4 C136.93,169.4 136.315,216.495 166.9,215.265 C166.9,215.265 196.258,213.432 187.695,159.005 C187.695,159.005 201.762,156.555 205.425,158.39 C205.425,158.39 201.762,220.775 237.232,228.117 C237.232,228.117 240.292,297.225 260.473,320.457 C260.473,320.457 221.333,355.323 139.99,341.258 C139.99,341.258 127.168,273.147 122.272,246.85 C122.272,246.85 117.615,220.162 121.033,176.738 C121.033,176.738 128.988,168.787 136.93,169.4" fill="#FFFBCF"/>
    <path d="M136.93,169.4 L134.312,169.362 L134.31,169.602 C134.32,171.41 134.433,183.017 138.253,194.515 C140.173,200.26 143.027,206.022 147.463,210.467 C151.875,214.917 158.005,217.932 165.735,217.907 C166.152,217.907 166.575,217.897 167.003,217.882 L167.062,217.877 C167.395,217.855 173.588,217.422 179.808,211.967 C182.908,209.245 185.963,205.272 188.198,199.64 C190.44,194.007 191.878,186.732 191.878,177.332 C191.878,171.85 191.39,165.64 190.28,158.597 L187.695,159.005 L188.145,161.582 L188.452,161.53 C189.88,161.29 196.15,160.317 200.605,160.325 C201.55,160.325 202.408,160.37 203.068,160.457 C203.725,160.535 204.193,160.69 204.253,160.732 L205.425,158.39 L202.812,158.237 C202.808,158.28 202.7,160.157 202.7,163.285 C202.705,170.862 203.32,185.745 207.755,199.777 C209.98,206.795 213.165,213.62 217.838,219.192 C222.497,224.757 228.732,229.042 236.702,230.68 L237.232,228.117 L234.618,228.232 C234.62,228.295 235.387,245.647 238.7,265.995 C240.36,276.172 242.65,287.098 245.835,297.025 C249.03,306.955 253.068,315.897 258.495,322.172 L260.473,320.457 L258.73,318.5 L258.725,318.505 C258.205,318.947 231.725,341.977 177.398,341.982 C166.26,341.982 153.945,341.012 140.435,338.68 L139.99,341.258 L142.562,340.775 C142.56,340.762 141.762,336.515 140.482,329.72 C136.648,309.332 128.518,266.087 124.848,246.372 L122.272,246.85 L124.85,246.4 L124.827,246.257 C124.573,244.717 122.397,230.857 122.397,207.895 C122.397,198.907 122.73,188.527 123.643,176.942 L121.033,176.737 L122.882,178.587 L122.89,178.585 C123.025,178.447 124.818,176.712 127.358,175.08 C129.895,173.425 133.173,171.957 136.045,171.985 C136.275,171.985 136.503,171.992 136.725,172.01 L136.93,169.4 L134.312,169.362 L136.93,169.4 L137.133,166.79 C136.765,166.762 136.402,166.747 136.045,166.747 C131.372,166.775 127.263,168.892 124.235,170.865 C121.213,172.86 119.265,174.807 119.183,174.887 C118.74,175.33 118.473,175.907 118.423,176.532 C117.5,188.26 117.163,198.777 117.163,207.895 C117.163,232.742 119.673,247.175 119.695,247.3 L119.7,247.33 C124.595,273.633 137.417,341.74 137.417,341.74 C137.62,342.812 138.47,343.65 139.545,343.835 C153.34,346.223 165.955,347.217 177.398,347.217 C234.15,347.225 261.902,322.702 262.212,322.413 C263.277,321.46 263.383,319.82 262.445,318.74 C257.788,313.397 253.875,304.99 250.82,295.427 C246.215,281.082 243.452,264.172 241.863,250.897 C241.068,244.257 240.562,238.522 240.258,234.452 C240.105,232.417 240.003,230.8 239.938,229.692 C239.872,228.585 239.848,228.002 239.848,228.002 C239.792,226.802 238.938,225.797 237.76,225.555 C231.03,224.15 225.928,220.665 221.845,215.825 C215.738,208.58 212.167,198.19 210.232,188.217 C208.288,178.25 207.933,168.74 207.935,163.285 C207.935,161.782 207.963,160.585 207.988,159.772 C208,159.365 208.012,159.052 208.023,158.845 L208.038,158.545 C208.1,157.505 207.53,156.517 206.598,156.05 C205.66,155.59 204.74,155.405 203.75,155.265 C202.76,155.137 201.708,155.092 200.605,155.09 C194.77,155.1 187.32,156.417 187.245,156.425 C185.838,156.67 184.887,157.997 185.11,159.41 C186.18,166.22 186.643,172.162 186.643,177.332 C186.643,186.202 185.285,192.802 183.333,197.705 C180.395,205.055 176.175,208.672 172.708,210.607 C170.973,211.565 169.42,212.082 168.325,212.357 C167.78,212.495 167.35,212.57 167.073,212.612 L166.775,212.65 L166.723,212.655 L166.783,213.407 L166.735,212.652 L166.723,212.655 L166.783,213.407 L166.735,212.652 L166.9,215.265 L166.795,212.65 C166.435,212.665 166.083,212.672 165.735,212.672 C159.335,212.647 154.8,210.365 151.163,206.765 C145.728,201.375 142.675,192.682 141.158,184.997 C139.622,177.327 139.542,170.732 139.545,169.602 L139.545,169.435 C139.565,168.055 138.51,166.897 137.133,166.79 L136.93,169.4" fill="#4D4E4C"/>
    <path d="M54.893,526.375 C54.893,526.375 70.993,515.64 87.388,532.045 C87.388,532.045 104.983,558.277 117.5,565.13 C130.023,571.987 148.805,570.497 136.875,596.135 L54.893,526.375" fill="#976D4F"/>
    <path d="M54.892,526.375 L56.345,528.553 L55.837,527.79 L56.337,528.558 L56.345,528.553 L55.837,527.79 L56.337,528.558 C56.405,528.498 61.092,525.523 67.532,525.543 C72.62,525.568 78.855,527.245 85.535,533.898 L87.387,532.045 L85.212,533.503 C85.24,533.543 89.67,540.15 95.71,547.66 C98.732,551.415 102.155,555.398 105.66,558.918 C109.175,562.438 112.735,565.495 116.242,567.425 C121.522,570.29 127.39,571.705 131.592,573.765 C133.697,574.78 135.33,575.91 136.38,577.235 C137.425,578.57 138.048,580.103 138.067,582.565 C138.075,585.405 137.092,589.478 134.503,595.033 L136.875,596.135 L138.572,594.14 L56.59,524.38 L54.892,526.375 L56.345,528.553 L54.892,526.375 L53.195,528.37 L135.177,598.13 C135.798,598.655 136.64,598.868 137.435,598.693 C138.227,598.518 138.905,597.975 139.247,597.238 C142.015,591.278 143.292,586.57 143.3,582.565 C143.32,579.12 142.26,576.183 140.472,573.97 C137.78,570.643 133.925,568.933 130.04,567.423 C126.135,565.933 122.077,564.66 118.757,562.835 C116.005,561.338 112.672,558.55 109.37,555.223 C104.395,550.233 99.412,544.045 95.705,539.13 C93.85,536.673 92.307,534.528 91.235,533.005 C90.697,532.24 90.275,531.633 89.992,531.218 C89.705,530.803 89.562,530.588 89.562,530.588 L89.24,530.195 C81.715,522.633 73.857,520.28 67.532,520.308 C59.242,520.33 53.68,524.053 53.44,524.198 C52.757,524.653 52.327,525.4 52.28,526.22 C52.232,527.043 52.57,527.835 53.195,528.37 L54.892,526.375" fill="#4D4E4C"/>
    <path d="M119.013,572.228 C114.882,570.88 110.98,568.673 107.483,566.148 C99.545,560.438 93.143,552.708 88.29,544.265 C80.615,530.948 62.683,516.865 50.06,529.478 C50.053,529.488 23.295,556.255 70.463,579.208 C81.022,584.345 89.448,592.83 99.522,598.755 C109.062,604.372 123.9,608.663 133.285,600.367 C138.21,596.015 139.81,589.513 137.345,583.42 C134.31,575.903 126.96,574.548 120.038,572.548 C119.695,572.445 119.345,572.34 119.013,572.228" fill="#CAAA8D"/>
    <path d="M119.012,572.227 L119.825,569.737 C116.035,568.503 112.35,566.432 109.015,564.025 C101.442,558.58 95.26,551.143 90.56,542.963 C87.6,537.833 83.295,532.695 78.262,528.732 C73.232,524.795 67.43,521.96 61.362,521.94 C56.765,521.917 52.097,523.708 48.21,527.628 L48.225,527.612 L48.167,527.67 C47.837,528.01 45.815,530.128 43.827,533.585 C41.85,537.035 39.88,541.862 39.875,547.583 C39.862,552.778 41.567,558.653 46.132,564.458 C50.69,570.273 58.025,576.062 69.317,581.56 C74.332,584 78.95,587.297 83.607,590.783 C88.268,594.263 92.963,597.932 98.195,601.01 C104.215,604.538 112.132,607.598 120.033,607.62 C125.315,607.63 130.688,606.165 135.018,602.33 C138.932,598.883 141.113,594.122 141.105,589.167 C141.105,586.922 140.663,584.64 139.77,582.44 C138.012,578.02 134.765,575.255 131.31,573.57 C127.847,571.862 124.14,571.015 120.765,570.033 L120.787,570.04 C120.448,569.938 120.125,569.838 119.853,569.745 L119.825,569.737 L119.012,572.227 L118.175,574.708 C118.565,574.84 118.942,574.953 119.285,575.055 L119.31,575.06 C122.857,576.08 126.285,576.913 128.985,578.26 C131.695,579.635 133.64,581.302 134.917,584.4 C135.565,586.003 135.87,587.605 135.87,589.167 C135.863,592.602 134.413,595.867 131.55,598.408 C128.34,601.235 124.412,602.372 120.033,602.383 C113.535,602.405 106.245,599.693 100.85,596.5 C96.007,593.653 91.455,590.117 86.743,586.59 C82.027,583.068 77.15,579.552 71.607,576.852 C60.805,571.6 54.153,566.215 50.252,561.23 C46.357,556.232 45.125,551.67 45.11,547.583 C45.105,542.955 46.79,538.855 48.53,535.91 C49.395,534.44 50.265,533.268 50.91,532.475 C51.23,532.08 51.495,531.78 51.67,531.588 L51.868,531.375 L51.91,531.33 L51.917,531.323 L51.512,530.925 L51.915,531.325 L51.917,531.323 L51.512,530.925 L51.915,531.325 L50.74,530.158 L51.912,531.328 L51.915,531.325 L50.74,530.158 L51.912,531.328 L50.28,529.698 L51.912,531.328 L50.28,529.698 L51.912,531.328 L50.075,529.492 L51.897,531.343 L51.912,531.328 L50.075,529.492 L51.897,531.343 L51.912,531.328 C54.97,528.305 58.055,527.198 61.362,527.175 C65.707,527.155 70.588,529.348 75.027,532.85 C79.465,536.328 83.42,541.045 86.022,545.573 C91.025,554.273 97.65,562.295 105.955,568.273 C109.61,570.91 113.732,573.255 118.202,574.715 L119.012,572.227 L118.175,574.708 L119.012,572.227" fill="#4D4E4C"/>
    <path d="M106.61,184.653 C130.077,225.358 164.417,269.46 208.51,288.958 C224.4,295.985 241.815,298.807 259.117,299.44 C267.087,299.733 278.122,301.057 279.927,296.35 C279.927,296.35 283.137,288.01 282.497,276.453 C282.497,276.453 195.192,311.755 122.01,172.453 C122.01,172.453 107.887,178.233 106.61,184.653" fill="#EA8E9E"/>
    <path d="M106.61,184.653 L104.34,185.96 C116.15,206.435 130.695,227.788 147.897,246.528 C165.1,265.263 184.965,281.405 207.452,291.35 C223.755,298.558 241.503,301.415 259.022,302.058 C262.11,302.168 265.783,302.45 269.28,302.45 C271.948,302.445 274.51,302.3 276.802,301.683 C277.948,301.365 279.04,300.928 280.035,300.23 C281.02,299.54 281.9,298.535 282.37,297.288 C282.443,297.092 285.193,289.92 285.2,279.51 C285.2,278.475 285.17,277.405 285.112,276.308 C285.062,275.463 284.617,274.698 283.9,274.243 C283.182,273.788 282.302,273.708 281.515,274.025 L281.508,274.028 C281.137,274.178 271.695,277.83 256.725,277.83 C241.472,277.823 220.495,274.073 197.247,258.925 C174.007,243.773 148.455,217.158 124.327,171.238 C123.697,170.04 122.267,169.52 121.017,170.03 C120.942,170.063 117.322,171.543 113.427,173.91 C111.477,175.1 109.457,176.505 107.742,178.15 C106.045,179.8 104.555,181.693 104.042,184.143 C103.917,184.768 104.022,185.41 104.34,185.96 L106.61,184.653 L109.175,185.165 C109.302,184.403 110.055,183.165 111.367,181.925 C113.307,180.05 116.267,178.218 118.702,176.933 C119.92,176.285 121.007,175.765 121.785,175.41 C122.175,175.233 122.485,175.098 122.695,175.005 L122.93,174.905 L123,174.875 L122.01,172.453 L119.692,173.67 C144.13,220.195 170.255,247.578 194.39,263.31 C218.518,279.048 240.615,283.07 256.725,283.065 C273.062,283.062 283.255,278.967 283.48,278.88 L282.497,276.453 L279.883,276.598 C279.94,277.595 279.962,278.568 279.962,279.51 C279.965,284.248 279.33,288.273 278.698,291.088 C278.383,292.495 278.07,293.6 277.842,294.34 C277.728,294.713 277.633,294.993 277.568,295.173 L277.5,295.368 L277.485,295.408 L277.482,295.41 C277.41,295.588 277.325,295.725 277.012,295.955 C276.552,296.295 275.55,296.68 274.18,296.898 C272.812,297.128 271.11,297.217 269.28,297.217 C266.06,297.217 262.448,296.945 259.212,296.825 C242.128,296.203 225.045,293.41 209.57,286.562 C187.962,277.013 168.61,261.353 151.755,242.988 C134.895,224.625 120.537,203.573 108.877,183.345 L106.61,184.653 L109.175,185.165 L106.61,184.653" fill="#4D4E4C"/>
    <path d="M120.4,113.552 C120.4,120.765 114.552,126.61 107.345,126.61 C100.14,126.61 94.295,120.765 94.295,113.552 C94.295,106.35 100.14,100.502 107.345,100.502 C114.552,100.502 120.4,106.35 120.4,113.552" fill="#EFABA1"/>
    <path d="M195.15,99.315 C195.15,106.523 189.307,112.365 182.095,112.365 C174.89,112.365 169.047,106.523 169.047,99.315 C169.047,92.105 174.89,86.26 182.095,86.26 C189.307,86.26 195.15,92.105 195.15,99.315" fill="#EFABA1"/>
    <path d="M154.38,62.475 L154.408,62.445 C154.59,62.242 155.635,61.147 157.155,60.14 C158.675,59.122 160.64,58.235 162.635,58.242 C163.705,58.245 164.798,58.48 165.958,59.1 C167.115,59.72 168.348,60.747 169.605,62.39 C170.132,63.077 171.117,63.21 171.807,62.682 C172.495,62.155 172.628,61.17 172.1,60.48 C170.625,58.552 169.057,57.197 167.443,56.33 C165.83,55.462 164.18,55.1 162.635,55.102 C159.53,55.112 156.912,56.477 155.057,57.767 C153.202,59.067 152.08,60.335 152.025,60.397 C151.452,61.047 151.515,62.04 152.165,62.612 C152.815,63.187 153.807,63.125 154.38,62.475" fill="#4D4E4C"/>
    <path d="M124.132,63.548 C124.075,63.485 123.167,62.448 121.632,61.382 C120.1,60.325 117.912,59.202 115.272,59.193 C113.63,59.188 111.837,59.663 110.122,60.805 C108.402,61.948 106.755,63.722 105.212,66.295 C104.767,67.037 105.007,68.003 105.752,68.448 C106.495,68.895 107.46,68.653 107.907,67.91 C109.272,65.632 110.627,64.24 111.86,63.425 C113.095,62.61 114.207,62.338 115.272,62.335 C116.967,62.325 118.617,63.11 119.845,63.963 C120.452,64.385 120.95,64.815 121.287,65.13 L121.665,65.505 L121.752,65.6 L121.77,65.618 C122.34,66.27 123.335,66.335 123.987,65.765 C124.637,65.193 124.705,64.2 124.132,63.548" fill="#4D4E4C"/>
  </g>
</svg>
