<?xml version="1.0" encoding="UTF-8" standalone="no"?>
<svg xmlns:dc="http://purl.org/dc/elements/1.1/" xmlns:cc="http://creativecommons.org/ns#" xmlns:rdf="http://www.w3.org/1999/02/22-rdf-syntax-ns#" xmlns:svg="http://www.w3.org/2000/svg" xmlns="http://www.w3.org/2000/svg" id="svg119075" version="1.1" viewBox="0 0 574.18195 558.08759" height="558.08759mm" width="574.18195mm">
  <defs id="defs119069"/>
  <metadata id="metadata119072">
    <rdf:RDF>
      <cc:Work rdf:about="">
        <dc:format>image/svg+xml</dc:format>
        <dc:type rdf:resource="http://purl.org/dc/dcmitype/StillImage"/>
        <dc:title/>
      </cc:Work>
    </rdf:RDF>
  </metadata>
  <g transform="translate(310.29866,115.37237)" id="layer1">
    <path id="path120195" d="m -141.5395,442.52919 c -0.97013,-0.11127 -2.55763,-0.62121 -3.52777,-1.1332 -0.97014,-0.51198 -2.90751,-1.35255 -4.30526,-1.86792 -1.39775,-0.51537 -2.90588,-1.22276 -3.35139,-1.57201 -0.44551,-0.34922 -1.32872,-0.74824 -1.96268,-0.88671 -0.76895,-0.16792 -1.32793,-0.59065 -1.67918,-1.26989 -0.81364,-1.57343 -4.47385,-3.88317 -6.63678,-4.18807 -1.87331,-0.26409 -4.46931,-1.50425 -8.17027,-3.9031 -1.17646,-0.76253 -2.57669,-1.38159 -3.1523,-1.39362 -0.65515,-0.0137 -1.6272,-0.5098 -2.64583,-1.35039 -0.88561,-0.73082 -2.20608,-1.7712 -2.93438,-2.31197 -1.43492,-1.06542 -3.13665,-3.52107 -4.56665,-6.58982 -0.79708,-1.71051 -1.36409,-4.86046 -1.80976,-10.05388 -0.0404,-0.4705 -0.47489,-0.8406 -1.30535,-1.11182 -0.68466,-0.22362 -2.2195,-0.97783 -3.41075,-1.67601 -1.19126,-0.69818 -2.46108,-1.2694 -2.82182,-1.2694 -0.36074,0 -0.96903,-0.21445 -1.35175,-0.47653 -0.38272,-0.26208 -1.12877,-0.5817 -1.65789,-0.71025 -0.52912,-0.12855 -2.216,-1.46191 -3.74863,-2.96305 -2.97415,-2.91306 -4.35322,-5.18717 -5.8772,-9.69165 -0.59155,-1.74851 -1.2065,-2.814 -2.09232,-3.62539 -0.69,-0.632 -1.25802,-1.44519 -1.26229,-1.80711 -0.004,-0.36188 -0.34215,-1.37234 -0.75088,-2.24546 -0.50055,-1.06931 -0.83268,-2.73908 -1.01745,-5.11528 -0.29563,-3.80196 -0.68987,-5.91746 -1.32151,-7.09133 -0.25962,-0.48249 -0.31198,-1.5295 -0.14996,-2.99861 0.31061,-2.81644 -0.46965,-12.65819 -1.16983,-14.75553 -0.67063,-2.00886 -0.6708,-3.20036 -3.5e-4,-3.20036 0.73508,0 1.30186,0.99815 3.30515,5.82083 2.27337,5.47282 3.50521,9.54737 4.12404,13.641 0.66695,4.41191 1.04218,6.0725 1.93966,8.584 0.41601,1.16417 0.88984,3.17461 1.05296,4.46761 0.16312,1.29304 0.52672,2.80116 0.80799,3.35139 0.28128,0.55026 0.62672,1.55607 0.76766,2.23517 0.68854,3.31777 3.42874,8.11389 4.63577,8.11389 0.24294,0 1.17802,0.63729 2.07797,1.41615 1.88514,1.6316 3.36138,2.4644 4.3684,2.4644 0.39129,0 1.12429,0.54956 1.64689,1.23472 0.78351,1.02722 1.16585,1.23473 2.27521,1.23473 h 1.33343 l 0.24233,-2.55764 c 0.13328,-1.40671 0.45301,-3.66889 0.71049,-5.02709 0.25749,-1.35819 0.57213,-3.34257 0.6992,-4.40972 0.24418,-2.05066 2.42416,-9.79516 3.17769,-11.28889 0.24469,-0.48507 0.79936,-1.99319 1.23259,-3.35139 0.43323,-1.35819 0.98757,-2.94569 1.23188,-3.52777 1.39141,-3.3152 2.62385,-7.9828 3.72591,-14.11112 0.38381,-2.1343 0.86305,-4.3568 1.06498,-4.93889 0.20193,-0.58208 0.76726,-3.41785 1.25631,-6.30174 0.48903,-2.88385 1.02936,-5.61213 1.20073,-6.06283 0.17135,-0.45071 0.49623,-2.53619 0.72195,-4.63441 0.22571,-2.09818 0.72266,-4.6076 1.10433,-5.57643 0.41194,-1.0457 0.81371,-3.26778 0.98868,-5.46805 0.16211,-2.0386 0.45659,-5.05591 0.6544,-6.70515 0.98553,-8.21683 1.1878,-13.61997 0.74774,-19.97392 -0.33184,-4.79143 -0.34079,-7.02123 -0.0372,-9.27453 0.21979,-1.6316 0.40294,-3.69535 0.40698,-4.58611 0.004,-0.8908 0.25037,-2.65148 0.54738,-3.91266 0.29702,-1.26118 0.55318,-2.61055 0.56925,-2.99861 0.0654,-1.57829 2.41005,-13.99279 2.76969,-14.66476 0.21309,-0.39818 0.57512,-0.66238 0.80452,-0.58713 0.75031,0.24617 2.00459,2.45622 2.00459,3.53212 0,1.86852 -1.11861,8.16321 -1.62506,9.1446 -0.65014,1.25984 -0.62392,3.11122 0.0578,4.08457 0.45019,0.64272 0.57969,2.39352 0.71688,9.69168 0.0921,4.89899 0.31095,9.46288 0.48637,10.14198 0.29679,1.14896 0.99192,7.05054 1.01804,8.64305 0.006,0.38806 0.0688,3.9485 0.13865,7.91207 0.1164,6.60082 0.0736,7.2523 -0.5092,7.75134 -0.8943,0.7657 -0.81295,2.42474 0.15746,3.21126 l 0.79375,0.64336 -0.74587,1.00986 c -0.58153,0.78733 -0.80357,1.77941 -1.00772,4.50247 -0.14402,1.92091 -0.48306,4.11956 -0.75344,4.8859 -0.27037,0.76631 -0.49158,1.89763 -0.49158,2.51407 0,2.38154 -3.11391,11.93324 -4.72353,14.48912 -0.24439,0.38805 -0.88259,2.1343 -1.41822,3.88055 -0.53564,1.74625 -1.13704,3.65125 -1.33645,4.23334 -0.7606,2.22024 -1.42892,4.69212 -2.05069,7.58472 -1.20165,5.59043 -1.5293,6.87828 -1.86135,7.31626 -0.44876,0.59192 -0.95145,0.22203 -0.9819,-0.72249 -0.029,-0.90096 -1.30488,1.75242 -1.63866,3.40794 -0.16846,0.83555 -0.0949,0.98488 0.43458,0.88194 0.35055,-0.0682 0.81017,-0.62847 1.02138,-1.24513 0.2112,-0.61669 0.52531,-1.25169 0.69802,-1.41111 0.44343,-0.4094 -0.008,3.21769 -0.51893,4.17311 l -0.41693,0.77904 -0.69717,-0.95705 c -0.86276,-1.18434 -1.54924,-0.77466 -1.8938,1.1303 -0.12808,0.7081 -0.43059,1.68434 -0.67226,2.16941 -0.24166,0.48507 -0.6249,2.49643 -0.85163,4.46969 -0.22673,1.9733 -0.72217,4.67152 -1.10096,5.99613 -0.3788,1.32458 -0.68872,3.07319 -0.68872,3.88578 0,0.81262 -0.13289,1.84499 -0.2953,2.29418 -0.46155,1.27653 0.45887,10.24809 1.54667,15.07564 0.16489,0.73177 0.8749,1.78404 1.80529,2.67551 1.64422,1.57543 1.82624,1.68444 5.58639,3.34553 1.3582,0.6 2.88427,1.31889 3.39127,1.59755 0.507,0.2787 2.19413,1.04327 3.74918,1.69912 1.55504,0.65582 3.37671,1.61142 4.04815,2.12358 0.67144,0.51213 1.31602,0.83591 1.43239,0.71956 0.27476,-0.27477 6.92115,1.99249 9.42763,3.216 2.53459,1.23726 4.44565,2.26631 6.17915,3.32729 4.50396,2.75668 5.41355,3.03396 6.60038,2.01221 1.35194,-1.16392 2.14908,-3.78439 2.04264,-6.71491 -0.0501,-1.37915 -0.0655,-2.90446 -0.0342,-3.38953 0.0312,-0.48507 0.10054,-2.78694 0.15395,-5.11527 0.0534,-2.32834 0.22204,-5.28363 0.37474,-6.56728 0.25912,-2.17826 0.22229,-2.38548 -0.55212,-3.10698 l -0.82976,-0.77301 0.88192,-0.66439 c 0.81854,-0.61662 0.89956,-0.95116 1.12735,-4.65412 0.35641,-5.79403 0.57701,-8.28675 0.96189,-10.86895 0.18798,-1.26118 0.43301,-3.88055 0.54451,-5.82083 0.1115,-1.94028 0.2868,-4.69297 0.38956,-6.1171 0.10843,-1.50283 0.0531,-2.50666 -0.13188,-2.39236 -0.17529,0.10834 -0.4254,1.43228 -0.5558,2.9421 -0.42858,4.96263 -0.61798,6.61857 -0.81832,7.15486 -0.10872,0.29104 -0.24591,1.75468 -0.30486,3.25258 -0.17522,4.45233 -1.13604,4.97854 -1.79079,0.98075 -0.43166,-2.63564 -0.13612,-8.31052 0.70886,-13.61108 0.30675,-1.92426 0.71634,-5.48407 0.91019,-7.91076 0.19387,-2.42665 0.59291,-5.20478 0.88677,-6.17361 0.29387,-0.9688 0.53602,-2.27454 0.53813,-2.90156 0.002,-0.62703 0.40063,-3.55808 0.88564,-6.51345 0.48501,-2.95539 0.79467,-5.648 0.68816,-5.9836 -0.10652,-0.33563 0.0694,-1.92895 0.39102,-3.54073 1.11294,-5.57794 1.21811,-6.47488 1.19161,-10.16243 -0.0146,-2.03729 -0.0287,-4.42493 -0.0312,-5.30588 -0.002,-0.88096 0.30961,-2.49569 0.69363,-3.58832 0.62214,-1.7701 0.70083,-2.96026 0.72212,-10.92189 0.0131,-4.91441 0.19652,-10.5228 0.40752,-12.46308 0.211,-1.94027 0.52559,-5.27402 0.6991,-7.40833 0.31871,-3.92053 0.85648,-7.2935 1.28392,-8.05296 0.49711,-0.88329 1.65517,-1.97104 1.92251,-1.8058 0.15453,0.0955 0.22535,1.40028 0.15737,2.89955 -0.068,1.49923 0.031,3.75775 0.21989,5.01893 0.18893,1.26118 0.50633,3.36508 0.70535,4.67533 0.37178,2.44771 1.0033,2.93398 1.0033,0.77251 0,-0.66731 0.47625,-4.49431 1.05833,-8.50445 0.58209,-4.01009 1.06444,-8.25694 1.07191,-9.4374 0.007,-1.18043 0.36764,-3.89252 0.80038,-6.02682 0.68295,-3.36836 0.87906,-3.88056 1.48573,-3.88056 0.73794,0 0.71109,0.14817 1.40627,-7.76111 0.10232,-1.16416 0.25165,-2.71998 0.33184,-3.4574 0.0802,-0.73741 0.24754,-4.30928 0.37189,-7.9375 0.12435,-3.62821 0.3709,-9.21614 0.5479,-12.4176 0.499,-9.02561 -0.10689,-27.03943 -1.1035,-32.80833 -0.65388,-3.78502 -0.98663,-6.32337 -1.36426,-10.40695 -0.19737,-2.1343 -0.50849,-4.6743 -0.69138,-5.64444 -0.18289,-0.97014 -0.33797,-2.00201 -0.34463,-2.29306 -0.007,-0.29104 -0.13806,-1.71421 -0.29199,-3.16263 -0.27688,-2.60528 -0.29623,-2.64443 -1.80777,-3.65849 -0.84034,-0.56376 -1.99679,-1.68057 -2.56988,-2.48181 -0.57309,-0.80123 -1.23491,-1.70428 -1.47072,-2.00678 -1.38997,-1.78308 -2.21148,-3.20055 -4.48401,-7.73696 -2.35069,-4.69242 -2.54981,-5.26907 -2.8573,-8.2746 -0.39008,-3.81286 -0.22185,-7.04748 0.40588,-7.80384 0.27157,-0.32723 0.87905,-0.49945 1.53531,-0.43526 1.50071,0.14678 2.07179,1.48161 2.30935,5.39787 0.14381,2.37073 0.38279,3.48778 0.94342,4.40973 0.41295,0.67909 0.86231,1.85991 0.99858,2.62404 0.31456,1.7639 1.83174,4.7754 3.88709,7.7156 2.30561,3.29822 3.59643,4.32398 5.81093,4.61775 1.56183,0.20718 2.06933,0.48087 3.36644,1.8155 1.28071,1.31776 1.74609,1.57251 2.88175,1.57748 0.74491,0.003 2.78314,0.29776 4.52939,0.65445 4.12154,0.84185 4.25507,1.31306 0.88221,3.11326 -2.48534,1.3265 -2.51164,1.35557 -2.33088,2.57636 0.69153,4.67053 0.96359,5.83085 1.80865,7.71391 l 0.94918,2.11504 -1.13719,3.41345 c -1.18491,3.5567 -1.21679,4.29951 -0.34006,7.92427 0.65328,2.70093 0.61738,2.98739 -0.38908,3.10444 -0.71506,0.0831 -1.10748,-0.18129 -1.83221,-1.23472 -1.27083,-1.84722 -2.25259,-4.25972 -2.73845,-6.72931 -0.38715,-1.96783 -0.35856,-2.18323 0.51963,-3.91629 0.51113,-1.00866 0.85393,-1.9559 0.76179,-2.10499 -0.26344,-0.42605 -1.26899,-8.50025 -1.26899,-10.18854 0,-1.43446 -0.0543,-1.51682 -0.97014,-1.47045 -0.53358,0.0272 -1.66806,-0.0738 -2.52108,-0.22412 -1.51199,-0.2664 -1.54567,-0.252 -1.34113,0.57383 0.1154,0.46592 0.37974,2.19647 0.58743,3.8457 0.20769,1.64924 0.53474,4.03049 0.72678,5.29167 0.72731,4.77651 1.45327,10.15485 1.73803,12.87639 0.16241,1.55222 0.55039,3.88052 0.86218,5.17398 0.70907,2.94164 1.64192,11.59806 1.62839,15.11074 -0.006,1.45521 -0.0422,5.50333 -0.0812,8.99583 -0.0669,5.9731 0.35628,15.69862 0.68299,15.69862 0.0816,0 1.85683,-1.68025 3.94498,-3.73388 2.08815,-2.05362 4.36385,-4.07768 5.057113,-4.49791 0.693264,-0.42023 2.188344,-1.41143 3.322397,-2.20268 1.134058,-0.79128 2.300045,-1.54668 2.591086,-1.67872 0.291042,-0.13205 1.084792,-0.58195 1.763889,-0.99974 2.702035,-1.66243 6.078588,-3.11485 7.241269,-3.11485 0.765627,0 1.497175,-0.27178 1.94975,-0.72436 0.598794,-0.59881 0.99023,-0.68446 2.258215,-0.49431 2.742548,0.41127 3.931973,-0.66404 2.334077,-2.11011 -0.374318,-0.33877 -0.948157,-1.1968 -1.275196,-1.90676 -0.821165,-1.78266 -2.67951,-4.72539 -3.32782,-5.26969 -0.29548,-0.24807 -1.410364,-1.06627 -2.477517,-1.81822 -3.567839,-2.514 -6.35,-5.55233 -6.35,-6.93466 0,-0.56719 -0.147055,-1.54403 -0.326789,-2.17071 -0.181289,-0.63214 -0.19142,-1.22311 -0.02275,-1.32736 0.379183,-0.23435 2.565915,0.97677 4.208943,2.33109 0.682138,0.56225 1.431505,1.02231 1.665266,1.02231 0.233758,0 0.528271,0.32533 0.654474,0.72295 0.135953,0.42838 0.982461,1.05597 2.077339,1.54019 1.91661,0.84762 2.92016,1.93477 5.964096,6.46105 5.289304,7.86511 5.337116,7.92272 7.298874,8.79669 0.679097,0.30255 1.347072,0.7292 1.484387,0.94809 0.177944,0.28367 0.532631,0.23146 1.234722,-0.18178 0.541782,-0.31884 1.825886,-0.66975 2.853567,-0.77975 1.02768,-0.10999 2.007591,-0.28596 2.177577,-0.39102 1.056235,-0.65278 14.356617,-2.46503 20.824749,-2.83749 2.037291,-0.1173 4.272576,-0.36068 4.967298,-0.54085 0.694722,-0.18012 2.520347,-0.41483 4.056945,-0.52154 1.536597,-0.10675 3.746313,-0.27065 4.91048,-0.36432 14.525865,-1.16836 23.6379499,-1.32909 37.873345,-0.66802 2.47461,0.11494 5.55927,0.0445 6.929435,-0.15829 1.358194,-0.20101 4.533194,-0.60988 7.055556,-0.90861 2.522361,-0.29873 4.770825,-0.61024 4.996568,-0.69219 0.225778,-0.0819 2.527653,-0.25894 5.115278,-0.39327 2.58766,-0.13438 5.022321,-0.40535 5.410377,-0.60216 0.859049,-0.43572 3.900981,-2.36802 6.526389,-4.1457 3.197084,-2.16475 5.307648,-3.07919 8.466667,-3.66829 3.063064,-0.57122 3.704484,-0.5812 4.522858,-0.0702 0.256223,0.15998 2.313552,0.2866 4.571789,0.28134 4.05952,-0.01 5.869305,0.33341 9.955354,1.88595 0.679097,0.25802 2.409261,0.56339 3.844784,0.6786 1.435523,0.11518 3.975524,0.44955 5.644445,0.74299 1.668921,0.29344 3.590008,0.44616 4.269105,0.33933 0.679097,-0.10682 3.933472,-0.26617 7.231945,-0.35411 8.914404,-0.2376 11.390344,-0.47262 19.226384,-1.82503 5.63153,-0.9719 9.70019,-1.51691 11.37567,-1.52379 0.92086,-0.004 2.58774,-0.32233 3.70417,-0.70788 2.49037,-0.86011 4.47347,-1.27893 9.25107,-1.95383 2.0314,-0.28695 3.9612,-0.60674 4.28847,-0.7106 0.32731,-0.10389 1.99902,-0.41514 3.71493,-0.69169 1.71591,-0.27658 3.75486,-0.65793 4.53097,-0.84744 0.77611,-0.18955 3.07799,-0.65797 5.11528,-1.04094 2.03729,-0.38294 4.97417,-1.01113 6.52639,-1.39594 1.55222,-0.38485 4.64785,-1.12928 6.87917,-1.65432 2.23132,-0.52504 5.40632,-1.39954 7.05555,-1.94335 1.64924,-0.54377 3.63361,-1.09389 4.40972,-1.22248 1.89089,-0.31333 8.1454,-2.29305 8.8107,-2.78881 0.71635,-0.53386 1.74791,-6.47877 1.2917,-7.44421 -0.18511,-0.39176 -0.8237,-1.79398 -1.41909,-3.11602 -0.59542,-1.32207 -1.41379,-2.86893 -1.81864,-3.4375 -0.40488,-0.56857 -0.70771,-1.31251 -0.67296,-1.65322 0.10852,-1.06454 0.009,-1.14138 -0.98823,-0.76119 -0.53358,0.20348 -1.72396,0.44422 -2.64531,0.53495 -0.92135,0.0908 -2.72207,0.63472 -4.00163,1.20883 -1.27956,0.57407 -2.51012,1.04457 -2.73455,1.04553 -0.22444,0 -1.47885,0.55121 -2.78755,1.22283 -2.39892,1.23109 -7.00761,2.76853 -9.61499,3.20753 -2.10711,0.35479 -7.08251,1.81878 -8.8736,2.61108 -1.97774,0.87486 -9.11634,2.65413 -13.52779,3.37178 -1.84327,0.29986 -5.57389,1.00542 -8.29028,1.56785 -2.71639,0.56244 -6.56837,1.273 -8.55998,1.57896 -1.99157,0.306 -4.29344,0.80892 -5.11528,1.11764 -0.82179,0.30872 -2.28794,0.60216 -3.25807,0.65211 -1.89079,0.0974 -4.75273,0.55248 -8.99584,1.43065 -5.12826,1.06134 -9.405721,1.62306 -14.816662,1.94575 -3.007431,0.17932 -6.738056,0.56981 -8.290278,0.86773 -1.552223,0.29788 -3.759236,0.70573 -4.904458,0.90632 -1.145223,0.20055 -2.342692,0.50405 -2.661074,0.67444 -0.318346,0.17036 -2.159459,0.41674 -4.09134,0.54744 -2.699209,0.18267 -3.906203,0.43762 -5.212504,1.10105 -0.957968,0.48656 -1.986139,0.77255 -2.355638,0.65525 -0.70605,-0.22408 -1.855435,-1.94973 -2.239469,-3.36229 -0.327025,-1.20276 -1.285487,-2.2571 -2.721928,-2.99427 -0.667491,-0.34254 -1.592192,-0.91785 -2.05493,-1.27846 -0.462704,-0.36061 -1.390721,-0.65568 -2.062234,-0.65568 -0.671477,0 -1.65047,-0.25375 -2.175474,-0.56388 -0.89535,-0.52888 -1.058933,-0.51481 -2.637085,0.22702 -0.925407,0.43497 -1.911632,1.14049 -2.191632,1.56785 -0.563845,0.86049 -1.930365,1.59124 -2.975787,1.59124 -0.373732,0 -1.358441,0.30067 -2.188245,0.66816 -3.003162,1.33 -6.162711,2.17879 -8.224168,2.20941 -1.157217,0.0173 -4.326537,0.0236 -7.042926,0.0148 -2.716389,-0.009 -5.970764,0.0905 -7.231945,0.22129 -2.501039,0.25936 -6.710021,0.007 -10.086291,-0.60487 -1.393832,-0.25259 -4.9262632,-0.31764 -10.0541672,-0.18514 -4.3479581,0.11233 -9.0960015,0.21925 -10.5512099,0.23763 -4.2114229,0.0532 -12.2687759,-0.43218 -13.2276649,-0.79675 -0.94755,-0.36025 -11.904765,-0.22623 -14.861163,0.18176 -1.234041,0.17032 -1.88709,0.11959 -2.059877,-0.15999 -0.168179,-0.27213 -0.392609,-0.29351 -0.669427,-0.0638 -0.229034,0.19011 -2.080214,0.41864 -4.113731,0.50786 -5.087307,0.22324 -8.100773,0.6115 -11.518686,1.48413 -1.003289,0.25616 -3.39852,0.45837 -5.322739,0.44934 -1.92422,-0.009 -3.802102,0.14601 -4.173065,0.34455 -0.370967,0.19851 -1.428546,0.474 -2.350178,0.61218 -0.921632,0.13822 -1.675694,0.35281 -1.675694,0.47692 0,0.68598 1.415612,5.02045 1.872777,5.73426 0.295589,0.46154 0.570463,1.71228 0.610824,2.77943 0.105421,2.78723 0.04211,3.31597 -0.483059,4.03419 -0.730013,0.99836 -1.827717,0.16856 -2.651425,-2.00427 -1.342178,-3.54051 -2.226193,-5.24789 -2.814482,-5.43588 -1.388685,-0.44376 -5.351565,-2.5024 -7.510551,-3.90158 -1.283071,-0.83157 -2.584193,-1.5119 -2.891377,-1.5119 -0.947353,0 -5.724829,-4.4613 -6.630459,-6.19168 l -0.845305,-1.61508 -2.293056,0.0619 c -3.712376,0.10029 -3.866885,0.0656 -4.25529,-0.956 -0.306938,-0.80729 -0.217636,-1.09308 0.633878,-2.02847 1.829992,-2.01023 2.464149,-3.20887 3.5719,-6.75128 1.219662,-3.90028 1.144506,-2.24572 0.993902,-21.88158 l -0.06245,-8.1414 -1.058333,-1.33516 c -1.914511,-2.41527 -2.025245,-2.63318 -1.798073,-3.53831 0.312085,-1.24343 1.654334,-1.50071 3.116107,-0.59729 1.700527,1.05098 2.531138,2.10617 3.411506,4.33386 0.639442,1.61805 0.740477,2.366 0.548647,4.06154 -0.133858,1.18317 -0.07223,2.68403 0.14309,3.48477 0.617993,2.29821 0.546174,14.2416 -0.112409,18.69263 -1.140608,7.70883 -1.150137,7.52101 0.483366,9.525 3.152316,3.86726 3.975844,4.7625 4.381045,4.7625 0.232463,0 1.006715,0.39688 1.720557,0.88195 0.713846,0.48507 1.520095,0.88194 1.791667,0.88194 0.271568,0 1.083088,0.57235 1.803375,1.27187 1.0801,1.04899 1.475987,1.22982 2.258978,1.03188 0.522153,-0.13201 1.901867,-0.39508 3.066034,-0.58463 1.164167,-0.18951 3.227917,-0.58914 4.586111,-0.88801 1.358195,-0.29891 3.421945,-0.61644 4.586111,-0.7057 1.164167,-0.0893 3.307292,-0.37962 4.762501,-0.6453 1.455208,-0.26567 4.788958,-0.64953 7.408333,-0.85301 16.760989,-1.30218 23.972532,-1.54965 24.247879,-0.8321 0.218913,0.57048 1.050177,0.57055 1.240317,1.4e-4 0.1149,-0.3447 3.375523,-0.42802 14.934259,-0.3817 8.1329993,0.0324 16.9303956,0.19134 19.5497707,0.35277 2.6193753,0.16143 7.3025003,0.19347 10.4069453,0.0712 3.104444,-0.12227 5.897157,-0.0904 6.206028,0.0708 0.511842,0.26712 5.992922,-0.23527 11.432862,-1.04793 1.164166,-0.17392 3.704166,-0.89577 5.644444,-1.60412 4.914724,-1.79419 8.354978,-2.39063 13.405556,-2.32417 4.918005,0.0647 4.78275,0.005 8.417173,3.74657 l 2.559509,2.63532 5.094993,-0.0399 c 2.802255,-0.0219 5.650618,-0.16764 6.329716,-0.32371 0.679097,-0.1561 3.615972,-0.4639 6.526389,-0.684 2.910417,-0.22013 6.561667,-0.56706 8.113889,-0.77096 2.536966,-0.33327 3.686599,-0.58917 7.9375,-1.76703 0.67909,-0.18814 2.74284,-0.64015 4.58611,-1.00439 7.29368,-1.44138 15.04386,-3.14279 15.98616,-3.50951 0.54621,-0.21258 1.45313,-0.3865 2.01542,-0.3865 0.56226,0 1.86161,-0.33126 2.88745,-0.73611 1.02581,-0.40484 4.00826,-1.10285 6.62764,-1.55109 2.61937,-0.44827 5.3975,-1.05265 6.17361,-1.34306 0.77611,-0.29044 1.88736,-0.7027 2.46944,-0.9162 0.95578,-0.35048 10.60588,-2.55055 16.40417,-3.73983 1.26118,-0.25869 3.16618,-0.7873 4.23333,-1.17468 1.06716,-0.38735 3.13091,-1.04444 4.58612,-1.46015 1.4552,-0.41571 4.15395,-1.32083 5.99722,-2.01139 1.84326,-0.69055 4.54201,-1.68729 5.99722,-2.21498 1.45521,-0.52769 3.19666,-1.24686 3.86987,-1.59817 0.70643,-0.36863 2.07743,-0.66135 3.2421,-0.6922 2.54335,-0.0674 3.18417,-0.61163 4.74927,-4.03373 1.52438,-3.33316 2.24987,-5.79672 2.24987,-7.64018 0,-0.80687 0.31489,-2.69821 0.69974,-4.20298 0.81192,-3.17458 1.12511,-10.13449 0.67535,-15.00858 -0.16023,-1.7363 -0.71553,-4.71041 -1.23401,-6.60915 -0.51851,-1.89873 -1.06895,-4.30623 -1.22322,-5.34998 -0.15427,-1.04376 -0.43981,-2.63126 -0.63451,-3.52778 -0.19473,-0.89652 -0.33771,-2.18566 -0.31778,-2.86476 0.0201,-0.6791 -0.22917,-2.5841 -0.55355,-4.23333 -0.87012,-4.42379 -1.58051,-9.85646 -2.73314,-20.90116 -0.1771,-1.69724 -0.98189,-5.98349 -1.78837,-9.525003 -1.27367,-5.593172 -1.47073,-7.018451 -1.49994,-10.848841 -0.0328,-4.28752 0,-4.478154 1.13075,-6.879167 1.12882,-2.393932 4.19499,-5.778997 5.26169,-5.808839 0.23583,-0.0066 1.43965,-0.567619 2.67511,-1.246717 1.93985,-1.066281 2.5702,-1.234722 4.62051,-1.234722 2.90378,0 5.9183,1.313074 8.53969,3.719742 0.94167,0.86456 1.81564,1.571925 1.94211,1.571925 0.30413,0 4.54558,5.384123 5.36953,6.816101 0.35489,0.616768 1.38797,2.470774 2.29573,4.12001 1.77324,3.221662 1.5826,3.112513 4.57715,2.620596 0.95864,-0.15748 2.0332,-0.08076 2.90672,0.207528 1.22325,0.403709 1.56143,0.378457 2.88258,-0.21524 1.00923,-0.453517 2.24776,-0.664496 3.80227,-0.647707 2.02985,0.02191 2.54727,0.17956 4.32778,1.318535 1.11223,0.7115 2.02226,1.453134 2.02226,1.648072 0,0.194942 0.47879,0.781057 1.06401,1.302477 1.04246,0.928843 4.22766,6.06248 4.22766,6.81381 0,0.49031 1.5174,3.51818 3.00781,6.00193 0.6404,1.06715 1.28228,2.57528 1.42643,3.35139 0.14418,0.77611 0.71356,2.4181 1.2653,3.64886 0.55178,1.23076 1.00323,2.54724 1.00323,2.92552 0,0.37828 0.53086,1.67316 1.17966,2.87753 0.68657,1.27443 1.28436,3.00079 1.43012,4.13003 0.2419,1.87386 1.53127,7.05328 3.02984,12.17084 0.39772,1.35819 0.87115,3.26319 1.05205,4.23333 0.1809,0.97014 0.74316,2.87514 1.24943,4.23333 0.50627,1.3582 1.08444,3.34257 1.28482,4.40973 0.20034,1.06715 0.52514,2.13551 0.72175,2.37413 0.34378,0.41725 0.13486,3.71196 -0.27771,4.37953 -0.59679,0.96558 -1.55663,5.5439 -1.56009,7.44117 -0.004,1.21513 -0.29545,4.11433 -0.65168,6.44267 -0.55432,3.62296 -0.85503,7.04316 -0.86847,9.87777 -0.004,0.38806 0.27612,2.13431 0.61768,3.88056 0.34155,1.74625 0.744,3.81 0.89432,4.58611 0.46017,2.37589 1.31234,3.88105 2.96312,5.23374 1.78707,1.46435 1.83593,1.61622 2.34587,7.28987 0.4917,5.47074 0.67049,6.9185 1.11478,9.0278 0.30169,1.43224 0.26497,2.25361 -0.1814,4.05694 -0.34682,1.40113 -0.51262,3.26736 -0.43589,4.90693 0.0902,1.92881 -0.0725,3.3124 -0.60039,5.10554 -0.96972,3.29367 -1.78898,4.58551 -3.73645,5.89192 -0.89863,0.60282 -2.34823,1.77126 -3.22136,2.59651 -0.87312,0.82529 -1.98437,1.61848 -2.46944,1.76269 -0.48507,0.14422 -1.51694,0.68725 -2.29306,1.20668 -2.44602,1.63717 -10.24315,4.19767 -13.40555,4.40224 -1.69778,0.10986 -4.32022,-0.66075 -5.29167,-1.5549 -1.28594,-1.18368 -8.01737,-1.02634 -10.00143,0.23375 -0.85083,0.54035 -0.86211,0.72284 -0.20902,3.37622 0.21481,0.87263 -0.0535,1.25818 -2.62445,3.77106 -1.80749,1.76667 -2.86371,3.07565 -2.86371,3.54908 0,1.14092 -0.61309,2.04883 -1.79691,2.661 -0.90844,0.46976 -1.46258,0.4941 -3.66187,0.16073 -2.11229,-0.32018 -2.96245,-0.29591 -4.59832,0.13123 -1.10377,0.28826 -2.21696,0.44348 -2.47371,0.34495 -0.25675,-0.0985 -0.81703,0.008 -1.24506,0.23735 -0.42802,0.22906 -1.63107,0.5588 -2.67338,0.73272 -1.04236,0.17392 -2.80801,0.48337 -3.92367,0.68767 -3.54397,0.649 -7.19106,1.03685 -11.72986,1.24742 -2.42535,0.11254 -4.88597,0.34311 -5.46806,0.51241 -0.58208,0.16926 -2.01083,0.39709 -3.175,0.50627 -5.06649,0.47509 -6.08675,0.62502 -7.62296,1.12025 -0.89419,0.28825 -2.24356,0.47346 -2.99861,0.41162 -1.11347,-0.0912 -1.39418,-0.26243 -1.48562,-0.90622 -0.062,-0.43656 -0.25135,-0.79375 -0.42079,-0.79375 -0.16944,0 -1.86496,0.53351 -3.76781,1.18555 -5.59679,1.9178 -13.07437,4.0514 -16.68893,4.7619 -5.62695,1.10606 -6.46995,1.37206 -15.69861,4.95339 -2.52236,0.97881 -5.06871,1.78406 -5.65852,1.78943 -0.58981,0.005 -2.01856,0.25763 -3.175,0.56059 -2.0996,0.55013 -9.97614,1.057 -14.97898,0.96397 -1.45521,-0.0272 -4.550834,-0.0749 -6.879168,-0.10643 -2.328333,-0.0314 -5.900208,-0.21259 -7.9375,-0.40245 -3.346909,-0.31189 -3.97637,-0.27164 -6.526389,0.41765 -1.552223,0.41956 -3.774723,0.98923 -4.938889,1.26587 -1.164167,0.27669 -2.901104,0.75453 -3.859848,1.06194 -0.958709,0.30737 -2.069959,0.6096 -2.469445,0.67158 -0.39945,0.062 -1.361263,0.35521 -2.137374,0.65161 -0.776112,0.29637 -1.758915,0.54586 -2.184048,0.55436 -0.425097,0.008 -0.862506,0.16041 -0.971973,0.33757 -0.158362,0.25623 -2.719388,0.88932 -3.100705,0.76648 -0.05129,-0.0166 -1.363275,0.36442 -2.915497,0.84653 -1.552222,0.4821 -3.377918,0.87891 -4.057086,0.88184 -0.679168,0.004 -2.346043,0.24066 -3.704167,0.52832 -1.358124,0.28769 -3.501178,0.53276 -4.762359,0.54465 -1.261181,0.012 -2.928056,0.2648 -3.704167,0.56201 -0.776111,0.29722 -2.284236,0.7474 -3.351389,1.00041 -4.401185,1.04344 -5.23113,1.23536 -7.761111,1.79472 -3.761987,0.83178 -9.213964,1.96166 -10.109684,2.09518 -0.418589,0.0624 -1.331401,0.28783 -2.028472,0.50091 -0.697068,0.21308 -1.794609,0.54617 -2.438976,0.7402 -0.644366,0.19403 -1.545907,0.35278 -2.003425,0.35278 -0.833109,0 -1.63933,0.22017 -5.3278864,1.45499 -1.0870742,0.36393 -2.3240789,0.66167 -2.748901,0.66167 -0.9899651,0 -6.0924302,1.05005 -6.56058045,1.35009 -0.37268505,0.2389 -4.06161545,1.31515 -6.17652185,1.80205 -0.6790973,0.15636 -2.2665973,0.68397 -3.527778,1.1725 -3.4488753,1.33597 -4.1636103,1.58661 -7.2319443,2.53608 -2.665861,0.82494 -7.980522,2.67928 -9.525001,3.32334 -0.388056,0.16182 -2.054931,0.64333 -3.704167,1.07001 -4.099246,1.06056 -6.468653,1.70177 -9.172223,2.48225 -3.113835,0.89892 -4.910864,1.12018 -5.694041,0.70104 -0.750528,-0.40167 -0.866267,-1.48163 -0.214987,-2.00603 0.570682,-0.45946 5.432073,-2.20077 6.144201,-2.20077 0.300245,0 1.521096,-0.44697 2.713002,-0.99332 1.191906,-0.54631 2.802104,-1.20145 3.578215,-1.45591 0.776111,-0.25442 1.627992,-0.63595 1.893065,-0.8478 0.449912,-0.35955 2.120251,-1.05081 3.751379,-1.55243 0.675214,-0.20768 1.587501,-0.92692 1.587501,-1.25158 0,-0.67081 -8.148406,2.25947 -13.581946,4.8842 -0.970139,0.46867 -2.319514,0.95991 -2.998611,1.09175 -0.679097,0.13179 -1.830955,0.6133 -2.559685,1.07001 -0.72873,0.45674 -2.236855,1.16582 -3.351389,1.57578 -1.114534,0.40997 -2.264551,0.93839 -2.555593,1.17426 -0.291042,0.2359 -1.481667,0.95857 -2.645833,1.60598 -1.164167,0.64739 -2.601253,1.54009 -3.193525,1.98375 -0.692012,0.51837 -1.82668,0.89157 -3.175,1.04425 -1.153979,0.13067 -2.891893,0.63624 -3.862032,1.12349 -0.970138,0.48726 -2.17395,0.93487 -2.675138,0.99466 -0.501188,0.0598 -3.356882,0.98806 -6.345986,2.06276 -2.989104,1.07474 -5.863735,1.95404 -6.388069,1.95404 -0.524333,0 -1.045016,0.14834 -1.157072,0.32967 -0.112056,0.18129 -1.431562,0.80313 -2.932236,1.38187 -1.500674,0.57869 -3.544856,1.46222 -4.542621,1.96338 -0.997768,0.50116 -2.055717,0.91119 -2.351003,0.91119 -1.017034,0 -3.689237,1.35237 -4.247737,2.14976 -0.385879,0.55093 -0.987048,0.8328 -1.936285,0.90787 -0.851736,0.0674 -3.339839,1.10772 -6.525359,2.72838 -2.83178,1.44071 -5.6699,2.73234 -6.30693,2.87031 -0.63703,0.13797 -1.58365,0.5515 -2.1036,0.91892 -0.51995,0.36745 -1.58157,1.02944 -2.35914,1.47111 -0.77757,0.44168 -2.29985,1.62776 -3.38285,2.63571 -1.083,1.00796 -2.36295,2.09074 -2.84434,2.40616 -0.48139,0.31542 -0.87525,0.81001 -0.87525,1.09911 0,0.28911 -0.47285,1.22626 -1.05077,2.08256 -0.68036,1.00813 -1.17359,2.33193 -1.39918,3.75535 -0.41451,2.61546 -1.17446,19.06468 -1.05501,22.83587 0.0991,3.12805 -0.13956,6.30047 -0.72976,9.70139 -0.23571,1.3582 -0.40933,5.08882 -0.38582,8.29028 0.0235,3.20146 -0.11632,7.24958 -0.31073,8.99583 -0.1944,1.74625 -0.59416,5.55625 -0.88835,8.46667 -0.78606,7.77624 -1.25703,12.18854 -1.44975,13.58194 -0.0939,0.6791 -0.32418,3.13973 -0.51168,5.46806 -0.54344,6.74836 -0.96849,10.0904 -1.54794,12.17083 -0.29723,1.06715 -0.5423,2.36128 -0.5446,2.87581 -0.002,0.51456 -0.63919,2.27803 -1.4153,3.91883 -0.77611,1.64084 -1.41111,3.15373 -1.41111,3.36201 0,0.20825 -0.51594,0.74665 -1.14653,1.19641 -0.92856,0.66231 -1.616,0.82102 -3.61597,0.83492 -1.3582,0.01 -3.2632,-0.0739 -4.23334,-0.18517 z m 28.39862,-122.09583 c 4.11014,-1.02665 8.30135,-2.54063 12.34722,-4.46013 2.037292,-0.96654 4.101042,-1.93774 4.586112,-2.15823 0.485069,-0.22045 1.278819,-0.72174 1.763889,-1.11396 0.485069,-0.39219 2.032028,-1.0384 3.437689,-1.43602 1.405657,-0.39762 3.915498,-1.42833 5.577424,-2.29051 1.661925,-0.86216 3.305263,-1.56757 3.651864,-1.56757 0.346597,0 1.091131,-0.22931 1.654517,-0.50952 3.571159,-1.77638 8.098635,-3.3981 11.888294,-4.25831 1.12448,-0.25523 2.23573,-0.61027 2.469445,-0.78899 0.233715,-0.17871 1.768341,-0.52303 3.410282,-0.76514 1.64194,-0.24211 3.447044,-0.67895 4.011341,-0.97077 0.5643,-0.29178 1.443394,-0.59863 1.953542,-0.68181 0.510152,-0.0832 1.562548,-0.4057 2.338659,-0.71671 2.104831,-0.84342 2.665081,-1.05611 4.470129,-1.69693 0.90635,-0.3218 1.838184,-0.81432 2.070746,-1.09456 0.232558,-0.28021 1.157876,-0.7335 2.05626,-1.00725 0.898381,-0.2738 3.300297,-1.23857 5.337588,-2.14398 2.037292,-0.9054 4.418542,-1.89374 5.291667,-2.19628 0.873125,-0.30255 2.301875,-0.83775 3.175,-1.18929 0.873125,-0.35154 2.222501,-0.83051 2.998612,-1.06433 0.776111,-0.23382 3.041477,-1.11562 5.034146,-1.95954 1.992669,-0.84391 3.818294,-1.53197 4.056945,-1.52908 0.23865,0.004 1.545159,-0.53386 2.903354,-1.19285 4.74424,-2.30187 5.729266,-2.693 6.7820364,-2.693 0.5831735,0 1.4639503,-0.3175 1.9572818,-0.70555 1.1302472,-0.88904 1.6941942,-0.88731 2.8333666,0.009 1.3781159,1.08405 0.7452678,2.27742 -2.2402871,4.22458 -4.4500907,2.90234 -1.9269994,2.07307 7.95371403,-2.61415 2.71638907,-1.28859 5.49451417,-2.64382 6.17361147,-3.01163 2.4382625,-1.32062 11.8414138,-5.94113 12.9528858,-6.36478 0.624159,-0.23792 1.318285,-0.65363 1.542503,-0.92379 0.224219,-0.27015 0.843711,-0.4912 1.376649,-0.4912 0.844225,0 0.996283,0.16824 1.181033,1.30672 0.218235,1.34482 -0.433995,2.57383 -1.365938,2.57383 -0.237215,0 -0.618208,0.22522 -0.846656,0.50049 -0.228452,0.27527 -1.51789,1.15549 -2.86542,1.95601 -2.501333,1.48604 -3.020837,2.12961 -1.719016,2.12961 1.363705,0 8.60581,-1.81151 9.849835,-2.46383 0.680448,-0.35677 2.904056,-1.1545 4.941348,-1.77271 2.037291,-0.61824 4.736042,-1.48375 5.997222,-1.92338 1.261181,-0.43963 3.166181,-1.00055 4.233334,-1.24647 1.067153,-0.24592 2.099028,-0.57041 2.293055,-0.72111 0.194028,-0.15067 1.26164,-0.44126 2.372466,-0.64576 1.110827,-0.20447 2.460202,-0.59722 2.998612,-0.87281 0.538409,-0.27559 1.693298,-0.61447 2.566423,-0.75304 0.873125,-0.13861 1.962573,-0.49029 2.421043,-0.78147 0.4838,-0.30734 1.2972,-0.46144 1.938585,-0.36728 0.722418,0.10601 1.655304,-0.12002 2.694234,-0.65278 0.874043,-0.44824 2.966262,-1.45408 4.649365,-2.23524 1.683067,-0.78112 3.160889,-1.58323 3.284008,-1.78248 0.12312,-0.19921 0.447711,-0.36219 0.72129,-0.36219 0.535164,0 5.307895,-2.93621 7.045643,-4.33451 0.582083,-0.46839 1.852083,-1.29036 2.822222,-1.82665 1.824179,-1.00835 6.038321,-3.86659 7.584723,-5.14431 0.485069,-0.40079 1.856916,-1.3564 3.048529,-2.12358 2.620187,-1.68692 3.486573,-1.59382 3.166639,0.34029 -0.115605,0.69888 -0.211913,2.11225 -0.214065,3.14078 -0.0039,1.80604 -0.0466,1.88792 -1.251197,2.39123 -1.489851,0.62251 -4.551786,2.83912 -7.469435,5.40734 -1.166989,1.02726 -2.722845,2.20892 -3.457469,2.62594 -0.73459,0.41698 -1.473447,1.13609 -1.641899,1.59794 -0.297392,0.81534 -0.265324,0.83319 1.103807,0.61426 0.775511,-0.12404 2.819753,-0.68241 4.542684,-1.24086 1.722967,-0.55848 3.952522,-1.12815 4.954623,-1.26598 1.720074,-0.23657 5.251697,-1.45115 8.597195,-2.95674 0.823348,-0.37052 2.370102,-1.02383 3.437251,-1.45178 2.85927,-1.14667 3.15588,-1.29039 5.46806,-2.65003 1.16417,-0.68457 2.67229,-1.49127 3.35139,-1.79268 0.6791,-0.30138 2.5841,-1.1641 4.23333,-1.91714 5.12262,-2.33891 5.71906,-2.20038 3.84433,0.89292 -1.77165,2.92322 -5.0043,5.85061 -8.95961,8.11357 -1.94027,1.11009 -3.8409,2.23721 -4.22363,2.50472 -1.35456,0.94679 0.35444,0.52476 4.30587,-1.0633 2.12076,-0.85231 5.43048,-1.98113 7.35492,-2.5085 1.9244,-0.52733 4.53083,-1.33075 5.79201,-1.78537 1.26118,-0.45459 2.76931,-0.92922 3.35139,-1.0547 0.93617,-0.20183 3.84316,-1.09517 7.58472,-2.33084 0.6791,-0.22426 1.71098,-0.52963 2.29306,-0.67853 7.86324,-2.01186 9.73176,-2.37984 13.14097,-2.58781 2.07,-0.12629 2.97364,0.2818 1.5875,0.71692 -0.33955,0.10657 -1.26975,0.49847 -2.0671,0.87087 -0.79738,0.37239 -1.67651,0.67708 -1.95361,0.67708 -0.27711,0 -1.84722,0.56649 -3.48912,1.25886 -1.64193,0.69236 -3.36451,1.41118 -3.82799,1.59734 -0.46348,0.18619 -0.76224,0.41899 -0.66393,0.51731 0.25115,0.25111 3.67203,-0.62212 7.50384,-1.91548 1.16416,-0.39292 3.78354,-1.21902 5.82083,-1.83575 2.03729,-0.61672 4.89479,-1.55589 6.35,-2.08699 3.42036,-1.24838 8.73379,-2.94235 11.64167,-3.71151 3.06214,-0.80994 3.50142,-0.96213 7.496,-2.59658 3.91555,-1.60218 7.03745,-2.04918 7.24319,-1.03717 0.0763,0.3755 -0.26349,0.79597 -0.91616,1.13347 -0.57065,0.29507 -1.12949,0.77619 -1.24192,1.0691 -0.29619,0.77191 2.28106,1.38282 4.70112,1.11432 6.76613,-0.75068 12.35555,-1.59837 13.0738,-1.98276 0.33782,-0.18079 1.54372,-0.43536 2.67977,-0.56571 1.13609,-0.13035 2.68087,-0.4512 3.43285,-0.713 0.75201,-0.2618 1.94264,-0.47787 2.64583,-0.4802 1.65005,-0.005 4.97106,-0.88978 5.55336,-1.47881 0.2486,-0.2515 0.53051,-0.93352 0.6265,-1.5156 1.5368,-9.3211 1.22682,-15.98913 -1.11513,-23.98889 -0.68164,-2.32834 -1.4339,-4.63021 -1.67168,-5.11528 -0.23777,-0.48507 -0.6205,-1.68328 -0.85051,-2.6627 -0.22997,-0.97945 -0.79121,-2.2486 -1.2471,-2.82035 -0.79559,-0.9978 -0.85623,-1.01484 -1.50901,-0.42407 -0.37405,0.33849 -0.83739,0.61545 -1.02969,0.61545 -0.19226,0 -2.0628,0.87845 -4.15674,1.95213 -2.25902,1.15831 -4.45488,2.0283 -5.40001,2.13946 -0.87609,0.10301 -2.36756,0.49269 -3.31442,0.86589 -0.94685,0.37321 -3.45274,1.06938 -5.56863,1.547 -2.11589,0.47763 -4.43607,1.11453 -5.15595,1.41531 -0.71988,0.30078 -1.77617,0.54688 -2.34732,0.54688 -0.57114,0 -1.36302,0.17374 -1.75979,0.38604 -1.04602,0.55983 -5.10953,1.61266 -7.24207,1.87639 -1.0099,0.12492 -2.51104,0.46521 -3.33587,0.75622 -0.82486,0.29104 -2.08894,0.49435 -2.80913,0.45187 -0.72016,-0.0425 -1.5209,0.0932 -1.77938,0.30156 -0.5624,0.45335 -3.78319,1.16681 -5.26736,1.16681 -0.58215,0 -1.48717,0.21914 -2.01111,0.48701 -0.52392,0.26786 -2.43022,0.58494 -4.23616,0.70464 -4.27531,0.28335 -6.08037,0.57887 -6.94701,1.13728 -0.68379,0.44059 -4.19414,1.07118 -6.35,1.14071 -1.94518,0.0627 -6.67268,0.81929 -9.525,1.52432 -1.55222,0.38368 -4.94714,0.92262 -7.54429,1.19764 -2.59712,0.27503 -5.21649,0.64749 -5.82084,0.82769 -2.65038,0.79026 -4.64206,1.09495 -7.18925,1.09975 -1.50093,0.004 -3.3914,0.23594 -4.20102,0.51802 -2.54304,0.88607 -5.68029,1.20385 -14.226544,1.44106 -9.944418,0.27601 -8.99467,0.27654 -10.936112,-0.006 -0.873125,-0.12703 -2.659063,-0.28906 -3.968715,-0.36001 -2.628935,-0.14245 -4.854716,-1.02962 -5.337246,-2.12742 -0.266805,-0.60703 -0.61161,-0.696 -2.469444,-0.63709 -1.187627,0.0376 -3.349943,0.0643 -4.805151,0.0591 -7.441001,-0.0261 -7.778433,0.004 -8.9928,0.75247 -0.652427,0.40319 -1.76142,0.80677 -2.464435,0.89677 -1.355373,0.17353 -3.168333,0.97994 -3.534269,1.57204 -0.120756,0.19541 -0.650276,0.35529 -1.176726,0.35529 -0.526415,0 -1.509219,0.44884 -2.184047,0.99744 -1.478069,1.20163 -2.47643,1.75341 -6.16578,3.40766 -1.552222,0.69603 -3.377847,1.55733 -4.056945,1.91406 -0.679097,0.35673 -2.39522,0.84304 -3.813598,1.0807 -2.324488,0.38954 -2.645566,0.3718 -3.254915,-0.17963 -0.627818,-0.56819 -1.035188,-0.5781 -5.711402,-0.13907 -5.600947,0.52582 -8.92561,0.56251 -15.4423084,0.17032 -14.1687699,-0.85266 -29.9519706,-0.71709 -40.2166686,0.34548 -1.261181,0.13056 -3.563056,0.2878 -5.115278,0.34946 -3.043347,0.12083 -5.822301,0.53143 -9.172223,1.3552 -1.164167,0.28628 -3.742877,0.6997 -5.730469,0.9187 -1.987593,0.21901 -4.107833,0.57041 -4.711644,0.78091 -1.199342,0.41808 -5.432027,0.162 -6.090875,-0.36855 -0.22019,-0.1773 -1.035346,-0.42442 -1.811457,-0.5492 -1.305546,-0.20983 -1.456069,-0.14686 -2.012065,0.84208 -0.455274,0.80977 -0.851334,1.06888 -1.633823,1.06888 -0.779516,0 -1.279628,0.32449 -2.038837,1.32292 -0.553283,0.7276 -2.090381,2.49421 -3.415771,3.92578 -1.325393,1.43157 -2.878395,3.43316 -3.451112,4.44796 -0.979396,1.73542 -6.284942,7.41691 -7.974042,8.53909 -1.114068,0.74013 -1.948868,0.14598 -2.689772,-1.91438 -0.620804,-1.72639 -0.619947,-1.73803 0.268563,-3.6468 0.490245,-1.05315 0.892905,-2.18719 0.8948,-2.52004 0.0018,-0.33288 0.499233,-1.12663 1.105196,-1.76389 4.012548,-4.21992 5.737215,-5.92119 6.002673,-5.92119 0.16715,0 0.586934,-0.27782 0.93285,-0.61737 0.345917,-0.33954 1.536542,-1.2972 2.645834,-2.12809 1.109292,-0.8309 2.016894,-1.63897 2.016894,-1.79575 0,-0.15674 -0.847619,-0.48835 -1.883597,-0.73688 -1.411538,-0.3386 -2.068816,-0.35274 -2.622642,-0.0563 -0.406474,0.21756 -1.09335,0.39554 -1.526392,0.39554 -0.433042,0 -1.038789,0.23639 -1.346108,0.52532 -1.578176,1.48371 -8.413828,6.17745 -8.996412,6.17745 -0.144096,0 -0.92395,0.5527 -1.733004,1.2282 -0.809057,0.6755 -2.247413,1.8771 -3.196346,2.67021 -0.94893,0.79312 -2.109601,1.69383 -2.579265,2.00156 -0.89513,0.58649 -5.04401,6.19269 -5.04401,6.81573 0,0.19826 -0.41019,1.16996 -0.91154,2.15932 -1.01581,2.00462 -2.1075,5.2246 -2.45863,7.25188 -0.12697,0.73303 -0.44877,2.00205 -0.71511,2.82 -0.26634,0.81798 -0.64239,3.11986 -0.83565,5.11527 -0.70666,7.29612 -1.46824,11.31556 -2.54626,13.43854 -0.56261,1.10801 -1.3752,5.49875 -1.41614,7.65204 -0.006,0.29104 -0.31092,1.53807 -0.67864,2.77117 -0.36773,1.23314 -0.67207,2.74126 -0.67634,3.35139 -0.004,0.61017 -0.31146,1.77842 -0.68267,2.59613 -0.56793,1.25102 -0.67242,2.29422 -0.65904,6.57997 0.009,3.01287 -0.15428,5.60889 -0.40073,6.35568 -0.47206,1.43034 -0.21848,2.14189 0.63935,1.79395 0.31992,-0.12979 1.7723,-0.53337 3.22751,-0.89687 z m 95.779169,-30.4812 c 0.970139,-0.45702 1.525764,-0.84402 1.234722,-0.86003 -0.594458,-0.0325 -3.71148,1.09481 -4.099525,1.48286 -0.542057,0.54204 1.19252,0.16493 2.864803,-0.62283 z m 5.482555,-2.22631 c 0.493042,-0.19455 1.107578,-0.60815 1.365631,-0.91909 0.42775,-0.51541 0.348573,-0.52218 -0.89644,-0.0767 -2.085344,0.74616 -3.305912,1.35865 -3.305912,1.65886 0,0.2715 1.148782,0.004 2.836721,-0.66308 z M 115.03047,265.91974 c 0.83143,-0.27136 1.75941,-0.49336 2.06227,-0.49336 0.30282,0 0.97194,-0.21735 1.48696,-0.48302 2.80726,-1.44812 3.88464,-1.94077 5.08151,-2.32357 1.38169,-0.44193 1.78439,-1.07396 0.68425,-1.07396 -0.35126,0 -1.65135,0.39687 -2.88911,0.88194 -1.23775,0.48507 -2.92534,0.88194 -3.75024,0.88194 -0.82486,0 -1.58517,0.13815 -1.68949,0.30696 -0.18778,0.30384 -2.84681,1.30986 -5.77864,2.18637 -0.83435,0.24942 -1.5845,0.56275 -1.66701,0.69624 -0.25033,0.40499 4.84304,-0.052 6.4595,-0.57954 z M 239.98585,230.4624 c 1.45309,-0.20613 3.17902,-0.59919 3.83543,-0.87348 0.65642,-0.27425 2.10517,-0.49865 3.21949,-0.49865 3.02574,0 4.53474,-1.50675 5.64744,-5.63887 1.00214,-3.72167 1.11725,-21.09604 0.17417,-26.28752 -0.50035,-2.75435 -1.23102,-15.15799 -1.23102,-20.89763 0,-3.26915 -0.42524,-3.92261 -1.55942,-2.39646 -1.28002,1.72234 -3.72611,4.0677 -4.2424,4.0677 -0.76458,0 -1.60652,-1.01499 -1.60652,-1.93669 0,-0.48158 0.57207,-1.42336 1.36741,-2.25116 1.03579,-1.07804 1.49863,-1.96201 1.90838,-3.64476 0.2975,-1.22186 0.55542,-2.61843 0.57313,-3.1035 0.0176,-0.48507 0.12932,-2.94569 0.24803,-5.46805 0.13515,-2.87213 0.0627,-5.50903 -0.19378,-7.05556 -0.78253,-4.71804 -6.0671,-26.57142 -7.11644,-29.4286 -0.38619,-1.05156 -0.93737,-3.03 -1.22481,-4.39653 -0.28744,-1.36652 -1.15715,-4.06607 -1.93262,-5.99898 -0.77551,-1.93292 -1.66416,-4.63761 -1.97482,-6.01042 -0.88021,-3.88968 -2.30494,-6.42226 -4.95437,-8.806766 l -2.30819,-2.077402 -3.56687,0.196543 c -3.85911,0.212647 -3.57858,0.07193 -5.90462,2.961865 -0.7022,0.87242 -1.37876,2.77639 -1.37876,3.88007 0,0.46096 0.53481,1.90571 1.18847,3.21055 0.65367,1.30485 1.30736,2.75483 1.45264,3.22218 0.14531,0.46736 0.95271,1.69507 1.79426,2.72825 0.84155,1.03317 1.7211,2.5161 1.95456,3.2954 0.23351,0.77929 0.55256,1.41689 0.70905,1.41689 0.49573,0 1.06246,1.41109 0.84364,2.10051 -0.11568,0.36451 -0.71064,0.83715 -1.32214,1.05032 -1.0359,0.36112 -1.20351,0.29804 -2.45502,-0.92405 -1.50876,-1.47327 -1.57448,-1.31172 -0.80105,1.96936 0.29245,1.24072 0.47028,2.31731 0.39518,2.39241 -0.0751,0.0751 0.005,0.8856 0.17745,1.80109 0.58314,3.09163 1.39756,12.06256 1.88048,20.71453 0.19939,3.5725 0.89962,9.57826 1.25553,10.76869 0.20264,0.67774 0.3786,4.80382 0.39356,9.22898 0.0258,7.60797 -0.0106,8.06405 -0.73427,9.23504 -0.51206,0.82856 -0.68876,1.52075 -0.53978,2.11442 0.13444,0.53559 -0.13783,2.02428 -0.69247,3.78643 -0.50267,1.59711 -0.91546,3.15605 -0.91729,3.46431 -0.007,1.1784 -2.40468,8.55088 -2.99195,9.19982 -0.33909,0.37468 -1.0003,1.44162 -1.46935,2.37095 -1.88274,3.7302 -2.44927,4.65493 -3.23716,5.28408 -0.81291,0.64918 -0.81559,0.67437 -0.22627,2.14721 0.32797,0.81968 0.82013,1.49035 1.09368,1.49035 0.27354,0 1.64535,-0.30628 3.04849,-0.68061 1.40314,-0.37434 3.94526,-0.94051 5.64917,-1.25815 1.70392,-0.31768 4.4583,-1.04892 6.12087,-1.625 1.66258,-0.57605 3.30726,-0.95712 3.65489,-0.84681 0.73995,0.23488 1.1207,1.40384 0.83195,2.55425 -0.23159,0.9228 -5.45091,4.32559 -6.63543,4.32605 -0.39617,1.4e-4 -1.72674,0.47639 -2.95684,1.05833 -1.2301,0.58194 -2.42073,1.0559 -2.64583,1.05329 -0.22511,-0.004 -1.5705,0.43395 -2.98976,0.97014 l -2.58043,0.9749 0.24525,1.41111 c 0.1349,0.77611 0.37119,2.68111 0.52508,4.23333 0.56246,5.6733 1.20678,7.9375 2.25883,7.9375 0.78624,0 4.69667,1.39757 7.38519,2.63942 1.82115,0.84119 2.96916,1.17009 3.64191,1.04334 0.54031,-0.10178 1.69679,0.0321 2.56991,0.29785 1.0469,0.31848 1.9479,0.38078 2.64583,0.18298 0.58209,-0.16499 2.24723,-0.46863 3.70033,-0.67479 z m 19.04834,-12.35255 c -0.10749,-1.43083 -0.0602,-3.6334 0.1052,-4.89458 0.16534,-1.26118 0.20704,-5.30931 0.0926,-8.99583 -0.20687,-6.6662 -0.21305,-6.70723 -1.12914,-7.52006 -1.50633,-1.3365 -1.67675,-0.658 -1.15129,4.58396 0.26035,2.59708 0.39878,6.673 0.30946,9.10971 -0.31662,8.63766 -0.24042,10.14137 0.54391,10.72832 1.11584,0.83506 1.4557,0.004 1.22922,-3.01152 z m -59.19664,-14.45412 c 0.39803,-0.213 1.9964,-0.84688 3.55197,-1.4086 2.31334,-0.83538 3.1646,-0.98178 4.67533,-0.80423 1.0159,0.11938 2.10707,0.0715 2.42486,-0.10629 0.79456,-0.44468 3.91869,-4.84653 4.9645,-6.99495 0.8056,-1.65495 1.65812,-4.7679 3.87043,-14.1326 0.76736,-3.24826 0.9386,-4.90328 1.02192,-9.87778 0.0896,-5.34568 -3e-5,-8.03169 -0.65835,-19.73407 -0.0983,-1.74625 -0.32554,-6.35 -0.50511,-10.23055 -0.31203,-6.7431 -0.64237,-9.44859 -1.87388,-15.34584 -0.30385,-1.4552 -0.65352,-3.51895 -0.77696,-4.58611 -0.28159,-2.43397 -0.65913,-3.94324 -1.98561,-7.9375 -1.90814,-5.7458 -3.25476,-9.15636 -4.03945,-10.23055 -1.02834,-1.40774 -1.70335,-2.773887 -3.29011,-6.658718 -1.3662,-3.344855 -4.59496,-8.640614 -6.07656,-9.966582 -0.46108,-0.412662 -1.47334,-0.950415 -2.24945,-1.195007 -0.77611,-0.244591 -2.28424,-0.872102 -3.35139,-1.394467 -2.75199,-1.347092 -5.80764,-2.019251 -6.51411,-1.432927 -0.72976,0.605642 -0.68157,1.402017 0.13797,2.280518 0.99705,1.068818 1.30588,2.605747 0.57958,2.884456 -0.32216,0.123624 -0.8605,-0.03164 -1.21172,-0.34949 -1.03632,-0.93786 -1.21317,-0.677496 -1.01611,1.495898 0.18418,2.030952 1.11686,5.378386 2.37261,8.515484 2.02826,5.066855 2.53538,7.326945 2.86339,12.761465 0.44654,7.3989 0.89471,10.59064 2.26991,16.16631 0.26321,1.06716 0.73893,3.68653 1.05714,5.82084 0.56645,3.79924 1.6451,8.21369 2.30469,9.43201 0.18242,0.33692 0.33165,1.02204 0.33165,1.5225 0,0.50046 0.13878,1.1773 0.30843,1.50409 0.16965,0.3268 0.40827,1.65675 0.5303,2.95545 0.12202,1.29871 0.36417,2.73549 0.53806,3.19286 0.17388,0.45737 0.2372,1.24457 0.14072,1.74933 -0.12171,0.63662 0.0582,1.15139 0.58723,1.68044 0.6604,0.66039 1.09337,0.74917 3.22862,0.662 2.67487,-0.10921 3.12459,0.15302 3.12015,1.81937 -0.004,1.27997 -1.19003,3.69491 -2.14383,4.36298 -0.47992,0.33615 -1.51871,0.57591 -2.4952,0.57591 -1.2742,0 -1.75729,0.15752 -2.02667,0.66085 -0.8744,1.63381 -1.18738,4.35085 -1.10512,9.59351 0.0873,5.5663 -0.0961,6.63939 -1.45453,8.51041 -0.35462,0.48846 -0.31401,0.72844 0.22398,1.32291 0.36145,0.39942 0.91909,0.72621 1.23916,0.72621 1.05266,0 3.11337,2.23544 3.38237,3.66915 0.20178,1.07571 0.10445,1.51437 -0.50398,2.27158 -0.41473,0.51613 -1.12766,1.49406 -1.58426,2.17316 -0.45663,0.6791 -1.72515,2.1027 -2.81894,3.16357 -1.27741,1.23899 -1.98871,2.21819 -1.98871,2.73777 0,0.73275 1.16656,6.44059 1.6238,7.94519 0.2129,0.70054 1.25007,0.80334 2.32128,0.23004 z m 53.94494,-42.03546 c 0.24783,-1.40602 0.45025,-4.46139 0.44983,-6.78972 0,-3.69088 -0.14937,-4.7758 -1.1605,-8.46667 -0.63786,-2.32833 -1.52227,-5.74146 -1.96536,-7.58472 -0.44305,-1.84327 -1.29131,-4.54202 -1.885,-5.99722 -1.02415,-2.51047 -1.86848,-5.13135 -3.67425,-11.40524 -0.43727,-1.51919 -0.95377,-2.70982 -1.1478,-2.64583 -0.19402,0.064 -0.33192,0.91009 -0.30642,1.88023 0.0407,1.54866 0.62759,3.75346 3.70935,13.93472 0.38174,1.26119 0.93024,4.11869 1.21882,6.35 0.2886,2.23132 0.74383,4.8507 1.01159,5.82084 0.95793,3.4709 1.91812,8.8933 2.35419,13.29473 0.24384,2.46141 0.55622,4.40553 0.69416,4.32028 0.13797,-0.0853 0.45357,-1.30539 0.70139,-2.7114 z m -9.91224,-45.607 c 0,-0.2975 -0.39688,-1.3241 -0.88195,-2.28133 -0.48507,-0.95724 -0.88483,-1.94415 -0.88836,-2.19314 -0.004,-0.24898 -0.49177,-1.16707 -1.08497,-2.0402 -0.97695,-1.43796 -1.05519,-1.48781 -0.83076,-0.52916 0.329,1.40512 2.31105,6.58536 2.73336,7.14375 0.45798,0.60556 0.95268,0.55367 0.95268,-0.0999 z M 213.73163,94.790754 c -0.24596,-1.119992 -1.55812,-3.454672 -1.80361,-3.209177 -0.16673,0.166701 0.77822,4.032631 1.12141,4.587896 0.40615,0.657186 0.90706,-0.355075 0.6822,-1.378719 z M -134.80745,398.47095 c -0.15197,-0.24589 -0.18104,-0.54233 -0.0646,-0.65878 0.31572,-0.31574 0.65996,0.14862 0.48944,0.66019 -0.1195,0.35849 -0.20259,0.35821 -0.42485,0 z m -89.34943,-32.90521 c -1.23107,-0.76186 -3.33562,-3.70755 -4.627,-6.47633 -1.1246,-2.4112 -1.79086,-6.20829 -1.60949,-9.17275 0.33684,-5.50545 1.19722,-12.22255 1.68685,-13.16941 0.46523,-0.89965 0.46003,-1.06694 -0.049,-1.57593 -0.48911,-0.48912 -0.51289,-0.8329 -0.16857,-2.43706 1.21942,-5.68116 1.71605,-12.24424 1.98326,-26.20927 0.0365,-1.90595 0.25285,-3.52442 0.54137,-4.04922 0.50535,-0.91923 1.01392,-6.00473 1.16498,-11.64939 0.0493,-1.84326 0.5127,-5.73264 1.02971,-8.64305 0.517,-2.91042 1.28657,-7.83167 1.71014,-10.93612 0.42357,-3.10444 1.06909,-7.07319 1.4345,-8.81944 0.36541,-1.74625 0.97649,-5.31812 1.35795,-7.9375 1.5332,-10.52784 2.00638,-13.07931 3.56561,-19.22639 0.19687,-0.77611 0.65917,-3.82076 1.02734,-6.76589 0.36818,-2.94513 0.82265,-5.64388 1.00995,-5.99722 0.76037,-1.43447 1.29795,-8.63297 1.27303,-17.04661 -0.0254,-8.56262 -0.0342,-8.66165 -0.95219,-10.64101 -0.50963,-1.09887 -1.37123,-2.46701 -1.91468,-3.04035 -0.54345,-0.5733 -1.41273,-1.49983 -1.93174,-2.05899 -2.4103,-2.59661 -2.61844,-2.7221 -4.05524,-2.44489 -0.74311,0.14336 -2.06548,0.39118 -2.93861,0.55069 -0.87312,0.15952 -2.2225,0.45289 -2.99861,0.65193 -1.39415,0.35754 -2.6124,0.53418 -12.4094,1.79917 -2.75059,0.35518 -5.17652,0.7542 -5.39096,0.88674 -0.21444,0.1325 -1.91269,0.38502 -3.77389,0.56113 -2.31588,0.21907 -3.95479,0.58931 -5.19237,1.17291 -1.69176,0.79774 -4.69784,1.38614 -6.86307,1.34335 -0.51839,-0.0102 -1.89503,0.19625 -3.0592,0.45886 -2.788,0.629 -5.07793,0.87573 -5.26832,0.56769 -0.21515,-0.34813 0.20639,-0.91028 1.03499,-1.38014 0.67559,-0.38308 0.66942,-0.40055 -0.14513,-0.41081 -0.46788,-0.006 -3.96118,0.38446 -7.76289,0.86748 -3.80171,0.48299 -7.70515,0.96012 -8.67432,1.06024 -0.96916,0.10015 -2.07961,0.21971 -2.46766,0.26571 -0.83249,0.0987 -5.21993,-0.35003 -7.84778,-0.80261 -3.15537,-0.54341 -5.17049,-2.35556 -7.67445,-6.90146 -3.32474,-6.03601 -5.25217,-13.43345 -4.0738,-15.63524 0.64127,-1.19824 0.14848,-3.55929 -0.7429,-3.55929 -1.72311,0 -2.91608,-1.93278 -2.11586,-3.428 0.22193,-0.41469 0.22501,-0.86399 0.009,-1.25074 -0.38919,-0.69544 0.22773,-2.17067 0.76808,-1.83671 0.19556,0.12086 0.33508,-0.57493 0.33508,-1.67104 0,-1.1531 0.25284,-2.35276 0.65497,-3.10762 0.38152,-0.71618 0.72926,-2.286 0.8329,-3.76003 0.12854,-1.82809 0.61668,-3.68866 1.75853,-6.70277 0.86934,-2.29474 1.85725,-5.02489 2.19538,-6.06701 0.33812,-1.04211 1.28011,-2.94711 2.0933,-4.23333 0.8132,-1.28622 1.66247,-2.75956 1.88728,-3.27409 0.2248,-0.51453 1.15343,-1.91472 2.06363,-3.11155 0.91019,-1.19682 2.29126,-3.39522 3.06905,-4.88533 0.77778,-1.4901 1.94858,-3.371 2.60178,-4.17976 0.65319,-0.80877 1.18763,-1.61251 1.18763,-1.78609 0,-0.17357 0.49678,-0.78186 1.10397,-1.35174 0.60719,-0.56987 1.67875,-1.89098 2.38125,-2.9358 0.7025,-1.04482 1.43603,-2.13442 1.63005,-2.42134 1.26797,-1.87503 8.98446,-9.76985 11.92925,-12.20493 0.74025,-0.612126 2.4865,-2.198744 3.88055,-3.52582 1.39406,-1.327076 3.00879,-2.660269 3.58829,-2.962656 1.54174,-0.804478 3.93503,-2.88544 4.33952,-3.773202 0.27084,-0.594434 0.15812,-1.17553 -0.49432,-2.548283 -1.43736,-3.024241 -2.09334,-8.723934 -1.96277,-17.054382 0.0719,-4.588489 0.29749,-8.045877 0.61711,-9.458696 0.27707,-1.224714 0.50376,-2.666933 0.50376,-3.204933 0,-1.156395 1.13453,-4.748294 2.32692,-7.366967 0.46645,-1.024392 0.84808,-2.151041 0.84808,-2.50366 0,-0.352615 0.31414,-1.003321 0.69808,-1.446015 0.38395,-0.44269 0.80124,-1.354783 0.92733,-2.026878 0.12608,-0.672091 0.76445,-2.110778 1.41859,-3.19708 0.65414,-1.086305 1.18934,-2.162965 1.18934,-2.392578 0,-0.379673 4.77824,-7.852748 5.28592,-8.267082 0.11887,-0.09701 0.59772,-0.732014 1.0641,-1.411111 3.68839,-5.370591 11.06786,-13.027329 15.17582,-15.746025 1.06363,-0.703929 2.41013,-1.714366 2.99221,-2.24542 0.58209,-0.531054 2.32834,-1.8548455 3.88056,-2.9417644 1.55222,-1.0869154 3.52823,-2.6018491 4.39112,-3.3665161 1.64885,-1.4611632 8.4704,-5.05027493 12.36583,-6.5061959 1.26118,-0.4713675 3.51602,-1.4322425 5.01077,-2.1352792 1.49474,-0.7030332 2.79191,-1.2782444 2.88259,-1.2782444 0.0907,0 1.48709,-0.7624904 3.10312,-1.6944235 1.61603,-0.931933 3.23112,-1.8058588 3.58909,-1.9420558 0.35797,-0.1362004 0.73367,-0.564335 0.8349,-0.9514134 0.20834,-0.7966993 1.23432,-0.9352953 1.80787,-0.2442175 0.44173,0.5322535 -0.26721,2.1694564 -1.27265,2.9390411 -1.0387,0.7950376 -6.75777,4.0097357 -7.13347,4.0097357 -0.19556,0 -0.35556,0.1226503 -0.35556,0.2725562 0,0.1499023 -0.59531,0.5798114 -1.32291,0.9553504 -0.72761,0.3755355 -1.74644,0.96878776 -2.26408,1.31833056 -0.51764,0.34954634 -2.10514,1.11930745 -3.52778,1.71058064 -3.25196,1.3515728 -5.79381,2.6611086 -7.22943,3.7245396 -0.61327,0.4542755 -2.23266,1.3868541 -3.59864,2.0723931 -1.36599,0.6855389 -2.58155,1.4049093 -2.70127,1.5986054 -0.1197,0.1936927 -0.80219,0.6587878 -1.51663,1.0335405 -0.71444,0.374752 -2.22903,1.545505 -3.36575,2.601676 -1.13672,1.056171 -2.4861,2.13373 -2.99861,2.394581 -1.65791,0.843817 -9.90666,9.711969 -11.23371,12.077252 -0.23324,0.415731 -0.83557,1.232123 -1.33851,1.814206 -1.91891,2.220891 -3.00096,3.658387 -5.81885,7.730282 -2.33872,3.37948 -3.1446,4.899431 -4.11499,7.761111 -0.66369,1.957236 -1.49914,4.272982 -1.85656,5.146107 -1.21916,2.978312 -2.1899,6.711527 -2.50131,9.619393 -0.17105,1.597321 -0.57517,3.775181 -0.89803,4.839695 -0.62099,2.047458 -0.58118,4.843624 0.16332,11.470079 0.49566,4.411673 2.15726,10.772634 2.8089,10.753062 0.19726,-0.0059 0.87641,-0.433014 3.96692,-2.494612 0.46254,-0.308543 2.0316,-1.253416 3.48681,-2.099716 1.45521,-0.846299 4.10857,-2.459164 5.89637,-3.584144 1.78779,-1.124984 3.39554,-2.045423 3.57277,-2.045423 0.17724,0 0.51668,-0.234284 0.75433,-0.520633 0.23765,-0.286347 1.24928,-0.90883 2.24806,-1.383302 1.27037,-0.603486 2.01814,-1.24199 2.48888,-2.1252 0.37011,-0.694394 0.79123,-1.262532 0.93584,-1.262532 0.14461,0 0.84247,-0.873125 1.55081,-1.940278 1.62079,-2.441836 2.40999,-2.529776 4.01081,-0.446924 1.41621,1.842647 1.67712,2.805864 1.12265,4.144483 -0.78296,1.890226 -7.77585,7.519222 -10.2333,8.237397 -0.67909,0.198462 -2.82222,1.400439 -4.7625,2.671064 -1.94028,1.270621 -3.96772,2.506263 -4.50543,2.745867 -1.70619,0.760292 -4.95846,3.009836 -6.78346,4.692022 -0.97014,0.894221 -2.71639,2.244584 -3.88055,3.000809 -1.16417,0.756221 -2.73224,1.917474 -3.4846,2.580559 -0.75236,0.663084 -2.10108,1.529916 -2.99715,1.926293 -0.89608,0.396374 -2.50301,1.62051 -3.57096,2.720301 -1.06796,1.09979 -2.91237,2.73466 -4.0987,3.63305 -1.18632,0.89838 -3.33243,2.95043 -4.76912,4.56009 -2.19872,2.46342 -3.3009,3.82181 -6.38205,7.86554 -0.14785,0.19403 -0.78587,1.00514 -1.41784,1.80246 -0.63197,0.79732 -2.30563,3.04478 -3.71926,4.99434 -1.41363,1.94956 -2.81429,3.74721 -3.11259,3.99478 -0.2983,0.24756 -0.85463,1.01636 -1.23629,1.70844 -0.38166,0.69207 -1.04475,1.76846 -1.47352,2.39197 -0.42878,0.62351 -1.24206,1.89351 -1.80729,2.82222 -0.56523,0.92871 -1.6368,2.59959 -2.38125,3.71306 -0.74445,1.11346 -1.35355,2.3501 -1.35355,2.74808 0,0.39798 -0.30238,1.31631 -0.67196,2.04074 -0.36957,0.72443 -0.78181,2.10717 -0.91609,3.07275 -0.13427,0.96558 -0.56893,2.39061 -0.9659,3.16672 -0.39697,0.77611 -0.7854,1.96674 -0.86317,2.64583 -0.19138,1.67102 -1.06632,4.5665 -1.55943,5.16065 -0.22083,0.26609 -0.71901,0.4838 -1.10707,0.4838 -0.56398,0 -0.6235,0.0989 -0.29661,0.49275 0.22492,0.27101 0.72061,0.41124 1.10153,0.31163 0.56101,-0.14671 0.69259,-0.002 0.69259,0.76415 0,0.70555 -0.15684,0.91869 -0.61846,0.84049 -0.93231,-0.15795 -3.2621,1.41748 -3.2621,2.20586 0,0.85334 0.42807,0.86257 1.18553,0.0256 0.50314,-0.55596 0.76772,-0.59537 1.80904,-0.26944 l 1.21971,0.38176 -0.0712,3.17986 c -0.10109,4.51362 0.10817,7.07589 0.66564,8.15042 0.61271,1.18099 0.60618,1.48301 -0.0462,2.13538 -0.6613,0.6613 -0.6613,2.14417 0,3.301 0.27729,0.48507 0.50979,1.17696 0.51667,1.53755 0.0102,0.53274 -0.16075,0.61212 -0.91197,0.42357 -0.90347,-0.22675 -0.91881,-0.20185 -0.67526,1.09638 0.31966,1.70394 1.35833,3.15276 2.77407,3.86953 0.61529,0.31151 1.35684,0.77173 1.64788,1.02271 0.29104,0.25098 1.51116,0.7857 2.71137,1.18829 1.99714,0.66989 2.50572,0.70133 5.99722,0.37039 4.63915,-0.43971 12.06222,-2.06964 16.04448,-3.52303 1.61699,-0.59015 4.47482,-1.54638 6.35073,-2.12496 1.87591,-0.57859 5.13028,-1.8402 7.23194,-2.8036 2.10167,-0.96339 4.18628,-1.75404 4.63248,-1.75701 1.73385,-0.0115 3.59845,1.52111 3.59845,2.95776 0,0.61041 -2.01324,3.03408 -2.52027,3.03408 -0.18179,0 -0.76066,0.31782 -1.28638,0.70626 -0.82198,0.60735 -4.81491,1.88051 -8.36418,2.66697 -1.0261,0.22736 -1.03458,0.24546 -0.27822,0.59513 0.9869,0.45622 7.5014,-0.43867 11.96146,-1.64316 3.5104,-0.94802 6.01027,-1.41695 11.4237,-2.14286 5.16188,-0.69219 10.83691,-1.51819 14.99306,-2.18223 1.94028,-0.31 4.79778,-0.69251 6.35,-0.85003 8.88802,-0.90192 29.28424,-3.53788 34.925,-4.51363 2.13431,-0.3692 5.54743,-0.86891 7.58472,-1.11047 2.03729,-0.24156 4.10104,-0.59503 4.58611,-0.78551 0.48507,-0.19046 3.31679,-0.39959 6.2927,-0.46472 5.77778,-0.12644 6.05162,-0.20629 7.00055,-2.04133 0.7394,-1.42984 1.8762,-6.29516 1.8762,-8.02984 0,-0.77346 0.21604,-1.83496 0.48008,-2.3589 0.63038,-1.25084 1.09228,-7.33113 1.09076,-14.35818 -0.001,-6.15596 -0.44198,-13.96542 -0.81014,-14.35803 -0.12734,-0.1358 -0.86653,-0.11264 -1.64265,0.0515 -0.77611,0.1641 -2.60173,0.39286 -4.05694,0.50834 -5.13215,0.40728 -13.95831,1.57652 -15.89521,2.10571 -1.07827,0.2946 -3.69765,0.7172 -5.82084,0.93911 -2.12319,0.22192 -4.65409,0.62898 -5.62423,0.90459 -2.76378,0.78518 -6.0623,1.03175 -6.70184,0.50098 -0.44659,-0.37064 -0.65703,-0.34804 -1.18186,0.12692 -0.45807,0.41455 -1.32857,0.58179 -3.08019,0.59176 -2.54934,0.0145 -11.57418,0.76522 -16.72917,1.39157 -1.64923,0.2004 -3.94824,0.44866 -5.1089,0.5517 -2.39735,0.21284 -5.63798,1.05993 -6.76038,1.76714 -1.17122,0.73798 -4.75462,1.92014 -5.82037,1.92014 -0.52645,0 -1.22532,-0.26815 -1.55306,-0.59589 -0.5271,-0.5271 -0.68585,-0.53728 -1.37515,-0.0882 -0.4286,0.27923 -1.28204,0.82519 -1.89653,1.21324 -0.61449,0.38806 -1.1155,0.86431 -1.11336,1.05834 0.002,0.19403 0.94499,1.42359 2.09521,2.73235 3.489,3.96994 3.92414,4.6561 4.00019,6.30777 0.0888,1.92936 -0.85147,2.32284 -1.76155,0.73713 -0.32663,-0.56912 -1.15943,-1.40771 -1.85068,-1.86353 -0.69124,-0.45583 -1.7992,-1.35133 -2.46213,-1.99 -0.66293,-0.63867 -1.3773,-1.15713 -1.5875,-1.15212 -0.52018,0.0124 -2.57595,3.09792 -3.19109,4.78955 -3.10023,8.52562 -3.7925,9.99164 -5.4505,11.54251 -1.42166,1.32979 -1.99561,1.61305 -3.96237,1.95555 -1.26494,0.22028 -2.53704,0.40051 -2.82687,0.40051 -0.77601,0 -2.06107,-1.51176 -2.06107,-2.42467 0,-1.00345 1.88042,-3.36347 3.38929,-4.25372 0.63501,-0.37467 1.54026,-1.28749 2.01167,-2.0285 0.82844,-1.30223 4.16772,-6.36535 5.80487,-8.80154 0.43939,-0.65384 0.70346,-1.18879 0.58683,-1.18879 -0.4961,0 -4.9097,4.55735 -5.99766,6.19299 -0.65238,0.9808 -2.10757,2.76674 -3.23375,3.96875 -1.89142,2.01877 -2.16267,2.18548 -3.556,2.18548 -1.58889,0 -2.9592,-1.01022 -3.33868,-2.46134 -0.3464,-1.32461 2.45239,-5.30414 6.57995,-9.35587 6.14919,-6.03623 10.30533,-9.42489 20.55317,-16.75779 1.49136,-1.06715 4.55717,-3.45026 6.8129,-5.2958 3.74876,-3.06706 6.72217,-5.17574 12.01519,-8.5209 3.67951,-2.32543 7.58742,-4.48013 8.55937,-4.71937 0.53605,-0.13195 1.09168,-0.4388 1.23472,-0.6819 0.14304,-0.2431 0.73633,-0.70268 1.31841,-1.0213 0.58208,-0.31861 1.45521,-0.87532 1.94028,-1.23712 0.48507,-0.3618 1.99319,-1.37778 3.35139,-2.25773 1.35819,-0.87994 3.18382,-2.2397 4.05694,-3.02168 1.98738,-1.77992 4.20028,-2.91238 5.18686,-2.65438 0.81029,0.2119 1.60411,1.73804 1.60411,3.08397 0,0.45727 -0.26667,1.63428 -0.59261,2.61558 -0.62945,1.8951 -1.96149,3.19462 -4.25822,4.15426 -0.67902,0.28371 -1.23458,0.61137 -1.23458,0.72814 0,0.31523 3.77065,-0.21406 5.2462,-0.73641 3.17896,-1.12538 8.89701,-4.11997 10.75213,-5.631 1.12015,-0.91237 2.29156,-1.60941 2.60312,-1.54897 2.08572,0.40461 0.34626,5.79468 -2.44288,7.56971 -1.99457,1.26936 -5.73623,2.80675 -9.45579,3.88522 -1.64924,0.4782 -4.14851,1.26063 -5.55393,1.73875 -2.37745,0.80879 -2.71633,0.83963 -4.86881,0.44302 -2.51476,-0.46336 -4.21034,-0.1296 -5.62865,1.10796 -0.38806,0.3386 -1.85092,1.20946 -3.2508,1.93525 -1.39988,0.72579 -3.41196,2.05695 -4.47129,2.95813 -3.24634,2.76171 -5.8974,4.50354 -9.56371,6.28368 l -3.5112,1.70483 1.75544,0.11522 c 2.91379,0.19123 11.65588,-0.76455 18.86517,-2.06254 2.03729,-0.36681 4.49791,-0.7464 5.46805,-0.84355 0.97014,-0.0971 3.03389,-0.33508 4.58611,-0.52874 1.55223,-0.19367 5.7591,-0.60196 9.34862,-0.90732 3.58951,-0.30536 7.87576,-0.78013 9.525,-1.05505 6.17329,-1.02906 20.58274,-2.35877 22.97544,-2.12018 1.73944,0.17345 2.59738,0.10002 3.35139,-0.28684 2.00226,-1.0273 11.36139,-0.78043 13.13331,0.34643 0.45703,0.29065 2.65194,0.76429 4.87756,1.05253 3.84936,0.49853 5.30133,0.45379 4.92703,-0.15183 -0.0929,-0.15028 -0.58293,-3.20733 -1.089,-6.79346 -0.89734,-6.35874 -1.72891,-10.4135 -2.41675,-11.7841 -0.18707,-0.37278 -0.9387,-3.07153 -1.67027,-5.99722 -0.73158,-2.9257 -1.90207,-6.615174 -2.60109,-8.198829 -0.69903,-1.583654 -1.27095,-3.207501 -1.27095,-3.608546 0,-1.003642 -1.65181,-5.868402 -2.64831,-7.799581 -1.7795,-3.448601 -6.60474,-14.005155 -6.93372,-15.169445 -0.60381,-2.136965 -2.11907,-5.782878 -2.80834,-6.757236 -0.36433,-0.51502 -0.66241,-1.015005 -0.66241,-1.111077 0,-0.09607 -0.54338,-0.982134 -1.20751,-1.969026 -0.66413,-0.986892 -1.52721,-2.648814 -1.91795,-3.69316 -0.39074,-1.044346 -1.3158,-2.852014 -2.05568,-4.017042 -4.0003,-6.298875 -4.59141,-7.276334 -6.59542,-10.906259 -1.85967,-3.368484 -7.41971,-11.946371 -7.95978,-12.280159 -0.18177,-0.112335 -0.69701,-0.949092 -1.14499,-1.85946 -0.44798,-0.910368 -1.4772,-2.351412 -2.28717,-3.202316 -0.80997,-0.850903 -1.8287,-2.424327 -2.26386,-3.496493 -0.79761,-1.965187 -1.60593,-3.078484 -5.38864,-7.42175 -1.13828,-1.306964 -2.75077,-3.408175 -3.58332,-4.6693556 -0.83254,-1.2611806 -2.79983,-3.6424306 -4.37175,-5.2916667 -2.99444,-3.14172604 -3.58911,-4.22676819 -2.82267,-5.1502699 1.00726,-1.213679 4.15791,0.54196196 7.80187,4.3474535 1.83992,1.9214818 5.95058,6.0659575 6.63608,6.6906775 0.17246,0.1571625 1.16989,1.2382502 2.21651,2.4024162 3.86213,4.295874 4.36666,4.762292 7.32375,6.770536 4.22676,2.870518 8.43442,6.283883 9.68303,7.855123 3.41848,4.301825 5.24759,6.364619 5.64361,6.364619 0.24687,0 0.72507,-0.421558 1.06266,-0.936794 1.80454,-2.754076 5.42626,-5.25308 10.23824,-7.064431 3.447,-1.297538 3.61435,-1.323855 8.45549,-1.329648 3.72271,-0.0044 5.40973,0.14436 6.85096,0.604336 1.05165,0.33564 2.00415,0.515589 2.11667,0.399892 0.28333,-0.291324 -2.39969,-2.628847 -5.21194,-4.54079 -1.28952,-0.876695 -3.53521,-2.472443 -4.99041,-3.546101 -1.45521,-1.073662 -3.36021,-2.323564 -4.23334,-2.777568 -4.66299,-2.424624 -7.31514,-4.0632272 -8.89244,-5.4940904 -0.96612,-0.876427 -2.6063,-2.0704845 -3.64485,-2.6534604 -4.59103,-2.5771193 -6.73786,-3.8584399 -7.39465,-4.4134546 -0.38806,-0.32792458 -1.65806,-1.12436275 -2.82223,-1.76986848 -1.16416,-0.64550572 -2.53921,-1.52071562 -3.05567,-1.94491332 -0.51644,-0.4241976 -2.13368,-1.4269473 -3.59385,-2.2283349 -2.81018,-1.5423198 -3.75742,-2.5132207 -3.75742,-3.8512821 v -0.8200743 l -1.32292,1.0330427 c -1.95604,1.5274361 -4.35572,2.3147761 -6.25967,2.0538088 -2.10418,-0.28841 -4.79298,-1.6859921 -6.0111,-3.1244541 -1.21451,-1.4341999 -2.8159,-4.9296739 -3.09874,-6.7638749 -0.32973,-2.138292 -0.96986,-2.624364 -5.63089,-4.275748 -2.33204,-0.826234 -5.01396,-3.043905 -6.08899,-5.034958 -0.49588,-0.918414 -1.12662,-2.06672 -1.40166,-2.551789 -0.87081,-1.53584 -2.33257,-4.697886 -3.03654,-6.568599 -0.59518,-1.581577 -0.64061,-2.217466 -0.36547,-5.115278 0.51842,-5.46034 2.53637,-8.846947 6.93403,-11.63701 2.31461,-1.468491 2.93595,-1.622771 7.63623,-1.896096 4.30525,-0.250356 4.76287,-0.364857 4.19461,-1.049563 -0.52178,-0.62871 0.0503,-0.99228 2.80944,-1.7855 5.73506,-1.648753 10.98772,-4.56074 14.45134,-8.011587 3.04898,-3.037742 3.63329,-3.853082 3.32919,-4.64554 -0.31655,-0.824911 -2.17989,-1.720332 -3.0996,-1.489495 -0.42092,0.105643 -2.11039,1.479952 -3.75437,3.054018 -1.64398,1.57407 -3.78281,3.401769 -4.75295,4.061555 -0.97014,0.65979 -2.12619,1.464286 -2.56901,1.787772 -0.83864,0.612638 -4.64463,2.081164 -6.7796,2.615879 -0.9188,0.230121 -1.36236,0.182387 -1.73358,-0.186563 -0.67616,-0.672009 -0.01,-1.465015 1.49338,-1.777361 1.22659,-0.254868 5.07578,-2.604047 6.07386,-3.706911 0.34413,-0.380263 0.76936,-0.691388 0.94496,-0.691388 1.10646,0 9.09638,-7.482082 9.09638,-8.518211 0,-0.323533 -0.47625,-1.649713 -1.05833,-2.947067 -0.88371,-1.969626 -1.05833,-2.812609 -1.05833,-5.10908 0,-3.138053 0.50479,-4.096522 2.3445,-4.451604 0.82669,-0.159561 1.28383,-0.04015 1.79212,0.46814 0.61551,0.615509 0.64689,0.896694 0.32042,2.87074 -0.30797,1.862127 -0.27273,2.339403 0.23635,3.201201 0.32905,0.557039 0.59827,1.465601 0.59827,2.019028 0,1.826659 0.65493,3.3369 2.16929,5.002301 0.82206,0.904046 2.0003,1.915403 2.61832,2.247462 1.50762,0.810038 1.76534,1.618714 0.87009,2.730183 -0.39844,0.494675 -1.119,1.750225 -1.60124,2.790112 -1.88392,4.062448 -8.35096,8.771082 -13.89838,10.119388 -1.37792,0.334903 -2.5053,0.73539 -2.5053,0.889971 0,0.580531 2.09054,1.740213 3.13704,1.740213 1.84692,0 7.57104,-2.039983 9.84114,-3.507217 2.17957,-1.408723 4.43642,-4.0456 4.84689,-5.663033 0.12283,-0.483983 0.38875,-1.079295 0.59093,-1.322916 0.58352,-0.703097 1.97558,-0.526475 2.42179,0.307273 0.5234,0.977967 0.1036,5.054794 -0.57881,5.621147 -0.42356,0.351525 -0.72463,1.389746 -0.403,1.389746 0.0552,0 1.04742,-0.332909 2.20486,-0.739799 1.73818,-0.611047 2.59561,-0.703291 4.92666,-0.530014 1.55222,0.11538 5.20347,0.298623 8.11389,0.407205 2.91042,0.108581 5.52979,0.264089 5.82083,0.345574 0.29105,0.08148 0.7224,0.02656 0.95858,-0.122054 0.2899,-0.182422 -0.17099,-0.739126 -1.41861,-1.713534 -3.64453,-2.846412 -5.13046,-7.693145 -3.38517,-11.041556 l 0.7409,-1.421458 -1.75143,-2.028987 c -1.93173,-2.237846 -2.29081,-3.050195 -2.26227,-5.117928 0.0231,-1.676961 0.86905,-2.731893 2.19059,-2.731893 1.18107,0 1.43685,0.304274 2.60921,3.103936 0.5895,1.40775 1.50792,2.775289 2.50628,3.731888 1.48265,1.420636 1.57581,1.621847 1.57581,3.403491 0,1.46208 -0.20789,2.19359 -0.91231,3.210056 l -0.9123,1.316457 0.66034,1.875102 c 0.42576,1.209008 0.88981,1.919291 1.30632,1.999506 0.3553,0.06842 1.35396,0.664816 2.21927,1.325319 2.41197,1.841101 3.94501,1.53198 5.712,-1.151774 1.57826,-2.397111 5.02044,-5.208573 7.68117,-6.273736 2.5707,-1.029124 3.58373,-1.124518 3.87522,-0.364921 0.28565,0.744411 -0.45349,1.520067 -2.25584,2.36727 -1.4656,0.688911 -4.32109,3.234661 -4.32109,3.852372 0,0.160059 -0.46675,1.254573 -1.03723,2.432251 -0.57047,1.177678 -1.22962,2.72421 -1.46478,3.436736 -0.23516,0.71253 -0.72031,1.775566 -1.07812,2.362306 -0.8038,1.318077 -0.87779,5.216292 -0.12404,6.534852 0.2773,0.48507 0.5098,1.479589 0.51667,2.210044 0.009,1.01008 0.30167,1.64363 1.22012,2.645833 1.15111,1.256083 1.31203,1.317674 3.43958,1.316485 2.5849,-0.0014 3.96163,-0.578534 6.36666,-2.668749 1.84516,-1.603633 2.85037,-3.175586 4.49633,-7.031391 0.9234,-2.163145 1.15742,-3.240969 1.28274,-5.908047 0.13892,-2.956461 0.07,-3.426523 -0.7351,-5.015353 -0.48861,-0.96423 -0.88838,-1.968603 -0.88838,-2.231941 0,-0.263341 -0.55563,-1.260298 -1.23473,-2.215462 -0.67909,-0.955163 -1.23472,-1.850647 -1.23472,-1.989963 0,-0.696348 1.44097,-0.89306 4.36815,-0.596314 l 3.13344,0.317659 1.7281,-1.851819 c 1.67803,-1.798154 1.72524,-1.907572 1.62907,-3.775968 l -0.099,-1.924155 -2.15494,-1.427234 c -1.19374,-0.79062 -2.84598,-2.332129 -3.70417,-3.455924 -0.85207,-1.115779 -2.06516,-2.678609 -2.69575,-3.472963 -0.63059,-0.794349 -1.14652,-1.806688 -1.14652,-2.249642 0,-0.442955 -0.25051,-1.013273 -0.55669,-1.267379 -0.85823,-0.712262 -2.31995,-3.824905 -2.19806,-4.680621 0.0881,-0.618359 0.3282,-0.754648 1.25544,-0.712579 0.63059,0.02861 1.14653,-0.0072 1.14653,-0.07967 0,-0.07243 -0.31691,-0.65146 -0.70424,-1.286739 -0.38733,-0.635279 -0.70483,-1.437848 -0.70555,-1.783486 -7.1e-4,-0.345641 -0.24532,-0.722065 -0.54354,-0.836503 -0.29822,-0.114434 -0.77826,-0.664535 -1.06676,-1.222438 -0.28851,-0.557904 -1.0367,-1.244382 -1.66265,-1.525507 -0.62595,-0.281121 -1.53497,-0.74713 -2.02004,-1.03558 -0.89313,-0.5311 -7.91816,-3.88436 -10.28322,-4.90849 -0.70806,-0.30661 -1.89869,-0.66825 -2.64583,-0.80366 -0.74715,-0.1354 -1.75533,-0.44033 -2.2404,-0.67763 -1.92605,-0.94222 -7.53488,-2.15098 -13.05277,-2.813 -7.30709,-0.87669 -17.81337,-1.13555 -21.51945,-0.53021 -1.06715,0.1743 -4.24215,0.63344 -7.05556,1.0203 -2.8134,0.38686 -6.06777,1.03312 -7.23194,1.43613 -1.16417,0.40301 -3.30729,0.95955 -4.7625,1.23677 -5.73478,1.09248 -7.44431,1.63262 -7.82725,2.47309 -0.36119,0.79272 -1.64059,1.58322 -2.56241,1.58322 -1.19083,0 -6.46587,3.424017 -10.9534,7.109825 -4.17139,3.426157 -5.01741,4.268224 -6.85694,6.824892 -0.97722,1.358195 -2.58684,3.50132 -3.57694,4.7625 -0.99009,1.261181 -2.04793,2.848681 -2.35074,3.527778 -0.30282,0.679097 -1.10137,2.414891 -1.77456,3.857315 -0.67319,1.442427 -1.30895,3.268052 -1.41279,4.056944 -0.10384,0.788896 -0.41227,1.778875 -0.68541,2.199961 -0.44552,0.686848 -0.41268,0.861653 0.31928,1.69919 0.44873,0.513464 0.92464,1.518316 1.05757,2.232998 0.74248,3.991818 1.08926,4.866563 2.94831,7.437011 1.01011,1.396647 1.12599,3.232016 0.37132,5.881024 -0.2726,0.956847 -0.60522,2.529749 -0.73916,3.495333 -0.47412,3.41799 -1.42689,4.580266 -5.76442,7.031983 -2.37339,1.341515 -5.36473,1.823653 -10.44855,1.684073 -3.98873,-0.109516 -5.10397,-0.506666 -6.39327,-2.27675 -1.32627,-1.820827 -2.36716,-4.458191 -2.20685,-5.591673 0.0949,-0.67105 0.33092,-0.839353 1.17704,-0.839353 0.93806,0 1.16559,0.22497 2.00218,1.979648 0.77777,1.631304 1.19248,2.079131 2.35684,2.545016 2.90524,1.162445 8.45114,0.222377 11.74783,-1.991342 1.39309,-0.935454 2.83726,-3.412053 3.83511,-6.576826 0.80334,-2.547863 0.70392,-3.659639 -0.52173,-5.834274 -1.51455,-2.687207 -2.03799,-6.948643 -1.04052,-8.470981 0.57903,-0.883701 0.56674,-0.926049 -0.56047,-1.932425 l -1.15247,-1.028922 0.7848,-2.574114 c 1.53555,-5.036517 2.26685,-6.521616 5.93225,-12.047139 2.48553,-3.746881 4.71099,-6.614933 6.74356,-8.690719 1.66855,-1.704037 3.66873,-3.796228 4.44484,-4.649308 0.77611,-0.853084 2.66085,-2.498505 4.18831,-3.656505 2.93776,-2.22717 3.41005,-2.52706 5.75179,-3.65223 0.81038,-0.38938 1.76288,-0.87133 2.11666,-1.07099 0.35379,-0.19967 1.19887,-0.60197 1.87797,-0.89401 0.67909,-0.29203 1.47284,-0.67819 1.76389,-0.85813 0.69789,-0.43148 6.80146,-2.66121 8.81944,-3.22189 3.12842,-0.86919 3.75804,-1.00812 7.76111,-1.71251 2.23132,-0.39262 5.1682,-0.91142 6.52639,-1.15287 2.79876,-0.49756 13.75037,-0.61599 19.05,-0.20601 5.0873,0.39355 10.57306,1.28413 12.34722,2.00449 0.38806,0.15756 1.57869,0.53701 2.64584,0.84321 5.00538,1.43624 6.02697,1.76217 8.99583,2.87003 1.74625,0.65163 4.04813,1.37849 5.11528,1.61525 3.01764,0.66949 8.17022,3.28917 10.71405,5.44726 1.41392,1.19952 2.72162,2.714813 3.42492,3.968621 0.62574,1.115526 1.46299,2.389928 1.86057,2.832012 0.47699,0.530394 0.80752,1.550317 0.97175,2.998611 0.55894,4.929106 0.99775,6.922922 2.01967,9.176702 0.72169,1.591656 1.34671,2.471389 1.90724,2.684502 1.49293,0.567612 4.196416,2.57308 4.504751,3.341666 0.165551,0.412658 0.394384,1.18685 0.508522,1.720427 0.257305,1.202848 0.894281,1.235696 1.884225,0.09716 0.889141,-1.022604 2.930892,-1.949246 4.294936,-1.949246 1.117282,0 4.820168,1.21611 5.551851,1.823353 0.544689,0.45205 2.492213,3.358812 3.387386,5.055814 0.307051,0.582083 0.724994,2.779021 0.928765,4.882085 l 0.370491,3.823751 -1.275115,1.55611 c -0.701312,0.85586 -1.414741,1.55611 -1.585394,1.55611 -0.824121,0 -0.171112,1.465389 1.041396,2.336958 1.545866,1.111187 4.135988,4.325232 6.78771,8.422764 1.00452,1.552222 2.044725,2.949173 2.311562,3.104335 0.266838,0.155162 0.485161,0.435218 0.485161,0.622346 0,0.187127 0.714375,1.217291 1.5875,2.289253 0.873125,1.071961 1.603725,2.300033 1.623558,2.729043 0.113474,2.454751 -0.145108,7.203778 -0.420229,7.71785 -0.176763,0.330281 -0.321384,0.934032 -0.321384,1.34167 0,0.747116 -0.911024,2.431803 -1.579351,2.920573 -0.433359,0.316929 -1.75229,0.08865 -4.594261,-0.795172 -2.456596,-0.763975 -6.164294,-1.535976 -6.373255,-1.327012 -0.07903,0.07903 0.411854,1.480883 1.090849,3.115236 0.916139,2.205164 1.291943,3.718398 1.457127,5.867365 l 0.222589,2.895815 -1.523016,2.574629 c -0.83766,1.416042 -2.090808,3.188176 -2.784768,3.938068 -1.477507,1.5965951 -5.124044,3.3649608 -7.52934,3.6513069 -1.456252,0.1733621 -1.707606,0.3234444 -1.876548,1.1204893 -0.439184,2.071998 -1.323577,3.9837572 -2.289976,4.9501566 -0.884605,0.88460444 -1.392132,1.05906363 -3.713882,1.27663227 -1.4791,0.13859933 -3.584,0.13462353 -4.67758,-0.0088547 -1.09357,-0.14346414 -3.09956,-0.38581895 -4.45776,-0.53856467 -1.35819,-0.15274572 -3.39568,-0.5207635 -4.52776,-0.8178165 -3.51915,-0.923417 -6.38048,-1.0984583 -7.52456,-0.4603186 -0.55025,0.3069096 -1.91327,0.8114595 -3.02893,1.12121601 -1.11566,0.30975653 -2.02847,0.62240231 -2.02847,0.69476762 0,0.07236531 0.96152,0.5630792 2.1367,1.09047137 3.27748,1.4708435 4.0022,3.0758554 2.178,4.8235482 -0.89789,0.860231 -6.31569,2.9048993 -9.51817,3.5921386 -1.41832,0.3043661 -1.45355,0.7186546 -0.11974,1.4083916 0.56473,0.292033 2.27129,1.4019 3.79236,2.466371 1.52106,1.064472 3.62793,2.536173 4.68193,3.270448 3.44026,2.396684 6.98981,6.187204 8.50674,9.084232 1.5021,2.868722 1.68373,4.105963 0.88379,6.020481 -0.4152,0.993733 -0.69666,1.219482 -1.4993,1.202567 -0.98294,-0.02071 -3.0712,-0.982165 -4.80038,-2.210142 -2.39355,-1.699772 -8.1283,-2.150181 -11.84436,-0.930265 -1.20514,0.39563 -2.77917,0.781212 -3.49784,0.856855 -1.52983,0.161015 -6.45323,2.136955 -6.82552,2.739327 -0.16017,0.259164 0.39741,0.854053 1.49038,1.5901 2.01249,1.355291 4.76254,4.935138 5.28678,6.882006 0.393,1.459498 0.15214,3.435678 -0.59991,4.921952 -1.03684,2.049128 -0.15863,5.150577 1.90605,6.731279 1.08573,0.831236 1.50097,0.948214 2.71805,0.765701 1.61475,-0.242147 2.49528,0.388595 2.71102,1.941978 0.0779,0.560902 0.81316,1.392389 2.08443,2.357236 2.05071,1.556417 2.70085,2.666453 3.47956,5.940968 0.22973,0.966044 0.88192,2.457302 1.44931,3.313903 1.23876,1.870185 1.56273,3.363937 1.24654,5.747505 -0.28816,2.172219 -0.85635,3.093918 -2.42838,3.939226 -1.02391,0.550573 -3.40116,3.919125 -3.55646,5.039477 -0.0209,0.150643 0.70486,0.441169 1.61277,0.645611 2.23549,0.503396 5.22843,3.175039 5.22843,4.667151 0,1.03818 -2.48425,5.313187 -3.4079,5.864462 -0.25997,0.155166 -0.72679,0.773522 -1.03737,1.374122 l -0.5647,1.092006 1.18207,-0.23241 c 0.65014,-0.127825 1.6122,-0.547744 2.13792,-0.93315 1.46131,-1.071291 2.56254,-0.886509 4.30861,0.722962 2.66011,2.451999 2.4246,3.538629 -1.71727,7.923468 -2.05577,2.17636 -2.06714,2.96849 -0.0705,4.90904 2.19626,2.13452 2.30754,3.17963 0.78608,7.38272 -0.67207,1.85665 -1.39248,3.69436 -1.60091,4.08381 -0.46015,0.85979 0.53835,4.82883 1.69206,6.72596 0.9389,1.5439 1.31288,3.91512 0.77576,4.91873 -0.87912,1.64266 -0.64281,1.81988 7.57027,5.6774 6.77086,3.18014 8.99727,4.2971 9.19141,4.61123 0.11088,0.17941 1.26318,1.02526 2.560651,1.87967 1.297474,0.85441 2.954726,2.1234 3.682781,2.81999 0.728056,0.69658 1.442431,1.26918 1.587501,1.27245 0.145069,0.003 1.93064,1.59801 3.967931,3.54387 2.037292,1.94585 4.594995,4.08444 5.68378,4.75242 2.686494,1.64816 4.361353,3.27737 4.847131,4.71499 0.550203,1.6283 0.510569,4.12424 -0.08059,5.07505 -0.267183,0.42973 -0.817199,2.21009 -1.222251,3.95634 -0.658598,2.83932 -0.718139,3.9396 -0.563175,10.40694 0.284304,11.86529 0.348859,13.0931 0.859212,16.34166 0.555981,3.53899 0.423661,4.15198 -1.448245,6.70912 -1.39748,1.90906 -2.385536,2.05056 -2.85556,0.40894 -0.166659,-0.58208 -0.542565,-1.78554 -0.835346,-2.67433 -0.391488,-1.18844 -0.438185,-1.86362 -0.176498,-2.55189 0.241854,-0.63613 0.235271,-1.58747 -0.02053,-2.97011 -0.207909,-1.1237 -0.272831,-3.13954 -0.145044,-4.50367 0.222465,-2.37479 0.252416,-3.22266 0.236791,-6.70277 -0.0039,-0.87313 0.0046,-2.02407 0.0188,-2.55764 0.01425,-0.53358 -3.31e-4,-1.44639 -0.03242,-2.02847 -0.0321,-0.58209 0.0466,-3.39349 0.174875,-6.24756 0.194229,-4.32182 0.138903,-5.42494 -0.33099,-6.59931 -0.628533,-1.5708 -0.389167,-1.96979 1.181728,-1.96979 0.737154,0 0.900095,-0.18823 0.992491,-1.14652 0.07607,-0.78895 -0.04006,-1.14653 -0.372332,-1.14653 -0.97476,0 -6.13754,-4.62924 -10.674326,-9.57121 -1.510884,-1.64582 -2.72245,-2.58064 -4.233334,-3.26636 -1.164171,-0.52836 -2.513541,-1.32352 -2.998611,-1.76702 -0.48507,-0.4435 -1.9932,-1.40208 -3.35139,-2.13017 -1.35819,-0.72809 -2.79688,-1.62597 -3.19708,-1.99529 -0.4002,-0.36932 -1.51145,-0.91773 -2.46944,-1.21869 -0.958,-0.30096 -2.77369,-1.09062 -4.03487,-1.75479 -1.26118,-0.66418 -2.84868,-1.46267 -3.52778,-1.77443 -0.67909,-0.31175 -2.23412,-1.04724 -3.45561,-1.63441 -3.57326,-1.71766 -11.55215,-4.00964 -11.91494,-3.42263 -0.10183,0.16476 0.0782,2.80285 0.40013,5.86242 0.41489,3.94345 0.50785,6.58983 0.31932,9.09063 -0.42765,5.67291 -0.44762,8.9277 -0.079,12.87639 0.37228,3.98797 0.0619,7.14689 -1.16127,11.81806 -0.63335,2.41873 -2.50223,7.86641 -2.94372,8.58075 -0.43943,0.711 -3.70706,1.54145 -5.1236,1.30213 -1.47628,-0.24942 -4.38984,-2.16114 -4.07358,-2.67286 0.10594,-0.17143 0.78124,-0.47795 1.50065,-0.68116 0.71941,-0.20321 1.72409,-0.72346 2.23263,-1.15611 1.22035,-1.03826 2.39714,-4.32496 2.80437,-7.83243 0.18084,-1.5576 0.50169,-4.18136 0.713,-5.8306 0.84354,-6.58383 1.25038,-11.475 1.84865,-22.225 0.15488,-2.78297 -0.52609,-8.31184 -1.1725,-9.51967 -0.34702,-0.64842 -0.73151,-0.71089 -4.37575,-0.71089 -2.19741,0 -4.72685,0.10027 -5.62096,0.22283 l -1.62568,0.22282 0.15215,2.72689 c 0.0837,1.49978 0.43589,3.9792 0.78269,5.50981 0.90863,4.01033 0.871,16.22755 -0.0564,18.30515 -0.49381,1.1063 -0.6573,2.59661 -0.75682,6.89916 -0.13254,5.72991 -0.51947,7.64396 -1.90011,9.39915 -0.39221,0.49861 -0.7131,1.24671 -0.7131,1.66244 0,1.57927 -1.91262,3.52083 -4.05695,4.11833 -0.77611,0.21626 -1.80798,0.55073 -2.29305,0.74328 -0.9602,0.38114 -2.94601,0.75829 -8.11389,1.541 -7.11925,1.07825 -11.34097,1.54485 -17.45338,1.92898 -3.48748,0.21916 -6.44708,0.46412 -6.57688,0.54434 -0.1298,0.0802 -3.78515,0.22504 -8.12301,0.32183 -4.33786,0.0968 -8.32358,0.26926 -8.85715,0.38329 -1.15611,0.24707 -1.20759,0.74717 -0.39165,3.80452 0.76195,2.855 0.87477,15.25969 0.17853,19.63007 -0.26274,1.64924 -0.60026,4.42736 -0.75004,6.17361 -0.14979,1.74625 -0.44488,3.96875 -0.65576,4.93889 -1.01573,4.67272 -1.90967,10.77345 -2.00678,13.69537 -0.10596,3.18826 -0.97892,7.76167 -2.73919,14.35047 -0.49245,1.84326 -1.15281,5.09764 -1.46748,7.23194 -0.31466,2.13431 -0.88084,5.22993 -1.25817,6.87917 -0.37734,1.64923 -0.85343,4.90361 -1.05798,7.23194 -0.44679,5.08565 -0.825,8.08997 -1.75421,13.93472 -0.38558,2.42535 -0.71195,6.15598 -0.72526,8.29028 -0.0425,6.81514 -0.83265,16.20739 -1.44256,17.14708 -0.59429,0.91567 -0.89269,5.23477 -1.25258,18.1307 -0.25537,9.15046 -0.25849,8.40274 0.0589,14.12808 0.24208,4.36658 0.20169,5.09715 -0.33978,6.14419 -0.56146,1.08578 -0.57509,1.52601 -0.15783,5.09834 0.56171,4.80914 0.85955,5.55692 3.12291,7.84084 1.80253,1.81889 1.94394,2.32954 0.98748,3.56563 -0.50684,0.65504 -2.7421,0.48063 -4.02637,-0.31411 z m 101.29631,-233.81253 c 0.10985,-0.17775 0.0226,-0.77306 -0.1939,-1.32292 -0.38845,-0.98659 -0.39836,-0.98955 -0.75329,-0.22547 -0.55605,1.19704 0.29973,2.596 0.94719,1.54839 z m -0.6932,-16.24566 c 1.08748,-2.14603 1.17359,-4.06733 0.20552,-4.58543 -0.91083,-0.48746 -2.40072,-0.46452 -2.56875,0.0395 -0.34499,1.03498 0.73817,6.29804 1.29616,6.29804 0.0986,0 0.57873,-0.78847 1.06707,-1.75216 z m -1.39292,-12.90772 c 2.15396,-2.47945 2.39424,-2.880125 2.13396,-3.558386 -0.17599,-0.458647 -0.38526,-0.425666 -1.44162,0.227203 -0.67966,0.420052 -1.98936,0.875233 -2.91044,1.011523 l -1.6747,0.2478 0.0878,1.68553 c 0.0483,0.92703 0.25339,1.99495 0.45579,2.37313 0.49704,0.92873 1.15609,0.53777 3.34923,-1.9868 z m -4.94604,-9.240811 c 0.33847,-0.533576 0.96926,-1.367014 1.40175,-1.852083 2.55699,-2.867854 2.42549,-4.30445 -0.32357,-3.534763 -1.37386,0.384658 -1.72054,0.370082 -2.44207,-0.102683 -1.29435,-0.848095 -2.69815,-3.509578 -2.69815,-5.115479 0,-1.098652 -0.15002,-1.434571 -0.70556,-1.579848 -1.35827,-0.355194 -0.95452,-1.212783 1.49931,-3.184596 0.92163,-0.740593 1.67569,-1.568831 1.67569,-1.840526 0,-0.720259 -4.93535,-5.604468 -6.55457,-6.486638 -0.76061,-0.414394 -2.07796,-1.310633 -2.92746,-1.991642 -0.84949,-0.681006 -1.61527,-1.167455 -1.70173,-1.080989 -0.0865,0.08646 0.25139,0.924747 0.75078,1.86285 0.49939,0.938103 0.90798,2.122061 0.90798,2.631013 0,0.508956 0.29402,1.303969 0.65337,1.766697 0.35935,0.462728 1.3294,2.349451 2.15567,4.192715 0.82626,1.843264 1.94295,4.145139 2.48152,5.115278 1.57841,2.843223 2.75793,5.905062 3.32793,8.638801 0.75407,3.616565 1.40608,4.284955 2.49911,2.561893 z m 2.22215,-22.581164 c 0.0738,-0.76375 -0.26774,-1.877008 -1.02735,-3.3485 -0.62587,-1.212399 -1.45011,-2.839364 -1.83165,-3.615475 -0.86902,-1.767731 -2.69932,-3.695456 -3.51339,-3.700409 -0.33955,-0.0021 -0.61736,0.157148 -0.61736,0.353807 0,0.394198 0.65348,1.64072 1.29208,2.464658 0.83712,1.080075 2.65901,4.818807 3.18031,6.526389 0.29617,0.970138 0.70613,1.969135 0.91103,2.219991 0.64902,0.794615 1.48795,0.324337 1.60633,-0.900461 z m -23.92308,-21.465622 c 0,-0.479407 -1.01253,-2.881168 -2.53403,-6.010807 -0.38668,-0.795366 -2.35117,-2.412993 -2.61275,-2.151419 -0.24128,0.241279 0.83132,3.035787 1.56529,4.078153 0.36668,0.520757 0.77787,1.304876 0.91375,1.742486 0.29026,0.934829 1.88245,2.908512 2.34632,2.908512 0.17678,0 0.32142,-0.255115 0.32142,-0.566925 z M -131.3462,4.5403022 c 2.57759,-0.7085189 2.35795,-0.9856646 -2.07941,-2.6237283 -1.74625,-0.6446344 -3.8386,-1.62614327 -4.64967,-2.18112975 -1.69068,-1.15687125 -2.51206,-1.24334765 -4.0991,-0.43156364 -1.63439,0.83601631 -3.77484,2.58649609 -3.77484,3.08710539 0,0.7304194 2.19012,2.5602107 4.36226,3.6445508 l 2.06921,1.032958 3.04607,-0.9783057 c 1.67534,-0.5380672 3.98181,-1.2355159 5.12548,-1.5498868 z m -16.83561,-6.2951219 c 1.73632,-1.9725534 6.38433,-4.1049117 8.9477,-4.1049117 1.22813,0 1.38413,-0.7922824 0.49467,-2.5123034 -0.68087,-1.3166619 -0.20621,-2.0738082 1.30008,-2.0738082 1.07222,0 1.44991,0.305598 3.57755,2.8946374 2.82455,3.4370857 5.35354,3.5271746 11.00955,0.3921866 3.62672,-2.0101948 4.53047,-2.1270066 4.64679,-0.6006183 0.0279,0.3658517 0.0676,0.8466385 0.0882,1.0684122 0.0667,0.7167351 1.17645,0.9211557 6.56389,1.2090436 2.91041,0.155522 6.29546,0.4510722 7.52232,0.6567734 2.66291,0.4464826 3.42477,0.1532784 4.157311,-1.5999425 0.886382,-2.121408 -0.310041,-3.3149364 -3.322961,-3.3149364 -1.84983,0 -2.68507,-0.55208 -2.47618,-1.636723 0.0848,-0.44026 1.03562,-0.875891 3.38426,-1.550518 5.071866,-1.456849 7.045668,-2.612299 8.415977,-4.926648 1.108283,-1.871807 2.171358,-5.136339 1.795134,-5.512562 -0.494386,-0.494386 -3.114054,1.748914 -3.858729,3.304339 -0.538353,1.124476 -1.551333,2.277318 -3.093523,3.520645 -1.261179,1.016772 -2.472059,1.851804 -2.690829,1.855628 -0.21878,0.0038 -0.59541,0.245075 -0.83695,0.536117 -0.24154,0.291041 -0.68504,0.529166 -0.98555,0.529166 -0.30052,0 -0.79702,0.219615 -1.10334,0.488033 -1.01203,0.886813 -4.58994,1.698135 -6.39432,1.44997 -1.19117,-0.163827 -2.17784,-0.05023 -3.43169,0.3951 -1.66526,0.591443 -1.80949,0.592508 -2.68358,0.01979 -0.50806,-0.332902 -0.92374,-0.839734 -0.92374,-1.126303 0,-0.286568 -0.0397,-0.519151 -0.0882,-0.516847 -0.0485,0.0025 -0.96132,0.238544 -2.02847,0.524979 -1.06715,0.286434 -3.38411,0.522675 -5.14879,0.524979 -2.81202,0.0037 -3.29117,-0.08714 -3.87735,-0.73485 -0.60381,-0.667212 -0.91259,-0.716199 -3.17701,-0.504003 -1.87387,0.175595 -3.03451,0.08407 -4.58933,-0.361883 -2.4911,-0.714509 -3.0312,-1.098102 -2.89191,-2.053911 0.11805,-0.809989 1.13177,-1.191684 3.30625,-1.24489 1.89693,-0.04641 6.54947,-1.457519 9.17437,-2.78257 3.81774,-1.927189 8.8416,-7.182471 12.08988,-12.646801 0.82319,-1.384801 1.80683,-2.798466 2.18586,-3.141482 0.37903,-0.343013 0.68914,-0.864327 0.68914,-1.15847 0,-0.661229 2.04882,-4.91671 2.50202,-5.196805 0.18166,-0.112271 0.65192,-0.834587 1.04503,-1.605145 1.45949,-2.860841 3.34402,-3.2498 8.52331,-1.759183 2.890438,0.831881 3.099088,0.954264 3.099088,1.817779 0,0.784447 0.117366,0.762515 -3.967248,0.741422 -2.59938,-0.0134 -3.13786,0.08229 -3.41906,0.607727 -0.43089,0.80512 0.32025,4.549433 1.17406,5.852516 0.66379,1.013069 0.63872,1.013055 3.39003,0.0021 2.812422,-1.033512 6.76844,-1.232919 10.197384,-0.514011 1.667478,0.349603 3.726427,0.887765 4.57544,1.195916 0.849012,0.308152 1.912828,0.560275 2.364038,0.560275 0.451206,0 1.707,0.230935 2.790649,0.513189 1.083648,0.282254 2.192944,0.427744 2.465098,0.323307 1.48294,-0.569055 0.643858,-4.865617 -1.371293,-7.02178 -0.719356,-0.769691 -1.714659,-2.193188 -2.211786,-3.163327 -0.497128,-0.970139 -1.563512,-2.557639 -2.369739,-3.527778 -0.806232,-0.970139 -2.246165,-2.795764 -3.19985,-4.056944 -2.643227,-3.495474 -8.000718,-7.745353 -12.887167,-10.222865 -6.319554,-3.204119 -7.761114,-3.721104 -7.761114,-2.783357 0,0.513482 1.39288,2.775666 1.70904,2.775666 0.13222,0 1.19083,1.190738 2.35248,2.646084 1.16165,1.455346 2.37605,2.731646 2.69866,2.836224 0.32262,0.104574 1.512539,1.255398 2.644275,2.557388 1.131732,1.301987 2.228258,2.525999 2.436721,2.720026 0.653313,0.608069 1.564383,2.244454 1.564383,2.809812 0,0.684047 -0.907871,0.687832 -2.824001,0.01178 -1.3629,-0.480858 -2.82756,-1.54897 -5.289888,-3.857675 -1.92821,-1.807912 -3.52778,-1.88982 -3.52778,-0.180643 0,0.350439 -0.24588,0.883038 -0.5464,1.183555 -0.30051,0.300521 -0.78374,1.462797 -1.07383,2.582838 -0.2901,1.120045 -0.91734,2.62835 -1.39388,3.351795 -0.47655,0.723445 -0.86644,1.474043 -0.86644,1.667996 0,0.193951 -1.07282,1.46443 -2.38404,2.823281 -2.20692,2.287097 -2.6171,2.549426 -5.52135,3.531126 -3.43885,1.162406 -5.4236,1.162057 -6.73489,-0.0011 -0.38806,-0.34424 -1.29022,-0.866683 -2.00481,-1.160981 -2.53958,-1.045919 -5.88731,-6.774363 -6.19435,-10.599437 -0.20933,-2.607833 -0.0793,-2.518418 -4.14807,-2.851447 -1.35819,-0.111167 -3.18382,-0.310952 -4.05694,-0.443964 -0.87313,-0.133014 -3.25438,-0.26224 -5.29167,-0.287171 -2.03729,-0.02494 -4.52072,-0.172233 -5.51874,-0.327343 -0.99802,-0.155106 -3.51122,-0.16637 -5.5849,-0.02501 -3.76427,0.256572 -3.7731,0.259334 -5.50315,1.720388 -0.95306,0.804873 -2.28955,1.915605 -2.96997,2.468291 -0.95676,0.777152 -1.23713,1.266049 -1.23713,2.157286 0,0.633821 -0.3175,1.556039 -0.70555,2.04937 -0.38806,0.493332 -0.70556,1.018181 -0.70556,1.166326 0,0.148146 -0.225,0.51998 -0.50001,0.826301 -0.275,0.30632 -1.16647,1.747569 -1.98104,3.202778 -2.06852,3.695361 -3.87433,5.549399 -3.8655,3.96875 0.005,-0.84139 1.21857,-3.221564 4.3276,-8.485569 1.57177,-2.661225 1.61828,-2.997436 0.34326,-2.481446 -0.53358,0.215935 -1.52577,0.492125 -2.20486,0.613756 -1.21854,0.218249 -1.23743,0.248817 -1.44069,2.332686 -0.35122,3.60068 -1.60005,5.211484 -4.38015,5.649705 -1.16026,0.182887 -1.6306,0.06531 -2.64583,-0.66143 -1.9013,-1.361017 -6.03337,-3.61786 -7.40834,-4.046259 -1.01483,-0.316198 -5.04091,-0.648938 -9.08402,-0.750761 -1.902,-0.0479 -0.33225,-1.932213 2.80689,-3.369359 3.06793,-1.404542 6.74777,-1.340379 10.41266,0.181561 1.509,0.626649 3.31675,1.591514 4.0172,2.144144 1.14618,0.904272 1.72505,1.006708 1.72505,0.305262 0,-0.254218 -1.92398,-2.545877 -3.56559,-4.246979 -1.4306,-1.482446 -2.2014,-1.750257 -5.58801,-1.941544 -4.27753,-0.24161 -6.94415,0.454685 -9.20737,2.404177 -2.5861,2.227608 -3.26459,3.902114 -3.2209,7.949078 0.0397,3.672548 0.59182,5.830228 2.24674,8.779574 1.43578,2.558789 2.58086,3.578888 4.71322,4.198782 3.15671,0.917681 5.27552,2.147697 7.50579,4.357286 3.01261,2.984683 3.37108,3.642804 3.61615,6.639073 0.11667,1.42633 0.35657,2.736437 0.53313,2.911344 0.17655,0.174911 1.08539,0.521738 2.01964,0.770728 1.65225,0.440351 1.76302,0.419241 4.05694,-0.773119 1.83291,-0.952726 2.61375,-1.61791 3.50485,-2.985682 0.63059,-0.96792 1.14652,-2.186055 1.14652,-2.706963 0,-0.520908 0.40534,-1.428814 0.90074,-2.017564 0.74234,-0.882227 0.85938,-1.290895 0.66556,-2.324019 -0.12934,-0.689459 -0.38571,-1.346602 -0.56972,-1.46032 -0.18399,-0.113722 -0.48691,-0.607526 -0.67314,-1.097351 -0.65226,-1.715572 0.94322,-2.456871 2.55654,-1.187831 0.47216,0.371398 1.32701,0.728585 1.89966,0.79375 1.03092,0.117316 1.04377,0.146336 1.30225,2.940706 0.6509,7.036654 0.61234,6.911171 2.47808,8.064596 1.50228,0.928733 2.06429,1.056562 5.29166,1.203632 3.8602,0.175902 4.91836,0.607885 4.58757,1.872826 -0.3493,1.33574 -1.92018,2.1997743 -5.73919,3.1567546 -2.74289,0.687324 -7.19907,-1.6750346 -9.01963,-4.7815786 -1.01108,-1.725274 -1.36615,-1.772779 -1.67586,-0.224215 -0.11181,0.55903 -0.60856,1.498064 -1.1039,2.086737 -1.01426,1.205128 -1.14812,1.850161 -0.38399,1.850161 0.71256,0 7.59726,3.5139525 7.59726,3.8776452 0,0.1617028 1.10509,0.71628 2.45574,1.2323939 1.35066,0.5161139 3.75725,1.7206207 5.34798,2.6766767 3.64209,2.18895791 4.41771,2.21385697 6.19147,0.1987515 z m -15.5158,-30.2647353 c -1.21441,-0.679623 -0.45358,-4.563967 1.59788,-8.157721 0.6366,-1.115205 1.79246,-3.239224 2.56857,-4.72004 1.57745,-3.00978 2.4692,-3.84858 3.03498,-2.854777 0.1933,0.339549 0.5817,0.617361 0.8631,0.617361 0.68802,0 0.6447,0.472839 -0.19392,2.116667 -0.95499,1.871934 -0.88764,2.410718 0.17639,1.411111 0.48507,-0.4557 0.88195,-1.014391 0.88195,-1.241541 0,-0.504483 1.14361,-1.580681 1.6797,-1.580681 0.49994,0 0.86818,1.148997 0.59576,1.85891 -0.11549,0.300958 -0.66621,0.768156 -1.22382,1.038218 -0.92619,0.448564 -3.87386,3.744746 -3.87386,4.331871 0,0.364525 2.19762,-1.444234 4.81681,-3.964489 1.9758,-1.901179 2.38644,-2.151955 2.99259,-1.827554 0.56667,0.303276 0.65687,0.592991 0.46635,1.497989 -0.12991,0.6171 -0.37822,1.272812 -0.55181,1.457138 -0.17359,0.184327 -0.31561,0.462139 -0.31561,0.617361 0,0.479616 0.94785,0.311253 1.41472,-0.251294 0.31261,-0.376671 0.57131,-0.42685 0.87996,-0.170691 0.73073,0.606449 3.15032,-0.368833 3.2861,-1.324554 0.0857,-0.603479 -0.0621,-0.793461 -0.61736,-0.793461 -0.95248,0 -0.9291,-0.526154 0.054,-1.214719 1.07565,-0.75341 1.90075,-0.688252 2.52233,0.199185 0.3794,0.541669 0.43365,0.986455 0.1964,1.610466 -0.50554,1.329662 -0.41072,1.521735 0.75124,1.521735 0.65584,0 1.58975,-0.401045 2.38125,-1.022572 1.92004,-1.507698 2.73526,-1.657809 3.41007,-0.627913 0.48206,0.735718 0.49786,1.084866 0.11403,2.519966 -0.41121,1.537469 -0.39164,1.705268 0.25378,2.176304 1.54746,1.129337 2.28685,1.915343 2.28685,2.431009 0,0.793602 -0.97543,1.036796 -1.98704,0.495402 -1.06024,-0.567422 -2.01167,-0.117912 -2.18263,1.031194 -0.0692,0.465173 -0.36775,0.757721 -0.77325,0.757721 -0.48664,0 -0.78458,-0.441095 -1.13184,-1.675694 -0.40405,-1.436515 -0.6128,-1.692053 -1.46254,-1.790305 -0.6301,-0.07286 -1.50299,0.224074 -2.39603,0.815058 -1.80923,1.197292 -2.83877,1.064704 -3.27669,-0.421986 l -0.33363,-1.13265 -2.92956,0.04278 c -2.19147,0.032 -2.92957,0.161823 -2.92957,0.515289 0,0.25988 0.16705,0.47251 0.37122,0.47251 0.22617,0 0.32955,0.723667 0.26458,1.852084 -0.1,1.736643 -0.18884,1.89606 -1.42565,2.557638 -1.03706,0.554736 -1.45181,0.620113 -1.94028,0.305841 -0.5218,-0.335728 -0.60335,-0.829899 -0.5094,-3.086805 0.14848,-3.567141 -0.21232,-3.556798 -2.87657,0.08245 -2.29788,3.138791 -3.75686,4.182435 -4.92951,3.526187 z m -3.28664,-3.992086 c -0.73133,-1.905808 2.43091,-9.535591 3.95211,-9.535591 1.01209,0 0.98964,0.921968 -0.0783,3.215439 -0.53172,1.141928 -1.37528,3.095752 -1.8746,4.341834 -0.93178,2.325363 -1.60893,2.995426 -1.99923,1.978318 z m 75.186424,23.745761 c 1.370845,-0.826406 4.288092,-4.360883 4.74235,-5.745737 0.30674,-0.935136 0.100753,-0.79799 -1.561113,1.039386 -1.052964,1.164166 -2.782898,2.932126 -3.844304,3.928801 -1.949778,1.830871 -1.655882,2.175514 0.663067,0.77755 z m -13.121554,-4.447233 c 3.94867,-2.458783 6.304003,-5.226018 7.309191,-8.587429 0.905259,-3.027236 0.879059,-3.707024 -0.169344,-4.393964 -1.014596,-0.664788 -1.601777,-0.42333 -1.606095,0.660457 -0.0052,1.311807 -1.536422,5.280483 -2.646372,6.859061 -0.5801,0.825014 -2.3644,2.887099 -3.96513,4.582414 -1.60073,1.69532 -2.91042,3.133115 -2.91042,3.195105 0,0.151832 0.37807,-0.06769 3.98817,-2.315644 z m -19.22911,1.732813 c 0.36558,-0.231905 0.3479,-0.381423 -0.0879,-0.743088 -0.43966,-0.364888 -0.75247,-0.367047 -1.61176,-0.01111 -0.58643,0.242905 -1.15156,0.579723 -1.25586,0.748489 -0.24065,0.389375 2.34281,0.394373 2.9555,0.0057 z m 6.24511,-1.641609 c 1.87215,-0.837255 5.85279,-4.237662 6.60564,-5.642776 0.72729,-1.357404 3.19316,-4.915711 3.60167,-5.197284 0.64442,-0.444179 0.91857,-0.304137 1.53896,0.786119 0.33052,0.580856 0.78153,1.057106 1.00223,1.058333 0.39321,0.0021 2.49195,-4.473377 2.21103,-4.715016 -0.0786,-0.06759 -1.09537,-0.216351 -2.25953,-0.330581 l -2.11667,-0.207691 -1.54528,3.324561 c -1.3647,2.936056 -1.85941,3.606486 -4.23333,5.737052 -3.02225,2.712416 -5.45002,4.450298 -7.29229,5.220045 -0.68477,0.286117 -1.14591,0.680615 -1.02474,0.876664 0.25129,0.406604 1.00728,0.210862 3.51231,-0.909426 z m 11.10465,-5.906572 c 0.012,-0.405 -0.24022,-0.318897 -0.8489,0.289782 -0.3049,0.304899 -0.55083,0.820836 -0.54652,1.146528 0.006,0.458505 0.16355,0.3931 0.69771,-0.289783 0.37943,-0.485069 0.6934,-1.001007 0.69771,-1.146527 z m -62.0618,-27.108013 c 1.2216,-0.855349 2.2786,-1.731786 2.34887,-1.947633 0.0739,-0.226949 -1.32832,0.03154 -3.32503,0.612898 -1.89904,0.552944 -3.88937,1.007361 -4.42295,1.009813 -0.69737,0.0032 -0.97013,0.183003 -0.97013,0.639462 0,2.10626 3.13284,1.951549 6.36924,-0.31454 z m 80.034667,-12.300642 c 0.928528,-0.496936 1.53961,-3.148629 1.379318,-5.985368 -0.126029,-2.230417 -0.255707,-2.598505 -1.292203,-3.667898 -2.247096,-2.318413 -5.409682,-3.30932 -6.918866,-2.167834 -0.376632,0.284872 -0.935623,0.517949 -1.242201,0.517949 -0.402561,0 -0.671294,0.599232 -0.967345,2.157042 -0.243159,1.279504 -0.721589,2.488787 -1.176006,2.972495 -0.969054,1.031511 -0.738621,1.388949 1.21211,1.88015 0.859917,0.216532 2.081071,0.831367 2.713679,1.366308 1.49895,1.267524 4.602625,3.201868 5.194826,3.237636 0.255291,0.01542 0.748799,-0.124298 1.096688,-0.31048 z M -101.96958,213.68563 c -0.86562,-0.86561 0.45635,-9.28024 2.061234,-13.1203 1.226368,-2.93434 1.456309,-5.35873 0.777342,-8.19591 -0.29761,-1.24361 -0.555956,-3.45172 -0.574107,-4.90693 -0.01813,-1.45521 -0.11581,-3.59833 -0.217018,-4.7625 -0.258001,-2.96769 1.363744,-7.81426 2.923706,-8.73744 0.604142,-0.35754 1.318172,-0.52206 1.673669,-0.38564 0.545021,0.20915 0.587002,0.51924 0.347109,2.56384 -0.150096,1.27925 -0.30898,7.02086 -0.353078,12.75913 -0.0529,6.88411 -0.214725,10.68462 -0.475703,11.17227 -0.765365,1.43012 -2.48224,6.99431 -2.831634,9.17705 -0.385523,2.40841 -0.502709,2.69896 -1.56402,3.87788 -0.7195,0.79921 -1.33297,0.9931 -1.7675,0.55855 z m -135.26089,-99.61191 c -1.92545,-0.77393 -0.57404,-2.09481 3.65281,-3.5703 2.87703,-1.00429 18.37098,-3.87224 23.59927,-4.36825 0.97014,-0.092 3.19264,-0.34361 4.93889,-0.55905 4.58087,-0.56515 5.15901,-0.5573 5.56431,0.0755 0.52477,0.81938 0.0268,2.33898 -0.98345,3.0009 -0.78824,0.51647 -5.26235,1.44856 -7.0503,1.46878 -0.38806,0.004 -2.37243,0.35522 -4.40973,0.77963 -2.03729,0.42441 -4.49791,0.90621 -5.46805,1.07067 -8.76576,1.48602 -10.90293,1.83191 -13.05278,2.11254 -3.10944,0.40589 -5.76536,0.40181 -6.79097,-0.0104 z m 50.01115,-9.50911 c -0.75998,-0.75997 -0.75657,-1.23796 0.0592,-8.295174 0.8074,-6.985124 0.78602,-7.953478 -0.24416,-11.059305 -0.72858,-2.19655 -0.90256,-3.247411 -0.72913,-4.403951 0.21025,-1.402059 0.0911,-1.728431 -1.54816,-4.239475 -0.97677,-1.496265 -1.77594,-2.879598 -1.77594,-3.074074 0,-0.194476 -0.39688,-1.136791 -0.88195,-2.094029 -1.08802,-2.1471 -1.10527,-2.761569 -0.0882,-3.141334 1.23985,-0.46295 2.34506,0.16407 4.7854,2.714935 2.2691,2.371863 3.66068,4.623926 4.0925,6.623089 0.12847,0.59478 0.83815,1.813017 1.57705,2.707199 0.73891,0.894183 1.54212,2.153797 1.7849,2.799144 0.24279,0.645347 0.85559,2.034448 1.36179,3.086894 1.00654,2.09273 1.03044,2.535452 0.45239,8.383252 -0.23782,2.405888 -0.67292,4.609585 -1.11443,5.644449 -1.71231,4.01345 -5.77892,6.30069 -7.73123,4.34838 z M -221.46624,-4.7921482 c -3.48902,-0.3490701 -4.28515,-0.7762628 -4.14317,-2.2231703 l 0.1088,-1.10871 5.46806,-0.07155 c 5.76765,-0.075473 5.96707,-0.1106699 11.35635,-2.0043105 3.83825,-1.348652 10.25789,-5.190053 12.31376,-7.368346 1.41458,-1.498812 1.89856,-1.641885 2.3979,-0.708865 0.5403,1.009555 -0.70309,3.215965 -2.82276,5.009035 -2.61464,2.211776 -5.90404,4.0690242 -9.77363,5.5183553 -5.40903,2.0259181 -6.30794,2.2699451 -11.35496,3.0825334 -0.48507,0.078098 -2.08273,0.021872 -3.55035,-0.1249719 z m -2.97604,-5.5448728 c -1.8934,-0.435032 -6.09711,-2.031411 -8.8868,-3.374814 -2.68426,-1.292627 -3.12285,-1.628679 -3.21927,-2.466646 -0.087,-0.756148 -0.29733,-0.970139 -0.95354,-0.970139 -0.46305,0 -1.20657,-0.136564 -1.65226,-0.303477 -0.44569,-0.166914 -1.98153,-0.674864 -3.41296,-1.128783 -2.07405,-0.657695 -2.95035,-1.169388 -4.31476,-2.519522 -1.99204,-1.971184 -2.77235,-3.378955 -3.81208,-6.87741 -0.61425,-2.066833 -0.70353,-2.952365 -0.48016,-4.7625 0.3393,-2.74961 1.11901,-3.033148 1.74916,-0.636086 1.25348,4.768102 2.04467,7.00604 2.86855,8.113889 0.50503,0.679097 1.03494,1.284665 1.17759,1.345702 0.14265,0.06104 0.82113,0.557421 1.50774,1.103069 1.40354,1.115392 5.92004,2.645954 9.37463,3.176898 4.61531,0.709334 10.61049,0.114787 17.02875,-1.688764 1.31365,-0.36914 2.4651,-0.547159 2.55878,-0.395591 0.32352,0.523465 -0.27376,1.425483 -1.29286,1.95248 -1.45215,0.750933 -7.2754,2.619054 -8.18413,2.625496 -0.41906,0.0028 -1.00006,0.16172 -1.2911,0.352777 -0.91747,0.602284 0.30872,1.046294 2.41387,0.874074 4.47434,-0.366042 5.80658,-0.76903 10.99169,-3.324895 2.23132,-1.099866 5.00944,-2.374925 6.17361,-2.833458 1.16417,-0.458537 2.31308,-0.984257 2.55315,-1.168266 0.66365,-0.508706 1.50379,-0.02275 1.50379,0.86983 0,0.531072 -0.84716,1.588333 -2.55293,3.18607 -1.40411,1.315184 -2.66277,2.391244 -2.79702,2.391244 -0.13425,0 -0.45387,0.201694 -0.71027,0.448205 -0.25639,0.246514 -1.25992,1.015255 -2.23006,1.708322 -4.50944,3.221535 -10.65714,5.0958896 -14.11111,4.302295 z m -12.19451,-14.401289 c -4.30601,-1.102353 -5.67986,-1.960044 -8.11518,-5.066266 -1.66553,-2.124361 -2.08855,-2.912382 -2.0121,-3.748211 0.1768,-1.933081 1.32531,-1.585256 4.46701,1.352829 2.62517,2.455037 3.04156,2.70541 6.17941,3.71572 1.85051,0.59582 4.44074,1.171021 5.75608,1.278227 1.31533,0.107205 3.68984,0.374036 5.27668,0.592963 2.24355,0.309523 3.23761,0.299363 4.47004,-0.0457 1.86739,-0.522838 2.5178,-0.289155 1.98195,0.712092 -0.20138,0.37628 -0.60854,0.684146 -0.90481,0.684146 -0.29626,0 -1.28287,0.230268 -2.19245,0.511711 -1.00637,0.311386 -3.66556,0.563065 -6.79274,0.642895 -4.39649,0.112229 -5.56877,0.02117 -8.11389,-0.630406 z m 3.83453,-8.24969 c -1.6056,-0.333965 -2.39974,-0.958688 -2.39974,-1.887792 0,-0.620695 0.16323,-0.681348 1.33115,-0.494591 4.1001,0.655634 12.04336,-2.419152 16.21701,-6.277511 3.38727,-3.131376 6.17212,-9.00872 6.1415,-12.961451 -0.012,-1.544549 0.0607,-1.697609 0.8058,-1.697609 0.79428,0 1.19466,0.602919 1.75701,2.645833 0.1853,0.673168 -0.0461,2.337023 -0.80956,5.820834 -0.63853,2.91374 -2.68091,6.771862 -4.50501,8.510129 -1.92085,1.830451 -5.18601,3.736689 -8.60451,5.023407 -3.32869,1.252919 -7.55362,1.8138 -9.93365,1.318751 z M -248.19,-40.872926 c -4.11955,-4.254885 -5.06844,-5.768368 -5.75271,-9.175588 -0.47119,-2.346258 0.29567,-6.80254 1.61763,-9.400095 1.55023,-3.046074 6.00357,-6.707855 6.97566,-5.735761 0.61672,0.616712 -0.85428,2.711058 -1.87286,2.666499 -1.03089,-0.0451 -1.56153,0.587061 -2.25223,2.683139 -0.28771,0.873125 -0.86342,2.54 -1.27936,3.704167 -0.7103,1.988019 -0.73009,2.324717 -0.32566,5.539719 0.35999,2.861744 0.64136,3.780462 1.71587,5.602644 0.7069,1.198774 1.88058,2.857761 2.60819,3.686633 1.24405,1.417211 1.71124,2.633504 1.01156,2.633504 -0.17125,0 -1.27199,-0.992187 -2.44609,-2.204861 z m 43.71241,-7.53333 c -1.33461,-4.806734 1.10817,-12.763172 3.93601,-12.820068 1.22344,-0.02462 1.23236,0.441819 0.0705,3.684648 -0.48664,1.358194 -1.10388,3.580694 -1.37166,4.938889 -0.26777,1.358194 -0.88429,3.16726 -1.37004,4.020143 l -0.88319,1.550701 z m 7.39942,-16.16226 c -0.84582,-1.01916 -0.87037,-4.187627 -0.0515,-6.64833 0.71035,-2.134623 0.92557,-2.410939 2.92183,-3.751396 2.31295,-1.553108 3.01001,-1.747238 3.32513,-0.926045 0.21685,0.565079 -1.89113,5.139531 -3.41763,7.4165 -0.52031,0.776111 -1.05624,1.91608 -1.19096,2.533262 -0.31923,1.462525 -1.01463,2.065514 -1.58687,1.376009 z m 8.19448,-5.733506 c -0.31005,-0.807971 0.45102,-3.438416 1.52513,-5.271252 1.32541,-2.261637 3.92115,-5.017068 6.08354,-6.457798 1.04291,-0.694859 2.3138,-1.544444 2.8242,-1.887964 0.51039,-0.343521 1.40424,-0.581646 1.98632,-0.529167 0.84991,0.07662 1.07949,0.277869 1.16575,1.021859 0.0865,0.745903 -0.25726,1.235499 -1.76389,2.51235 -1.02922,0.872246 -2.42693,1.861178 -3.10602,2.197622 -1.62372,0.804439 -6.10633,5.526112 -6.88438,7.251527 -0.68555,1.520289 -1.49595,2.035048 -1.83065,1.162823 z" style="fill:#000000;stroke-width:0.35277778"/>
  </g>
</svg>