<?xml version="1.0" encoding="UTF-8" standalone="no"?>
<!-- Created with Inkscape (http://www.inkscape.org/) -->

<svg
   width="182.157mm"
   height="182.157mm"
   viewBox="0 0 182.157 182.157"
   version="1.1"
   id="svg8"
   inkscape:version="1.2.2 (b0a8486, 2022-12-01)"
   sodipodi:docname="caution-bigfoot.svg"
   inkscape:export-filename="/home/algot/Documents/runeman.org/clipart/2019/caution-moose-f.png"
   inkscape:export-xdpi="91.277344"
   inkscape:export-ydpi="91.277344"
   xml:space="preserve"
   xmlns:inkscape="http://www.inkscape.org/namespaces/inkscape"
   xmlns:sodipodi="http://sodipodi.sourceforge.net/DTD/sodipodi-0.dtd"
   xmlns="http://www.w3.org/2000/svg"
   xmlns:svg="http://www.w3.org/2000/svg"
   xmlns:rdf="http://www.w3.org/1999/02/22-rdf-syntax-ns#"
   xmlns:cc="http://creativecommons.org/ns#"
   xmlns:dc="http://purl.org/dc/elements/1.1/"><title
     id="title121">Caution Bigfoot</title><defs
     id="defs2"><filter
       inkscape:label="Drop Shadow"
       style="color-interpolation-filters:sRGB"
       id="filter4156"><feFlood
         result="flood"
         flood-color="rgb(0,0,0)"
         flood-opacity="0.8"
         id="feFlood4158" /><feComposite
         result="composite1"
         operator="in"
         in="flood"
         in2="SourceGraphic"
         id="feComposite4160" /><feGaussianBlur
         result="blur"
         stdDeviation="1"
         id="feGaussianBlur4162" /><feOffset
         result="offset"
         dy="4"
         dx="2"
         id="feOffset4164" /><feComposite
         result="composite2"
         operator="over"
         in="SourceGraphic"
         in2="offset"
         id="feComposite4166" /></filter></defs><sodipodi:namedview
     id="base"
     pagecolor="#ffffff"
     bordercolor="#666666"
     borderopacity="1.0"
     inkscape:pageopacity="0.0"
     inkscape:pageshadow="2"
     inkscape:zoom="0.85050697"
     inkscape:cx="403.87676"
     inkscape:cy="412.10715"
     inkscape:document-units="mm"
     inkscape:current-layer="g110"
     showgrid="false"
     inkscape:snap-global="false"
     fit-margin-top="0"
     fit-margin-left="0"
     fit-margin-right="0"
     fit-margin-bottom="0"
     inkscape:window-width="1390"
     inkscape:window-height="1099"
     inkscape:window-x="60"
     inkscape:window-y="25"
     inkscape:window-maximized="0"
     inkscape:showpageshadow="2"
     inkscape:pagecheckerboard="0"
     inkscape:deskcolor="#d1d1d1" /><metadata
     id="metadata5"><rdf:RDF><cc:Work
         rdf:about=""><dc:format>image/svg+xml</dc:format><dc:type
           rdf:resource="http://purl.org/dc/dcmitype/StillImage" /><dc:title>Caution Bigfoot</dc:title><cc:license
           rdf:resource="http://creativecommons.org/publicdomain/zero/1.0/" /><dc:creator><cc:Agent><dc:title>j4p4n</dc:title></cc:Agent></dc:creator></cc:Work><cc:License
         rdf:about="http://creativecommons.org/publicdomain/zero/1.0/"><cc:permits
           rdf:resource="http://creativecommons.org/ns#Reproduction" /><cc:permits
           rdf:resource="http://creativecommons.org/ns#Distribution" /><cc:permits
           rdf:resource="http://creativecommons.org/ns#DerivativeWorks" /></cc:License></rdf:RDF></metadata><g
     inkscape:label="Layer 1"
     inkscape:groupmode="layer"
     id="layer1"
     transform="translate(416.0504,6.147707)"><g
       id="g119"
       inkscape:export-xdpi="41.832047"
       inkscape:export-ydpi="41.832047"><g
         transform="matrix(2.1946625,0,0,2.1946625,-274.5071,-34.301782)"
         id="g110"><g
           id="g121952"><rect
             style="opacity:1;fill:#ffde00;fill-opacity:1;stroke:none;stroke-width:0.664653;stroke-linecap:butt;stroke-linejoin:miter;stroke-miterlimit:4;stroke-dasharray:none;stroke-dashoffset:0;stroke-opacity:1"
             id="rect106"
             width="60.042831"
             height="60.042831"
             x="-84.696869"
             y="-7.8648629"
             ry="2.3147411"
             transform="rotate(-44.999999)" /><rect
             style="color:#000000;display:inline;overflow:visible;visibility:visible;fill:#ffde00;fill-opacity:1;fill-rule:nonzero;stroke:#000000;stroke-width:2;stroke-linecap:round;stroke-linejoin:round;stroke-miterlimit:4;stroke-dasharray:none;stroke-dashoffset:0;stroke-opacity:1;marker:none;enable-background:accumulate"
             id="rect3007"
             width="54.61396"
             height="54.61396"
             x="-81.987625"
             y="-5.1376224"
             ry="1.6894252"
             transform="matrix(0.70727234,-0.70694119,0.70727229,0.70694124,0,0)" /><path
             style="fill:#000000;stroke-width:0.0729526"
             d="m -16.539005,72.801966 c -0.06346,-0.137312 -0.435505,-0.26086 -0.504877,-0.167656 -0.07019,0.0943 -0.627033,-0.131262 -0.687015,-0.278289 -0.0261,-0.06399 -0.08491,-0.116336 -0.13069,-0.116336 -0.04578,0 -0.06249,0.04488 -0.03715,0.09972 0.02603,0.05631 0.0019,0.09971 -0.05541,0.09971 -0.168368,0 -0.319144,-0.434718 -0.209681,-0.604551 0.07076,-0.10978 0.06987,-0.155233 -0.0038,-0.19302 -0.07268,-0.03728 -0.06379,-0.09639 0.03621,-0.240833 l 0.132511,-0.191404 -0.04247,0.216046 c -0.05153,0.262161 0.04505,0.276195 0.269597,0.03915 0.102829,-0.10855 0.161056,-0.257198 0.15071,-0.384761 -0.02192,-0.27031 0.05793,-0.369023 0.298511,-0.369023 0.163764,0 0.195424,0.03231 0.195424,0.199433 0,0.218296 0.112109,0.250554 0.350293,0.100791 0.08667,-0.05448 0.130038,-0.137912 0.102586,-0.197315 -0.033,-0.07142 6.41e-4,-0.102909 0.110048,-0.102909 0.104233,0 0.157606,0.04505 0.157606,0.132955 0,0.07312 0.0394,0.13295 0.08756,0.13295 0.04815,0 0.106396,-0.05983 0.129426,-0.13295 0.0488,-0.154929 0.183316,-0.179323 0.183316,-0.03325 0,0.05487 0.03603,0.09972 0.08006,0.09972 0.04403,0 0.08006,-0.04384 0.08006,-0.09738 0,-0.05354 0.07205,-0.129393 0.160119,-0.168526 0.135739,-0.06032 0.160118,-0.05056 0.160118,0.06413 0,0.07441 0.05234,0.135293 0.116317,0.135293 0.09295,0 0.106817,-0.07011 0.06902,-0.349002 -0.02601,-0.19195 -0.07333,-0.39387 -0.105152,-0.448713 -0.06786,-0.116965 -0.0085,-0.598288 0.07375,-0.598288 0.031,0 0.105833,0.104701 0.166303,0.232666 0.06047,0.127965 0.136081,0.232667 0.168024,0.232667 0.03194,0 0.08141,0.112178 0.109925,0.249285 0.06979,0.335576 0.248942,0.536381 0.380835,0.426867 0.07331,-0.06087 0.07532,-0.111032 0.008,-0.200487 -0.04935,-0.06561 -0.07265,-0.206959 -0.05177,-0.314098 0.02935,-0.150644 0.01867,-0.172198 -0.04714,-0.09509 -0.06812,0.07982 -0.08624,0.05993 -0.0908,-0.09972 -0.0031,-0.109686 -0.07659,-0.334043 -0.163226,-0.498571 l -0.157527,-0.299144 0.0481,0.32286 c 0.03026,0.203077 0.01909,0.307971 -0.0301,0.282734 -0.109892,-0.0564 -0.262414,-0.626421 -0.242079,-0.904738 0.0093,-0.127967 -0.04761,-0.546766 -0.126585,-0.930672 -0.07897,-0.383901 -0.154892,-0.797941 -0.168714,-0.920089 -0.05447,-0.48134 -0.231478,-0.34732 -0.206923,0.156671 0.02252,0.462124 -0.05827,0.581889 -0.201594,0.298857 -0.06569,-0.129724 -0.109108,-0.46156 -0.109108,-0.83392 0,-0.340152 -0.02187,-0.665774 -0.0486,-0.723606 -0.06369,-0.137824 -0.188899,-0.133407 -0.317143,0.01119 -0.171345,0.19318 -0.227813,-0.05476 -0.07957,-0.349361 0.06879,-0.136699 0.125067,-0.274805 0.125067,-0.306902 0,-0.0899 -0.25483,-0.06853 -0.512281,0.04295 -0.357694,0.15489 -0.329433,0.07563 0.06992,-0.196092 0.406286,-0.276431 0.444601,-0.375525 0.182167,-0.471127 -0.111332,-0.04058 -0.189809,-0.135443 -0.205465,-0.248431 -0.03839,-0.277038 -0.265452,-0.229413 -0.475398,0.09972 -0.09912,0.155387 -0.18092,0.312438 -0.181777,0.348997 -0.0019,0.08006 -0.31391,0.421462 -0.316454,0.346239 -9.96e-4,-0.02895 0.124313,-0.353413 0.278427,-0.721053 0.328189,-0.782893 0.34274,-0.884082 0.120186,-0.835757 -0.190857,0.04147 -0.522664,-0.297351 -0.448465,-0.457904 0.02581,-0.05586 -0.01577,-0.196897 -0.0924,-0.313404 l -0.13934,-0.211839 -0.02529,0.216047 c -0.01391,0.118828 -0.05324,0.216052 -0.08742,0.216052 -0.07323,0 -0.261866,-0.308998 -0.303495,-0.497154 -0.03962,-0.179048 -0.18464,-0.295036 -0.18464,-0.147667 0,0.246374 -0.154216,0.08804 -0.391727,-0.402185 -0.137285,-0.283352 -0.249593,-0.545105 -0.249575,-0.581669 1.8e-5,-0.03656 -0.08856,-0.156219 -0.196838,-0.265905 -0.174682,-0.176946 -0.197197,-0.184065 -0.199752,-0.06315 -0.0016,0.07495 0.04036,0.172177 0.09319,0.216052 0.05284,0.04389 0.0606,0.07977 0.01726,0.07977 -0.131036,0 -0.35351,-0.37252 -0.35351,-0.591924 0,-0.241114 -0.09424,-0.263755 -0.255977,-0.06149 -0.143715,0.17972 -0.333849,0.105936 -0.257779,-0.100037 0.02925,-0.07919 0.120777,-0.261775 0.203405,-0.405752 0.08263,-0.143973 0.150232,-0.271111 0.150232,-0.282525 0,-0.0726 -0.179821,0.0077 -0.400297,0.178678 -0.24722,0.191757 -0.480355,0.261097 -0.480355,0.142875 0,-0.123212 0.18941,-0.51486 0.300775,-0.62191 0.104278,-0.100246 0.102961,-0.125892 -0.01134,-0.2208 -0.07112,-0.05906 -0.129319,-0.132674 -0.129319,-0.163591 0,-0.107806 0.307646,-0.651223 0.393671,-0.695369 0.171995,-0.08826 0.0811,-0.16959 -0.189545,-0.16959 -0.362681,0 -0.480657,-0.161055 -0.301968,-0.412227 0.216253,-0.303974 0.0471,-0.286748 -0.390229,0.03976 -0.266185,0.198721 -0.462406,0.296568 -0.548975,0.273757 -0.09589,-0.02526 -0.225456,0.06965 -0.449506,0.329322 -0.173131,0.200657 -0.341802,0.365473 -0.374826,0.366261 -0.03302,5.52e-4 -0.06005,0.04693 -0.06005,0.102573 0,0.05563 -0.09151,0.135762 -0.203365,0.178077 -0.174367,0.06597 -0.195866,0.106052 -0.15078,0.281102 l 0.05258,0.204158 -0.194631,-0.149569 c -0.117097,-0.08999 -0.296227,-0.149575 -0.449664,-0.149575 -0.287173,0 -0.322239,0.09018 -0.125679,0.323196 0.187196,0.221914 0.03854,0.316221 -0.281712,0.178712 -0.223964,-0.09617 -0.255863,-0.09677 -0.297971,-0.0057 -0.07764,0.168003 0.03201,0.301471 0.247669,0.301471 0.466813,0 0.150099,0.344183 -0.698833,0.759442 -0.80937,0.39591 -0.824876,0.4091 -0.703082,0.598061 0.128142,0.198816 0.06114,0.370877 -0.144414,0.370877 -0.08406,0 -0.197607,0.04483 -0.252337,0.09956 -0.08159,0.08163 -0.06173,0.14068 0.110286,0.327944 0.115387,0.125616 0.209795,0.260297 0.209795,0.299303 0,0.0869 -0.133776,0.09361 -0.196137,0.0098 -0.02591,-0.03479 -0.144458,-0.02007 -0.275615,0.03424 -0.224239,0.09289 -0.229118,0.105991 -0.190038,0.510244 l 0.04011,0.414912 -0.289551,0.08694 c -0.159253,0.04781 -0.33143,0.152316 -0.382616,0.232225 -0.05119,0.0799 -0.234549,0.304658 -0.407473,0.499448 -0.30888,0.347944 -0.344666,0.516537 -0.07616,0.358801 0.273391,-0.160603 0.753288,-0.35574 0.793254,-0.322551 0.04843,0.0402 -0.671552,0.739189 -1.15736,1.123602 -0.244164,0.193202 -0.340252,0.322502 -0.340252,0.45785 0,0.15687 -0.03368,0.188614 -0.200148,0.188614 -0.125791,0 -0.200149,0.03761 -0.200149,0.101139 0,0.05563 -0.09007,0.135216 -0.200148,0.176864 -0.146659,0.05548 -0.200149,0.127353 -0.200149,0.268916 0,0.106256 -0.09245,0.293839 -0.205445,0.416847 -0.131312,0.142952 -0.216143,0.332658 -0.235091,0.525728 -0.0163,0.166145 -0.06554,0.355167 -0.109407,0.420056 -0.07569,0.111953 -0.08252,0.112041 -0.133742,0.0017 -0.09974,-0.214955 -0.211551,-0.118884 -0.193426,0.166188 0.02405,0.378221 0.01091,0.44872 -0.0836,0.44872 -0.04404,0 -0.08006,-0.104702 -0.08006,-0.232673 0,-0.127965 -0.03645,-0.232666 -0.08101,-0.232666 -0.09184,0 -0.013,0.543987 0.08681,0.598956 0.03385,0.01864 0.08488,0.12335 0.11339,0.232667 0.04685,0.179676 0.04085,0.187588 -0.06252,0.08243 -0.06289,-0.06399 -0.156318,-0.116335 -0.207604,-0.116335 -0.05129,0 -0.115239,-0.09129 -0.142115,-0.202869 -0.03768,-0.15643 -0.08619,-0.198282 -0.211891,-0.182815 -0.221693,0.02729 -0.260078,0.16109 -0.05875,0.204806 0.235342,0.05112 0.201879,0.218754 -0.106845,0.535311 -0.148631,0.152403 -0.32969,0.374317 -0.402353,0.49314 -0.07266,0.118828 -0.188535,0.216052 -0.257495,0.216052 -0.0971,0 -0.05971,-0.09921 0.165756,-0.439797 0.160125,-0.241885 0.278565,-0.471105 0.263201,-0.509384 -0.03891,-0.09692 -0.75889,0.851676 -0.819055,1.079126 -0.02702,0.102159 -0.139329,0.256101 -0.249571,0.342093 -0.168377,0.131345 -0.191149,0.136252 -0.14236,0.03071 0.101133,-0.218837 -0.121269,-0.04869 -0.239503,0.183205 -0.0593,0.116325 -0.186728,0.269897 -0.283165,0.341271 l -0.17534,0.129774 0.08225,-0.179632 c 0.05484,-0.119765 0.05537,-0.179626 0.0016,-0.179626 -0.09939,0 -0.227684,0.27052 -0.178857,0.37714 0.03119,0.06811 -0.200264,0.221148 -0.334461,0.221148 -0.02643,0 -0.02864,-0.157052 -0.0049,-0.349003 0.04245,-0.343311 0.04125,-0.345748 -0.07369,-0.149569 -0.06426,0.109686 -0.118467,0.261108 -0.120454,0.336496 -0.002,0.07539 -0.114672,0.205251 -0.250414,0.288585 l -0.246804,0.15151 0.13756,-0.174322 c 0.07566,-0.09588 0.119456,-0.189353 0.09733,-0.207726 -0.02213,-0.01836 -0.198132,0.160757 -0.391126,0.398061 -0.38836,0.477529 -0.549716,0.580152 -0.553482,0.352024 -0.0023,-0.13531 -0.0094,-0.137554 -0.08674,-0.02713 -0.07564,0.107977 -0.102558,0.110414 -0.261892,0.02371 -0.151069,-0.08219 -0.215823,-0.08327 -0.433645,-0.0072 -0.140834,0.04919 -0.25606,0.06093 -0.25606,0.02614 0,-0.03479 -0.06485,-0.06327 -0.144107,-0.06327 -0.07926,0 -0.187339,-0.0359 -0.240178,-0.07977 -0.07472,-0.06204 -0.09607,-0.05343 -0.09607,0.03876 0,0.167666 -0.169914,0.100008 -0.322345,-0.128357 -0.08684,-0.130099 -0.192807,-0.193886 -0.323692,-0.194845 -0.126709,-0.0011 -0.188534,-0.03623 -0.177237,-0.101139 0.0095,-0.05487 -0.160775,-0.204418 -0.378482,-0.332383 -0.217708,-0.127965 -0.396642,-0.266511 -0.397631,-0.307873 -9.96e-4,-0.04135 -0.161459,-0.108583 -0.3566,-0.149381 -0.241566,-0.05051 -0.371629,-0.118211 -0.407528,-0.212132 -0.029,-0.07587 -0.09908,-0.123173 -0.155741,-0.10512 -0.05702,0.01814 -0.30737,-0.15574 -0.560765,-0.389553 -0.279809,-0.25818 -0.501226,-0.408515 -0.569585,-0.386735 -0.06411,0.0204 -0.132715,-0.01698 -0.160767,-0.0876 -0.130526,-0.328694 -0.641213,-1.145925 -0.844597,-1.351572 -0.125757,-0.12716 -0.228646,-0.255346 -0.228646,-0.284863 0,-0.0295 -0.05993,-0.129608 -0.133163,-0.222421 -0.145393,-0.184252 -0.19087,-0.391592 -0.212762,-0.970029 -0.01752,-0.462852 0.05791,-0.537005 0.488141,-0.479879 0.288046,0.03827 0.343564,0.07524 0.452666,0.301653 0.167108,0.346785 0.320096,0.340047 0.263293,-0.01158 -0.03601,-0.222901 -0.02136,-0.266109 0.08447,-0.249186 0.07042,0.01125 0.153591,0.110171 0.184827,0.219802 0.03124,0.10963 0.07982,0.283533 0.107961,0.386453 0.03984,0.145715 0.09041,0.182494 0.228473,0.166189 0.09752,-0.01153 0.179568,-0.0658 0.182334,-0.120648 0.0028,-0.05487 0.03434,-0.256195 0.07016,-0.44745 0.102087,-0.545077 0.235181,-0.352994 0.178476,0.257579 -0.04321,0.465299 -0.0335,0.522143 0.0891,0.521234 0.194069,-0.0017 0.280128,-0.06312 0.492228,-0.352846 0.12356,-0.16878 0.212848,-0.231911 0.26581,-0.187936 0.05296,0.044 0.02096,0.134781 -0.09527,0.270322 -0.177387,0.206849 -0.16449,0.337957 0.03324,0.337957 0.05975,0 0.224088,-0.121039 0.365194,-0.268971 0.294819,-0.309085 0.423789,-0.310563 0.148782,-0.0017 -0.262001,0.294253 -0.114376,0.403321 0.323823,0.239245 0.226588,-0.08484 0.42175,-0.108589 0.664938,-0.08091 0.370021,0.04213 0.41825,0.02696 0.656379,-0.206281 0.13256,-0.129834 0.135527,-0.146024 0.02002,-0.109217 -0.257249,0.08197 -0.136726,-0.105677 0.137659,-0.214327 0.150845,-0.05973 0.256418,-0.144678 0.235649,-0.189618 -0.02069,-0.04477 0.03647,-0.0975 0.127023,-0.117163 0.211217,-0.04588 0.214599,-0.181148 0.0045,-0.181148 -0.255255,0 -0.186359,-0.102936 0.154257,-0.230471 0.172906,-0.06475 0.416086,-0.207236 0.5404,-0.316651 l 0.226024,-0.198932 -0.260192,0.04593 c -0.365655,0.06454 -0.325857,-0.05601 0.06004,-0.181876 0.359895,-0.117384 0.423166,-0.248095 0.12009,-0.248095 -0.297167,0 -0.24237,-0.111307 0.100074,-0.203271 0.454104,-0.121954 0.900667,-0.322325 0.900667,-0.40412 0,-0.07053 -0.129017,-0.05767 -0.420311,0.04191 -0.08474,0.02895 -0.140105,0.01825 -0.140105,-0.02713 0,-0.04125 0.09907,-0.110303 0.220163,-0.15344 0.502834,-0.17913 0.921496,-0.528275 0.500372,-0.417294 -0.211391,0.05571 -0.20301,-0.01544 0.02002,-0.169943 0.13103,-0.09076 0.147398,-0.125958 0.06005,-0.129101 -0.104457,-0.0039 -0.103856,-0.01489 0.0046,-0.08531 0.06859,-0.04455 0.208308,-0.225487 0.310487,-0.402103 0.102181,-0.176616 0.235204,-0.336866 0.295607,-0.356115 0.0604,-0.01924 0.109828,-0.0751 0.109828,-0.124122 0,-0.06065 -0.134294,-0.09555 -0.420311,-0.109217 l -0.420311,-0.02007 0.415752,-0.265905 c 0.228663,-0.14625 0.417803,-0.303302 0.420311,-0.349002 0.006,-0.10898 -0.0411,-0.104878 -0.278465,0.02426 -0.174316,0.09484 -0.197332,0.09549 -0.197332,0.0055 0,-0.056 0.03381,-0.111793 0.07514,-0.123979 0.04133,-0.01219 0.08817,-0.104309 0.104083,-0.20471 0.01592,-0.100405 0.138566,-0.279894 0.272553,-0.39886 0.133986,-0.118972 0.324261,-0.328484 0.422833,-0.465592 0.146265,-0.203447 0.156669,-0.249285 0.05658,-0.249285 -0.06745,0 -0.15145,0.04003 -0.186663,0.08901 -0.07501,0.104293 -0.571898,0.257633 -0.670645,0.206959 -0.07589,-0.03893 0.05816,-0.336739 0.227859,-0.506192 0.06086,-0.06078 0.118224,-0.150523 0.127465,-0.199432 0.0092,-0.04891 0.07857,-0.190743 0.154066,-0.315185 0.172696,-0.284669 0.171735,-0.295306 -0.02286,-0.253051 -0.08807,0.01913 -0.160119,0.01086 -0.160119,-0.01836 0,-0.06539 0.203554,-0.133838 0.397975,-0.133838 0.07959,0 0.229753,-0.05884 0.333705,-0.130744 l 0.189002,-0.130739 -0.386953,-0.0022 c -0.431704,-0.0022 -0.50095,-0.152541 -0.08723,-0.18905 0.377996,-0.03336 0.834448,-0.146178 0.834448,-0.206265 0,-0.0306 -0.10808,-0.07356 -0.240177,-0.09549 -0.132098,-0.02195 -0.239286,-0.06307 -0.238196,-0.09141 0.0028,-0.07238 1.093874,-0.483612 1.283127,-0.483612 0.08578,0 0.155958,-0.04488 0.155958,-0.09972 0,-0.07073 -0.08728,-0.100009 -0.300223,-0.100731 -0.165122,-5.35e-4 -0.350122,-0.02724 -0.411112,-0.05933 -0.120413,-0.06332 -0.103828,-0.07326 0.671305,-0.402218 0.491365,-0.208531 1.16086,-0.604993 1.16086,-0.687439 0,-0.03342 -0.06142,-0.04125 -0.136484,-0.01732 -0.07507,0.02393 -0.296083,0.06165 -0.491148,0.08385 -0.47479,0.05404 -0.421994,-0.06355 0.145395,-0.323825 0.555764,-0.254943 0.617961,-0.292179 1.111996,-0.66573 0.226501,-0.171267 0.483692,-0.330332 0.571535,-0.35348 0.164003,-0.04323 0.222929,-0.166083 0.07965,-0.166083 -0.04403,0 -0.08006,-0.02994 -0.08006,-0.06648 0,-0.03656 0.03951,-0.06648 0.08779,-0.06648 0.04828,0 0.251504,-0.119655 0.451599,-0.265905 0.200094,-0.146249 0.407192,-0.265905 0.460217,-0.265905 0.09943,0 0.361404,-0.208592 0.361404,-0.287757 0,-0.02454 -0.05617,-0.04461 -0.124814,-0.04461 -0.06865,0 -0.102548,-0.02989 -0.07534,-0.06648 0.02721,-0.03656 0.116954,-0.06647 0.199422,-0.06647 0.182778,0 0.513264,-0.366294 0.451354,-0.500258 -0.02949,-0.06381 0.02323,-0.110828 0.155088,-0.13831 0.150703,-0.03143 0.188011,-0.07239 0.151899,-0.166866 -0.03272,-0.0856 -0.0089,-0.125236 0.07522,-0.125236 0.0677,0 0.202995,-0.08974 0.300659,-0.199427 0.09766,-0.109686 0.212119,-0.199433 0.254344,-0.199433 0.04222,0 0.229351,-0.103814 0.415836,-0.230698 0.238586,-0.162334 0.350895,-0.295306 0.378994,-0.448713 0.05533,-0.302088 -0.03099,-0.386305 -0.152827,-0.149112 -0.118243,0.230196 -0.124928,0.198022 -0.12073,-0.581056 0.0015,-0.281681 0.04278,-0.574235 0.09169,-0.650114 0.07915,-0.122804 0.05757,-0.148853 -0.196267,-0.236918 -0.281599,-0.09769 -0.283531,-0.101045 -0.153362,-0.266004 0.233824,-0.296315 0.02063,-0.272075 -0.279535,0.03176 -0.159956,0.161926 -0.443942,0.413318 -0.631081,0.558653 -0.187139,0.145334 -0.340252,0.302479 -0.340252,0.349206 0,0.0467 -0.109573,0.149751 -0.243495,0.228933 -0.187463,0.110838 -0.223183,0.164292 -0.155227,0.23228 0.04855,0.04858 0.07706,0.21597 0.06336,0.37199 l -0.02491,0.283672 -0.224616,-0.282922 c -0.337759,-0.425438 -0.48914,-0.357852 -0.464452,0.207351 0.01078,0.246794 9.29e-4,0.448719 -0.02182,0.448719 -0.02278,0 -0.138606,-0.07479 -0.257386,-0.166194 -0.207747,-0.159864 -0.432331,-0.220183 -0.433157,-0.116331 -2.4e-4,0.02741 0.05936,0.188306 0.132398,0.357522 0.07304,0.169216 0.107691,0.361976 0.07701,0.42836 -0.04855,0.105054 -0.07554,0.09373 -0.208172,-0.08737 -0.186185,-0.254215 -0.473661,-0.400724 -0.559636,-0.285215 -0.03945,0.05299 -0.144391,0.0072 -0.327246,-0.142705 -0.230353,-0.188906 -0.273445,-0.203375 -0.298818,-0.100356 -0.01631,0.06621 0.02745,0.220304 0.09725,0.34243 0.141662,0.247879 0.170189,0.634052 0.04684,0.634052 -0.04404,0 -0.08006,-0.07479 -0.08006,-0.166195 0,-0.260368 -0.121566,-0.194801 -0.204787,0.110458 -0.04148,0.152156 -0.12946,0.298097 -0.195509,0.324316 -0.06605,0.02625 -0.25211,0.09447 -0.41347,0.151664 -0.377192,0.133706 -0.447058,0.314495 -0.232785,0.602374 0.182632,0.245365 0.211037,0.53063 0.08143,0.81777 -0.08736,0.193549 -0.935212,0.951618 -1.064325,0.951618 -0.04015,0 -0.251962,-0.106758 -0.470689,-0.237237 -0.218727,-0.13048 -0.418964,-0.219565 -0.444972,-0.197972 -0.06802,0.05648 0.284446,0.634636 0.386892,0.634636 0.0472,0 0.06356,0.02989 0.03635,0.06648 -0.08022,0.107784 -0.317259,0.07639 -0.501942,-0.06648 -0.204121,-0.1579 -0.33868,-0.171107 -0.33868,-0.03325 0,0.261642 -0.345965,-0.02663 -0.642636,-0.535516 -0.221463,-0.379864 -0.351024,-0.385985 -0.27326,-0.0129 0.100282,0.481097 0.103808,0.579722 0.02223,0.621585 -0.117361,0.06023 -0.46097,-0.23555 -0.625575,-0.538488 -0.176829,-0.325435 -0.28765,-1.163336 -0.176914,-1.33762 0.433084,-0.681605 0.589015,-1.044183 0.510559,-1.187157 -0.144075,-0.262563 0.221249,-1.189556 0.640917,-1.626292 0.220783,-0.229766 0.243471,-0.354169 0.03888,-0.21318 -0.2368,0.163184 -0.193591,-0.02222 0.06663,-0.285921 0.203515,-0.206226 0.251816,-0.298344 0.185366,-0.353518 -0.06645,-0.05518 -0.0086,-0.103637 0.222073,-0.185968 0.494252,-0.176422 0.540629,-0.199543 0.575775,-0.287095 0.02446,-0.06095 -0.04265,-0.07086 -0.255427,-0.03772 -0.159989,0.02492 -0.288614,0.01798 -0.288614,-0.01566 0,-0.03336 0.183015,-0.231106 0.406701,-0.439494 0.457303,-0.426033 0.359347,-0.52237 -0.171187,-0.168355 -0.173531,0.11579 -0.336676,0.192959 -0.362544,0.171476 -0.07613,-0.06321 0.531005,-0.570805 1.011938,-0.846018 0.499744,-0.285982 1.259109,-0.91491 1.428716,-1.183305 0.06159,-0.09747 0.196696,-0.232547 0.300223,-0.300165 0.248779,-0.162489 0.237413,-0.221457 -0.05195,-0.269511 -0.330304,-0.05485 -0.302739,-0.176162 0.04003,-0.176162 0.311006,0 0.365441,-0.0904 0.120089,-0.199429 -0.354125,-0.157367 -0.14335,-0.332382 0.400296,-0.332382 0.604907,0 0.766737,-0.201108 0.293849,-0.365171 -0.283708,-0.09843 -0.507856,-0.277004 -0.429434,-0.342123 0.02604,-0.02163 0.162648,-0.0059 0.303564,0.03484 0.140916,0.04079 0.301021,0.07416 0.355788,0.07416 0.179313,0 0.191152,-0.187426 0.02305,-0.364878 -0.207603,-0.219146 -0.136923,-0.287036 0.141262,-0.135687 0.175073,0.09525 0.224887,0.09978 0.28148,0.02562 0.07994,-0.104758 0.078,-1.126883 -0.0027,-1.419633 -0.05227,-0.189612 -0.05798,-0.192067 -0.116012,-0.04986 -0.03357,0.08226 -0.09464,0.149572 -0.135701,0.149572 -0.125445,0 -0.08346,-0.172214 0.08546,-0.350521 0.178915,-0.188863 0.197947,-0.247766 0.08006,-0.247766 -0.04404,0 -0.08006,0.04167 -0.08006,0.0926 0,0.09988 -0.232351,0.201961 -0.311014,0.136644 -0.02636,-0.02188 0.01483,-0.06894 0.09152,-0.104582 0.07669,-0.03564 0.139436,-0.103543 0.139436,-0.150902 0,-0.04736 0.07176,-0.140033 0.159467,-0.205939 0.122934,-0.09238 0.157294,-0.198078 0.149984,-0.461373 -0.0052,-0.187848 0.01665,-0.440338 0.04859,-0.561089 0.05442,-0.205723 0.04783,-0.214993 -0.10469,-0.147218 -0.200961,0.0893 -0.253352,0.09078 -0.253352,0.0071 0,-0.03586 0.08212,-0.08232 0.182485,-0.10324 0.1888,-0.03935 0.425667,-0.378399 0.342457,-0.490194 -0.02599,-0.0349 0.0048,-0.162741 0.06833,-0.284078 0.166946,-0.318682 0.227929,-0.466785 0.262704,-0.637993 0.02697,-0.132762 0.0056,-0.146242 -0.172428,-0.109126 -0.240179,0.05005 -0.24009,0.0504 -0.07256,-0.279712 0.07185,-0.141572 0.147483,-0.362105 0.168082,-0.490071 0.0206,-0.127968 0.08791,-0.279895 0.149579,-0.337616 0.06167,-0.05772 0.112125,-0.164594 0.112125,-0.237492 0,-0.0729 0.16212,-0.409125 0.360266,-0.747168 0.394115,-0.672367 0.438603,-0.792187 0.200149,-0.539062 l -0.156559,0.166191 -0.0018,-0.235991 c -9.96e-4,-0.129795 0.04295,-0.273134 0.09763,-0.318531 0.150477,-0.124948 -0.05619,-0.202118 -0.429842,-0.160503 -0.390552,0.0435 -0.413549,-0.07725 -0.0345,-0.181127 0.214598,-0.05881 0.296471,-0.129786 0.370176,-0.320917 0.05205,-0.134976 0.180244,-0.340637 0.284876,-0.457023 0.222092,-0.247044 0.238395,-0.39972 0.06468,-0.605662 -0.155006,-0.183756 -0.292543,-0.128994 -0.226315,0.09011 0.02696,0.08916 0.01581,0.162117 -0.02476,0.162117 -0.09333,0 -0.457328,-0.321686 -0.569372,-0.503191 -0.112229,-0.181805 -0.13952,-0.704845 -0.06046,-1.158718 0.08573,-0.492184 0.163456,-0.560992 0.406093,-0.35952 0.247856,0.205803 0.32254,0.201589 0.606536,-0.03423 0.298108,-0.247529 0.294097,-0.317532 -0.02617,-0.456921 -0.143106,-0.06228 -0.449333,-0.265739 -0.680504,-0.452126 -0.32777,-0.264271 -0.420311,-0.383976 -0.420311,-0.543682 0,-0.193501 0.170234,-0.413722 0.319813,-0.413722 0.03751,0 0.170036,-0.07024 0.294504,-0.15608 0.124468,-0.08584 0.334184,-0.177992 0.466036,-0.204773 0.309964,-0.06296 0.440772,-0.156313 0.440772,-0.314566 0,-0.09787 -0.04844,-0.122902 -0.209347,-0.108194 -0.304673,0.02785 -0.431543,-0.162465 -0.230979,-0.346484 0.114053,-0.104646 0.132556,-0.168158 0.07215,-0.247671 -0.138279,-0.182025 0.03435,-0.937533 0.334091,-1.462204 0.150844,-0.264034 0.274262,-0.52477 0.274262,-0.579412 0,-0.143855 0.256784,-0.569196 0.343631,-0.569196 0.04059,0 0.04818,0.05235 0.01686,0.116334 -0.115445,0.235891 -0.184669,0.472836 -0.147226,0.503927 0.02118,0.01759 0.152991,-0.02745 0.292906,-0.10009 0.139914,-0.07264 0.452536,-0.228538 0.694715,-0.346441 0.242179,-0.117902 0.519747,-0.256442 0.616818,-0.307866 0.233082,-0.123476 0.284151,-0.06705 0.174879,0.193226 -0.04932,0.117481 -0.07551,0.225366 -0.05819,0.239745 0.01732,0.01438 0.205869,-0.106807 0.419007,-0.269299 0.213137,-0.162493 0.410289,-0.295355 0.438113,-0.29525 0.02782,1.06e-4 0.276179,-0.07932 0.551896,-0.176494 0.275719,-0.09718 0.527905,-0.154516 0.560415,-0.127421 0.06909,0.05758 -0.271527,0.303724 -0.420313,0.303724 -0.05578,0 -0.145417,0.04402 -0.199195,0.09783 -0.08501,0.08505 -0.02899,0.09249 0.42905,0.05698 1.216867,-0.09435 2.094176,0.476928 2.937883,1.913079 0.274234,0.4668 0.629188,0.790598 0.866667,0.790598 0.04825,0 0.08772,0.03398 0.08772,0.07551 0,0.05125 -0.115742,0.06234 -0.360267,0.03451 -0.198147,-0.02255 -0.35899,-0.01914 -0.35743,0.0076 0.0085,0.145098 0.568952,0.756262 1.074922,1.172129 l 0.317194,0.260709 -0.237135,-0.04949 c -0.463136,-0.09666 -0.899009,-0.117283 -0.952753,-0.04508 -0.06805,0.09143 0.168332,0.355707 0.460785,0.515165 0.124039,0.06763 0.261519,0.177042 0.305512,0.243135 0.07245,0.108847 0.05309,0.11598 -0.205509,0.0757 -0.157024,-0.02446 -0.285497,-0.0246 -0.285497,-3.32e-4 0,0.02429 0.09007,0.15422 0.200148,0.288735 0.110082,0.134514 0.200148,0.317925 0.200148,0.407581 0,0.268248 0.311808,0.72008 0.650747,0.94298 0.297653,0.195749 0.324535,0.201541 0.421964,0.0909 0.09507,-0.107963 0.12019,-0.09433 0.290979,0.157994 0.102806,0.151887 0.213312,0.276157 0.245567,0.276157 0.03225,0 0.09677,-0.08226 0.14336,-0.18281 0.0843,-0.181924 0.08468,-0.182004 0.07787,-0.01662 -0.01385,0.336277 0.01857,0.378044 0.406408,0.523587 0.31281,0.117387 0.414489,0.196135 0.486196,0.376544 0.129492,0.325795 0.262601,0.368329 0.193342,0.06178 -0.04415,-0.19543 -0.03255,-0.241338 0.05494,-0.217386 0.061,0.0167 0.123205,0.102809 0.138228,0.191351 0.01502,0.08854 0.08303,0.212765 0.151133,0.276052 0.0681,0.06329 0.133745,0.218933 0.145876,0.345877 0.02389,0.249992 0.404196,0.722995 0.547947,0.681502 0.08501,-0.02454 0.08716,-0.313725 0.0046,-0.627256 -0.05776,-0.219491 0.144224,-0.18814 0.266577,0.04138 0.09692,0.18181 0.837524,0.872673 0.935504,0.872673 0.02559,0 0.08077,-0.07479 0.122621,-0.16619 0.10573,-0.230911 0.186909,-0.208451 0.348969,0.09655 0.08273,0.155708 0.236066,0.302694 0.376396,0.360823 0.22191,0.09192 0.251288,0.08796 0.467508,-0.06311 0.126894,-0.08866 0.253719,-0.237296 0.281832,-0.330304 0.06663,-0.220451 0.213347,-0.143646 0.190989,0.09998 -0.0095,0.103641 0.03162,0.23737 0.09139,0.297177 0.09406,0.0941 0.07839,0.134996 -0.116379,0.303801 -0.197921,0.171536 -0.208499,0.20034 -0.08771,0.238828 0.07555,0.02407 0.297207,0.04739 0.49258,0.05182 0.293953,0.0067 0.355305,0.03017 0.35571,0.136288 7.31e-4,0.179717 0.178999,0.569769 0.260473,0.569769 0.03723,0 0.129071,-0.09198 0.20408,-0.204406 0.259978,-0.389656 0.323304,-0.439755 0.41384,-0.327405 0.04419,0.05484 0.08091,0.223537 0.08158,0.374875 7.97e-4,0.170756 0.05935,0.334705 0.1544065,0.432096 l 0.1531802,0.156936 0.2534103,-0.155426 c 0.2857959,-0.175289 0.3772722,-0.155991 0.2436066,0.05139 -0.04964,0.07701 -0.068442,0.169316 -0.04179,0.205123 0.069296,0.0931 0.4197525,0.08057 0.4586799,-0.01641 0.044566,-0.111017 0.4465399,0.470269 0.5113914,0.739514 0.044081,0.183023 0.078516,0.20995 0.2210653,0.172881 0.3893663,-0.101229 0.5291156,-0.112038 0.5291156,-0.0409 0,0.04083 -0.036026,0.07423 -0.08006,0.07423 -0.044035,0 -0.080059,0.04462 -0.080059,0.09915 0,0.05453 -0.063047,0.131744 -0.1401032,0.171582 -0.1155019,0.05971 -0.1367941,0.156116 -0.1212581,0.548993 0.013892,0.35132 -0.0012,0.437253 -0.057462,0.32699 -0.041969,-0.08226 -0.1146472,-0.149572 -0.1615043,-0.149572 -0.057004,0 -0.077727,0.285856 -0.062622,0.863984 0.012412,0.47519 0.034578,0.834163 0.049254,0.797716 0.040097,-0.09956 0.1734624,-0.07969 0.1734624,0.02585 0,0.05066 -0.051187,0.174042 -0.1137541,0.274176 -0.115557,0.184947 -0.088624,0.39448 0.042083,0.327404 0.039419,-0.02023 0.071671,-0.0051 0.071671,0.03362 0,0.03872 -0.058239,0.0704 -0.1294262,0.0704 -0.095151,0 -0.1166428,0.03961 -0.081153,0.149572 0.02655,0.08226 0.04877,0.231195 0.049367,0.330956 9.961e-4,0.168006 0.01548,0.175943 0.1961358,0.107595 0.199437,-0.07545 0.5452699,-0.02089 0.4030842,0.0636 -0.04284,0.02545 -0.159805,0.185649 -0.2599229,0.355988 -0.1558199,0.265107 -0.1708486,0.351263 -0.1043634,0.598287 0.04272,0.15872 0.059435,0.41968 0.037155,0.579912 -0.038131,0.27416 -0.030136,0.289077 0.1355809,0.253094 0.173625,-0.0377 0.1753529,-0.03082 0.1230663,0.489765 -0.050244,0.50023 -0.044513,0.528004 0.1089608,0.528004 0.3525952,0 0.1324012,0.709641 -0.3331491,1.073674 -0.1239669,0.09693 -0.225393,0.222906 -0.225393,0.279938 0,0.05703 0.1535188,0.261908 0.3411525,0.455281 0.6666336,0.687025 0.6468687,0.631465 0.5685716,1.598281 -0.036351,0.448839 -0.019391,0.545484 0.1312405,0.747856 l 0.1729842,0.232407 h -0.1666483 c -0.094759,0 -0.1666482,0.04301 -0.1666482,0.09972 0,0.138342 -0.068134,0.124816 -0.2510755,-0.04985 l -0.1566526,-0.149575 0.050782,0.282524 c 0.056533,0.314512 -0.029565,0.363742 -0.2325125,0.132956 -0.3972377,-0.451724 -0.3659398,-0.460188 -0.3687077,0.09972 -0.00193,0.395028 -0.028555,0.515191 -0.1140688,0.515191 -0.061341,0 -0.1322605,-0.04489 -0.1576069,-0.09972 -0.025348,-0.05486 -0.1051582,-0.09971 -0.1773624,-0.09971 -0.098907,0 -0.1192865,0.0397 -0.082644,0.160907 0.073276,0.24242 -0.020261,0.370903 -0.2700155,0.370903 -0.2881594,0 -0.3154887,-0.121607 -0.2723119,-1.211705 l 0.033509,-0.846091 -0.2918829,-0.268265 c -0.1605354,-0.147545 -0.3863362,-0.286952 -0.5017795,-0.309797 -0.115444,-0.02283 -0.245924,-0.06464 -0.289957,-0.09289 -0.177802,-0.114069 -1.437351,-0.08311 -2.059487,0.05062 -0.725506,0.155954 -0.862678,0.23427 -0.862678,0.492549 0,0.220028 -0.05358,0.233031 -0.288468,0.06999 -0.25879,-0.179632 -0.352169,-0.372095 -0.350248,-0.721908 0.0024,-0.438049 0.190473,-0.747228 0.903073,-1.484631 l 0.608999,-0.630198 -0.200566,-0.133034 c -0.211424,-0.140238 -0.347412,-0.49395 -0.350642,-0.912046 -0.0015,-0.199994 -0.02662,-0.239326 -0.131313,-0.205967 -0.109242,0.0348 -0.115478,0.01963 -0.04003,-0.09743 0.09714,-0.150715 0.114312,-0.42905 0.04055,-0.657378 -0.03958,-0.122537 -0.08782,-0.138806 -0.319143,-0.107636 -0.175394,0.02363 -0.272513,0.0099 -0.272513,-0.03846 0,-0.04134 0.03434,-0.07517 0.0763,-0.07517 0.04197,0 0.138275,-0.108438 0.214018,-0.240974 0.11714,-0.204973 0.12342,-0.281942 0.04203,-0.515192 -0.05263,-0.150819 -0.136246,-0.461182 -0.185823,-0.689695 -0.06612,-0.304774 -0.124318,-0.415748 -0.21841,-0.416495 -0.07055,-5.31e-4 -0.179145,-0.02776 -0.241327,-0.06044 -0.09553,-0.05021 -0.09234,-0.07663 0.02054,-0.170357 0.165896,-0.137748 0.317833,-0.367733 0.269471,-0.407889 -0.0199,-0.01652 -0.131045,0.0059 -0.247004,0.04973 -0.256413,0.09701 -0.284375,0.07708 -0.332829,-0.237156 -0.03286,-0.213106 -0.396279,-0.635346 -0.546839,-0.635346 -0.02274,0 -0.05253,0.112179 -0.0662,0.249286 -0.03069,0.3079 -0.180107,0.330048 -0.198199,0.02938 -0.01679,-0.279048 -0.078,-0.411618 -0.190039,-0.411618 -0.06155,0 -0.08046,0.31213 -0.06256,1.032934 0.02034,0.819235 0.04994,1.045372 0.143055,1.093057 0.07167,0.0367 0.154659,0.03445 0.213035,-0.0058 0.200035,-0.137848 0.166422,0.05372 -0.05721,0.326046 -0.128261,0.156189 -0.233202,0.359847 -0.233202,0.452574 0,0.143616 0.03158,0.165427 0.213178,0.147217 0.276883,-0.02776 0.336054,0.116048 0.07052,0.171386 -0.239227,0.04986 -0.251564,0.14653 -0.08604,0.674214 0.06682,0.213014 0.09913,0.505297 0.07482,0.676898 -0.04048,0.285758 -0.03328,0.299944 0.133708,0.263685 0.174116,-0.03781 0.175772,-0.03124 0.123453,0.489682 -0.04915,0.489356 -0.04193,0.528005 0.09862,0.528005 0.174382,0 0.204575,0.15564 0.328838,1.695146 0.09508,1.177877 0.18765,1.532873 0.573337,2.198576 0.171011,0.295163 0.310929,0.57187 0.310929,0.614901 0,0.112658 -0.362493,0.09645 -0.480356,-0.02145 -0.05481,-0.05486 -0.167307,-0.09972 -0.249981,-0.09972 -0.08267,0 -0.150316,0.04489 -0.150316,0.09972 0,0.138342 -0.06813,0.124816 -0.251075,-0.04985 l -0.156652,-0.14957 0.05078,0.282525 c 0.05653,0.314506 -0.02956,0.363735 -0.232511,0.13295 -0.397238,-0.451724 -0.36594,-0.460188 -0.368708,0.09972 -0.0019,0.395034 -0.02855,0.515191 -0.11407,0.515191 -0.06134,0 -0.132259,-0.04489 -0.157606,-0.09972 -0.02535,-0.05486 -0.105158,-0.09971 -0.177362,-0.09971 -0.191448,0 -0.09226,0.260546 0.273603,0.718743 0.166057,0.207963 0.371964,0.495014 0.45757,0.637895 0.0856,0.142875 0.308759,0.350557 0.495897,0.461511 0.187139,0.110954 0.340252,0.231012 0.340252,0.266799 0,0.03579 0.06305,0.12427 0.140104,0.196631 0.137258,0.128897 0.134005,0.130772 -0.160119,0.09251 -0.23379,-0.03044 -0.300222,-0.01709 -0.300222,0.06012 0,0.133264 0.461494,1.027271 0.595814,1.154205 0.0588,0.05556 0.131785,0.198242 0.1622,0.31707 0.06292,0.245806 -0.05046,0.287063 -0.291369,0.10603 -0.138726,-0.104249 -0.146408,-0.09962 -0.146408,0.08813 0,0.394697 0.788822,0.777308 1.530069,0.742144 0.276506,-0.01312 0.469779,0.005 0.470779,0.04422 9.3e-4,0.03733 -0.279333,0.07494 -0.639308,0.08578 -0.352554,0.01064 -0.641006,0.04273 -0.641006,0.07133 0,0.02862 0.225166,0.139671 0.50037,0.246804 0.50793,0.197723 0.60038,0.341122 0.200148,0.310453 -0.121089,-0.0093 -0.220162,-5e-5 -0.220162,0.02051 0,0.129024 0.548507,0.569747 0.792023,0.636385 0.635843,0.173996 1.642328,0.717844 1.518606,0.820576 -0.02023,0.01682 -0.210794,-0.04257 -0.423461,-0.13199 -0.212667,-0.0894 -0.419802,-0.145538 -0.460301,-0.124756 -0.07786,0.03998 -0.05534,0.06898 0.443612,0.571693 0.179992,0.181353 0.291647,0.354379 0.265371,0.411234 -0.02495,0.05398 0.02245,0.169734 0.105321,0.257221 0.08288,0.08748 0.175767,0.24644 0.206427,0.353242 0.03066,0.106802 0.107252,0.243523 0.170205,0.303831 0.06295,0.06031 0.162215,0.259972 0.220585,0.443701 0.05837,0.183728 0.2001712,0.418269 0.3151146,0.5212 0.1149434,0.102926 0.2089877,0.236378 0.2089877,0.296558 0,0.06018 0.052196,0.192954 0.1159913,0.295053 0.1768033,0.282971 -0.015765,0.418446 -0.2538048,0.178556 -0.1092563,-0.110105 -0.1129425,-0.109812 -0.068871,0.0055 0.025613,0.06697 0.046565,0.162754 0.046565,0.212843 0,0.05007 0.1318627,0.197415 0.2930277,0.327382 0.161165,0.129967 0.2691031,0.256167 0.2398625,0.280446 -0.029239,0.02426 -0.1430902,-0.02597 -0.2529979,-0.111738 -0.2270963,-0.177145 -0.2496125,-0.112591 -0.086568,0.248189 0.062297,0.137846 0.1332075,0.325418 0.1575804,0.416825 0.024371,0.0914 0.2756475,0.359324 0.5583887,0.595376 0.5233142,0.436907 0.5994697,0.606211 0.2475551,0.550354 -0.1078756,-0.01715 -0.1958635,-0.005 -0.1955295,0.02647 0.00432,0.410661 0.1912436,1.201026 0.3594823,1.520086 0.1156746,0.219372 0.2528897,0.481127 0.3049233,0.58167 0.052037,0.100544 0.1218391,0.182808 0.1551232,0.182808 0.033284,0 0.057987,0.112179 0.054886,0.249286 -0.00465,0.204759 -0.018654,0.225536 -0.078553,0.116336 -0.057615,-0.105043 -0.069494,-0.08094 -0.056586,0.114808 0.02125,0.322182 -0.1495011,0.485911 -0.2196009,0.210572 -0.109567,-0.430363 -0.1983983,-0.678352 -0.3903983,-1.089858 -0.1425703,-0.305568 -0.2028284,-0.381469 -0.2057782,-0.259206 -0.00226,0.09509 0.028781,0.259619 0.069054,0.365616 0.040276,0.106005 0.1357223,0.424569 0.2121068,0.707926 0.076385,0.283357 0.1704521,0.515191 0.2090382,0.515191 0.038589,0 0.01271,0.09224 -0.057496,0.204974 -0.096063,0.154251 -0.1206398,0.347552 -0.099308,0.781096 0.015592,0.316871 0.058133,0.628863 0.094534,0.693323 0.052767,0.09343 0.015672,0.131819 -0.182956,0.189309 -0.2724566,0.07887 -0.347505,0.200976 -0.089023,0.144849 0.1087569,-0.0236 0.1601184,-0.0022 0.1601184,0.06727 0,0.05612 0.02044,0.146261 0.045429,0.200326 0.057389,0.124188 -0.4725863,0.193864 -1.6065836,0.211211 -0.440326,0.0067 -0.991129,0.03595 -1.224005,0.06494 -0.262669,0.0327 -0.651623,0.02211 -1.024539,-0.02785 -0.436361,-0.05845 -0.704322,-0.06139 -0.977626,-0.01075 -0.834516,0.154697 -1.256633,0.19479 -1.309071,0.124342 -0.03023,-0.04064 -0.114062,-0.04808 -0.200192,-0.01781 -0.0815,0.02862 -0.364344,0.05816 -0.62854,0.06563 -0.264196,0.0075 -0.598089,0.06424 -0.741987,0.12615 -0.239219,0.102926 -0.265872,0.103395 -0.311141,0.0055 z m 1.733567,-1.974903 c -3.6e-5,-0.0092 -0.0704,-0.166189 -0.156374,-0.349002 -0.09252,-0.196742 -0.157837,-0.274733 -0.160054,-0.191118 -0.0073,0.273878 0.09761,0.556739 0.206411,0.556739 0.06054,0 0.110053,-0.0075 0.110017,-0.0166 z m 0.640539,-0.992009 c 0,-0.350563 -0.277079,-1.518296 -0.355031,-1.496267 -0.04691,0.01323 -0.08233,0.156004 -0.07871,0.317213 0.01384,0.616326 0.433744,1.757755 0.433745,1.179054 z m 5.3413627,-0.23689 c -0.018401,-0.101046 -0.033948,-0.03413 -0.034552,0.148659 -5.605e-4,0.182808 0.014457,0.265486 0.033456,0.183723 0.019006,-0.08176 0.019497,-0.231331 0.00106,-0.332382 z m -5.9898167,-1.932651 c 0.0045,-0.08667 -0.02688,-0.135613 -0.07208,-0.112409 -0.04404,0.02261 -0.07647,0.166453 -0.07208,0.319683 0.0068,0.237949 0.01733,0.254353 0.07208,0.11241 0.03526,-0.09141 0.06769,-0.235263 0.07208,-0.319684 z m 5.906998,-1.022308 c -0.025554,-0.05305 -0.044526,-0.03727 -0.048371,0.04014 -0.00345,0.07008 0.015446,0.109339 0.042049,0.08725 0.026603,-0.02211 0.029445,-0.07942 0.00631,-0.127413 z M -32.432719,55.349666 c 0.284412,-0.640746 0.288595,-0.659737 0.145354,-0.659737 -0.168722,0 -0.44138,0.453207 -0.505179,0.839705 -0.07475,0.452805 0.122816,0.353992 0.359825,-0.179968 z m 1.013287,0.297065 c 0.181097,-0.229496 0.05224,-0.340968 -0.198929,-0.172094 -0.119725,0.0805 -0.16811,0.164584 -0.135417,0.235324 0.07227,0.156368 0.176633,0.136633 0.334346,-0.06323 z m -2.085926,-0.308656 c 0.107934,-0.437001 0.126313,-0.648146 0.05641,-0.648146 -0.109826,0 -0.359254,0.573111 -0.302693,0.695496 0.06945,0.150275 0.203847,0.124436 0.246276,-0.04737 z m 21.422001,-7.096349 c 0,-0.03656 -0.01589,-0.06648 -0.0353,-0.06648 -0.01942,0 -0.05757,0.02991 -0.08478,0.06648 -0.02721,0.03656 -0.01133,0.06648 0.0353,0.06648 0.04663,0 0.08478,-0.02991 0.08478,-0.06648 z m 4.0127063,20.458089 c -0.036497,-0.08226 -0.091652,-0.23931 -0.1225722,-0.348996 -0.055098,-0.195452 -0.05371,-0.196533 0.069324,-0.05409 0.1345409,0.155783 0.2577845,0.552644 0.1716215,0.552644 -0.028608,0 -0.081878,-0.06731 -0.1183734,-0.149577 z M -14.311604,53.580647 c -0.13811,-0.214282 -0.11353,-0.34008 0.0326,-0.166844 0.06934,0.0822 0.111403,0.185995 0.09347,0.230659 -0.01966,0.04897 -0.06968,0.02365 -0.126074,-0.06381 z m 7.0452191,-0.864192 c -0.1381103,-0.214283 -0.1135309,-0.340081 0.032599,-0.166845 0.06934,0.0822 0.1114033,0.186 0.093473,0.230659 -0.019663,0.04897 -0.069685,0.02365 -0.1260733,-0.06381 z"
             id="path121943" /></g></g></g></g></svg>
