<?xml version="1.0" encoding="UTF-8" standalone="no"?>
<svg xmlns:dc="http://purl.org/dc/elements/1.1/" xmlns:cc="http://creativecommons.org/ns#" xmlns:rdf="http://www.w3.org/1999/02/22-rdf-syntax-ns#" xmlns:svg="http://www.w3.org/2000/svg" xmlns="http://www.w3.org/2000/svg" version="1.1" id="svg4789" viewBox="0 0 240.13654 240.13654" height="67.771866mm" width="67.771866mm">
  <defs id="defs4791">
    <clipPath clipPathUnits="userSpaceOnUse" id="clipPath4318-5">
      <circle style="fill:#ffffff;fill-opacity:1;stroke:#000000;stroke-width:8;stroke-linecap:butt;stroke-linejoin:miter;stroke-miterlimit:4;stroke-dasharray:none;stroke-dashoffset:0;stroke-opacity:1" id="circle4320-3" cx="810" cy="1426" r="462"/>
    </clipPath>
    <clipPath clipPathUnits="userSpaceOnUse" id="clipPath4531-2">
      <circle r="462" cy="1339.7589" cx="2928.0701" id="circle4533-9" style="opacity:1;fill:#ffffff;fill-opacity:1;stroke:#000000;stroke-width:8;stroke-linecap:butt;stroke-linejoin:miter;stroke-miterlimit:4;stroke-dasharray:none;stroke-dashoffset:0;stroke-opacity:1"/>
    </clipPath>
    <clipPath clipPathUnits="userSpaceOnUse" id="clipPath4482-5">
      <circle r="462" cy="998.57983" cx="1901.9349" id="circle4484-6" style="opacity:1;fill:#ffffff;fill-opacity:1;stroke:#000000;stroke-width:8;stroke-linecap:butt;stroke-linejoin:miter;stroke-miterlimit:4;stroke-dasharray:none;stroke-dashoffset:0;stroke-opacity:1"/>
    </clipPath>
  </defs>
  <metadata id="metadata4794">
    <rdf:RDF>
      <cc:Work rdf:about="">
        <dc:format>image/svg+xml</dc:format>
        <dc:type rdf:resource="http://purl.org/dc/dcmitype/StillImage"/>
        <dc:title/>
      </cc:Work>
    </rdf:RDF>
  </metadata>
  <g transform="translate(-239.79522,-267.86757)" id="layer1">
    <circle style="opacity:1;fill:#ffffff;fill-opacity:1;stroke:#000000;stroke-width:2.0612576;stroke-linecap:butt;stroke-linejoin:miter;stroke-miterlimit:4;stroke-dasharray:none;stroke-dashoffset:0;stroke-opacity:1" id="path4299-6" cx="359.86346" cy="387.93582" r="119.03763"/>
    <g id="g4371" transform="matrix(0.25765721,0,0,0.25765721,-130.18377,130.64455)" clip-path="url(#clipPath4482-5)">
      <path id="path4348" d="m 1938.8868,925.95173 c 82.0918,26.77716 262.1522,52.54716 281.4285,125.86497 25.6358,97.5062 -95.3468,130.483 -182.4336,175.3625 0,0 -199.465,338.8564 -271.5899,375.626 -72.1249,36.7695 -311.4924,-235.3752 -311.4924,-235.3752 84.2497,-58.0962 226.2462,-137.9632 259.2274,-237.8315 0,0 -105.8012,-119.5763 -123.0365,-169.70564 -36.8623,-107.21468 52.3867,-183.83319 154.1492,-125.86501 35.7206,20.34795 142.8356,98.99495 142.8356,98.99495 z" style="fill:#b3b3b3;fill-rule:evenodd;stroke:#000000;stroke-width:8;stroke-linecap:butt;stroke-linejoin:miter;stroke-miterlimit:4;stroke-dasharray:none;stroke-opacity:1"/>
      <path id="path4354" d="m 1711.1984,880.6969 c 0,0 2.8284,49.49748 69.2965,60.81118 66.468,11.31371 234.7594,84.85282 234.7594,84.85282 0,0 74.9533,22.6274 106.066,21.2132" style="fill:none;fill-rule:evenodd;stroke:#000000;stroke-width:8;stroke-linecap:butt;stroke-linejoin:miter;stroke-miterlimit:4;stroke-dasharray:none;stroke-opacity:1"/>
      <ellipse style="opacity:1;fill:#ffffff;fill-opacity:1;stroke:#000000;stroke-width:7.36608028;stroke-miterlimit:4;stroke-dasharray:none;stroke-opacity:1" id="path4207" cx="2142.9985" cy="-76.158958" rx="48.515884" ry="57.368748" transform="matrix(0.85143816,0.52445501,-0.52445501,0.85143816,0,0)"/>
      <path id="path4340" d="m 1793.2228,925.95173 c -2.0746,29.07619 15.2892,30.55639 8.1253,67.70897 -1.9601,10.1655 -6.7918,56.8193 41.2777,83.3493 71.261,39.3297 152.5001,-32.0011 181.1139,-73.2765 16.1894,-23.35324 46.6282,-71.00525 14.1421,-115.96553 -88.994,-123.16633 -247.9498,-104.01564 -244.659,38.18376 z" style="fill:#ffffff;fill-rule:evenodd;stroke:#000000;stroke-width:8;stroke-linecap:butt;stroke-linejoin:miter;stroke-miterlimit:4;stroke-dasharray:none;stroke-opacity:1"/>
      <path id="path4344" d="m 1791.8086,918.88067 c 0,0 -35.3554,-11.31371 -38.1838,8.48528 -2.8284,19.79899 4.2427,35.35534 11.3137,39.59798 7.0711,4.24264 26.8701,-1.41422 26.8701,-1.41422 z" style="fill:#ffffff;fill-rule:evenodd;stroke:#000000;stroke-width:8;stroke-linecap:butt;stroke-linejoin:miter;stroke-miterlimit:4;stroke-dasharray:none;stroke-opacity:1"/>
      <path id="path4346" d="m 2039.296,985.3487 c 0,0 35.3553,-4.24264 36.7695,15.5564 1.4142,19.7989 -14.1421,35.3553 -21.2132,36.7695 -7.0711,1.4142 -33.9411,-16.9706 -33.9411,-16.9706 z" style="fill:#ffffff;fill-rule:evenodd;stroke:#000000;stroke-width:8;stroke-linecap:butt;stroke-linejoin:miter;stroke-miterlimit:4;stroke-dasharray:none;stroke-opacity:1"/>
      <path id="path4342" d="m 1818.6786,969.79236 c 0,0 -22.6274,-67.88226 4.2427,-87.68125 26.87,-19.79899 35.3553,-24.04163 49.4975,-1.41421 14.1421,22.62742 18.3847,42.42641 38.1837,41.01219 19.799,-1.41421 29.6985,-18.38477 29.6985,-18.38477 0,0 11.3137,29.69848 25.4559,28.28427 14.1421,-1.41421 26.87,-4.24264 26.87,-4.24264 l 29.6985,25.45584 c 14.1421,11.31371 11.3137,11.31371 11.3137,11.31371 0,0 -15.5563,32.52691 -32.5269,43.8406 -16.9706,11.3137 -41.0122,26.8701 -41.0122,26.8701 l 5.6569,36.7695 c 0,0 39.5979,-12.7279 50.9116,-24.0416 11.3137,-11.3137 38.1838,-63.63961 41.0122,-74.95332 2.8285,-11.31371 8.4853,-39.59798 8.4853,-39.59798 0,0 14.1421,-18.38477 9.8995,-29.69848 -4.2426,-11.31371 -24.0416,-19.79899 -24.0416,-19.79899 0,0 7.0711,-22.62742 2.8284,-35.35534 -19.2152,-28.21807 -36.488,-18.72499 -62.2254,-11.31371 0,0 5.7668,-31.21274 -8.4853,-36.76955 -28.509,-11.11547 -39.7708,8.92787 -42.4264,5.65685 -5.9794,-7.36523 -16.9103,-31.51363 -43.8406,-35.35534 -51.0356,-7.2804 -54.4108,4.16159 -76.3676,33.94113 -42.5006,-8.34372 -50.5351,19.71989 -41.0122,66.46803 1.9687,54.75299 -9.4212,93.25035 15.5564,141.4213 z" style="fill:#e6e6e6;fill-rule:evenodd;stroke:#000000;stroke-width:8;stroke-linecap:butt;stroke-linejoin:miter;stroke-miterlimit:4;stroke-dasharray:none;stroke-opacity:1"/>
      <path id="path4330" d="m 1925.9532,966.53813 c 0,0 19.2427,25.29265 51.4764,-0.41699" style="fill:none;fill-rule:evenodd;stroke:#000000;stroke-width:8;stroke-linecap:butt;stroke-linejoin:miter;stroke-miterlimit:4;stroke-dasharray:none;stroke-opacity:1"/>
      <path id="path4332" d="m 1831.4066,921.70909 c 0,0 4.2426,33.94113 42.4264,29.69849" style="fill:none;fill-rule:evenodd;stroke:#000000;stroke-width:8;stroke-linecap:butt;stroke-linejoin:miter;stroke-miterlimit:4;stroke-dasharray:none;stroke-opacity:1"/>
      <path id="path4334" d="m 1890.8035,985.3487 -35.2327,20.7827 33.8185,17.4011 z" style="fill:#cd87de;fill-opacity:1;fill-rule:evenodd;stroke:#000000;stroke-width:8;stroke-linecap:butt;stroke-linejoin:miter;stroke-miterlimit:4;stroke-dasharray:none;stroke-opacity:1"/>
      <path id="path4338" d="m 1831.7531,1000.933 c 0,0 -3.6898,25.9658 22.974,44.2152 35.4742,24.2795 63.9569,-8.9462 60.4646,-15.9309" style="fill:none;fill-rule:evenodd;stroke:#000000;stroke-width:8;stroke-linecap:butt;stroke-linejoin:miter;stroke-miterlimit:4;stroke-dasharray:none;stroke-opacity:1"/>
      <path id="path4350" d="m 1940.301,903.32432 c -10.8741,-20.10035 -10.5898,-32.95004 -4.4592,-49.50425" style="fill:none;fill-rule:evenodd;stroke:#000000;stroke-width:8;stroke-linecap:butt;stroke-linejoin:miter;stroke-miterlimit:4;stroke-dasharray:none;stroke-opacity:1"/>
      <path id="path4352" d="m 1993.1073,927.53511 c -2.6693,1.43229 -32.6968,-28.05975 -9.3582,-58.41581" style="fill:none;fill-rule:evenodd;stroke:#000000;stroke-width:8;stroke-linecap:butt;stroke-linejoin:miter;stroke-miterlimit:4;stroke-dasharray:none;stroke-opacity:1"/>
    </g>
  </g>
</svg>