<?xml version="1.0" encoding="UTF-8" standalone="no"?>
<!-- Created with Inkscape (http://www.inkscape.org/) -->
<svg xmlns:rdf="http://www.w3.org/1999/02/22-rdf-syntax-ns#" xmlns="http://www.w3.org/2000/svg" xmlns:cc="http://web.resource.org/cc/" xmlns:dc="http://purl.org/dc/elements/1.1/" xmlns:svg="http://www.w3.org/2000/svg" xmlns:inkscape="http://www.inkscape.org/namespaces/inkscape" xmlns:sodipodi="http://sodipodi.sourceforge.net/DTD/sodipodi-0.dtd" xmlns:ns1="http://sozi.baierouge.fr" xmlns:xlink="http://www.w3.org/1999/xlink" id="svg2885" viewBox="0 0 665.57 384.46" version="1.0" inkscape:version="0.91 r13725">
  <g id="layer1" transform="translate(-134.5 -471.88)">
    <path id="path2964" style="fill:#000000" d="m470.79 854.49c-0.45-1.77 0.33-3.49 2.22-4.9 2.83-2.1 2.78-2.15-1.81-1.73-4.92 0.44-6.18 2.84-3.47 6.56 1.16 1.6 0.81 1.76-1.94 0.89-1.85-0.59-4.32-1.94-5.49-3-1.18-1.06-2.83-1.93-3.69-1.93-2.73 0-12.4-4.45-12.4-5.7 0-0.67 1.6-0.58 3.56 0.19 5.38 2.11 5.47 0.43 0.13-2.44-12.15-6.54-15.56-8.97-20.9-14.87-3.15-3.49-5.73-6.73-5.73-7.2s-1.58-3.18-3.5-6.02c-2.73-4.03-3.28-4.41-2.51-1.7 0.54 1.9 3.03 6.53 5.52 10.28 5 7.52 6.25 12.51 2.29 9.13-1.75-1.5-2.37-1.54-2.81-0.18-0.78 2.4-7.13 2.21-8.97-0.27-1.04-1.4-6.64-2.47-18.36-3.52-21.12-1.89-25.23-2.34-37.79-4.13-5.56-0.79-13.16-1.8-16.87-2.24-21.66-2.59-28.52-3.9-42.84-8.17-14.81-4.42-15.86-4.56-15.86-2.1 0 2.22-1.09 2.65-7.08 2.77-3.9 0.07-8.61 0.57-10.46 1.11-1.86 0.53-7.63 0.14-12.82-0.88-6.26-1.23-10.36-1.4-12.15-0.52-5.06 2.49-9.48 2.75-54.27 3.17-28.93 0.27-45.31-0.08-46.19-0.99-1.46-1.51-1.88-53.58-1.71-214.34 0.05-51.09-0.02-100.49-0.15-109.77l-0.24-16.89 99.18-0.92c54.54-0.51 110.11-0.65 123.48-0.31 13.36 0.34 43.73 0.77 67.48 0.95s45.01 0.73 47.23 1.22c2.23 0.48 8.23 0.07 13.34-0.92 9.21-1.78 12.39-1.48 10.9 1.02-0.91 1.52 3.86 1.78 5.3 0.3 1.6-1.65 12.97-1.98 12.97-0.37 0 0.93 3.65 1.23 10.12 0.85 5.57-0.33 10.12-0.03 10.12 0.66 0 1.46 7.2 1.72 8.56 0.32 1.64-1.7 8.24-1.44 11.96 0.47 4.2 2.15 6.77 2.48 3.78 0.47-1.56-1.04-1.6-1.36-0.2-1.38 3.13-0.03 14.21 7.16 17.53 11.38l3.16 4.03-4.85-2.96c-2.67-1.63-4.85-2.34-4.85-1.58s1 1.78 2.22 2.27c1.22 0.48 1.88 1.22 1.47 1.65-0.83 0.86-16.21-3.08-20.76-5.32-5.52-2.72-6.17-0.28-0.89 3.33 2.92 2 7.09 5.59 9.27 7.98 4.84 5.32 6.36 5.53 4.57 0.66-1.71-4.67-1.19-5.17 2.57-2.45 2.15 1.56 2.78 3.04 2.19 5.21-0.58 2.14-0.45 2.47 0.46 1.12 0.98-1.47 1.6-0.99 2.68 2.09l1.41 4 0.1-5.24c0.19-9.45 3.83-5.05 4.32 5.24 0.16 3.19 0.34 3.46 0.78 1.13 0.89-4.73 4.46-2.36 4.46 2.96 0 2.46-0.97 7.87-2.16 12-1.66 5.78-2.44 7-3.37 5.27-0.7-1.29-2.27-1.96-3.72-1.57-2.17 0.59-2.6-0.39-3.23-7.46-0.39-4.48-1.7-10.34-2.91-13.03-1.44-3.21-1.92-3.69-1.4-1.39 0.44 1.92 1.24 7.85 1.78 13.17 0.55 5.44 1.69 9.94 2.6 10.25 0.88 0.3 1.61 2.03 1.61 3.83s0.91 4.22 2.02 5.36c1.11 1.15 2.63 3.75 3.37 5.78 1.57 4.28 1.84 20.27 0.35 20.27-0.56 0-0.86-3.3-0.66-7.33l0.36-7.34-2.04 5.59c-1.12 3.07-2.32 9.05-2.65 13.27-0.49 6.09-0.39 6.67 0.49 2.79 1.02-4.54 1.12-4.33 1.28 2.97 0.1 4.32 1.06 10.43 2.13 13.58 2.79 8.2 0.63 8.21-3.82 0.02-4.12-7.58-9.24-11.21-11.93-8.43-1.97 2.03 2.21 5.72 6.56 5.79 1.65 0.02 3.16 1.15 3.53 2.65 0.58 2.28 0.14 2.47-3.55 1.56-2.32-0.58-5.43-1.54-6.91-2.13-1.6-0.65-2.25-0.57-1.59 0.18 0.61 0.7 3.04 2.01 5.4 2.91 3.98 1.52 4.04 1.65 0.91 1.74-5.27 0.16-13.56-2.64-14.38-4.85-0.41-1.1-1.19-1.72-1.73-1.37-0.54 0.34-0.98-0.23-0.98-1.27 0-1.1 0.84-1.57 1.97-1.12 1.53 0.61 1.44-0.04-0.41-2.97-3.16-4.99-1.5-6.37 2.71-2.27 1.85 1.8 3.79 2.83 4.3 2.3 0.52-0.53-0.4-1.94-2.04-3.13s-2.64-2.72-2.23-3.42c1.38-2.31-6.11-3.24-7.86-0.98-0.89 1.15-3.98 2.46-6.87 2.91-5.79 0.89-11.61 5.63-11.61 9.45 0 1.34-0.8 3.28-1.78 4.29-0.98 1.02-1.92 5.35-2.09 9.63-0.52 13.44-3.49 22.39-9.12 27.49-2.75 2.49-5.53 4.54-6.18 4.54-0.64 0 0.98-1.95 3.6-4.34 2.62-2.38 4.5-4.77 4.17-5.32s0.58-2.84 2.02-5.1c4.96-7.78 2.98-9.69-2.57-2.48-6.3 8.18-10.73 12.39-11.83 11.25-0.45-0.47 0.46-2.54 2.03-4.61 3.11-4.08 3.61-6.17 1.5-6.17-0.74 0-1.34 0.95-1.34 2.1s-0.98 2.09-2.17 2.09c-1.55 0-1.89-0.7-1.18-2.44 2.84-6.99 8.74-26.28 8.74-28.59 0-4.93-2.33-1.2-3.02 4.81-0.37 3.29-1.67 8.17-2.89 10.86-1.32 2.91-1.98 3.62-1.65 1.74 0.33-1.83 0.01-2.79-0.77-2.29-0.73 0.47-0.98 2.32-0.54 4.11 0.43 1.79 0.14 3.67-0.66 4.18-3.11 1.99-2.92-1.22 0.7-11.99 2.08-6.18 3.45-11.57 3.04-11.99-1.32-1.37-6.29 12.16-7.84 21.35-1.69 10.06-0.93 16.49 2.39 20.29 1.22 1.39 1.63 2.54 0.9 2.54-2.76 0-7.01-10.37-6.34-15.48 0.46-3.6 0.01-5.55-1.63-6.96-2.11-1.81-2.24-1.27-1.72 7.2l0.56 9.16-3.08-4.71c-3.62-5.52-3.83-9.03-1.03-17.26 2.11-6.18 1.76-10.55-0.72-8.96-2.38 1.52-5.59 11-5.04 14.93 0.75 5.5-1.38 3.32-3.06-3.12-1.04-4.02-1.02-6.33 0.1-8.5 2.04-3.93 0.09-5.15-7.04-4.42-3.57 0.37-5.15 0.07-4.57-0.9 0.53-0.89 0.03-1.13-1.27-0.61-1.35 0.54-5.07-1.53-10.09-5.61-7.57-6.16-14.47-9.88-35.82-19.33-19.96-8.84-23.06-9.38-58.7-10.34-18.18-0.49-34.04-1.41-35.23-2.04-1.19-0.64-6.35-1.59-11.47-2.12-5.12-0.52-10.52-1.45-12-2.06-4.89-2 7.39-1.32 18.21 1 7.47 1.61 19.34 2.24 45.21 2.4 22.42 0.13 36.79 0.79 39.81 1.83 2.6 0.89 8.67 2.86 13.5 4.37 4.82 1.52 11.03 3.78 13.79 5.02 4.73 2.12 4.96 2.11 4.12-0.19-0.67-1.83 0.33-1.48 4 1.4 6.2 4.86 9.17 5.02 4.14 0.22-2.62-2.5-3.03-3.36-1.31-2.79 1.62 0.54 2.28 0.22 1.91-0.92-0.31-0.97-1.57-1.76-2.78-1.77-1.22-0.01-3.27-1.11-4.56-2.44-1.96-2.03-2.01-2.43-0.3-2.43 1.12 0 2.77 0.75 3.66 1.68 1.26 1.3 1.62 1.01 1.62-1.29 0-2.16-1.1-3.21-4.05-3.88-3.57-0.81-3.95-1.36-3.2-4.65 0.47-2.05 1.38-4.33 2.02-5.06 0.65-0.73 1.18-3.33 1.18-5.79 0-2.67 0.81-4.78 2.02-5.26 1.12-0.44 2.03-1.77 2.03-2.94 0-1.18 0.53-1.99 1.19-1.79 0.65 0.19 2.74-1.38 4.65-3.5 1.91-2.11 2.9-3.92 2.19-4.01-0.71-0.1-1.99-0.25-2.86-0.35-3.69-0.41-2.05-3.66 5.36-10.63 7.5-7.06 8.34-7.47 16.41-8.04 8.55-0.6 20.29 2.49 20.29 5.34 0 0.71 1.22 1.28 2.7 1.28s2.71-0.78 2.72-1.74c0.01-1.17 0.35-1.25 1.01-0.26 0.69 1.03 3.6 0.79 9.47-0.78 10.07-2.69 9.97-4.65-0.13-2.24-3.85 0.92-8.52 1.29-10.37 0.82-2.95-0.76-2.36-1.25 4.72-3.93l8.1-3.06-6.07 0.6-6.08 0.59 4.93-1.63c5.94-1.98 32.4-1.45 29.41 0.59-1.66 1.12-1.6 1.6 0.41 3.19 1.3 1.03 2.36 2.91 2.36 4.17 0 1.25 0.81 2.29 1.79 2.29 2.55 0 15.28 12.96 13.38 13.62-0.88 0.3-3.64-1.07-6.14-3.05-5.96-4.7-7.17-4.54-3.72 0.47 1.54 2.23 2.79 4.68 2.79 5.45s3.49 2.46 7.76 3.74c9.23 2.79 11.81 4.06 11.81 5.84 0 0.73 1.67 3.38 3.71 5.89s3.71 4.08 3.71 3.49c0-0.6-1.63-2.84-3.62-5-2-2.15-2.95-3.92-2.13-3.92 0.83 0 3.37 2.35 5.65 5.21 2.97 3.73 4.2 6.81 4.34 10.83l0.19 5.61 0.91-5.58c0.67-4.11 0.28-6.7-1.45-9.78-1.29-2.3-3.88-7.49-5.74-11.52-1.87-4.04-4.04-7.34-4.82-7.34s-1.43-0.83-1.43-1.84c0-5.44-18.69-20.51-25.43-20.51-0.86 0-1.56-0.59-1.56-1.31 0-2.53 2.85-3.1 5.8-1.15 1.64 1.09 4.19 2.43 5.68 2.99 2.4 0.91 2.47 0.79 0.67-1.08-2.24-2.33-12.79-7.24-11.72-5.45 0.37 0.61-7.63 1.12-17.76 1.13-14.62 0.02-19.52 0.53-23.69 2.47-2.9 1.34-5.52 2.19-5.82 1.87-0.3-0.31 2.37-1.69 5.94-3.06 8.11-3.11 7.89-2.9 5.82-5.48-1.24-1.55-3.01-1.9-6.32-1.26-2.52 0.49-7.14 0.16-10.27-0.73-3.85-1.09-8.4-1.22-14.11-0.4-4.64 0.68-8.77 0.88-9.18 0.46-0.41-0.43-18.17-0.89-39.47-1.04s-72.44-0.74-113.63-1.32c-85.93-1.21-82.18-1.21-83.35 0-0.49 0.51-0.11 2.21 0.84 3.79 0.95 1.57 1.43 3.17 1.06 3.56-0.37 0.38-1.62-1.22-2.79-3.56l-2.12-4.24-30.7-0.26c-34.41-0.29-42.11-0.11-43.91 1.05-0.74 0.47-1.15 25.43-1.01 61.04 0.13 33.13 0.21 101.4 0.17 151.72s0.3 95.1 0.75 99.5l0.81 8.01 56.47-0.03c31.05-0.02 56.75-0.53 57.11-1.14 0.93-1.55-15.39-5.32-43.4-10.04-19.16-3.22-21.66-3.87-12.49-3.24 6.31 0.44 16.02 1.68 21.59 2.76 11.49 2.22 17.93 2.47 11.47 0.45-9.42-2.97-30.97-6.23-60.73-9.19-4.45-0.44-10.52-1.29-13.49-1.89l-5.4-1.07 6.07-0.3c3.34-0.17 7.75-0.19 9.79-0.05 5.54 0.38 4.92-3.82-0.68-4.54-3-0.38-2.15-0.63 2.7-0.78 3.98-0.13 7.09-0.88 7.09-1.72 0-0.98-4.57-1.34-13.5-1.04-7.42 0.24-13.5-0.03-13.5-0.61 0.01-0.58 1.68-1.1 3.72-1.16 10.92-0.32 28.1-1 28.75-1.13 0.41-0.08 4.05-3.47 8.09-7.52 4.05-4.05 8.87-8.49 10.73-9.85 3.15-2.31 3.17-2.44 0.44-1.87-1.97 0.41-2.72 0.03-2.29-1.15 0.36-0.96-0.44-2.21-1.79-2.78-4.65-1.96-32.2-2.52-41.5-0.84-5.04 0.9-9.45 1.35-9.8 0.98-0.35-0.36 1.26-1.68 3.58-2.92s3.88-2.82 3.48-3.5c-0.41-0.68 0.63-1.68 2.31-2.24 2.93-0.96 2.94-1.05 0.38-1.98-4.08-1.48 12.17-3.04 21.67-2.07 13.08 1.33 16.89 2.14 16.12 3.42-0.4 0.66 1.26 1.65 3.67 2.19 2.42 0.54 5.92 1.76 7.78 2.72 2.93 1.5 4.43 1.22 11.47-2.16 5.96-2.86 7.23-3.92 4.83-4-5.58-0.18-2.55-1.2 8.13-2.74 5.64-0.81 12.02-2.23 14.17-3.17 2.15-0.93 4.84-1.8 5.98-1.93 6.07-0.7 12.22-3.84 11.78-6.02-0.25-1.28-1.48-2.13-2.75-1.9-1.63 0.28-2.05-0.26-1.45-1.87 0.94-2.54-15.16-20.43-17.86-19.83-0.85 0.19-4.42-2.96-7.93-6.99-6.78-7.8-9.18-8.82-11.46-4.89-1.59 2.74-1.67-25-0.12-42.26 1.04-11.55 0.87-11.75-16.82-19.75-2.97-1.35-5.7-2.64-6.08-2.87-1.17-0.73-3.75 6.97-4.69 14.04-0.55 4.13-0.41 6.47 0.36 5.98 1.82-1.17 4.8-12.95 3.73-14.74-0.5-0.85 0.07-1.51 1.3-1.51 2.47 0 2.44 0.17-3.07 17.04-1.93 5.91-3.97 10.45-4.53 10.09-0.57-0.36 0.15 3.75 1.59 9.13 1.44 5.39 2.56 11.22 2.49 12.96-0.07 1.73-1.23-0.93-2.57-5.92-1.99-7.41-2.46-8.23-2.57-4.48-0.07 2.53 1.93 10.39 4.45 17.46 6.36 17.86 9.3 27.59 8.57 28.34-0.62 0.65-1.27-1.04-9.18-23.86-2.39-6.92-4.94-12.97-5.66-13.45-0.83-0.55-0.89-5.22-0.19-12.57 0.62-6.43 1.14-16.11 1.15-21.5 0.03-12.57-2.22-16.54-20.52-36.25-14.35-15.45-19.65-23.25-21.27-31.29-1.36-6.77 1.35-4.45 4.95 4.22 1.61 3.87 3.96 7.45 5.23 7.95 3.61 1.45 23.17 20.99 22.36 22.35-1.03 1.72 5.44 7.69 7.16 6.59 1.8-1.15 6.01 1.15 13.22 7.24 4.45 3.75 7.09 4.87 12.15 5.15 3.56 0.19 9.1 1.75 12.31 3.45 3.99 2.12 7.06 2.83 9.66 2.24 2.15-0.49 4.19-0.22 4.69 0.61 0.49 0.82 2.52 1.5 4.51 1.52 3.24 0.04 3.37 0.21 1.14 1.55-1.78 1.07-2.91 1.06-3.98-0.05-1.75-1.81-4.99-2.05-4.99-0.37 0 1.24 5.92 4.42 8.24 4.42 0.75 0 0.98-0.65 0.5-1.44-1.99-3.34 15.48 0.15 25.96 5.2 8.56 4.11 18.29 4.99 18.94 1.71 0.44-2.19-3.19-4.6-21.26-14.08-4.08-2.15-8.03-3.94-8.77-3.98-0.74-0.05-3.17-1.7-5.4-3.68-2.22-1.97-3.29-3.17-2.36-2.66 1.11 0.62 1.69-0.11 1.69-2.11 0-2.47 0.36-2.74 1.9-1.41 1.37 1.17 2.17 1.2 2.82 0.1 0.66-1.1 1.47-1.06 2.85 0.13 1.57 1.35 1.78 1.23 1.09-0.63-0.47-1.26-0.28-2.29 0.42-2.29 2.57 0 2.87 1.8 0.82 5.04-2.74 4.33-1.61 7.04 3.42 8.19 2.24 0.51 6.42 2.69 9.29 4.84 5.65 4.24 22.97 14.05 24.8 14.05 2.46 0-2.15-6.97-5.43-8.22-1.94-0.73-2.76-1.38-1.83-1.44 3.31-0.22 1.6-3.99-3.38-7.42-2.78-1.92-8.27-6.71-12.19-10.66s-8.02-7.18-9.11-7.18c-1.08 0-1.98-0.84-1.98-1.88s-2.41-3.01-5.36-4.38c-2.95-1.38-5.02-3.08-4.6-3.77 0.41-0.69-0.06-2.31-1.05-3.59-1-1.27 0.32-0.71 2.92 1.26 5.52 4.18 9.44 5.83 9.44 3.98 0-1.91 3.9-0.17 10.8 4.83 9.53 6.9 10.03 7.15 9.01 4.39-0.76-2.05-0.3-1.97 3.1 0.54 2.2 1.62 4.36 3.55 4.8 4.29 0.44 0.73 6.08 4.94 12.53 9.33 12.3 8.4 12.74 11.8 0.69 5.5-7.57-3.97-16.37-6.71-17.18-5.36-0.72 1.21 5.4 8.61 7.12 8.61 2.24 0 7.01 9.3 6.07 11.84-0.66 1.77-1.97 2.21-5.08 1.71-3.02-0.48-5.05 0.15-7.27 2.25-2.81 2.67-3.69 2.78-10.21 1.37-3.92-0.85-10.39-3.18-14.38-5.17-7.1-3.55-15.29-5.23-10.79-2.22 1.51 1.01 0.77 1.36-2.92 1.37-3.85 0.02-5.71 0.97-8.43 4.32-1.93 2.36-3.5 3.83-3.5 3.25 0-0.57 1.01-2.19 2.24-3.6 1.24-1.41 1.89-2.94 1.45-3.39-0.87-0.89-0.99-0.75-13.12 15.24-4.55 6.01-8.06 11.6-7.79 12.42 0.44 1.39 12.38-14.03 13.61-17.58 0.3-0.86 0.92-1.2 1.39-0.76 0.46 0.44-2.79 5.75-7.24 11.79-4.44 6.05-8.08 11.43-8.08 11.95 0 1.15 4.13 4.83 5.27 4.7 0.44-0.05 1.94 1.4 3.32 3.23 1.39 1.82 7.01 5.58 12.49 8.35 5.48 2.76 9.96 5.46 9.96 6 0 0.53 3.53 3.53 7.85 6.67l7.85 5.7 16.78-1.27c9.22-0.7 21.94-2.23 28.24-3.4 6.31-1.18 17.51-2.14 24.88-2.14 13.2 0 13.53-0.08 21.25-5.24 4.95-3.31 7.65-6.01 7.32-7.33-0.28-1.15-1.27-5.24-2.2-9.08-4.27-17.68-5.6-21.51-10.29-29.68-2.76-4.8-5.85-8.73-6.87-8.73s-1.5-0.6-1.05-1.34c2.06-3.47 13.35 5.54 17.44 13.91 2.22 4.53 4.12 14.31 7.49 38.5 1.5 10.81 3.99 23.38 5.52 27.94 1.52 4.56 3.42 10.49 4.21 13.18 0.78 2.69 4.76 12.11 8.83 20.95 4.07 8.83 7.94 17.48 8.59 19.2 0.65 1.73 1.81 3.15 2.57 3.15s1.38 1.49 1.38 3.32c0 1.82 0.91 4.1 2.03 5.06 2.34 2.01 2.76 4.83 0.5 3.38-0.94-0.6-1.27-0.23-0.85 0.96 0.38 1.07 1.34 1.79 2.15 1.61 0.85-0.19 1.11 0.64 0.62 1.98-0.52 1.4-0.31 1.95 0.53 1.41s1.24 0.52 1.01 2.69c-0.21 1.97-0.03 3.22 0.4 2.77 0.42-0.44 2.56 1.71 4.73 4.77 2.18 3.06 4.41 5.57 4.95 5.57 0.55 0 3.83 2.82 7.31 6.26 10.09 10.01 27.33 17.48 40.33 17.48 2.81 0 5.12 0.63 5.12 1.4 0 3.25 3.89 0.81 11.73-7.35l8.37-8.71 4.91-19.56c2.7-10.75 5.68-20.81 6.61-22.34 2.6-4.29 5.06-34.55 5.43-66.84l0.33-29.11-7.23 0.93c-7.13 0.92-7.33 0.85-14.45-5.45-3.97-3.51-7.59-6.39-8.03-6.39s-1.18 2.36-1.64 5.24c-1.94 12.24-3.94 20.78-5.46 23.4-0.89 1.53-2.05 5.29-2.57 8.35s-3.75 11.86-7.19 19.56c-6 13.44-7.69 22.03-5.64 28.7 0.36 1.17 0.05 2.37-0.69 2.66-1.22 0.48-12.58-21.14-12.75-24.26-0.04-0.72 1.86 1.3 4.23 4.49l4.3 5.79 2.41-9.83c1.32-5.41 5.16-15.56 8.52-22.57 6.26-13.06 7.2-16.39 4.65-16.39-0.9 0-1.14-1.51-0.62-3.94 1.37-6.46-1.13-10.76-8.29-14.25-3.57-1.75-8.44-4.65-10.8-6.46-2.36-1.8-4.87-3.28-5.58-3.28-2.23 0-2.91 5.77-2.92 25.02-0.01 10.31-0.35 18.4-0.76 17.98-0.71-0.73-3.32-42.17-4.04-64.07-0.29-8.76 0.01-10.59 1.72-10.59 1.14 0 2.37 1.15 2.73 2.56 0.35 1.41 1.13 2.56 1.72 2.56 0.6 0 2.2 0.37 3.56 0.81 2.16 0.71 2.21 0.58 0.45-1.05-2.53-2.33-3.2-5.35-1.19-5.35 1.04 0 0.98-0.67-0.19-2.13-0.94-1.17-1.34-2.51-0.89-2.97 1.26-1.31 18.83 6.82 21.57 9.97 2.41 2.79 2.42 2.78 1.53-0.68-0.62-2.4-0.46-3.05 0.51-2.09 0.77 0.77 1.76 3.28 2.18 5.58 0.43 2.31 0.42 3.41-0.01 2.45-1.14-2.49-3.34-2.17-2.41 0.35 0.43 1.15 1.62 2.09 2.66 2.09 1.03 0 1.88 0.95 1.88 2.1s0.64 2.09 1.42 2.09c0.79 0 1.06-0.62 0.6-1.39s-0.49-1.4-0.07-1.4c0.43 0 2.13 2.7 3.79 6 7.57 15.03 12.45 19.76 21.92 21.26 5.04 0.8 5.57 0.55 8.01-3.77 1.43-2.55 2.65-5.26 2.7-6.03 0.11-1.75 8.93-0.94 11.25 1.03 2.46 2.09 3.48 0.4 1.77-2.91-1.11-2.14-1-3.29 0.48-4.82 1.44-1.49 1.54-2.4 0.4-3.59-2.19-2.26-4.12-1.96-3.2 0.51 1.13 3.07-1.51 2.56-3.14-0.6-1.46-2.81-1.92-8.48-0.7-8.48 0.39 0 3.11 1.57 6.05 3.5 2.94 1.92 6.79 3.49 8.56 3.49s4.85 1.33 6.84 2.95c2 1.62 3.82 2.72 4.05 2.44 0.23-0.27 1.1-1.84 1.92-3.48 1.27-2.54 2.36-2.87 7.44-2.28l5.95 0.69 4.94-10.47c4.16-8.85 5.55-10.6 8.93-11.3 3.62-0.75 10.74 0.88 10.74 2.47 0 0.35-2.22 0.27-4.93-0.18-3.58-0.61-4.66-0.39-3.95 0.8 0.53 0.9 1.39 1.4 1.89 1.1 0.51-0.31 2.11-0.1 3.57 0.45 1.77 0.66 3.57 0.11 5.4-1.65 2.21-2.14 2.73-4.33 2.67-11.3-0.05-4.76-0.51-11.17-1.03-14.24s-0.57-4.75-0.11-3.73c0.6 1.32 1.96 0.52 4.73-2.79l3.9-4.66-0.71 4.67c-0.98 6.41-0.97 6.34-0.79 7.85 0.32 2.66 5.78-9.83 6.24-14.26 0.43-4.2 0.17-4.54-3.48-4.54-2.17 0-3.95-0.63-3.95-1.4 0-2-3.68-1.72-4.6 0.35-0.42 0.96-0.41 0.18 0.03-1.74s1.64-4.19 2.68-5.05c2.89-2.37 2.25-3.41-1.26-2.03-1.73 0.69-3.92 0.75-4.86 0.15-2.61-1.68 0.43-6.47 5.19-8.19 5.14-1.85 9.33-0.74 13.95 3.69 2.52 2.42 3.71 2.92 3.69 1.56-0.02-2.67-1.55-4.9-4.02-5.88-1.25-0.49-0.73-0.84 1.38-0.91 1.94-0.06 5.59 1.77 8.5 4.25 5.44 4.63 8.39 4.52 4.29-0.17-3.15-3.59-1.95-4.98 1.51-1.75 6.11 5.71 8.61 10.52 8.61 16.61 0 3.35 0.6 6.1 1.35 6.1 0.74 0 1.35-3.06 1.35-6.79 0-5.94-0.68-7.59-5.43-13.17-3.41-4.01-4.88-6.73-3.95-7.33 2.13-1.35 7.95 4.7 10.8 11.22 2.34 5.38 2.44 5.44 2.53 1.61 0.2-8.22-7.89-19.08-12.77-17.15-1.19 0.48-1.58 0.02-1.09-1.29 0.5-1.36-0.15-2.02-1.98-2.02-3.97 0-15.41 5.34-14.54 6.8 0.41 0.68-1.94 0.92-5.22 0.53-4.6-0.53-7.06 0.01-10.77 2.39-4.74 3.03-6.75 2.06-2.79-1.34 1.11-0.96 2.02-3.21 2.02-5.01 0-6.61 5.81-31.24 7.94-33.68 4.57-5.22 7.14-10.62 6.56-13.76-0.76-4.16 0.85-6.85 3.49-5.8 4.23 1.68 5.37 24.13 1.6 31.67-2.99 5.97-3.35 5.25-1.03-2.04 1.56-4.89 1.7-8.04 0.66-14.32-1.3-7.87-1.33-7.92-1.5-2.11-0.1 3.27-0.72 5.94-1.4 5.94-0.67 0-0.93-1.42-0.57-3.14l0.65-3.15-2.79 3.28c-1.53 1.8-3.44 5.89-4.24 9.08s-2.72 10.3-4.26 15.79-2.43 10.99-1.97 12.22c1.11 3.01 6.92 2.83 11.42-0.35 2.02-1.41 6.19-4.22 9.29-6.23 7.2-4.67 13.14-12.61 12.2-16.32-0.39-1.54-0.16-3.15 0.52-3.58 0.67-0.43 1.22-2 1.22-3.49 0-1.5 0.49-2.72 1.08-2.72 1.86 0-0.43 14.43-3.11 19.56-3.32 6.36-3.58 8.38-1.22 9.32 2.27 0.9 6.25-2.09 5.18-3.89-0.41-0.68 0.21-1.24 1.36-1.24 1.21 0 2.11-1.19 2.11-2.79 0-3.89-2.45-3.49-4.3 0.69-0.84 1.93-2.45 3.5-3.58 3.5-1.61 0-1.45-0.67 0.73-3.15 1.52-1.72 3.73-5.02 4.9-7.33 1.18-2.3 2.16-3.4 2.19-2.43s1.73 3.68 3.77 6.04 5.35 7.54 7.36 11.51c2.27 4.5 3.66 6.17 3.68 4.44 0.05-4.5-4.53-13.64-9.83-19.61-2.7-3.05-4.91-6.03-4.92-6.63-0.02-3.91 15.35 12 17.69 18.3 1.52 4.1 1.53 6.22 0.03 5.26-0.64-0.41-1.47 3.54-1.83 8.8-0.36 5.25-1.66 11.62-2.88 14.15-2.46 5.1-2.97 10.4-0.87 9.06 0.74-0.48 1.35-1.98 1.35-3.35 0-2.9 6.27-6.51 7.06-4.06 0.35 1.08 1.36 1.04 3.46-0.12 5.51-3.06 3.03-0.61-3.92 3.86-5.75 3.71-6.76 4.95-6.09 7.55 0.44 1.7 0.86 4.04 0.93 5.2 0.07 1.15 0.99 0.21 2.05-2.1l1.92-4.19-0.83 5.23-0.83 5.23 5-2.16c2.75-1.19 5.7-1.92 6.56-1.62s-1.17 1.47-4.51 2.62c-4.18 1.42-6.92 3.49-8.77 6.59-4.6 7.69-12.93 18.47-14.6 18.9-0.88 0.22-3.55 1.07-5.94 1.88-3.17 1.07-4.26 1.04-4.05-0.11 0.38-2.01-4.82-2.83-10.68-1.7-5.2 1.01-6.15 3.55-1.34 3.55 1.77 0 3.99 0.97 4.94 2.16 0.96 1.19 2.5 1.86 3.43 1.49s1.98 0.09 2.33 1.03c0.99 2.66 11.39 9.64 13.35 8.96 1.03-0.36-0.07-1.6-2.63-2.97-2.41-1.3-4.38-3.02-4.38-3.82s1.6-0.16 3.55 1.43c4.74 3.86 7.95 3.66 17.46-1.11 8.17-4.09 19.41-7.35 15.42-4.48-1.11 0.8-2.94 1.47-4.06 1.48-3.68 0.04-18.8 8.43-20.25 11.24-1.63 3.15-10.04 3.91-11.15 1.01-0.9-2.36-9.07-7.18-9.07-5.35 0 0.79 1.54 2.48 3.42 3.76 1.88 1.27 3.24 2.49 3.03 2.71s-8.27-2.35-17.92-5.71-16.44-6.14-15.1-6.17c1.34-0.04 2.06-0.7 1.61-1.47-1.14-1.9-9.74-1.77-10.89 0.16-0.51 0.85-4.32 3.1-8.47 5-4.14 1.9-8.28 4.56-9.19 5.91-0.92 1.34-5.49 4.28-10.18 6.52l-8.51 4.06 6.41 0.43c10.73 0.71 8.27 2.82-7.76 6.68-5.42 1.3-13.26 5.45-15.43 8.16-0.97 1.2-2.81 2.19-4.09 2.19-5.68 0-9.6 11.2-10.27 29.34-0.53 14.5-1.78 32.45-2.74 39.31l-0.72 5.09 7.18 1.14c11.14 1.76 24.61 0.75 38.07-2.86 6.76-1.81 16.42-3.75 21.46-4.3 10.07-1.11 11.15-2.39 2.03-2.42l-5.8-0.01 6.08-2.09c4.78-1.65 18.1-2.32 62.75-3.14 50.85-0.93 57.65-1.33 66.12-3.84 5.2-1.55 13.09-3.5 17.55-4.35 13.16-2.51 33.42-9.73 37.78-13.46l4.05-3.47-0.44-40.17c-0.44-39.12-0.11-45.13 4.64-85.56 2.62-22.36 2.55-34.04-0.28-48.07-2.04-10.12-2.88-11.89-8.05-17.01-4.29-4.26-7.61-6.14-12.97-7.36-3.95-0.9-11.14-2.55-15.96-3.67-19.45-4.5-56.32-8.62-80.25-8.97-9.62-0.14-17.77-0.54-18.1-0.88-0.34-0.35 4.19-0.65 10.07-0.66 7.39-0.01 10.06-0.44 8.66-1.37-4.96-3.32 34.5-1.27 67.47 3.51 37.47 5.43 42.54 6.43 44.95 8.9 1.35 1.37 3.29 6.53 4.33 11.45 7.18 34.21 6.83 29.65 4.15 53.86-1.36 12.18-3.03 26.55-3.73 31.92-0.7 5.38-1.11 22.35-0.9 37.72 0.21 15.36 0.39 36.31 0.42 46.55l0.04 18.61-5.4 4.86c-7.67 6.92-7.73 6.95-17.25 12.37-8.18 4.66-13.42 6.59-9.07 3.35 1.69-1.25 1.61-1.36-0.44-0.67-1.36 0.45-3.03 0.83-3.71 0.83-0.69 0-1.24 0.87-1.24 1.93s-1.22 2.26-2.7 2.66c-1.49 0.4-2.41 0.24-2.04-0.37 0.36-0.61-0.7-1.49-2.36-1.95-4.96-1.38-15.62-0.99-16.57 0.61-0.61 1.02 1.67 1.18 7.34 0.51 5.69-0.66 8.23-0.48 8.23 0.59 0 1.85-2.24 2.39-18.22 4.44-6.68 0.85-13.05 2.38-14.17 3.39-2.41 2.19-6.87 3.16-19.57 4.25-5.19 0.44-11.26 1.08-13.49 1.41s-7.69 0.97-12.15 1.42c-12.12 1.22-48.39 7.38-52.12 8.84-4.28 1.69-30.64 7.16-41.28 8.58-4.61 0.61-12.2 3.03-16.87 5.37-4.66 2.34-10.18 4.91-12.25 5.72-2.07 0.8-7.38 4-11.81 7.11-4.42 3.11-8.04 5.01-8.04 4.22s1.22-2.23 2.7-3.19c3.54-2.28 3.42-3.52-0.32-3.32-1.91 0.1-3.17 1.18-3.44 2.95-0.23 1.54-2.32 8.62-4.64 15.75-3.42 10.52-4.79 13.1-7.31 13.76-1.71 0.44-4.7 3.41-6.66 6.6-1.95 3.19-6.06 7.81-9.14 10.27s-7.21 6.04-9.17 7.96c-3.4 3.3-3.61 3.34-4.26 0.75zm0.41-11.02l6.07-1.12-8.41-0.17c-6.24-0.13-10.43-1.2-16.2-4.11-9.4-4.75-13.75-7.3-16.89-9.91-4.16-3.45-3.84-0.78 0.4 3.43 6.28 6.22 18.88 12.97 24.23 12.99 2.6 0 7.46-0.5 10.8-1.11zm-52.63-16.05c0-0.35-1.18-2.7-2.61-5.24-4.35-7.72-8.22-19.1-6.8-20.01 1.87-1.2 1.61-2.31-1.47-6.26l-2.72-3.49 0.89 6.98c0.7 5.54 0.53 6.64-0.8 5.34-0.92-0.9-2.12-6.39-2.67-12.2s-1.71-11.45-2.58-12.53-1.8-3.83-2.08-6.12c-0.28-2.28-2.16-7.85-4.17-12.37-5.45-12.24-9.75-24.46-12.6-35.8l-2.55-10.13-5.9-0.07c-3.24-0.04-9.54-0.87-13.99-1.85-5.68-1.24-9.11-1.35-11.47-0.36l-3.38 1.41 3.79 0.09c5.13 0.12 16.14 2.95 17.8 4.58 0.85 0.83-1.14 0.89-5.39 0.16-7-1.21-33.59-1.13-46.59 0.14-10.1 0.98-39.88 7.62-58.68 13.08-22.97 6.68-29.83 9.14-31.97 11.47-1.26 1.37-2.8 2.72-3.43 2.99s-2.51 2.81-4.18 5.64c-2.52 4.27-2.89 6.33-2.16 12.04 0.49 3.79 1.35 7.67 1.92 8.62 0.63 1.06 7.28 2.29 17.39 3.2 9 0.82 16.36 2.01 16.36 2.65s-1.36 1.21-3.03 1.27c-1.83 0.06-0.12 1.17 4.31 2.8 4.04 1.48 7.72 3.32 8.17 4.08 0.82 1.38 16.93 8.38 19.28 8.38 0.67 0-1.42-2.27-4.65-5.04-3.22-2.77-6.15-5.33-6.51-5.68-0.35-0.35 1.11 0.06 3.25 0.9 3.95 1.55 7.73 4.05 23.98 15.84 4.96 3.6 9.42 6.55 9.91 6.55 0.48 0 2.58 1.25 4.65 2.78 6.12 4.5 24.58 8.37 40.04 8.38 12.14 0.01 43.4 2.8 55.46 4.95l4.38 0.78 0.14-6.7 0.13-6.7 1.89 6.29c1.04 3.45 2.92 7.07 4.17 8.03 2.28 1.74 4.47 2.29 4.47 1.13zm8.17-5.36c-1.73-1.71-2.66-2.16-2.07-1.01 1.88 3.68 3.71 5.68 4.47 4.88 0.41-0.42-0.67-2.16-2.4-3.87zm-4.12-6.6c0-0.77-0.65-1.39-1.43-1.39-0.79 0-1.06 0.62-0.6 1.39s1.1 1.4 1.43 1.4 0.6-0.63 0.6-1.4zm-116.06-2.14c0-0.41-2.88-2.03-6.41-3.59-3.52-1.57-8.23-3.68-10.46-4.71-6.88-3.17-21.3-7.72-24.21-7.65-1.53 0.04 2.96 2.23 9.97 4.86 7.01 2.64 14.66 5.74 17.01 6.89 9.13 4.48 14.1 5.96 14.1 4.2zm-51.28-13.84c0-0.34-0.61-1-1.35-1.48-0.74-0.47-1.35-0.19-1.35 0.62s0.61 1.48 1.35 1.48 1.35-0.28 1.35-0.62zm268.94-10.44c3.87-3.01 9.76-6.56 13.1-7.89 6.49-2.59 9.01-4.32 7.92-5.45-0.96-0.99-19.89 8.58-25.12 12.7-3.89 3.07-5.71 6.11-3.66 6.11 0.41 0 3.9-2.46 7.76-5.47zm-0.39 4.07c0-0.76-0.27-1.39-0.6-1.39-0.32 0-0.97 0.63-1.43 1.39-0.45 0.77-0.19 1.4 0.6 1.4s1.43-0.63 1.43-1.4zm-12.57-3.05c-0.44-1.12-0.76-0.78-0.82 0.84-0.06 1.48 0.26 2.3 0.71 1.84 0.45-0.47 0.5-1.67 0.11-2.68zm6.76-1.98c2.08-2 6.12-4.87 8.98-6.38 2.85-1.51 4.87-3.08 4.48-3.48-1.03-1.07-14.79 6.28-16.76 8.95-1.69 2.29-2.22 4.55-1.08 4.55 0.33 0 2.3-1.64 4.38-3.64zm27.95-5.29c4.38-2.02 7.58-4.08 7.11-4.56-1.98-2.05-26.55 9.2-26.55 12.16 0 1.19 2.58 0.18 19.44-7.6zm-299.1 6.74c-1.11-1.15-16.65-4.36-25.33-5.24-4.08-0.41-10.76-1.2-14.84-1.74-11.75-1.56-7.1 0.58 6.19 2.85 26.88 4.6 35.44 5.64 33.98 4.13zm-51.64-7.59c-0.46-0.77-1.71-1.4-2.78-1.4s-1.95 0.63-1.95 1.4 1.25 1.4 2.78 1.4 2.41-0.63 1.95-1.4zm329.54-3.31c5.05-2.59 10.09-5.11 11.2-5.59 1.12-0.48-1.01-0.5-4.72-0.04s-7.81 1.42-9.11 2.14c-1.49 0.83-2.36 0.81-2.36-0.04 0-0.74 1.21-1.75 2.7-2.24 1.48-0.49 2.69-1.31 2.69-1.84-0.02-1.16-7-4.64-7.75-3.86-0.64 0.66-2.76 16.18-2.21 16.18 0.2 0 4.51-2.12 9.56-4.71zm-310.65-0.29c-1.48-1.17-3.73-1.84-5-1.5-1.26 0.34-2.51-0.06-2.78-0.89-0.29-0.92-1.48-1.06-3.1-0.36-2.17 0.95-1.57 1.45 3.46 2.91 8.59 2.5 10.76 2.46 7.42-0.16zm188.72-1.35c-0.44-1.18-1.09-1.85-1.44-1.49-0.36 0.37-0.25 1.34 0.24 2.16 1.33 2.23 2.11 1.79 1.2-0.67zm176.99-2.81c27.31-6.35 39.03-8.73 54.66-11.09 21.66-3.27 24.42-5.13 6.07-4.11-9.8 0.55-21.26 2.43-33.74 5.53-10.39 2.59-25.87 6.04-34.41 7.68-8.54 1.63-16.1 3.55-16.8 4.27-2.32 2.34 8.93 1.28 24.22-2.28zm-384.6 0.78c-0.46-0.77-1.98-1.4-3.38-1.4-1.39 0-2.91 0.63-3.37 1.4-0.49 0.81 0.91 1.39 3.37 1.39s3.87-0.58 3.38-1.39zm16.87-2.19c0-0.44-0.63-2-1.39-3.48-1.18-2.27-1.8-2.42-4.05-0.97-3.15 2.04-3.57 4.5-0.57 3.31 1.2-0.48 1.75-0.24 1.27 0.55-0.45 0.76 0.43 1.38 1.96 1.38s2.78-0.36 2.78-0.79zm377.18-6.95c17.07-3.51 33.41-7.03 36.3-7.81 2.9-0.79 16.44-1.6 30.09-1.8 17.21-0.26 25.32-0.89 26.45-2.07 1.27-1.32-4.53-1.53-26.72-0.98-28.07 0.71-41.2 1.8-42.5 3.55-0.38 0.49-6.45 2.05-13.5 3.46-23.91 4.76-47.23 10.82-47.23 12.27 0 0.82 1.32 1.08 3.03 0.61 1.67-0.47 17.01-3.72 34.08-7.23zm-387.92-0.12c4.41-4.74 5.01-5.8 2.25-3.99-2.07 1.36-4.38 3.65-5.13 5.1s-1.87 2.31-2.49 1.92c-0.62-0.4-1.88 0.21-2.8 1.35-1.34 1.68-1.3 2.08 0.24 2.08 1.05 0 4.62-2.91 7.93-6.46zm3.31 2.27c2.14-2.3 3.28-4.19 2.53-4.19-0.74 0-3.09 1.89-5.23 4.19-2.13 2.31-3.27 4.19-2.52 4.19 0.74 0 3.09-1.88 5.22-4.19zm375.16-5.79c1.8-0.81 0.49-0.99-3.93-0.55-3.65 0.37-7.3 1.36-8.1 2.21-1.63 1.73 7.17 0.51 12.03-1.66zm-367.61-15.71c-0.86-1.06-3.21-2.29-5.23-2.72s-8.48-1.81-14.37-3.08c-7.59-1.62-12.9-1.97-18.22-1.2l-7.51 1.09 11.47 1.11c6.31 0.6 16.63 2.32 22.94 3.81 6.31 1.48 11.7 2.76 11.97 2.82 0.28 0.06-0.2-0.76-1.05-1.83zm65.71-25.77c0.31-0.98-1.04-1.61-3.42-1.61-4.76 0-6.2 1.22-4.28 3.63 1.62 2.01 6.84 0.64 7.7-2.02zm38.08-5.2c16.23-1.18 21.69-2.09 20.86-3.49-0.43-0.72-3.02-1.02-5.76-0.66s-14.49 1.7-26.11 2.98c-21.23 2.35-25.11 3.3-23.62 5.79 0.5 0.84 5.32 0.35 12.66-1.27 6.51-1.44 16.4-2.95 21.97-3.35zm-44 1.02c0.75-1.25-14.65-13.51-18.91-15.06-1.4-0.51 1.08 2.93 5.51 7.65 7.47 7.95 11.69 10.28 13.4 7.41zm104.27-6.51c0-1.16-0.5-2.1-1.12-2.1-1.35 0-1.48 1.96-0.23 3.26 1.26 1.29 1.35 1.21 1.35-1.16zm-4.63-4.85c4.65-4.38 3.44-5.98-1.34-1.79-1.54 1.35-3.91 3.19-5.27 4.11-2.28 1.53-2.29 1.67-0.14 1.75 1.29 0.04 4.33-1.79 6.75-4.07zm105.87-17.07c-0.43-1.11-0.75-0.78-0.82 0.85-0.06 1.47 0.26 2.3 0.71 1.83 0.45-0.46 0.5-1.67 0.11-2.68zm1.78-7.5c0-1.11-0.61-2.01-1.35-2.01-0.75 0-1.35 1.29-1.35 2.87 0 1.59 0.6 2.49 1.35 2.02 0.74-0.48 1.35-1.77 1.35-2.88zm-12.86-2.05c-3.34-3.82-11.37-8.87-12.41-7.8-0.45 0.47-0.57 1.08-0.26 1.36s3.52 2.81 7.14 5.64c6.83 5.33 9.88 5.77 5.53 0.8zm19.07-3.78c-1.08-1.11-1.64-0.35-2.8 3.82l-0.97 3.49 2.29-3.23c1.26-1.78 1.92-3.61 1.48-4.08zm-7.08 0.33c-0.42-1.16-1.01-2.1-1.3-2.1-0.3 0-0.53 0.94-0.53 2.1 0 1.15 0.58 2.09 1.3 2.09s0.96-0.94 0.53-2.09zm1.23-7.78c-0.48-1.92-1.18-2.42-2.07-1.49-1.61 1.67-0.2 6.3 1.57 5.16 0.68-0.43 0.9-2.08 0.5-3.67zm-28.85 0.7c2.36 1.51 1.75-0.35-1.09-3.28-3.13-3.24-4-2.64-3.11 2.14 0.43 2.33 1.01 2.99 1.68 1.88 0.56-0.94 1.69-1.27 2.52-0.74zm21.86-0.37c-1.58-3.05-5.52-6.64-5.52-5.04 0 1.12 5.42 7.6 6.36 7.6 0.26 0-0.11-1.15-0.84-2.56zm-237.23-6.92c1.76-3.62 4.05-7.99 5.09-9.72 1.72-2.85 1.56-3.46-1.88-6.98-3.71-3.8-3.79-3.82-5.8-1.06-1.96 2.69-2.01 2.65-1.17-0.89 0.98-4.14-1.61-6.95-3.52-3.83-1.59 2.6-1.59 16.16 0 14.43 0.67-0.73 1.53-2.59 1.91-4.12 0.38-1.54 0.36 0.52-0.05 4.58-1.78 17.69-0.41 19.61 5.42 7.59zm226.31 0.43c0-0.36-1.82-1.63-4.05-2.82-5.07-2.72-5.38-1.54-0.33 1.29 4.24 2.38 4.38 2.43 4.38 1.53zm9.98-4.11c-0.81-2.17-4.58-4.18-4.58-2.44 0 0.59 0.73 1.83 1.62 2.75 2.21 2.28 3.85 2.11 2.96-0.31zm146.83 0.31c-0.89-0.92-1.62-2.76-1.62-4.08 0-3.63-8.48-8.52-12.82-7.39-4.31 1.12-3.23 2.27 4.46 4.77 5.94 1.93 9.9 5.29 4.53 3.84-3.97-1.08-3.66-0.16 0.8 2.34 4.51 2.53 6.85 2.8 4.65 0.52zm-44.22-5.47c-1.36-2.28-3.28-1.27-3.28 1.73 0 2.46 0.34 2.67 2.01 1.24 1.11-0.95 1.68-2.29 1.27-2.97zm-108.54-2.47c0-0.68-1.25-1.57-2.78-1.99-2.27-0.61-2.49-0.39-1.18 1.24 1.78 2.22 3.96 2.63 3.96 0.75zm130.19-7.08c2.29-4.57 2.79-14.04 0.75-14.04-0.72 0-0.98 0.89-0.57 1.97 0.68 1.84-0.62 8.12-2.84 13.75-1.6 4.04 0.45 2.75 2.66-1.68zm-352.86 1.38c0-0.74-1.21-2.02-2.69-2.84-2.98-1.65-3.63-0.13-1.08 2.51 1.95 2.02 3.77 2.18 3.77 0.33zm357.15-0.81c1.1-2.95-0.73-4.54-2.28-1.99-1.65 2.7-1.62 4.15 0.09 4.15 0.77 0 1.75-0.97 2.19-2.16zm7.15-1.25c1.49-1.86 7.01-3.75 12.55-4.28 2.71-0.26 3.18 1.52 0.67 2.57-0.92 0.39-0.33 0.75 1.31 0.82 2.01 0.07 2.76-0.53 2.29-1.81-0.4-1.07 0.35-2.22 1.73-2.63 1.34-0.4 3.65-1.17 5.13-1.71 2.11-0.77 2.27-0.67 0.72 0.46-2.77 2.02-0.8 3.59 2.22 1.78 1.35-0.82 1.97-1.51 1.37-1.53s-0.62-0.83-0.04-1.79 1.21-3 1.41-4.54c0.34-2.62 0.25-2.64-1.47-0.32-1.04 1.4-2.75 2.11-3.93 1.64-1.15-0.46-3.35-0.13-4.89 0.72-3.41 1.89-3.72 0.38-0.45-2.19 2.22-1.74 2.2-1.85-0.33-1.87-4.67-0.02-14.17 5.26-15.46 8.6-0.76 1.95-1.28 2.35-1.33 1.02-0.04-1.19 0.81-3.39 1.9-4.89 3.43-4.7 2.23-5.49-1.98-1.31-2.23 2.21-4.05 3.31-4.05 2.44s0.61-1.97 1.35-2.44 1.35-1.55 1.35-2.39c0-0.85-1.22-0.4-2.7 0.99-4.45 4.17-3.04 0.16 1.5-4.27 5.92-5.79 13.24-17.81 9.31-15.29-0.78 0.5-0.98-0.1-0.49-1.43 0.65-1.74 1.1-1.86 1.9-0.52 0.67 1.12 1.39-0.25 1.95-3.73 1.33-8.15 1.8-8.88 1.92-2.97 0.05 2.92-0.85 7.2-2 9.52-2.88 5.75-1.79 8.03 1.87 3.96 3.68-4.09 6.94-14.9 6.01-19.94-1.08-5.84-2.51-4.38-2.15 2.2 0.28 5.24 0.19 5.44-0.75 1.72-1.32-5.26-5.11-11.36-7.68-12.39-2.44-0.97-2.43 0.89 0.08 9.43 1.97 6.73 1.67 10.07-0.77 8.51-0.69-0.44-1.26-0.1-1.26 0.75 0 2.79-5.45 14.03-8.15 16.84-3.28 3.38-3.27 3.2 0.06-3.56 2.75-5.59 3.53-10.48 1.66-10.48-0.57 0-2.39 3.62-4.05 8.03-2.85 7.57-3.11 11.4-1.81 26.54 0.2 2.37 3.5 2.21 5.48-0.26zm27.93-18.2c-0.41-1.13-0.24-2.38 0.4-2.79 2.27-1.45 6.72-11.82 5.43-12.65-0.72-0.46-1.3-1.58-1.28-2.5 0.01-1.27 0.25-1.28 1.03 0 0.57 0.91 1.08-0.8 1.16-3.85 0.08-3.02-0.07-5.49-0.32-5.49-0.26 0-2.08 3.43-4.07 7.62-1.98 4.19-4.2 7.49-4.93 7.33-0.74-0.16-1.58 1.44-1.89 3.56-0.35 2.47 0.07 3.86 1.19 3.89 0.95 0.02 0.29 0.87-1.46 1.88-2.79 1.6-2.9 1.95-0.89 2.75 1.26 0.5 2.85 0.56 3.53 0.13 0.67-0.43 1.23-0.12 1.23 0.69 0 0.82 0.37 1.48 0.82 1.48s0.47-0.92 0.05-2.05zm-442.72-5.98c-1.47-1.53-2.03 0.46-1.1 3.9l0.93 3.43 0.48-3.26c0.26-1.79 0.12-3.63-0.31-4.07zm103.79 1.04c-1.75-2.94-22.26-12.03-22.26-9.87 0 0.69 4.1 2.89 9.11 4.88 5.01 2 10.02 4.25 11.13 4.99 2.6 1.74 3.07 1.74 2.02 0zm332.61-9.69c-0.03-1.39-0.74-0.92-1.98 1.32-2.52 4.57-2.49 7.04 0.05 3.57 1.09-1.49 1.96-3.69 1.93-4.89zm-128.06-14.86c1.25-1.56 0.37-3.38-1.64-3.38-1.53 0-6.55 10.49-6.55 13.68 0 5.32 1.97 4.39 4.43-2.09 1.39-3.67 3.08-7.37 3.76-8.21zm110.57 7.8c0-5.6-3.5-11.18-7.01-11.18-0.88 0-0.28 1.28 1.34 2.84s3.33 5.33 3.8 8.38c1.1 7.09 1.87 7.07 1.87-0.04zm-90.38-4.68c-0.62-1.65-1.8-2.85-2.61-2.66-0.81 0.2-1.48-0.7-1.48-1.98 0-3.71-1.09-1.57-2.49 4.87-1.2 5.5-1.1 5.88 1.27 5.1 1.63-0.53 2.59-0.17 2.61 1 0.03 1.19 0.72 0.92 1.94-0.74 1.25-1.72 1.51-3.59 0.76-5.59zm108.85 0.84c-0.34-1.35-0.62-0.25-0.62 2.44s0.28 3.79 0.62 2.44c0.34-1.34 0.34-3.54 0-4.88zm-23.87-0.35c0-0.77-0.95-1.4-2.11-1.4-1.15 0-1.72 0.63-1.27 1.4 0.46 0.76 1.41 1.39 2.11 1.39s1.27-0.63 1.27-1.39zm-120.11-2.84c0-0.63 1.07-1.44 2.36-1.79 1.95-0.52 1.88-0.67-0.4-0.8-2.73-0.16-6.01 2.17-6.01 4.26 0 0.6 0.92 0.72 2.03 0.27 1.11-0.44 2.02-1.31 2.02-1.94zm8.59-4.46c-0.5-0.84-1.28-0.64-1.99 0.51-1.84 3.01-1.38 4.49 0.81 2.61 1.11-0.95 1.64-2.35 1.18-3.12zm-11.96 0.31c2.39-1.06 2.28-1.21-1.01-1.3-2.04-0.05-3.71 0.53-3.71 1.3 0 1.64 1.03 1.64 4.72 0zm11.09-3.84c6.67-3.2 11.92-8.09 9.99-9.32-0.8-0.52-4.81 1.68-8.91 4.88-9.74 7.61-10.01 8.71-1.08 4.44zm9.36 0.29c1.22-3.28-0.1-3.66-1.96-0.57-1.04 1.72-1.13 2.73-0.24 2.73 0.77 0 1.76-0.97 2.2-2.16zm-40.4-3.54c-2.77-2.37-4.72-4.84-4.33-5.49 0.97-1.64-0.48-2.38-6.77-3.44l-5.39-0.92 3.04 2.76c1.67 1.52 3.04 3.37 3.04 4.12 0 1.54 10.38 7.09 13.46 7.2 1.1 0.04-0.27-1.87-3.05-4.23zm23.46 1.32c2.52-0.87 5.5-2.51 6.61-3.64 1.79-1.82 1.64-1.95-1.35-1.06-1.85 0.55-5.19 1.82-7.42 2.82s-4.96 2.14-6.07 2.53c-1.35 0.47-1.08 0.75 0.81 0.82 1.56 0.06 4.9-0.6 7.42-1.47zm-5.2-5.79c1.3-0.51 2.36-0.31 2.36 0.43 0 1.98 1.82 1.66 4.81-0.84 2.53-2.13 2.5-2.18-0.76-1.46l-3.37 0.75 3.37-2.86 3.38-2.85-3.38 0.88c-1.85 0.48-6.86 1.25-11.13 1.71-8.36 0.89-9.5 1.94-4.72 4.32 1.98 0.99 2.33 1.58 1.01 1.71-1.4 0.13-1.19 0.55 0.67 1.35 1.73 0.74 3.19 0.54 4.05-0.54 0.74-0.93 2.41-2.1 3.71-2.6zm162.92 3.53c-0.01-0.58-1.26-2.62-2.78-4.54l-2.75-3.49 2.14 4.54c2.04 4.31 3.46 5.78 3.39 3.49zm-129.55-9.78c4.18-3.88 2.89-3.99-4.03-0.34-3.67 1.94-5.05 3.45-4.51 4.92 0.86 2.31 1.54 1.95 8.54-4.58zm16.97 1.35c-1.3-1.34-4.79 1.11-4.79 3.37 0 2.14 0.23 2.13 2.7-0.19 1.49-1.39 2.43-2.82 2.09-3.18zm-33.5 0.25c-0.45-0.46-1.61-0.51-2.58-0.11-1.08 0.45-0.76 0.78 0.81 0.85 1.42 0.06 2.22-0.27 1.77-0.74zm-9.42-4.28c6.89-2 8.84-3.81 5.4-5.01-0.93-0.32-2.43 0.41-3.35 1.63-1.46 1.96-1.82 1.98-3.01 0.13-1.18-1.83-1.36-1.8-1.38 0.2-0.02 2.98-2.78 3.99-10.92 3.99-3.78 0-6.64 0.64-6.64 1.48 0 1.77 9.43 0.62 19.9-2.42zm148.76 1.6c-0.94-1.17-1.99-1.84-2.33-1.49-0.93 0.97 0.97 3.62 2.6 3.62 0.9 0 0.79-0.8-0.27-2.13zm-199.75-1.27c-1.08-1.1-3.8-2.42-6.02-2.92-4.04-0.91-4.04-0.91 0.67 1.83 5.73 3.34 8.03 3.8 5.35 1.09zm60.78-0.79c0-0.77-0.27-1.4-0.6-1.4-0.32 0-0.97 0.63-1.43 1.4-0.45 0.77-0.19 1.4 0.6 1.4s1.43-0.63 1.43-1.4zm23.61 0c-0.45-0.77-1.44-1.4-2.18-1.4s-0.97 0.63-0.51 1.4c0.45 0.77 1.44 1.4 2.18 1.4s0.97-0.63 0.51-1.4zm14.36-0.64c2.54-1.15 3.5-2.07 2.18-2.1-1.3-0.03-2.37-0.66-2.37-1.41s2.73-1.15 6.08-0.89c4.51 0.35 6.07-0.03 6.07-1.48 0-1.07-1.02-2.35-2.26-2.85-2.03-0.8-1.99-1.01 0.33-1.95 1.88-0.76 1.11-1.09-2.79-1.17-3.63-0.08-4.79-0.52-3.54-1.34 1.02-0.67 1.44-1.92 0.93-2.77-0.57-0.95 0.16-1.56 1.85-1.56 1.53 0 2.78-0.63 2.78-1.39 0-0.77-1.52-1.4-3.37-1.4-1.86 0-3.38-0.63-3.38-1.4s-1.06-1.48-2.36-1.58-0.23-0.65 2.36-1.21c4.25-0.93 4.35-1.05 1.02-1.21-2.05-0.11-3.72-0.94-3.72-1.85 0-0.92-0.81-0.51-1.81 0.91-1.26 1.78-2.12 2.08-2.78 0.96-0.53-0.88-1.53-1.61-2.23-1.61-1.89 0-1.54 3.85 0.41 4.67 0.93 0.38-1.04 0.81-4.38 0.95s-7.59 0.8-9.45 1.47c-2.3 0.83-0.9 0.98 4.39 0.46 6.68-0.66 7.89-0.41 8.68 1.78 0.5 1.4 1.56 3.01 2.35 3.57 0.87 0.62 0.51 1.04-0.91 1.05-1.3 0.01-2.36 0.7-2.36 1.53 0 0.94 1.48 1.17 3.92 0.62 2.25-0.51 4.29-0.26 4.8 0.58 0.49 0.82 0.09 1.56-0.88 1.65-0.98 0.09 0.05 0.64 2.28 1.23 3.61 0.95 3.31 1.1-2.7 1.4-3.71 0.18-7.2 0.25-7.76 0.16s-1.01 0.54-1.01 1.41c0 1 1.47 1.27 4.05 0.73 2.28-0.47 4.04-0.24 4.04 0.52 0 0.75-2.1 1.37-4.68 1.37-3.6 0-4.5 0.48-3.9 2.09 0.98 2.65 4.31 2.66 10.12 0.06zm27.53-8.45c-0.9-5.39-2.38-11.36-3.29-13.27l-1.67-3.48 2.88 3.49 2.87 3.49-0.91-3.49c-0.98-3.75-5.71-9.78-7.67-9.78-0.66 0-0.77 0.71-0.25 1.58 0.51 0.86 1.02 3.85 1.13 6.63 0.11 2.79 0.73 5.96 1.39 7.05 0.91 1.51 0.63 1.76-1.18 1.04-5.61-2.23-9.27-2.73-8.32-1.13 0.53 0.88 2.19 1.6 3.7 1.6 1.61 0 3.04 1.15 3.46 2.79 0.38 1.54 1.22 2.79 1.85 2.79 0.64 0 2.53 2.48 4.21 5.5s3.14 5.37 3.25 5.23c0.1-0.14-0.55-4.66-1.45-10.04zm-108.69 3.46c-2.28-1.82-2.71-2.71-1.35-2.76 1.59-0.06 1.48-0.51-0.49-2.06-2.4-1.87-2.37-1.96 0.67-1.8 1.76 0.09 4.11 0.92 5.22 1.84 1.12 0.92 4.46 2.47 7.43 3.43 2.96 0.97 6.05 2.29 6.85 2.94 1.69 1.38 9.28-0.6 12.43-3.23 1.3-1.1 1.78-1.17 1.21-0.19-0.62 1.08-0.04 1.37 1.79 0.88l2.72-0.74-2.75-2.46c-2.22-2-2.37-2.62-0.78-3.25 1.08-0.43 2.17-0.16 2.41 0.6 0.42 1.31 10.53-2.16 10.53-3.6 0-0.35-4.54-0.27-10.08 0.18-11 0.89-16.3-0.09-12.83-2.36 1.1-0.72 4.4-1.31 7.34-1.32 5.07-0.02 16.81-3.69 18.27-5.7 1.29-1.79 6.74-2.92 6.74-1.4 0 0.82 0.91 1.49 2.03 1.49 1.11 0 2.02-0.67 2.02-1.48s-0.61-1.09-1.35-0.62c-0.74 0.48-1.35 0.2-1.35-0.61 0-1.2 4.43-2.16 5.74-1.25 0.18 0.13 1.78-0.56 3.54-1.53 1.75-0.98 2.81-1.13 2.34-0.34-0.54 0.9 0.88 1.35 3.76 1.19 3.57-0.19 4.3-0.65 3.2-2.03-2.63-3.3 0.11-4.17 13.7-4.39 10.2-0.16 7.33-2.01-5.06-3.24-14.55-1.46-15.07-1.55-15.07-2.65 0-0.54 0.76-1.29 1.69-1.68 0.92-0.39 0.01-0.76-2.03-0.82s-3.71-0.75-3.71-1.54c0-2.47 7.17-4.43 13.49-3.68l6.08 0.72-4.35-1.98c-6.88-3.13-25.24-3.9-36.05-1.51-8.33 1.84-9.93 1.83-14.51-0.07-2.83-1.17-5.14-2.71-5.14-3.42 0-0.72 1.34-0.61 3.03 0.24 2.77 1.41 2.74 1.3-0.3-1.23-1.83-1.53-3.74-2.52-4.24-2.2s-1.22-0.26-1.6-1.28c-0.76-2.04-8.52-1.53-9.81 0.64-0.66 1.1 1.18 1.81 3.73 1.43 0.52-0.08 2.19 1.68 3.73 3.91 3.86 5.61 12.25 7.33 27.78 5.67 6.59-0.71 12.25-0.99 12.59-0.64s-0.24 0.67-1.29 0.71c-1.05 0.03-3.73 0.97-5.96 2.07l-4.05 2.02 5.91-0.84c7.49-1.05 6.46 1.33-1.5 3.48-3.17 0.85-6.67 2.18-7.78 2.94-2.48 1.7-1.56 1.86 9.44 1.59 4.41-0.1 8.8 0.66 10.8 1.88l3.37 2.06-3.37 0.11c-1.86 0.06-5.5 0.96-8.1 2.01-2.59 1.04-9.58 3.84-15.52 6.22-5.93 2.37-12.92 4.25-15.52 4.16l-4.72-0.15 5.08-1.02c6.33-1.27 8.06-2.85 3.12-2.85-2.05 0-5.27-1.26-7.16-2.8l-3.43-2.79h3.82c3.64 0 3.69-0.09 1.19-2.05-1.61-1.26-1.94-2.07-0.85-2.09 3.04-0.08 0.32-2.76-6.36-6.27-6.92-3.62-13.01-3.33-18.88 0.93-3.97 2.88-1.94 4.21 2.66 1.74 6.92-3.7 9.82-2.5 14.4 5.98 2.21 4.08 2.13 5.03-0.34 4.05-2.89-1.15-2.5 0.92 0.56 2.9 1.42 0.91 2.98 3.57 3.47 5.9 0.5 2.33 2.4 5.46 4.22 6.94 2.97 2.42 3.07 2.78 0.91 3.47-2.79 0.9-11.16-0.03-12.38-1.37-0.45-0.5 1.41-0.65 4.14-0.33 7.21 0.83 5-1.14-2.59-2.31-3.53-0.54-7.17-1.63-8.09-2.41s-2.68-1.02-3.9-0.54c-1.95 0.78-2 0.59-0.37-1.44 1.68-2.09 1.54-2.22-1.36-1.27-2.84 0.94-3.13 0.7-2.45-2 0.62-2.43 0.31-2.9-1.48-2.24-1.25 0.45-0.14-1.1 2.46-3.43l4.72-4.25-4.51 0.64c-5.52 0.79-5.46 0.73-5.82 5.81-0.82 11.77 0.15 16.21 4.46 20.38 3.1 2.99 4.67 3.7 5.74 2.58 1.07-1.11 0.55-2.27-1.9-4.22zm116.04-3.33c0.03-3.58-0.74-2.46-1.85 2.67-0.67 3.07-0.54 3.63 0.46 2.1 0.75-1.15 1.38-3.3 1.39-4.77zm-65.44 3.38c2.35-0.93 3.26-0.93 2.71 0-0.46 0.76-0.23 1.39 0.51 1.39 2.53 0 2.77-2.35 0.54-5.19-2.08-2.65-2.53-2.7-7.03-0.77-6.15 2.63-6.51 3.04-4.1 4.62 2.51 1.65 3.07 1.64 7.37-0.05zm-9.31-5.23c-0.94-0.97-3.5 1-3.5 2.68 0 0.93 0.77 0.82 2.06-0.28 1.13-0.97 1.78-2.05 1.44-2.4zm16.07-1.76c0.46-0.77 0.22-1.4-0.52-1.4s-1.72 0.63-2.18 1.4-0.23 1.4 0.51 1.4c0.75 0 1.73-0.63 2.19-1.4zm55.25-12.68c-2.01-3.02-4.3-5.48-5.08-5.48s0.2 1.75 2.18 3.89 4.06 6.07 4.61 8.73c0.83 4.02 1.08 4.29 1.48 1.59 0.28-1.92-1.03-5.51-3.19-8.73zm-123.5 3.95c-0.05-2.5-0.61-5.8-1.25-7.33-1.12-2.7-1.16-2.69-1.26 0.26-0.05 1.69-0.71 3.46-1.48 3.95-2.57 1.64-0.18 7.57 3.08 7.64 0.55 0.01 0.97-2.02 0.91-4.52zm57.41 0.82c3.12-2.19 1.03-2.45-3.92-0.51-1.9 0.75-3.46 1.99-3.46 2.75 0 1.57 3.42 0.53 7.38-2.24zm48.12-5.03c-1.34-1.37-1.49-1.21-0.76 0.78 0.51 1.38 1.26 2.15 1.68 1.72 0.41-0.43 0-1.56-0.92-2.5zm-28.88-1.87c-0.44-0.47-1.61-0.52-2.58-0.11-1.08 0.44-0.76 0.77 0.81 0.84 1.43 0.06 2.22-0.27 1.77-0.73zm-75.63-7.8c-0.43-1.12-0.75-0.78-0.81 0.84-0.06 1.48 0.26 2.3 0.7 1.84 0.45-0.47 0.5-1.67 0.11-2.68zm99.92 0.81c-0.44-0.46-1.61-0.51-2.58-0.11-1.08 0.45-0.76 0.78 0.81 0.85 1.43 0.06 2.22-0.27 1.77-0.74zm-78.57-1.95c-0.46-0.76-3.2-1.39-6.08-1.39s-5.61 0.63-6.07 1.39c-0.51 0.87 1.81 1.4 6.07 1.4s6.59-0.53 6.08-1.4zm306.48-6.38c-0.42-1.12-2.42-2.69-4.46-3.5-5.78-2.27-23.45-5.49-29.43-5.36-5.34 0.11-5.32 0.13 2.03 1.89 20.21 4.85 26.46 7.24 29.8 11.4 1.8 2.25 1.94 2.25 2.36-0.01 0.25-1.31 0.11-3.3-0.3-4.42zm-222.14 2.19c-2.64-1.76-4.43-1.76-3.38 0 0.46 0.77 1.87 1.39 3.12 1.38 1.97-0.02 2-0.21 0.26-1.38zm-58.14-3.68c0.31-0.28-1.97-0.58-5.06-0.68-6.91-0.22-6.96-0.23-10.66-2.35-2.42-1.4-2.87-1.38-2.33 0.08 1.1 2.97 6.34 4.74 12.09 4.08 2.97-0.34 5.65-0.85 5.96-1.13zm5.14 0.05c-0.45-0.47-1.61-0.52-2.58-0.11-1.08 0.44-0.76 0.77 0.81 0.84 1.42 0.06 2.22-0.27 1.77-0.73zm-28.4-4.94c-1.82-3.02-3.53-3.22-8.28-0.98-5.05 2.38-4.23 3.25 3.21 3.43 6.16 0.14 6.53-0.04 5.07-2.45zm-5.64-7.16c0.8-0.73-0.56-1.04-3.37-0.78-3.21 0.31-4.85 1.23-5.16 2.91-0.4 2.19-0.03 2.28 3.36 0.79 2.1-0.93 4.42-2.24 5.17-2.92zm103.23-0.84c0-2.84-3.47-8.23-4.57-7.1-1.15 1.2 2.15 11.09 3.43 10.27 0.63-0.4 1.14-1.83 1.14-3.17zm-34.55 1.2c-1.83-1.89-15.69-5.54-17.25-4.54-0.7 0.44-0.78 0.01-0.18-1 0.76-1.26 3.33-1.58 8.69-1.07 6.66 0.62 7.63 0.4 7.63-1.76 0-3.06-3.89-2.89-18.32 0.77-11.29 2.87-19.77 3.17-27.32 0.99-6.61-1.92-6.68 0.48-0.1 3.32 3.84 1.66 8.58 2.01 20.79 1.55 10.93-0.41 17-0.06 19.66 1.16 4.84 2.22 8.28 2.53 6.4 0.58zm29.15-2.6c0-1.95-5.46-8.56-7.08-8.56-0.81 0-0.16 1.45 1.45 3.23s2.94 3.98 2.94 4.89 0.6 1.65 1.34 1.65c0.75 0 1.35-0.54 1.35-1.21zm-7.09-14.9c-1.97-1.89-4.07-3.46-4.65-3.49-0.59-0.02-4.07-1.56-7.73-3.41-3.66-1.86-7.22-3.02-7.9-2.58-0.68 0.43 2.91 2.6 7.97 4.81 5.07 2.21 10.41 5.26 11.87 6.78 1.46 1.51 2.97 2.43 3.35 2.04 0.37-0.39-0.93-2.26-2.91-4.15zm-21.92-6.24c-0.46-0.76-1.71-1.39-2.78-1.39s-1.94-0.7-1.94-1.55 0.91-1.18 2.02-0.74c2.58 1.02 2.57 0.26-0.05-2.45-1.66-1.72-2.73-1.83-5.43-0.56-4.32 2.04-3.67 3.83 2.17 6.02 6.05 2.26 7.02 2.37 6.01 0.67zm-63.12-5.03c-0.45-0.46-1.61-0.51-2.58-0.11-1.08 0.45-0.76 0.78 0.81 0.84 1.42 0.06 2.22-0.27 1.77-0.73zm30.06 355.92c0-2.58 1.64-2.91 18.98-3.82 9.23-0.49 27.1-2.43 39.72-4.32 12.62-1.9 28.71-4.3 35.76-5.35s16.88-2.28 21.84-2.73c9.29-0.84 14.67-1.6 45.42-6.41 9.9-1.54 18.52-2.81 19.15-2.81 0.62 0 1.33-2.04 1.56-4.54l0.42-4.54 31.04-0.04c17.07-0.03 40.2-0.32 51.4-0.66l20.37-0.61 1.66-9.82c1.23-7.25 1.37-17.67 0.54-39.85-1.05-27.93-1.26-29.64-2.96-24.44-2.27 6.9-4.73 10.02-2.68 3.4 5.03-16.32 5.21-19.99 5.2-106.07 0-46.47-0.54-86.85-1.2-89.73-0.73-3.2-0.7-4.92 0.06-4.42 1.31 0.83 1.51-40.17 0.21-43.65-0.54-1.47-5.15-1.85-21.13-1.75-11.23 0.08-28.32-0.63-37.97-1.56-15.87-1.53-70.12-1.02-79 0.75-1.59 0.32-13.46 0.66-26.38 0.75-25.44 0.19-27.67-0.36-35.31-8.77l-2.99-3.3 4.89 0.59c3.38 0.41 4.59 0.11 3.94-0.98-1.16-1.95-0.59-1.96 4.18-0.08 2.56 1.01 36.25 1.5 103.66 1.52l99.88 0.03v12.45c0.01 6.84-0.45 12.45-1.01 12.45-1.58 0-1.19 9.03 0.46 10.74 1.07 1.1 1.05 2.35-0.06 4.5-0.85 1.63-1.15 3.62-0.68 4.41s0.96 8.75 1.07 17.69c0.12 8.94 0.02 15.19-0.22 13.9-0.81-4.37-2.77-2.4-2.18 2.18 0.51 3.98 1.95 26.01 2.07 31.78 0.14 6.66-1.18 23.51-1.94 24.79-0.5 0.83-0.17 1.76 0.72 2.07 1.2 0.41 1.51 7.04 1.19 25.61-0.51 30.1-0.54 15.23 0.21 102.83l0.64 73.59-43.24 0.08c-45.14 0.09-53.56 0.48-79.16 3.61-8.53 1.05-24.02 2.92-34.41 4.16-18.52 2.2-66.2 8.84-71.52 9.96-1.49 0.31-6.95 1.23-12.15 2.05s-10.91 2.11-12.7 2.85c-4.91 2.05-47.35 3.4-47.35 1.51zm295.54-329.93c0-0.77-0.27-1.4-0.6-1.4s-0.97 0.63-1.43 1.4c-0.46 0.76-0.19 1.39 0.6 1.39 0.78 0 1.43-0.63 1.43-1.39zm2.7-20.96c0-0.76-0.27-1.39-0.6-1.39s-0.97 0.63-1.43 1.39c-0.46 0.77-0.19 1.4 0.6 1.4 0.78 0 1.43-0.63 1.43-1.4zm-599.54 265.22c0.92-0.96 2.01-1.39 2.42-0.96 0.42 0.43-0.33 1.22-1.66 1.74-1.93 0.76-2.08 0.6-0.76-0.78zm12.51-17.35c-4.83-1.01-10.29-2.46-12.15-3.24l-3.37-1.41 3.96-0.09c4.49-0.1 19.67 3.91 21.61 5.71 1.54 1.43 1.35 1.41-10.05-0.97zm-51.78-6.91c0.43-1.15 1.38-1.71 2.11-1.24s6.59 1.16 13.02 1.53c6.42 0.36 11.93 0.92 12.24 1.23s-5.89 0.56-13.79 0.56c-12.18 0-14.23-0.31-13.58-2.08zm288.04-8.51c0.07-1.63 0.39-1.96 0.82-0.84 0.39 1.01 0.34 2.21-0.11 2.67-0.45 0.47-0.76-0.36-0.71-1.83zm-202.53-0.58c-1.11-0.75-1.41-1.36-0.67-1.36s2.26 0.61 3.37 1.36c1.12 0.74 1.42 1.35 0.68 1.35s-2.26-0.61-3.38-1.35zm1.54-2.83c-3.23-1.51-6.72-2.76-7.76-2.76-1.03 0-1.72-0.73-1.54-1.62 0.19-0.89-2.24-2.42-5.39-3.4-3.16-0.98-5.74-1.27-5.74-0.63 0 0.63 2.19 1.58 4.86 2.09 2.68 0.52 4.51 1.31 4.09 1.75-0.43 0.44-3.57-0.01-6.98-1-4.24-1.23-5.64-2.16-4.42-2.96 1.24-0.82 0.77-1.23-1.6-1.37-2.6-0.16-2.29-0.42 1.35-1.11l4.72-0.9-6.57-1.77c-3.62-0.98-6.88-1.46-7.25-1.07-0.38 0.39 0.32 3.29 1.54 6.45 4.35 11.25-0.87 3.63-7.44-10.87-6.81-15.01-7.75-19.09-2.72-11.78 2.19 3.18 4.81 4.61 11.73 6.41 9.74 2.53 11.58 3.56 25.56 14.39 12.6 9.76 13 10.15 12.09 11.67-1.06 1.79-1.76 1.66-8.53-1.52zm-14.25-16.54c-0.86-1.44-12.06-6.06-18.66-7.7-2.81-0.7-3.71-0.4-3.71 1.2 0 1.17 1.06 2.14 2.36 2.16s6.31 1.49 11.13 3.27c9.03 3.32 10.32 3.48 8.88 1.07zm-15.63-0.73c0-0.31-0.91-0.92-2.02-1.36s-2.02-0.19-2.02 0.55c0 0.75 0.91 1.35 2.02 1.35s2.02-0.24 2.02-0.54zm22.69 17.75c0.98-0.41 2.14-0.36 2.59 0.11 0.45 0.46-0.35 0.79-1.77 0.73-1.57-0.07-1.89-0.4-0.82-0.84zm-7.48-1.41c1.31-0.36 3.14-0.33 4.05 0.05s-0.16 0.67-2.39 0.64c-2.22-0.03-2.97-0.34-1.66-0.69zm320.1-64.73c-2.11-2.28-3.39-4.14-2.84-4.14 2 0 8.96 4.3 8.96 5.54 0 3.03-2.56 2.44-6.12-1.4zm94.51 0.05c0.46-0.77 1.44-1.4 2.18-1.4s0.98 0.63 0.52 1.4-1.44 1.39-2.19 1.39c-0.74 0-0.97-0.62-0.51-1.39zm-205.8-14.99c0-1.41-1.43-7.09-3.18-12.6-1.74-5.52-2.59-9.66-1.87-9.21 1.54 0.99 0.18-4.03-2.64-9.78-1.08-2.18-1.62-4.32-1.2-4.75 0.67-0.69 3.36 4.97 8.77 18.43 1.17 2.9 1.97 3.59 2.72 2.33 1.53-2.55 2.79 3.06 2.64 11.71-0.11 6.46-0.2 6.64-1.17 2.37-1.39-6.07-3.35-7.85-2.28-2.07 0.45 2.46 0.23 4.86-0.48 5.32-0.72 0.46-1.31-0.33-1.31-1.75zm0-13.56c0-0.34-0.61-1.01-1.35-1.48-0.74-0.48-1.35-0.2-1.35 0.61 0 0.82 0.61 1.48 1.35 1.48s1.35-0.28 1.35-0.61zm-284.67 7.46c-0.13-6.21 8.51-29.2 10.97-29.2 2.04 0 1.11 6.25-1.6 10.86-1.48 2.52-2.7 5.11-2.7 5.76s-1.48 4.56-3.29 8.69c-2.65 6.04-3.31 6.8-3.38 3.89zm400.81-3.4l-3.28-1.87 3.62-0.94c5.52-1.43 4.57-4.38-1.18-3.69-3.41 0.41-4.6 1.15-4.09 2.52 0.39 1.06 0.12 1.93-0.61 1.93s-2.84-3.42-4.68-7.59c-3.56-8.06-4.22-11.29-2.01-9.87 1.89 1.21 1.69-3.98-0.22-5.96-2.71-2.8 2.11-3.54 7.15-1.1 11.44 5.53 20.06 14.85 20.06 21.7 0 1.63-8.02 7.07-10.12 6.87-0.74-0.08-2.83-0.98-4.64-2zm8.08-13.09c-1.6-3.1-8.85-8.73-14.24-11.06-4-1.74-3.99-1.72 0.68 2.1 2.6 2.12 6.54 5.78 8.77 8.14 4.29 4.54 6.95 4.99 4.79 0.82zm-14.15-2.37c-0.63-2.59-1.34-3.31-2.31-2.31s-0.91 2.4 0.18 4.51c2.05 3.95 3.31 2.65 2.13-2.2zm-231.12 11.35c-5.18-1.84-7.11-3.53-4-3.53 3.52 0 2.71-1.74-3.93-8.44-8.75-8.82-10.44-12.92-2.47-5.97 8.02 6.99 14.95 14.41 13.46 14.41-0.6 0-0.33 0.96 0.61 2.13 2.31 2.88 1.45 3.21-3.67 1.4zm260.39-3.06c-0.93-0.38-1.69-1.64-1.69-2.79s-2.24-5.58-4.97-9.84c-4.99-7.78-11.23-12.97-15.61-12.98-1.3 0-2.36-0.63-2.36-1.4 0-5.13 17.19 3.6 22.4 11.38l3.82 5.7 2.74-6.44c3.16-7.43 5.63-8.9 2.68-1.6-1.07 2.66-2.03 7.85-2.11 11.52-0.15 5.94-0.28 6.22-1.19 2.49-1-4.07-1.91-2.51-1.42 2.44 0.13 1.35 0.05 2.4-0.19 2.34-0.23-0.06-1.18-0.43-2.1-0.82zm-103.61-8.01c-1.17-1.84-1.91-4.96-1.66-6.93 0.72-5.53 2.1-5.83 2.1-0.46 0 2.65 0.69 6.15 1.53 7.78 2.09 4.04 0.65 3.75-1.97-0.39zm194.02-0.41c1.3-0.35 3.43-0.35 4.72 0 1.3 0.36 0.24 0.64-2.36 0.64s-3.66-0.28-2.36-0.64zm-11.13-1.83c-1.28-0.85-1.42-1.36-0.38-1.37 0.9-0.01 1.31-0.93 0.9-2.03-0.41-1.11-1.75-1.68-3-1.28-1.69 0.54-1.57 0.17 0.45-1.48 1.49-1.22 3.92-3.33 5.4-4.7 1.49-1.37 4.37-3.59 6.41-4.93 3.2-2.09 3.71-2.13 3.71-0.3 0 3.03 0.43 2.86 11.16-4.51 13.93-9.56 13.91-9.55 8.21-3.53-4.51 4.77-21.06 17.15-22.92 17.15-0.36 0-0.28-0.62 0.17-1.38 0.48-0.81-0.09-1.02-1.38-0.51-1.64 0.65-1.78 1.16-0.55 1.94 1.13 0.72 0.28 1.8-2.63 3.36-2.36 1.26-3.93 2.9-3.49 3.63 1 1.68 0.51 1.66-2.06-0.06zm28 0.48c0.93-0.39 2.45-0.39 3.37 0 0.93 0.38 0.17 0.7-1.68 0.7-1.86 0-2.62-0.32-1.69-0.7zm26.65-1.21c-3.71-0.98-12.7-1.85-19.98-1.93-8.45-0.08-12.94-0.64-12.41-1.53 1.15-1.91 26.18-1.77 31.85 0.19 3.55 1.22 10.75 5.99 7.92 5.23-0.35-0.09-3.67-0.97-7.38-1.96zm-382.8-1.71c-0.25-0.58-3.79-2.24-7.88-3.7-4.08-1.45-11.11-4.4-15.61-6.54-4.51-2.15-9.97-4.36-12.15-4.92-3.57-0.92-3.77-0.8-2.1 1.31 3.26 4.09-0.7 2.54-9.59-3.76-4.72-3.35-10.83-6.85-13.58-7.79-6.46-2.2-6.42-3.46 0.07-2.25 5.63 1.05 15.32 5.79 16.84 8.25 0.72 1.15 1 1.1 1.02-0.16 0.01-0.96 1.23-1.74 2.72-1.74 1.48 0 2.54 0.7 2.36 1.55-0.19 0.85 2.02 2.42 4.91 3.49 4.74 1.74 5.44 1.7 7.13-0.51 1.72-2.24 1.84-2.15 1.49 1.04-0.25 2.32 0.3 3.48 1.65 3.5 1.11 0.01 3.45 0.86 5.19 1.88 1.74 1.03 6.56 3.07 10.71 4.55 5.92 2.11 7.77 2.31 8.62 0.92 0.69-1.12 1.09-0.37 1.1 2.09 0.02 3.51-1.83 5.29-2.9 2.79zm344.09 0.09c0.97-0.4 2.14-0.35 2.59 0.11 0.44 0.47-0.35 0.8-1.78 0.74-1.57-0.07-1.89-0.4-0.81-0.85zm-75.99-6.03c0.45-0.77 1.86-1.38 3.11-1.37 1.97 0.02 2 0.21 0.26 1.37-2.64 1.77-4.43 1.77-3.37 0zm-271.31-5.98c-2.18-1.94-3.34-4.02-2.78-4.97 0.66-1.09 2.12-0.23 4.44 2.63 4.34 5.33 3.32 6.77-1.66 2.34zm336.76-1.51c0-0.38 1.82-2.04 4.04-3.68 2.23-1.64 4.05-2.67 4.05-2.29 0 0.39-1.82 2.04-4.05 3.69-2.22 1.64-4.04 2.67-4.04 2.28zm9.55-2.68c0.31-0.22 1.78-1.32 3.27-2.44 2.49-1.9 2.56-1.87 0.84 0.39-1.02 1.35-2.48 2.45-3.26 2.45-0.77 0-1.15-0.18-0.85-0.4zm-89.02-3.79c0.05-5 1.86-9.48 2.78-6.89 0.39 1.1-0.09 3.88-1.05 6.19-1.69 4.02-1.76 4.05-1.73 0.7zm-272.38-2.83c-3.89-2.16-9.65-5.72-12.82-7.93-10.94-7.61-12.34-7.84-39.86-6.78-13.91 0.54-28.24 0.9-31.86 0.8-7.69-0.21-17.13-3.74-16.28-6.08 0.33-0.89-1.18-2.86-3.36-4.37-2.18-1.5-3.69-3.18-3.37-3.72s-0.94-2.87-2.81-5.17c-7.01-8.62-22.81-32.26-22.07-33.03 0.29-0.3 6.28 7.7 13.32 17.77 14.16 20.26 19.79 26.57 27.26 30.53 5.1 2.7 19.45 3.8 18 1.37-1.7-2.85 40.05-2.3 59.31 0.79 6.7 1.07 6.72 1.08 2.02 1.89l-4.72 0.8 6.75 3.88c15.67 9.01 19.8 11.76 18.7 12.44-0.64 0.4-4.33-1.03-8.21-3.19zm346.55 0.61c0.07-1.62 0.39-1.95 0.82-0.84 0.39 1.01 0.34 2.21-0.11 2.68-0.45 0.46-0.76-0.36-0.71-1.84zm21.49 1.71c0-0.39 1.82-2.04 4.05-3.69 2.22-1.64 4.05-2.66 4.05-2.28s-1.83 2.04-4.05 3.68c-2.23 1.64-4.05 2.67-4.05 2.29zm-100.22-6.83c-0.37-2.49-0.13-5.6 0.52-6.89 1.63-3.24 3.74-25.96 2.91-31.47-0.96-6.46 2.1-18.33 5.17-20.03 1.4-0.78 2.55-2.69 2.55-4.25 0-1.64-0.6-2.44-1.44-1.9-0.79 0.51-1.32 0.07-1.19-0.97 0.68-5.1-0.35-9.61-3.2-13.95-1.72-2.63-2.9-5.52-2.61-6.41s-0.17-2.97-1.03-4.61c-0.85-1.65-1.23-3.31-0.85-3.71 0.38-0.39 2.22 2.33 4.09 6.06 3.75 7.45 4.7 6.19 1.51-2l-2.02-5.2 3.1 3.59c1.7 1.97 3.82 3.34 4.71 3.03s2.21 1.06 2.94 3.05c0.73 1.98 1.95 3.6 2.71 3.6s1.38 1.25 1.38 2.78 1.05 4.04 2.32 5.59c1.52 1.83 2.42 5.59 2.6 10.84 0.23 6.71-0.58 9.99-4.94 19.9-2.88 6.53-6.22 16.43-7.43 22-1.22 5.57-2.77 10.13-3.45 10.13-0.69 0-1.25 1.22-1.25 2.71s-0.56 3.07-1.24 3.51c-0.69 0.43-1.65 2.67-2.13 4.97-1.17 5.48-2.9 5.31-3.73-0.37zm6.69-21.62c-0.34-1.36-0.64-0.59-0.67 1.72-0.03 2.3 0.25 3.41 0.62 2.47 0.37-0.95 0.39-2.83 0.05-4.19zm3.92-6.82c-0.46-1.24 0.49-4.47 2.1-7.18 1.62-2.71 3.05-6.57 3.18-8.57 0.12-2.01 0.66-5.22 1.18-7.14 0.8-2.92 0.72-3.09-0.54-1.02-0.82 1.36-2 2.15-2.61 1.76-3.49-2.23-7.85 17.88-4.95 22.75 1.46 2.43 2.61 2.01 1.64-0.6zm-2.92-17.79c0.64-3.66 0.48-5.08-0.5-4.46-0.79 0.51-1.43 3.19-1.43 5.96 0 6.17 0.68 5.63 1.93-1.5zm88.48 50.24c0-0.29 1.06-1.39 2.36-2.44 2.14-1.74 2.19-1.69 0.51 0.53-1.76 2.32-2.87 3.06-2.87 1.91zm5.4-4.26c0-0.38 1.21-1.37 2.7-2.19 1.48-0.82 2.7-1.18 2.7-0.8 0 0.39-1.22 1.37-2.7 2.19-1.49 0.83-2.7 1.19-2.7 0.8zm9.09-0.97c0.91-0.95 2-1.38 2.42-0.95 0.41 0.43-0.34 1.21-1.67 1.73-1.92 0.76-2.08 0.6-0.75-0.78zm-378.3-4.22c-0.39-0.66-2.9-1.19-5.58-1.19s-4.51-0.38-4.07-0.83c0.44-0.46 5.25-0.87 10.69-0.93 14.45-0.14 19.94-4.21 7.97-5.91-4.2-0.6-8.68-2.5-12.21-5.19-3.06-2.33-5.38-4.44-5.14-4.69 0.24-0.24 4.19 1.48 8.78 3.84 4.59 2.35 9.88 4.28 11.75 4.28 5.12 0 6.72 2.88 3.35 6.03-3.23 3.03-14.49 6.35-15.54 4.59zm306.8-0.72c0.92-0.39 2.44-0.39 3.37 0s0.17 0.7-1.69 0.7c-1.85 0-2.61-0.31-1.68-0.7zm36.98-2.97c-0.37-5.56-5.39-13.96-13.39-22.41-8.28-8.75-6.77-10.12 2.3-2.08 6.32 5.6 6.94 4.92 2.01-2.21l-3.47-5.02 4.86 5.52c5.41 6.14 9.32 17.61 8.46 24.83-0.34 2.84-0.63 3.36-0.77 1.37zm44.32 2.12c0-1.05 10.98-9.68 11.56-9.08 0.32 0.34-2.15 2.64-5.49 5.12s-6.07 4.26-6.07 3.96zm-86.72-12.54c6.12-6.43 13.7-19.61 9.87-17.16-1.79 1.15-1.72-0.69 0.41-11.13l1.71-8.38 0.92 7.84c0.62 5.24 0.3 10-0.96 14.32-1.08 3.72-1.33 6.48-0.59 6.48 0.72 0 0.92 0.63 0.45 1.42-0.46 0.78-1.41 1.05-2.1 0.61s-1.26 0.17-1.26 1.36c0 2.12-11.54 11.87-14.12 11.94-0.72 0.01 1.83-3.27 5.67-7.3zm49.15-1.05c0-1.92 0.31-2.71 0.68-1.75s0.37 2.54 0 3.5-0.68 0.17-0.68-1.75zm-49.12-8.75c2.68-5.66 3.49-9.58 3.58-17.36 0.06-5.53 0.62-9.54 1.23-8.91 1.01 1.04 1.33 13.75 0.55 22.58-0.34 3.96-2.82 7.67-6.48 9.7-1.92 1.06-1.72-0.01 1.12-6.01zm-327.1 1.65c-2.31-0.7-4.97-2.22-5.9-3.38-1.51-1.88-1.28-1.89 2.19-0.02 4.38 2.37 6.82 2.67 7.48 0.94 0.25-0.64 2.88-0.03 5.85 1.36l5.4 2.54-5.4-0.09c-2.97-0.05-7.3-0.66-9.62-1.35zm66.22-6.17c-5.15-2.68-10.64-4.88-12.2-4.88-1.56-0.01-4.82-0.72-7.23-1.59-3.42-1.24-4.63-1.2-5.45 0.18-1.29 2.15-10.08 1.01-22.26-2.89-6.67-2.13-12.43-2.63-29.63-2.61-20.79 0.03-21.5-0.07-26.39-3.58-2.86-2.05-6.6-6.73-8.68-10.88-3.84-7.64-2.85-6.8 4.12 3.52 4.04 5.99 4.54 6.27 12.68 7.15 4.66 0.5 17.96 0.91 29.57 0.91 17.41 0 21.64 0.41 24.27 2.31 1.91 1.38 7.8 2.76 14.8 3.46 18.92 1.88 22.13 2.54 27.82 5.63 2.97 1.61 8.44 4.07 12.15 5.45l6.75 2.5-5.48 0.11c-3.71 0.07-8.48-1.47-14.84-4.79zm-41.82-10.32c-2.09-2.02-7.36-3.27-7.36-1.74 0 1.2 2.16 2.02 7.36 2.79 0.81 0.12 0.81-0.27 0-1.05zm308.42 11.18c0-0.76 0.61-1.78 1.35-2.26 0.74-0.47 1.35-0.23 1.35 0.54s-0.61 1.78-1.35 2.26c-0.74 0.47-1.35 0.23-1.35-0.54zm32.98-8.67c-5.64-6.14-10.88-9.79-14.41-10.02-1.68-0.12-3.76-1.22-4.64-2.45-0.87-1.24-4.06-3.41-7.09-4.82s-5.36-3.26-5.17-4.1c0.18-0.84-1.41-3.89-3.54-6.79-3.06-4.15-4.26-4.92-5.72-3.67-1.02 0.88-1.91 2.61-1.97 3.86s-0.67 0.39-1.34-1.91c-0.68-2.31-0.9-5.12-0.49-6.25 0.41-1.12 0.31-1.6-0.22-1.05s-1.84-0.3-2.91-1.88-1.58-3.25-1.13-3.72c0.44-0.46 0.81-0.17 0.81 0.64 0 0.82 0.98 1.87 2.17 2.35 1.59 0.63 1.96 0.26 1.36-1.35-0.47-1.25 1.34-0.36 4.2 2.08 3.85 3.29 6.36 4.29 10.71 4.29 3.13 0 6.06 0.63 6.52 1.4 0.5 0.83-1.14 1.39-4.08 1.39-3.34 0-4.73 0.56-4.33 1.75 0.33 0.96 2.05 1.63 3.83 1.5 1.78-0.14 7.18-0.58 12.01-0.99 7.85-0.66 8.06-0.62 1.97 0.41-8.81 1.49-12.77 2.82-12.77 4.3 0 2.68 7.48 10.14 12.75 12.7 4.71 2.29 20.36 16.65 18.15 16.65-0.39 0-2.49-1.94-4.67-4.32zm-271.99-4.69c-0.33-0.34-3.17-0.78-6.3-0.97s-5.69-0.78-5.69-1.32c0-2.55 12.42-2.86 22.45-0.56 1.68 0.38 3.64-0.3 4.72-1.65 5.81-7.28 50.09-18.98 48.07-12.7-0.57 1.76-5.32 2.9-18.56 4.47-14.43 1.7-20.3 3.73-25.04 8.64-4.05 4.19-5.38 4.72-11.81 4.72-3.98 0-7.51-0.28-7.84-0.63zm64.93-10.46c0-0.73 0.6-1.7 1.33-2.17 0.77-0.49 0.99 0.07 0.53 1.31-0.89 2.42-1.86 2.87-1.86 0.86zm101.85-11.29c-6.95-7.31-6.52-9.54 0.64-3.31 4.14 3.61 7.53 8.66 6.51 9.71-0.29 0.3-3.51-2.58-7.15-6.4zm69.39 2.47c-1.11-0.96-2.87-3-3.92-4.54-1.05-1.53 0.04-0.94 2.43 1.31 2.38 2.26 4.33 4.3 4.33 4.54 0 0.82-0.83 0.44-2.84-1.31zm-60.58-41.55l-3.38-1.12h3.38c1.85 0 4.89 0.5 6.74 1.12l3.38 1.12h-3.38c-1.85 0-4.89-0.51-6.74-1.12zm-16.45-0.95c0.97-0.41 2.14-0.36 2.59 0.11 0.44 0.46-0.35 0.79-1.78 0.73-1.57-0.07-1.89-0.4-0.81-0.84zm7-0.45c-1.65-1.1-1.47-1.36 0.93-1.37 1.63-0.01 3.33 0.6 3.79 1.37 1.07 1.78-2.06 1.78-4.72 0z"/>
  </g>
  <metadata>
    <rdf:RDF>
      <cc:Work>
        <dc:format>image/svg+xml</dc:format>
        <dc:type rdf:resource="http://purl.org/dc/dcmitype/StillImage"/>
        <cc:license rdf:resource="http://creativecommons.org/licenses/publicdomain/"/>
        <dc:publisher>
          <cc:Agent rdf:about="http://openclipart.org/">
            <dc:title>Openclipart</dc:title>
          </cc:Agent>
        </dc:publisher>
        <dc:title>Woman gets a Massage</dc:title>
        <dc:date>2011-09-08T18:24:15</dc:date>
        <dc:description>A woman gets a massage. The message is this woman got a massage. This was quite a quick little sketch some staff artist in Los Angeles scratched out real quick for page 40, way back in 1907. I wonder how many people actually noticed the image then? Will it have more views in it's reincarnation? </dc:description>
        <dc:source>https://openclipart.org/detail/159613/woman-gets-a-massage-by-j4p4n</dc:source>
        <dc:creator>
          <cc:Agent>
            <dc:title>j4p4n</dc:title>
          </cc:Agent>
        </dc:creator>
        <dc:subject>
          <rdf:Bag>
            <rdf:li>b_w</rdf:li>
            <rdf:li>drawing</rdf:li>
            <rdf:li>massage</rdf:li>
            <rdf:li>relax</rdf:li>
            <rdf:li>woman</rdf:li>
          </rdf:Bag>
        </dc:subject>
      </cc:Work>
      <cc:License rdf:about="http://creativecommons.org/licenses/publicdomain/">
        <cc:permits rdf:resource="http://creativecommons.org/ns#Reproduction"/>
        <cc:permits rdf:resource="http://creativecommons.org/ns#Distribution"/>
        <cc:permits rdf:resource="http://creativecommons.org/ns#DerivativeWorks"/>
      </cc:License>
    </rdf:RDF>
  </metadata>
</svg>