<?xml version="1.0" encoding="UTF-8" standalone="no"?>
<!-- Created with Inkscape (http://www.inkscape.org/) -->
<svg xmlns:dc="http://purl.org/dc/elements/1.1/" xmlns:cc="http://creativecommons.org/ns#" xmlns:rdf="http://www.w3.org/1999/02/22-rdf-syntax-ns#" xmlns:svg="http://www.w3.org/2000/svg" xmlns="http://www.w3.org/2000/svg" xmlns:sodipodi="http://sodipodi.sourceforge.net/DTD/sodipodi-0.dtd" xmlns:inkscape="http://www.inkscape.org/namespaces/inkscape" width="126.89822mm" height="149.06087mm" viewBox="0 0 449.63937 528.16843" id="svg17269" version="1.1" inkscape:version="0.91 r13725" sodipodi:docname="model.svg">
  <defs id="defs17271"/>
  <sodipodi:namedview id="base" pagecolor="#ffffff" bordercolor="#666666" borderopacity="1.0" inkscape:pageopacity="0.0" inkscape:pageshadow="2" inkscape:zoom="0.65394027" inkscape:cx="366.2467" inkscape:cy="255.51927" inkscape:document-units="px" inkscape:current-layer="layer1" showgrid="false" fit-margin-top="0" fit-margin-left="0" fit-margin-right="0" fit-margin-bottom="0" inkscape:window-width="1366" inkscape:window-height="705" inkscape:window-x="-8" inkscape:window-y="-8" inkscape:window-maximized="1"/>
  <metadata id="metadata17274">
    <rdf:RDF>
      <cc:Work rdf:about="">
        <dc:format>image/svg+xml</dc:format>
        <dc:type rdf:resource="http://purl.org/dc/dcmitype/StillImage"/>
        <dc:title/>
      </cc:Work>
    </rdf:RDF>
  </metadata>
  <g inkscape:label="Layer 1" inkscape:groupmode="layer" id="layer1" transform="translate(-2124.1473,-1559.9682)">
    <path style="fill:#a3ae8e;fill-opacity:1;fill-rule:evenodd;stroke:none;stroke-width:1px;stroke-linecap:butt;stroke-linejoin:miter;stroke-opacity:1" d="m 2334.7376,1824.4176 c 38.2298,-30.5838 18.3502,-30.5838 49.6987,-37.4652 l 22.9379,-77.9888 c 0,0 138.3918,-29.0546 133.0396,24.4671 -5.3522,53.5217 -7.6459,34.4068 -4.5876,77.2242 l -41.2881,1.5292 -1.5292,41.2881 0,27.5255 3.823,32.113 -9.1752,38.9944 -42.8173,-21.4087 c 0,0 -67.2844,-61.1676 -110.1018,-106.2788 z" id="path18768" inkscape:connector-curvature="0" sodipodi:nodetypes="cccscccccccc"/>
    <path style="fill:#cca06e;fill-opacity:1;fill-rule:evenodd;stroke:none;stroke-width:1px;stroke-linecap:butt;stroke-linejoin:miter;stroke-opacity:1" d="m 1719.6836,1291.998 -34.3047,1.7872 -17.9766,36.9921 c 9.0285,1.691 14.2068,-6.014 16.0899,9.1387 1.6021,12.8917 3.7695,20.4922 3.7695,20.4922 0,0 0.3331,10.6448 -9.2344,14.9063 -12.2433,5.4533 -9.1132,0 -9.1132,0 l -24.7344,1.3007 c -19.3821,20.2255 -16.7327,41.7308 -16.7327,41.7308 l -1.4919,27.2653 -13.0196,52.0723 -13.0175,28.6406 27.3379,-16.9238 15.623,-39.0547 27.3379,-18.2246 29.9414,5.207 40.3555,1.3008 52.0722,11.7168 -13.0175,48.166 c -13.018,48.1668 19.5254,102.8438 19.5254,102.8438 l 9.1132,-70.2969 -5.207,-55.9785 11.7168,-59.8828 -3.9063,-31.2442 -32.5449,-15.6211 3.9063,-31.2441 z m -130.0117,249.1504 c -6.2405,-0.1726 -13.014,2.3335 -20.5274,8.6836 -41.4409,10.4107 -23.5006,72.3057 -69.4336,80.9571 -33.454,-2.5433 -58.2657,18.9634 -87.9414,27.0371 11.0308,-33.5029 -50.0382,-17.1777 -37.0625,7.791 l 117.1992,16.4082 c 69.9063,0.1173 139.6703,-11.5972 209.4805,-16.5664 12.1027,-21.3962 -41.116,-49.2841 -55.9004,-73.0293 -18.0454,-15.8793 -33.5271,-50.6646 -55.8144,-51.2813 z" transform="translate(751.25958,283.95844)" id="path18757" inkscape:connector-curvature="0" sodipodi:nodetypes="cccscsccccccccccccsccccccccccccccccc"/>
    <rect style="opacity:1;fill:#bfb75e;fill-opacity:1;fill-rule:evenodd;stroke:none;stroke-width:4.5;stroke-linecap:round;stroke-miterlimit:4;stroke-dasharray:none;stroke-opacity:1" id="rect18215" width="446.51913" height="136.68953" x="2127.2676" y="1948.2733"/>
    <path style="fill:#000000" d="m 2497.2983,1561.5822 c -2.4477,-0.3708 -5.4658,-0.6879 -9.3563,-1.0632 -11.8929,-1.1478 -20.2543,-0.5347 -29.3195,2.1487 -7.9659,2.3579 -15.4152,3.0834 -20.0342,1.9524 -5.7785,-1.4147 -8.8731,-0.6852 -14.4415,3.4105 -8.8577,6.5156 -14.5345,19.2933 -12.5067,28.1524 0.8029,3.5065 1.3465,8.0605 1.2041,10.1189 -0.4604,6.6983 3.7269,11.0754 11.9683,12.5123 9.1856,1.6017 10.9715,5.4874 6.2084,13.5071 -3.9839,6.708 -3.1379,11.0829 2.3305,12.0364 3.3131,0.5776 3.9678,1.9777 2.8775,6.1565 -1.6767,6.4271 -6.9894,8.6428 -14.2924,5.9605 -2.9175,-1.0718 -10.7091,-0.9356 -17.3124,0.3044 -12.9796,2.4374 -15.1617,4.5955 -25.9118,25.6187 -5.7627,11.2697 -6.5789,18.8356 -4.2135,38.9861 0.738,6.2875 0.3421,9.981 -1.0894,10.1932 -1.359,0.2025 -3.4223,8.6456 -5.2328,21.4123 -2.5632,18.0749 -3.8986,22.361 -9.3162,30.0884 -3.4787,4.9558 -7.2754,8.8453 -8.4388,8.6426 -1.1637,-0.2025 -1.8068,1.1965 -1.4311,3.1117 0.376,1.9151 -0.6536,3.7488 -2.3068,4.0696 -1.6435,0.3227 -3.2941,3.2855 -3.6685,6.5869 -0.3744,3.3015 -1.7245,7.7927 -2.9951,9.9761 -2.5726,4.4223 -17.8073,9.4875 -20.7289,6.8926 -1.03,-0.9147 -2.0694,-0.551 -2.3068,0.8109 -0.256,1.4679 -1.8157,1.65 -3.8357,0.4416 -1.8717,-1.1208 -2.8706,-1.2807 -2.2192,-0.3526 0.6519,0.9267 -1.5722,4.281 -4.9428,7.4538 -6.0513,5.697 -15.1719,22.1691 -21.1169,38.1448 -2.907,7.8123 -6.5512,14.7864 -14.6683,28.0574 -1.9944,3.2605 -5.286,8.6686 -7.3151,12.0205 -3.4406,5.683 -4.4818,5.9895 -15.3857,4.5397 -6.4314,-0.855 -15.4729,-0.8981 -20.0958,-0.095 -14.2126,2.4673 -36.1624,11.4821 -45.8442,18.8291 l -5.169,3.9253 -6.0574,-8.6163 c -3.3318,-4.7385 -7.3347,-8.8383 -8.8929,-9.11 -6.9221,-1.207 -16.3503,2.5044 -26.1799,10.3029 -11.3427,8.9988 -11.0668,13.028 0.4972,7.2407 3.8529,-1.9283 7.8289,-2.7751 8.836,-1.8804 1.0076,0.8946 1.5395,0.1228 1.1791,-1.7164 -1.3519,-6.8881 15.1685,-8.049 19.0128,-1.3363 1.7473,3.0509 1.3279,3.5117 -2.5737,2.8314 -3.2997,-0.5754 -4.6365,0.3089 -4.5811,3.0281 0.1486,7.3161 23.2107,4.2769 37.6125,-4.9568 10.157,-6.5122 31.5674,-12.606 42.8552,-12.1963 5.8271,0.2111 12.5547,0.4246 14.952,0.4716 8.4495,0.1659 16.0106,-3.0419 19.4631,-8.2537 1.9199,-2.8986 6.3045,-9.5017 9.7418,-14.6724 3.4374,-5.1705 8.0444,-14.2077 10.2372,-20.0829 2.1926,-5.8749 4.5027,-12.065 5.1324,-13.7592 5.2368,-14.0879 25.2742,-32.7686 33.5939,-31.3181 2.0745,0.3617 4.0324,-0.8346 4.3495,-2.6541 0.3175,-1.821 1.4285,-2.5487 2.4701,-1.6239 1.0413,0.9249 2.1351,0.2958 2.4306,-1.3998 0.2956,-1.695 2.1408,-3.395 4.0973,-3.7788 2.7669,-0.5429 3.1909,0.5081 1.9091,4.7277 -1.4201,4.6755 -0.5026,6.1227 6.6447,10.4653 10.7473,6.5301 18.9708,17.6257 22.0977,29.8166 1.3723,5.3508 3.4038,9.8873 4.5165,10.0812 1.1125,0.1939 1.81,2.0377 1.5453,4.0964 -0.2751,2.1422 0.1637,2.7094 1.0241,1.3274 1.1209,-1.7979 2.7187,-1.2755 6.2636,2.0445 4.122,3.8604 4.2694,4.7015 1.0892,6.2719 -2.3695,1.1705 -3.2118,2.9704 -2.3706,5.0708 0.8462,2.1133 -0.03,3.9135 -2.5011,5.1334 -2.1834,1.0789 -3.5003,3.4402 -3.0884,5.5393 0.8895,4.5333 13.4751,6.6637 24.597,4.1647 l 7.6809,-1.7232 -2.4316,5.4704 c -2.1351,4.7997 -1.8753,5.4216 2.1194,5.089 2.5042,-0.2089 4.3969,0.5033 4.2086,1.5834 -0.1874,1.0804 2.3835,1.8503 5.7156,1.7099 4.6256,-0.1961 5.2135,0.14 2.4858,1.4201 -2.8928,1.3567 -2.3118,2.1674 3.0507,4.2562 3.6418,1.419 5.9585,3.3269 5.1461,4.2416 -0.8124,0.9145 -0.4881,1.9593 0.7228,2.3212 1.2103,0.3619 3.1136,1.0623 4.2299,1.5578 1.1166,0.4952 2.7198,1.1764 3.563,1.5138 0.8434,0.3371 -0.9985,2.067 -4.0921,3.8478 -3.8372,2.2074 -7.4226,2.5414 -11.2824,1.0441 -3.1119,-1.2072 -11.1198,-1.4752 -17.7963,-0.5956 -17.3123,2.2805 -40.8228,2.2096 -50.9268,-0.153 -4.7634,-1.1142 -10.3029,-1.0857 -12.3073,0.062 -2.0043,1.1482 -5.994,2.3813 -8.8659,2.7381 -4.7153,0.5862 -4.9228,0.2688 -2.1495,-3.275 1.6887,-2.1579 4.1228,-4.3462 5.4089,-4.8613 1.2859,-0.5151 2.5955,-2.4171 2.9115,-4.2289 0.5425,-3.1116 15.6834,-17.0139 27.9883,-25.6967 6.5315,-4.6091 7.4417,-8.1641 5.3478,-20.9226 -2.1211,-12.9236 -14.7136,-40.3327 -17.5979,-38.3047 -2.5296,1.7782 -9.0941,25.1334 -10.3505,36.8271 -0.687,6.3911 -2.2146,12.5138 -3.396,13.6219 -1.1825,1.1112 -3.4148,8.1305 -4.9628,15.6042 -1.5483,7.4734 -4.2205,14.7865 -5.9383,16.2495 -1.7179,1.4632 -2.943,3.0296 -2.7218,3.4848 0.9979,2.0517 -0.5728,4.7079 -4.8445,8.1886 -3.8831,3.1642 -5.8017,3.2722 -12.0345,0.6778 -4.0787,-1.6978 -8.0331,-2.6515 -8.7873,-2.1214 -0.7538,0.53 -1.1653,-0.2251 -0.9138,-1.667 0.252,-1.4457 -0.6903,-4.2564 -2.0921,-6.2504 -2.2307,-3.1726 -3.6295,-3.2683 -11.2158,-0.7596 -9.1154,3.0147 -13.6506,1.5791 -6.3713,-2.0162 8.1091,-4.005 -1.2713,-6.1013 -10.6799,-2.3876 -4.7872,1.8898 -10.7298,4.1074 -13.2068,4.9284 -6.3793,2.1142 -7.8623,6.0606 -2.6211,6.9745 2.4317,0.4239 4.5946,-0.2402 4.8103,-1.4761 0.2154,-1.2364 1.2083,-1.5253 2.2045,-0.6407 2.9867,2.6525 -1.0737,7.0361 -6.9138,7.4648 -3.0035,0.2204 -9.1387,-1.3109 -13.6336,-3.4021 -7.5113,-3.5069 -8.8629,-3.4427 -16.7638,0.6603 -10.4693,5.437 -29.0834,7.115 -46.054,4.1343 -6.9566,-1.2129 -15.5014,-1.3193 -18.9887,-0.2227 -3.4872,1.0963 -10.4638,1.3905 -15.5068,0.6533 -14,-2.0459 -22.1941,-1.182 -23.5868,2.4863 -1.1577,3.0494 0.237,3.312 16.915,3.1756 9.9967,-0.082 18.7696,-0.7453 19.498,-1.4737 0.7284,-0.7282 3.413,-1.9949 5.9665,-2.8165 4.5225,-1.4548 4.5285,-0.8271 0.237,24.3137 -5.4633,32.0113 -5.8888,46.3265 -1.3973,47.1096 1.8708,0.3264 2.5983,1.7109 1.6928,3.2252 -0.8735,1.4602 -0.9944,4.1382 -0.2686,5.9497 3.1532,7.873 6.6628,-1.9873 13.5565,-38.0918 6.0505,-31.6893 7.7642,-37.8622 10.5066,-37.8463 1.8023,0 10.0788,0.082 18.3929,0.1616 13.7193,0.1314 21.0607,-2.4141 22.216,-7.7052 0.1896,-0.8693 1.3762,-1.4003 2.6362,-1.1806 1.382,0.2411 1.3979,2.63 0.043,6.0212 -5.1602,12.9221 -7.7451,23.3973 -11.0009,44.5513 -1.8946,12.2981 -4.558,28.8088 -5.9104,36.6913 -2.0563,11.9438 -1.8749,14.4339 1.0711,14.9475 3.0853,0.5381 3.9406,-2.0431 6.7608,-20.4284 1.7753,-11.5731 2.7521,-22.2273 2.1719,-23.676 -0.5804,-1.4486 0,-2.4488 1.2682,-2.2261 1.603,0.2795 1.8827,-0.9287 0.902,-3.9003 -2.2738,-6.8898 9.0472,-49.0347 12.9869,-48.3477 1.1364,0.1982 1.1198,2.179 -0.037,4.4012 -2.9794,5.7235 -9.5689,44.5605 -13.2553,78.1303 -1.7228,15.6976 -4.0134,30.0589 -5.0904,31.9142 -1.0769,1.855 -3.522,8.2679 -5.4314,14.2492 -2.8449,8.9125 -2.9037,10.9744 -0.3177,11.4253 3.6269,0.6323 6.5003,-3.4038 7.8228,-10.9879 0.5054,-2.8995 2.1726,-6.8733 3.7052,-8.8315 3.9171,-5.0057 14.0289,-66.1803 11.8417,-71.6411 -0.4331,-1.0819 0.5999,-11.5522 2.2934,-23.2704 2.5276,-17.4908 3.6323,-21.2089 6.1623,-20.7677 1.6955,0.2955 3.8833,-0.2519 4.8672,-1.2144 0.9837,-0.9627 8.0094,-0.8988 15.6115,0.1422 8.4684,1.1599 17.8564,0.8432 24.2359,-0.8186 10.6953,-2.7862 18.3575,-2.5802 19.5723,0.5254 0.3785,0.9679 -0.625,12.8477 -2.2282,26.3994 -1.6034,13.552 -3.142,28.5365 -3.4184,33.2992 -0.2766,4.7627 -1.0031,14.4766 -1.6153,21.5862 -0.6125,7.1098 -1.4531,18.7718 -1.8663,25.916 -0.4134,7.1445 -1.0207,13.5858 -1.3513,14.3159 -1.1476,2.5256 4.8898,4.5994 6.3385,2.1773 0.7999,-1.3372 1.5981,-11.5997 1.7775,-22.8093 0.2714,-16.9644 0.8533,-20.5965 3.4731,-21.6596 2.4796,-1.0057 4.4713,-9.5411 9.3662,-40.172 5.895,-36.8874 6.4588,-38.9941 10.9156,-40.8032 4.6461,-1.8861 4.6086,-1.4688 -2.9801,36.6641 -4.2219,21.215 -8.7227,41.8366 -10.0053,45.8225 -6.968,21.6534 -8.2001,26.5651 -7.5228,30.0167 1.4139,7.2044 4.5305,4.4113 6.3028,-5.6281 0.9666,-5.5444 3.7121,-15.6444 6.0835,-22.4472 2.3719,-6.803 7.2726,-28.3126 10.8927,-47.799 8.034,-43.2464 10.8031,-48.6844 12.5537,-24.6504 0.4437,6.0911 0.9515,12.3118 1.1258,13.8251 0.1766,1.521 1.9487,2.4335 3.9673,2.0373 4.0453,-0.794 4.3461,-7.2205 0.8923,-18.9831 -1.0808,-3.6808 -1.8479,-7.3562 -1.7062,-8.169 0.1422,-0.813 7.1867,-0.3007 15.6558,1.1366 8.9752,1.5233 19.64,1.8305 25.5662,0.7374 5.5921,-1.0315 11.1607,-1.9281 12.3742,-1.9897 1.2135,-0.062 3.6001,-0.6771 5.3041,-1.3688 4.9156,-1.9947 5.4169,0.8964 2.4914,14.3966 -1.7101,7.8907 -1.8843,12.7792 -0.4647,13.0268 1.25,0.218 2.0218,1.8285 1.7166,3.5795 -0.7398,4.2427 2.1329,4.5191 6.9979,0.6734 2.5957,-2.0519 4.0893,-5.7586 4.3179,-10.7279 0.4638,-10.0814 4.7678,-21.5208 7.5367,-20.0283 1.2176,0.6564 1.9555,3.555 1.6405,6.4406 -2.472,22.6504 -2.2322,70.078 0.3882,77.0193 4.4236,11.7183 8.8194,9.3936 12.4167,-6.5692 10.6557,-47.2829 13.0013,-73.4641 6.152,-68.6482 -1.0078,0.7085 -3.6806,12.9703 -5.9383,27.2476 -3.2666,20.6587 -4.4583,25.0065 -5.8424,21.2847 -0.9559,-2.572 -1.7825,-8.6206 -1.8379,-13.441 -0.056,-4.8206 -0.3403,-15.695 -0.6342,-24.1652 -0.3018,-8.6956 0.4072,-16.0981 1.6317,-17.0006 1.1932,-0.8789 7.0268,-1.0062 12.9647,-0.2809 8.9135,1.0892 23.3373,1.5759 31.0902,1.0472 0.9127,-0.062 2.6353,-0.065 3.8281,0 3.2594,0.1573 3.3417,-4.0643 0.091,-4.6313 -4.2831,-0.7466 -0.8005,-22.9187 4.4232,-28.161 5.8816,-5.9025 6.415,-12.7398 1.4261,-18.2961 -3.3021,-3.6773 -3.8374,-6.2836 -2.2594,-11.0717 1.4647,-4.4411 0.7281,-9.805 -2.5453,-18.4975 -4.3547,-11.5649 -4.3728,-12.4869 -0.3604,-16.7711 4.3318,-4.6249 4.8275,-13.0546 0.9757,-16.5938 -1.1709,-1.0778 1.3354,-5.2175 6.3952,-10.5664 4.5768,-4.8378 8.9105,-9.8326 9.6318,-11.0997 2.8785,-5.0591 3.6877,1.8227 2.3945,20.389 -1.2209,17.5322 -0.525,22.2753 6.8644,46.8333 11.1238,36.9677 15.0804,58.2598 11.1344,59.8951 -1.6489,0.6835 -8.5116,0.2923 -15.2556,-0.8615 -11.4088,-1.9587 -12.4886,-1.7254 -15.502,3.3447 -1.7811,2.9971 -4.0546,11.9507 -5.0537,19.8976 -1.0877,8.6525 -2.6718,14.3073 -3.946,14.1071 -1.4186,-0.2255 -1.5106,0.3012 -0.2768,1.5873 1.0176,1.0612 1.3341,5.283 0.7003,9.3819 -4.2207,27.2952 -7.7578,54.8257 -7.3491,57.2152 0.265,1.5496 2.416,3.1547 4.781,3.5671 4.1664,0.7264 4.4141,-0.1293 7.9245,-27.5934 1.9934,-15.5886 3.7315,-32.2604 3.8631,-37.0483 0.3776,-13.7665 4.1513,-36.9839 6.2517,-38.4772 3.1601,-2.2362 5.9243,3.8133 5.1908,11.3821 -0.3783,3.9045 -0.7299,19.8877 -0.7807,35.5143 -0.05,15.6267 -1.075,34.3522 -2.2754,41.6134 -2.3286,14.0828 0.4765,19.6057 6.8422,13.4725 2.8523,-2.748 3.195,-1.9822 2.5877,5.8325 -0.3231,4.1601 -0.8888,6.7338 -1.9,8.228 l 6.1265,1.0681 c 0.2157,-1.2283 0.8047,-2.3779 1.6806,-3.393 l -1.0175,0.1767 3.943,-15.3631 c 2.1692,-8.4486 4.8851,-18.1468 6.0387,-21.5538 4.5184,-13.3443 9.853,-34.2453 13.8701,-54.3439 2.6636,-13.3267 5.1358,-21.1816 6.7421,-21.4229 1.6415,-0.2464 1.928,3.1 0.8145,9.487 -0.9462,5.4267 -1.0868,11.7775 -0.3165,14.1121 1.0207,3.0927 0.4094,4.8088 -2.2484,6.3308 -3.1444,1.801 -3.3471,2.7808 -1.4787,7.1096 2.6608,6.1673 3.4249,18.502 1.6103,25.9884 -1.7074,7.0436 0.1616,17.1722 3.2713,17.7142 2.6295,0.4585 4.5057,-16.0462 4.7532,-41.8135 0.08,-8.405 0.3516,-16.9683 0.6015,-19.0295 0.2501,-2.0612 -0.2923,-3.8777 -1.2094,-4.0377 -0.9171,-0.1595 -1.0043,-4.1113 -0.1896,-8.7803 0.9643,-5.5302 2.2431,-8.2095 3.8564,-8.0576 l 0,6e-4 0,9e-4 c 0.7329,0.078 1.5373,0.7329 2.4104,1.975 0.5991,0.8413 2.6603,1.8325 4.8513,2.4046 l 1.8725,-10.7397 c -0.4251,-0.5698 -0.8615,-1.242 -1.3383,-2.0742 -1.1254,-1.9653 -4.0434,-3.7042 -6.4846,-3.8641 -3.4033,-0.2232 -5.3851,-3.3195 -8.4924,-13.2689 -4.4309,-14.1887 -4.4059,-16.8796 0.5442,-57.3295 2.7665,-22.6082 2.8109,-31.2428 0.2525,-48.0653 -3.65,-23.9998 -0.9662,-50.4865 6.7767,-66.8905 8.5824,-18.1835 9.3713,-35.2827 2.7663,-59.8379 -2.1293,-7.9169 -10.5002,-14.7335 -20.4622,-16.6586 -4.4747,-0.8654 -9.8475,-2.6155 -11.943,-3.8889 -3.2085,-1.9492 -3.2516,-2.4234 -0.2742,-3.0076 2.5714,-0.5048 4.0533,-3.6759 5.4394,-11.6256 1.551,-8.8963 3.1262,-11.8257 8.4659,-15.7534 7.141,-5.2528 8.8256,-9.5252 5.5793,-14.1427 -1.1549,-1.6424 -1.093,-7.9357 0.1358,-14.0834 2.8688,-14.3477 1.5075,-23.3423 -4.4665,-29.5231 -5.9206,-6.1245 -21.6622,-11.0513 -26.4831,-8.2906 -2.7805,1.5925 -5.0408,0.5263 -11.1579,-5.2554 -5.3816,-5.0869 -7.6091,-6.68 -14.9526,-7.7922 z m -48.7441,27.4764 3.9426,5.6076 c 2.1682,3.0842 3.5261,7.9951 3.0175,10.9133 -0.7334,4.2054 -1.994,5.1195 -6.0859,4.406 -6.1873,-1.0789 -9.479,4.0677 -11.0054,17.2155 -0.5816,5.01 -1.6045,9.014 -2.2773,8.8968 -0.6717,-0.1164 -0.7492,-2.9303 -0.1701,-6.2526 0.5792,-3.3224 0.06,-9.3697 -1.155,-13.4376 -1.8298,-6.1289 -1.5734,-8.3916 1.4772,-13.2004 2.0246,-3.1917 4.9301,-5.5854 6.4584,-5.3191 1.528,0.2665 3.4587,-1.611 4.2896,-4.1722 l 1.5082,-4.6573 z m 11.6564,27.2359 -9e-4,0 c 2.2121,0.3861 4.309,1.4121 4.8758,2.8275 1.1776,2.9387 -1.6443,3.5438 -7.3157,1.5649 -2.5679,-0.8962 -3.9671,-2.4195 -3.1084,-3.3866 1.0125,-1.1419 3.3374,-1.3961 5.5492,-1.0099 z m -34.5405,-3.622 c 0.732,0.1573 1.3318,0.4668 1.6231,0.8809 0.582,0.8281 -0.7588,1.1108 -2.9799,0.6293 -2.4548,-0.533 -2.872,-1.1267 -1.0609,-1.5089 0.8192,-0.1723 1.6857,-0.1594 2.4177,0 z m 32.3905,15.6845 c 1.2069,-0.056 1.7039,3.1394 1.4488,9.4011 -0.2445,5.9971 0.335,11.595 1.2861,12.4394 0.9513,0.8445 1.6194,6.0323 1.4886,11.5268 -0.1766,7.4079 -1.0765,10.3366 -3.4882,11.3336 -5.3052,2.1929 -12.8723,0.069 -12.2603,-3.4403 0.3053,-1.7508 -0.4638,-3.3612 -1.7124,-3.5787 -4.5867,-0.7997 -2.6511,9.3694 2.0754,10.9028 2.5613,0.8307 4.4924,2.4548 4.2909,3.6097 -0.2003,1.1549 0.692,1.6754 1.985,1.1577 1.293,-0.5179 2.0912,0.5483 1.7738,2.3678 -0.33,1.8938 -2.3919,2.9914 -4.821,2.5677 -2.3346,-0.407 -4.0938,-1.6054 -3.9094,-2.6634 0.1853,-1.0577 -1.5069,-1.766 -3.761,-1.5782 -2.6603,0.2217 -5.5365,-2.1342 -8.2002,-6.7132 -2.2567,-3.879 -5.3323,-6.8706 -6.8326,-6.6453 -1.5002,0.2254 -2.4761,-1.0343 -2.1676,-2.804 0.3085,-1.7693 2.5774,-3.4938 5.041,-3.8277 2.4637,-0.3337 4.7177,-1.9734 5.0092,-3.6453 0.6988,-4.0083 6.2594,-2.955 7.1033,1.3451 0.7594,3.87 6.4736,3.3971 8.9489,-0.7417 1.05,-1.7555 -0.6304,-4.6461 -4.496,-7.7244 -5.811,-4.6276 -8.199,-13.2928 -3.1446,-11.4095 1.2788,0.4763 3.1836,-2.2605 4.234,-6.0828 1.2911,-4.6974 2.7474,-6.4478 4.4994,-5.4 1.4253,0.8525 3.6992,0.7739 5.0488,-0.1745 0.2025,-0.1421 0.3874,-0.2154 0.5601,-0.2225 z m 64.3829,42.4213 c 2.2995,0.4709 4.3896,1.3656 5.2608,2.6043 0.7228,1.028 2.8949,2.2008 4.8288,2.6058 9.0463,1.8949 16.7056,6.6249 16.1522,9.9746 -0.4817,2.9263 -0.1551,3.0765 1.8523,0.8653 4.2704,-4.7062 11.9052,4.7716 12.64,15.6918 0.3481,5.1757 1.0754,12.5104 1.617,16.2985 1.2805,8.9551 -0.5427,18.3269 -6.755,34.7505 -6.1087,16.1509 -10.1772,58.9485 -6.2523,65.769 3.181,5.5279 3.9119,22.0084 1.6928,38.1582 -1.8749,13.645 -3.963,16.9434 -4.191,6.6197 -0.3978,-17.9967 -1.4894,-28.7772 -4.4121,-43.5782 -1.9673,-9.9631 -2.5494,-20.9982 -1.4843,-28.0591 0.9649,-6.4004 2.3188,-22.3621 3.0071,-35.4722 1.3042,-24.8417 2.2827,-30.9672 7.1488,-44.676 2.2239,-6.2657 2.2265,-7.312 0.021,-4.371 -2.2777,3.0287 -2.3361,2.1442 -0.2656,-4.0867 1.7792,-5.3547 1.8279,-7.6281 0.1444,-6.9538 -1.3756,0.5511 -2.3256,-0.022 -2.1102,-1.2478 0.2157,-1.2359 -1.0963,-2.506 -2.916,-2.8231 -1.8208,-0.3176 -2.8857,0.4808 -2.3678,1.7738 0.5177,1.293 -0.067,2.1752 -1.3029,1.9595 -1.2361,-0.2154 -1.8163,-2.8828 -1.2859,-5.926 0.6676,-3.8286 0,-5.3437 -2.1532,-4.9197 -1.7161,0.3367 -4.0662,-0.709 -5.2211,-2.3157 -1.6093,-2.2441 -2.0548,-2.2303 -1.9154,0.058 0.1185,1.9399 -3.6063,3.3053 -10.6126,3.89 -5.9357,0.4953 -11.9276,2.0526 -13.3191,3.465 -1.74,1.7656 -1.7868,0.992 -0.1443,-2.4809 1.3141,-2.7778 2.5112,-5.0292 2.6577,-5.0036 2.0127,0.351 9.6449,-3.7094 10.7197,-5.7036 1.0192,-1.8909 -0.2154,-2.6149 -4.348,-2.5477 -3.9447,0.065 -5.6104,-0.8186 -5.2661,-2.7932 0.3358,-1.9255 4.7538,-2.3127 8.5863,-1.5268 z m -102.4749,-8.2102 c 5.4809,0.9905 3.6521,6.0736 -3.3004,7.4157 -5.4046,1.0435 -5.9796,1.9548 -6.2946,9.9646 -0.4627,11.7775 0.9068,13.0412 7.9019,7.2974 3.2455,-2.665 6.5144,-4.0632 7.2643,-3.1071 0.7501,0.9561 1.0567,-0.039 0.6801,-2.2092 -0.5039,-2.9014 0.4192,-3.7536 3.4908,-3.2181 2.298,0.4007 4.0119,1.6836 3.8083,2.8508 -0.2046,1.1672 1.2133,2.3984 3.1449,2.7351 3.2118,0.5601 3.1685,0.8794 -0.4981,3.74 -2.9094,2.2698 -3.6171,4.2526 -2.5748,7.2218 0.7904,2.2517 0.7671,4.8521 -0.056,5.7778 -1.9613,2.2086 1.28,16.2433 3.6386,15.7541 2.4244,-0.503 3.868,4.6565 4.2749,15.2624 0.3036,7.9136 1.1192,9.0579 8.8856,12.4832 10.2847,4.5363 14.6349,9.5595 9.9157,11.4498 -2.5593,1.0251 -2.6222,1.5438 -0.36,2.8973 3.2276,1.9303 1.6229,20.5222 -1.8932,21.9304 -1.3022,0.5216 -2.1911,-3.5718 -2.0517,-9.4463 0.249,-10.4715 -2.4414,-25.851 -3.859,-22.0581 -1.8748,5.016 -2.922,9.1277 -5.5972,21.9853 -2.1765,10.4599 -3.1117,12.516 -3.9322,8.6637 -0.5918,-2.7782 -0.5994,-9.4186 -0.022,-14.7599 0.5802,-5.3413 0.3361,-9.8362 -0.5392,-9.9898 -0.8753,-0.153 -1.2579,-2.1918 -0.8507,-4.5264 0.8175,-4.6892 -7.3455,-7.7298 -8.2781,-3.0832 -0.3067,1.5343 -1.4987,0.7632 -2.8395,-1.8404 -2.242,-4.3527 -2.5429,-4.3889 -10.4981,-1.2028 -4.5054,1.8047 -8.8078,4.3698 -9.5607,5.6964 -0.7531,1.3266 -2.0007,1.5769 -2.7713,0.5588 -2.1568,-2.8494 9.9815,-10.378 17.3026,-10.7315 12.7896,-0.6181 14.7484,-1.1009 13.2215,-3.2728 -2.9986,-4.2653 -17.2651,-2.4208 -25.6935,3.3234 l -8.3515,5.6935 2.0317,-12.6809 c 2.3501,-14.6578 -2.2719,-35.4507 -7.8397,-35.262 -1.8149,0.062 -3.2148,1.5466 -3.112,3.2969 0.1034,1.7506 -1.1465,13.9753 -2.7763,27.167 -3.4011,27.5273 -9.1783,44.4819 -20.4015,59.8852 -4.0563,5.5669 -8.7067,10.3839 -10.3356,10.7034 -3.8268,0.7512 -3.4089,-1.3835 0.9802,-4.9842 8.5355,-7.0029 21.8848,-61.854 20.0306,-82.3044 -0.5229,-5.7801 0.3653,-11.0075 2.7402,-16.1325 1.9318,-4.1703 4.8017,-11.7872 6.3763,-16.9249 2.5472,-8.3119 3.9421,-9.7331 12.6758,-12.9053 5.3986,-1.9608 12.0269,-3.4249 14.726,-3.2538 0.4311,0.028 0.8275,0.073 1.1928,0.14 z m 102.598,39.8887 c 1.0719,0.153 1.1247,1.2415 0.6973,3.6922 -0.6676,3.8297 -0.2025,4.236 2.8458,2.4908 2.9509,-1.69 3.5432,-1.5073 3.1134,0.9572 -0.2917,1.6736 1.0162,5.4124 2.9033,8.3092 1.8872,2.8971 2.6575,6.5616 1.7109,8.1443 -0.9468,1.5828 -1.0963,8.2488 -0.3313,14.8099 0.9544,8.1869 0.623,12.0441 -1.0549,12.2962 -1.3445,0.2025 -0.711,2.0957 1.4101,4.2094 4.6912,4.6746 3.3823,15.0665 -3.0963,24.544 l -4.4951,6.5753 2.4149,-6.4766 c 1.3732,-3.6772 1.5526,-7.2457 0.4145,-8.2565 -1.1023,-0.9789 -2.2639,-0.2919 -2.581,1.5276 -0.3174,1.8195 -1.6311,3.1239 -2.923,2.8986 -1.4052,-0.245 -1.4748,-1.7952 -0.1723,-3.8571 1.1971,-1.896 2.9436,-5.0233 3.8814,-6.9514 0.9379,-1.9277 2.4608,-2.835 3.3839,-2.0153 2.8622,2.542 2.5263,-2.2993 -0.397,-5.7326 -2.547,-2.9901 -5.7744,-2.6689 -6.8155,0.6782 -2.6151,8.412 -34.8445,44.1497 -33.6532,37.3169 0.1357,-0.7729 2.8357,-4.8476 6.0001,-9.0592 3.1642,-4.2116 7.0066,-11.8686 8.54,-17.013 2.4969,-8.3763 2.3409,-9.4325 -1.5183,-10.1053 -4.0141,-0.6999 -5.6024,1.2083 -9.624,11.5709 -1.5873,4.0894 -4.6858,9.1923 -12.835,21.1419 -3.8485,5.6433 -7.4868,10.1751 -8.0855,10.0708 -1.6538,-0.2884 -1.2721,-1.0804 5.044,-10.5329 3.2198,-4.8183 8.5263,-15.0766 11.795,-22.7969 3.2684,-7.7201 7.1963,-14.6043 8.7278,-15.2975 1.5313,-0.6933 -1.1301,-1.3719 -5.9176,-1.5059 l -8.7052,-0.2408 9.2804,-3.0587 c 6.4749,-2.1321 12.9647,-2.3897 21.4698,-0.8522 13.2581,2.3947 16.8207,0.181 6.1318,-3.8129 -11.0341,-4.122 -12.024,-4.7247 -13.4712,-8.2298 -0.765,-1.8529 -1.6312,-2.4268 -1.9259,-1.2755 -0.2947,1.1512 -1.0679,-0.4427 -1.7187,-3.5414 -0.8072,-3.8403 -0.4309,-5.7447 1.1805,-5.9872 1.3012,-0.1939 2.6838,-2.1896 3.074,-4.4271 0.3901,-2.2372 1.6639,-3.8997 2.8313,-3.6961 1.1672,0.2025 2.2995,-0.6474 2.5169,-1.8932 0.2307,-1.3244 -1.6838,-2.0646 -4.6097,-1.7818 l -5.0042,0.4813 5.5014,-3.3331 c 3.0259,-1.8337 5.6771,-4.3407 5.8917,-5.5716 0.2154,-1.2308 2.4785,-2.9273 5.0309,-3.7698 1.4903,-0.4916 2.5013,-0.7349 3.1446,-0.6433 z m -2.5274,51.7304 c -2.8545,-0.2047 -8.0271,4.8415 -8.8779,9.2494 -0.3922,2.0362 0.6213,3.935 2.2582,4.2205 3.7575,0.6551 10.4028,-10.6291 7.6817,-13.0455 -0.2936,-0.2611 -0.6542,-0.3951 -1.062,-0.4244 z m -42.8425,0.6325 c 0.2818,0.071 0.2421,0.7701 0.03,2.1534 -0.4361,2.8398 -0.2004,2.8809 2.1224,0.3701 2.9552,-3.1957 3.1209,-1.5401 0.3123,3.1554 -1.0301,1.7228 -2.6709,2.9938 -3.6444,2.824 -3.0035,-0.5237 -3.3984,-3.9216 -0.7874,-6.8002 1.077,-1.187 1.6838,-1.7669 1.9667,-1.7027 z m -58.5332,-2.4837 0,0 c 0.1616,0.056 0.3042,0.1724 0.4296,0.3527 2.3865,3.3945 -18.6001,49.9485 -22.2318,49.3154 -0.9802,-0.1702 -2.0319,1.1217 -2.3372,2.8727 -0.3052,1.7508 -1.8886,2.9508 -3.5145,2.6673 -1.6262,-0.2835 -3.7467,0.8108 -4.7166,2.4324 -1.4108,2.3585 -2.8589,2.2973 -7.2418,-0.306 -3.8506,-2.2874 -5.8191,-2.6226 -6.6238,-1.1294 -0.6297,1.168 -2.7426,1.8722 -4.6942,1.5691 -3.3137,-0.5166 -3.3391,-0.3679 -0.3722,2.1347 1.7501,1.477 5.6112,3.3185 8.5803,4.0929 2.9688,0.7745 5.2885,2.0277 5.1563,2.7866 -0.1315,0.7592 3.6248,2.6032 8.3489,4.0955 4.7241,1.4921 9.0805,3.9406 9.6818,5.4422 0.6012,1.5015 1.7251,2.7443 2.4953,2.7628 2.2335,0.052 15.175,8.6969 14.9501,9.9871 -0.3096,1.7758 -5.1221,0.4237 -8.4162,-2.3643 -3.2749,-2.772 -31.7365,-16.4456 -41.2892,-19.8371 -12.1823,-4.3252 -13.8716,-10.671 -3.3036,-12.407 3.7144,-0.6101 6.9232,-2.0817 7.1307,-3.271 0.2068,-1.1881 2.1999,-1.3303 4.4281,-0.3128 2.228,1.0174 4.2015,0.9866 4.3861,-0.073 0.1831,-1.0539 1.8012,-1.6676 3.5932,-1.3552 1.8326,0.3197 5.7334,-3.2304 8.9142,-8.1111 4.9811,-7.643 5.5597,-9.9597 4.8322,-19.3851 -0.8125,-10.5317 2.2343,-23.4514 5.2121,-22.1039 0.8361,0.3781 2.4505,0.8501 3.5886,1.0485 1.1515,0.2004 1.0466,2.9947 -0.2361,6.3015 -1.2676,3.2677 -1.6228,7.88 -0.7874,10.2499 1.7219,4.8859 2.0423,4.5085 8.8304,-10.5476 2.1576,-4.7847 4.0787,-7.3095 5.1983,-6.9096 z m -59.3819,71.8559 c 1.0286,0.1293 2.1568,0.3273 3.3406,0.608 4.6212,1.0896 8.2677,2.7503 8.104,3.6894 -0.1637,0.9393 -4.1179,1.0418 -8.7869,0.2277 -4.669,-0.8141 -8.3155,-2.4748 -8.1038,-3.6894 0.1638,-0.9337 2.3596,-1.2209 5.4461,-0.8357 z m 18.6922,4.0535 c 0.9456,0.2004 1.9721,0.4729 3.0406,0.812 10.0661,3.1956 24.7794,11.5198 24.3824,13.7971 -0.1702,0.9754 2.8908,4.5847 6.8021,8.0197 3.9114,3.435 7.2994,7.059 7.5271,8.0519 0.2279,0.9931 1.767,2.0422 3.4204,2.3305 1.6538,0.2884 2.8738,1.2777 2.7133,2.1986 -0.1616,0.9214 4.5108,4.8698 10.3776,8.7755 5.8666,3.9057 10.0474,7.7946 9.2947,8.6421 -1.9777,2.2269 -2.9066,1.7722 -17.3302,-8.4626 -7.1869,-5.1001 -12.8662,-10.6278 -12.618,-12.2885 0.2479,-1.6605 -0.2784,-2.5063 -1.1718,-1.8785 -0.8931,0.6282 -5.6752,-2.9953 -10.6279,-8.0504 -4.9527,-5.0548 -9.9605,-9.3562 -11.1251,-9.5592 -1.1647,-0.2025 -1.9704,-1.2163 -1.7898,-2.2512 0.1809,-1.0345 -3.8575,-3.2736 -8.9728,-4.977 -5.1154,-1.7036 -9.1547,-3.934 -8.9765,-4.9562 0.1336,-0.7669 2.2183,-0.805 5.0539,-0.2046 z m 109.0484,21.6827 c 0.3498,0.088 0.6443,0.2917 0.8712,0.6131 0.8556,1.2171 0.735,3.1383 -0.2706,4.2708 -1.0054,1.1321 -3.2123,1.8189 -4.904,1.524 -2.532,-0.4414 -2.4856,-1.1967 0.2703,-4.2709 1.463,-1.6314 2.9835,-2.4001 4.0331,-2.137 z m -53.8009,-0.034 c 5.4185,0.9449 21.8714,8.947 21.5995,10.5058 -0.4334,2.486 -1.9225,2.0974 -10.4552,-2.7454 -3.8305,-2.1741 -7.7375,-4.2073 -8.6856,-4.5171 -2.1095,-0.6898 -4.2864,-3.5619 -2.4587,-3.2433 z m 13.8312,13.5634 c 3.745,0.5325 7.2319,2.0271 7.7498,3.3201 1.0827,2.7037 -2.3553,2.1041 -9.5504,-1.6652 -4.7838,-2.5061 -4.7019,-2.5811 1.8006,-1.6549 z m 41.4643,11.3851 c 0.5147,0.091 0.7663,1.1177 0.5627,2.2851 -0.2025,1.1672 -1.3807,1.946 -2.6166,1.7305 -1.2363,-0.2156 -1.4916,-1.2441 -0.5668,-2.2857 0.9249,-1.0413 2.1061,-1.8195 2.6207,-1.7299 z m -18.4318,18.6542 c 2.9182,0.5088 4.6448,1.6676 3.8396,2.5744 -1.2846,1.4466 -4.3155,1.8473 -19.2068,2.5453 -1.8188,0.086 -6.2646,0.1852 -9.8791,0.221 l -6.5712,0.062 6.9066,-1.9863 c 3.7989,-1.0926 9.0073,-1.6635 11.5741,-1.2706 2.5667,0.3927 5.4224,-0.1357 6.3472,-1.1784 0.9248,-1.0414 4.0716,-1.4767 6.9896,-0.9681 z m 17.5505,9.6975 c 7.5501,1.2223 5.9794,2.9492 -2.0242,2.2265 -3.1607,-0.2855 -5.8784,0.2296 -6.0378,1.1428 -0.1594,0.9111 -2.4317,1.2488 -5.0509,0.7508 -4.702,-0.8964 -4.6884,-0.9356 1.0724,-3.0162 3.209,-1.1595 8.6285,-1.6552 12.0405,-1.1039 z m -36.148,2.4615 c 4.1916,0.6784 8.1746,2.0257 8.8532,2.9914 0.6791,0.9656 3.7181,2.5391 6.7496,3.496 3.0315,0.9569 6.8233,2.9673 8.4295,4.468 2.497,2.3333 2.4109,2.4673 -0.5929,0.9259 -4.8503,-2.4886 -5.3279,2.5957 -0.6389,6.7993 2.0804,1.865 3.5343,4.8144 3.2305,6.5555 -0.3035,1.7409 0.1982,3.2978 1.1142,3.4574 0.9156,0.1595 2.8579,3.4503 4.3159,7.3128 1.4581,3.8624 2.3499,6.9701 1.982,6.9059 -0.3678,-0.065 -6.2322,-8.0264 -13.0296,-17.6944 -7.5175,-10.6928 -15.4266,-19.3174 -20.1949,-22.015 l -7.8416,-4.4338 7.623,1.231 z m 37.9718,9.9819 c 0.9526,0.2251 1.5352,0.6749 1.4141,1.3699 -0.1853,1.0566 -1.2118,1.7704 -2.2836,1.5836 -1.0717,-0.1874 -3.7275,0 -5.9016,0.4358 -2.4856,0.4879 -3.2991,0.039 -2.1894,-1.2103 1.4528,-1.6357 5.3142,-2.5095 7.8978,-2.3303 0.3876,0.026 0.7452,0.075 1.0627,0.1508 z m 53.6432,34.8897 c 1.2706,0.1443 2.2516,0.3925 2.6267,0.7356 1.438,1.2769 -8.1815,42.9843 -11.9352,51.7472 -4.5063,10.5203 -6.0139,15.7537 -8.5475,29.6712 -1.4333,7.8687 -2.7784,14.1952 -2.9904,14.0642 -0.2111,-0.1314 -1.4955,-0.9267 -2.852,-1.7699 -1.3564,-0.843 -1.8491,-5.0727 -1.0946,-9.3992 0.7542,-4.3264 0.9395,-13.3175 0.4078,-19.9773 -1.0466,-13.1069 0.03,-40.1916 1.8294,-46.0605 0.6127,-1.9979 0.1056,-3.8083 -1.1265,-4.0233 -3.2652,-0.5692 1.4061,-15.6589 5.0158,-16.2011 2.222,-0.3339 2.4546,1.2415 0.882,6.0137 -1.1724,3.5571 -1.3593,6.6052 -0.416,6.7696 0.944,0.1637 0.9373,4.8376 0,10.3858 -0.9455,5.5481 -2.0875,14.4516 -2.5358,19.7856 -0.4483,5.3342 -0.9343,10.9651 -1.084,12.5131 -0.1508,1.549 0.6924,2.4262 1.8718,1.9537 1.1797,-0.4722 3.0826,-7.8241 4.2282,-16.3385 1.1459,-8.5143 3.2674,-17.4856 4.711,-19.9402 1.6015,-2.7226 1.8176,-4.6033 0.555,-4.8235 -1.1384,-0.1982 -1.5076,-3.6026 -0.8174,-7.5613 1.0362,-5.9424 2.2401,-7.267 6.8963,-7.6089 1.5509,-0.1142 3.1134,-0.082 4.3836,0.065 z m -115.4621,-0.1078 c 0.1336,0 0.2581,0.067 0.3813,0.1638 0.9731,0.8638 0.6075,5.0397 -0.8106,9.2806 -1.4182,4.2409 -3.7183,8.4976 -5.1089,9.458 -1.7051,1.1775 -1.8589,0.5579 -0.4755,-1.9023 1.1282,-2.0065 2.6289,-6.9682 3.3366,-11.0271 0.6191,-3.5515 1.7527,-5.9969 2.6771,-5.9738 z m -136.0208,-11.4368 c 1.6498,0.4056 0.463,1.9546 -4.2868,4.1812 -2.6112,1.2243 -4.2286,2.966 -3.5921,3.8711 0.6364,0.9052 0.7767,1.4817 0.3107,1.2802 -11.2316,-4.8475 -11.2499,-4.9837 -1.0901,-7.9805 4.376,-1.2906 7.375,-1.6672 8.6583,-1.352 z m 32.6788,12.1941 c 2.5717,0.4483 2.8122,2.759 1.0984,10.5786 -1.2061,5.5027 -3.6467,22.7902 -5.4255,38.4162 -2.382,20.9272 -3.8756,28.2991 -5.6697,27.9863 -1.3395,-0.2335 -1.8746,-3.033 -1.1876,-6.2207 0.687,-3.1877 2.3102,-17.9115 3.6037,-32.7201 3.1771,-36.374 3.6454,-38.7265 7.5807,-38.0403 z m -17.4635,5.7021 c -1.3938,-0.243 -9.0131,22.128 -8.8817,26.0766 0.026,0.779 -1.3695,2.002 -3.1007,2.7182 -2.5717,1.0647 -2.637,1.3956 -0.3561,1.8215 2.2431,0.4175 1.4865,6.4167 -3.8568,30.5234 -3.6573,16.5014 -8.3422,34.5161 -10.4097,40.0328 -2.0672,5.5167 -4.3204,13.2424 -5.005,17.1684 -0.9744,5.589 -0.3736,7.2896 2.7721,7.8381 3.9285,0.6849 8.4489,-3.9432 7.1121,-7.2808 -0.3701,-0.9246 0.8997,-5.2851 2.8222,-9.6943 3.9432,-9.0407 19.8681,-88.2265 20.264,-100.7662 0.1422,-4.4856 -0.4716,-8.2828 -1.3604,-8.4377 z m -128.2609,-4.8686 c 4.3993,0.7669 4.3726,1.2951 -1.3951,26.5448 -3.237,14.169 -6.2638,26.0322 -6.7235,26.3633 -1.094,0.7874 -0.3326,-13.8622 1.8658,-35.9574 1.695,-17.0332 1.941,-17.7026 6.2528,-16.9507 z m 261.0819,87.8644 a 15.442965,13.699405 9.8904179 0 1 0,0.039 l 0.021,0 c 0,-0.022 -0.021,-0.028 -0.021,-0.041 z" id="path18095" inkscape:connector-curvature="0"/>
  </g>
</svg>