<?xml version="1.0" encoding="UTF-8" standalone="no"?>
<!-- Created with Inkscape (http://www.inkscape.org/) -->
<svg xmlns:dc="http://purl.org/dc/elements/1.1/" xmlns:cc="http://creativecommons.org/ns#" xmlns:rdf="http://www.w3.org/1999/02/22-rdf-syntax-ns#" xmlns:svg="http://www.w3.org/2000/svg" xmlns="http://www.w3.org/2000/svg" xmlns:sodipodi="http://sodipodi.sourceforge.net/DTD/sodipodi-0.dtd" xmlns:inkscape="http://www.inkscape.org/namespaces/inkscape" width="43.380249mm" height="80.122231mm" viewBox="0 0 153.70954 283.89767" id="svg6217" version="1.1" inkscape:version="0.91 r13725" sodipodi:docname="model.svg">
  <defs id="defs6219"/>
  <sodipodi:namedview id="base" pagecolor="#ffffff" bordercolor="#666666" borderopacity="1.0" inkscape:pageopacity="0.0" inkscape:pageshadow="2" inkscape:zoom="1.3309859" inkscape:cx="75.917156" inkscape:cy="117.15264" inkscape:document-units="px" inkscape:current-layer="layer1" showgrid="false" fit-margin-top="0" fit-margin-left="0" fit-margin-right="0" fit-margin-bottom="0" inkscape:window-width="1366" inkscape:window-height="705" inkscape:window-x="-8" inkscape:window-y="-8" inkscape:window-maximized="1"/>
  <metadata id="metadata6222">
    <rdf:RDF>
      <cc:Work rdf:about="">
        <dc:format>image/svg+xml</dc:format>
        <dc:type rdf:resource="http://purl.org/dc/dcmitype/StillImage"/>
        <dc:title/>
      </cc:Work>
    </rdf:RDF>
  </metadata>
  <g inkscape:label="Layer 1" inkscape:groupmode="layer" id="layer1" transform="translate(24.488585,-1157.0457)">
    <path style="fill:#000000" d="m 20.792969,1157.0488 c -2.69938,-0.07 -5.590938,1.0473 -9.523438,3.4746 -6.030199,3.722 -7.9845279,6.6354 -8.4863279,12.6446 -0.2171,2.6008 -0.7022656,3.2485 -2.3847656,3.1855 -2.8873,-0.1085 -2.6584781,2.1764 0.41992188,4.1934 2.18870002,1.4341 2.34888752,1.8782 1.17968752,3.2734 -1.69490017,2.0227 -3.8123188,9.1417 -3.0742188,10.3359 1.3374001,2.1645 0.99224041,6.4334 -0.6933593,8.5762 -2.116,2.69 -1.6387031,4.8473 1.27929682,5.7735 2.51310008,0.7976 0.47567789,2.4242 -2.16992182,1.7324 -3.2398002,-0.8473 -7.5954468,4.1137 -9.1230468,10.3906 l -1.414063,5.8047 -0.322265,-4.5 c -0.3934,-5.5016 -1.695185,-7.1352 -2.646485,-3.3223 -0.3874,1.5528 -2.5522,5.2239 -4.8125,8.1582 -3.908,5.0734 -4.047896,5.4901 -2.841796,8.5 0.6977,1.7407 1.983921,5.9811 2.857421,9.4239 1.5112,5.9564 1.482169,6.7596 -0.582031,16.5976 -1.1932,5.6863 -2.169922,11.784 -2.169922,13.5488 0,5.0052 2.019888,11.8031 4.054688,13.6446 1.7342,1.5694 2.063322,1.5402 5.294922,-0.4571 4.2051,-2.5989 6.0162965,-5.2539 7.9667965,-11.6718 2.0157,-6.6321 4.5965311,-12.3151 4.6445313,-10.2285 0.0215,0.9312 1.38906261,5.7215 3.0390624,10.6464 3.3142,9.8921 3.7598844,16.4289 1.5839844,23.2325 -0.7853,2.4553 -1.6687218,10.7838 -1.98242185,18.6933 -0.3906,9.8473 -1.03413129,15.1728 -2.08203125,17.1992 -0.8349,1.6146 -1.5195313,4.0999 -1.5195313,5.5215 0,2.5886 2.37969696,7.1359 4.7167969,9.0137 0.9772,0.7851 0.4113813,5.0823 -2.63671872,20 l -3.88281248,19 1.9589843,3.4043 c 1.70720021,2.9671 1.79540021,3.798 0.6875,6.4726 -0.6990998,1.6878 -1.2999843,3.7562 -1.3339843,4.5957 -0.1974,4.8089 -1.9548188,13.9036 -3.1367188,16.2286 -1.5748,3.0982 -1.7516937,6.6532 -0.4335937,8.7363 0.7335,1.1591 1.5188531,0.7837 4.0644531,-1.9414 2.74899996,-2.9428 3.40848746,-3.2195 5.1171875,-2.1524 1.0786,0.6736 2.5047219,0.9166 3.1699219,0.5411 2.1003,-1.1856 5.7089841,-4.699 5.7089841,-5.5586 0,-1.3879 -5.8460185,-0.9176 -6.6992185,0.539 -0.4398,0.7509 -2.2677,1.5733 -4.0625,1.8282 -3.2547,0.4622 -3.2622406,0.4542 -2.6191406,-3.1153 0.3547,-1.9683 1.0948313,-4.4468 1.64453122,-5.5078 0.54960002,-1.061 1.27678755,-4.2046 1.61718748,-6.9863 0.4672,-3.817 1.0702781,-5.1438 2.4550782,-5.4102 1.4638999,-0.2816 1.7947781,0.2206 1.6425781,2.4864 -0.3499,5.2101 0.00975,7.1835 1.59375,8.7675 2.4683,2.4682 4.2327001,1.8812 7.1875001,-2.3906 2.6883,-3.8866 5.240234,-5.2479 5.240234,-2.7969 0,3.2036 3.597675,9.7559 5.359375,9.7559 1.563,0 1.78725,-0.5939 1.40625,-3.7461 -0.5838,-4.8309 0.93575,-9.2039 3.53125,-10.1641 1.3587,-0.5026 1.654913,-0.9973 0.882813,-1.4746 -1.6318,-1.0084 -6.171938,3.8122 -6.210938,6.5938 -0.031,2.2338 -0.0713,2.2424 -1.5,0.3535 -1.6751,-2.2147 -1.96155,-7.136 -0.46875,-8.0586 0.55,-0.3399 1,-1.4232 1,-2.4063 0,-0.983 0.7875,-3.3174 1.75,-5.1894 1.4604,-2.8403 1.736969,-6.0033 1.667969,-19.1094 -0.0454,-8.6381 0.264453,-15.4912 0.689453,-15.2285 0.7716,0.4768 1.621607,-0.295 4.47461,-4.0664 1.4418,-1.9058 1.486696,-1.8588 0.966796,1 -0.3001,1.65 -1.428012,9.75 -2.507812,18 -1.0797,8.25 -2.2329,15.9167 -2.5625,17.0371 -0.4231,1.438 0.520437,3.423 3.210937,6.752 2.6716,3.3058 3.913644,4.2408 4.152344,3.125 0.1873,-0.8753 -0.6002,-2.5945 -1.75,-3.8184 -2.5982,-2.7656 -2.633589,-3.5957 -0.150391,-3.5957 2.7994,0 3.154163,1.0295 4.101563,11.9355 1.0268,11.8215 3.378125,16.7821 10.578125,22.3086 7.9297,6.0864 10.560034,4.6037 2.927734,-1.6504 -6.6986,-5.4891 -8.657528,-8.793 -9.111328,-15.3652 -1.1274,-16.3289 -2.052531,-18.8787 -7.207031,-19.8457 -2.415,-0.453 -3.169584,-1.0512 -2.833984,-2.25 0.8682,-3.1011 1.52355,-9.6749 2.15625,-21.6328 0.3493,-6.6 1.0247,-12.4741 1.5,-13.0527 0.4753,-0.5787 0.633009,-1.938 0.349609,-3.0215 -0.3346,-1.2796 0.366453,-2.7994 2.001953,-4.336 l 2.517578,-2.3652 3.574219,3.1367 c 3.4197,3.0026 6.503906,4.0892 6.503906,2.291 0,-0.4659 -1.0125,-1.3348 -2.25,-1.9316 -2.2095,-1.0658 -2.2005,-1.0863 0.5,-1.1523 3.8399,-0.094 3.401366,-1.1036 -1.990234,-4.5684 -6.1445,-3.9486 -7.475056,-4.4268 -14.160156,-5.084 -4.7801,-0.47 -6.0717,-0.2259 -8.375,1.5859 -3.8083,2.9956 -3.396372,4.1246 0.736328,2.0176 2.8743,-1.4653 4.1438,-1.5813 7.5,-0.6855 4.6575,1.2432 4.896865,1.8359 1.759765,4.3437 -1.2539,1.0024 -3.8414,4.0094 -5.75,6.6836 l -3.470703,4.8633 -0.0332,15.6367 c -0.0223,10.6043 -0.436056,16.3629 -1.285156,17.8887 -0.6887,1.2375 -1.003472,2.25 -0.701172,2.25 1.3844,0 -5.634731,11.8709 -7.894531,13.3516 -1.3994,0.9169 -3.267091,3.0654 -4.150391,4.7734 -1.0782996,2.0853 -1.9369811,2.774 -2.6132811,2.0976 -1.337,-1.3365 2.0080371,-15.2204 3.8359371,-15.9218 2.2632,-0.8685 1.493297,-4.1585 -1.408203,-6.0196 -1.5124988,-0.9701 -3.7365591,-2.6663 -4.9433591,-3.7714 l -2.1933594,-2.0098 2.5,-9.5 c 2.7457,-10.4298 3.8674734,-15.4644 5.4511715,-24.4668 0.5772,-3.2811 1.511825,-6.5228 2.078125,-7.2051 1.1274,-1.3585 0.224172,-3.673 -1.111328,-2.8476 -0.4568,0.2823 -1.369097,2.7639 -2.029297,5.5156 -0.6600981,2.7517 -1.5994371,5.0039 -2.0859371,5.0039 -1.8076,0 -7.42319694,-5.9633 -6.3417969,-6.7344 0.5902,-0.4207 1.3464406,-1.5113 1.6816406,-2.4219 0.3352,-0.9106 2.1031344,-1.9748 3.9277344,-2.3652 1.8247,-0.3903 3.766406,-1.0475 4.316406,-1.4609 0.55,-0.4133 3.630503,-1.7212 6.845703,-2.9063 4.4165,-1.6282 7.1057,-2.0136 11,-1.5742 15.0881,1.7027 31.701316,7.8346 35.041016,12.9316 1.3073,1.9955 1.690566,3.9223 1.322266,6.668 -0.285,2.1243 -0.121719,3.8633 0.363281,3.8633 1.6953,0 4.158694,-5.0165 3.683594,-7.502 -0.559,-2.9242 0.223056,-3.0783 4.472656,-0.8808 2.8675,1.4823 3.224928,1.4842 4.298828,0.016 1.4205,-1.9427 2.472656,-1.1021 2.472656,1.9746 0,2.6861 1.078294,3.5802 2.933594,2.4336 1.6196,-1.001 0.775341,-5.1914 -1.505859,-7.4726 -1.7704,-1.7703 -7.013929,-2.0565 -10.861329,-0.5938 -1.4458,0.5501 -2.566406,0.5857 -2.566406,0.082 0,-0.4915 -1.575,-1.8669 -3.5,-3.0566 -1.925,-1.1897 -3.5,-2.5768 -3.5,-3.082 0,-0.5051 3.987628,-0.918 8.861328,-0.918 l 8.861328,0 4.542969,4.25 c 4.2984,4.0216 4.5841,4.6262 5.3125,11.25 0.4234,3.85 0.723016,10.0308 0.666016,13.7344 -0.1719,11.1128 1.483609,8.5845 2.287109,-3.4922 0.9382,-14.1015 0.821316,-17.6142 -0.646484,-19.3828 -1.5258,-1.8385 -1.363538,-1.9556 5.914062,-4.2207 6.578363,-2.0471 6.944473,-2.0442 4.914063,0.039 -3.520069,3.6115 -6.084431,12.1361 -7.644531,25.4082 -1.0978,9.3387 -4.091244,20.1375 -6.714844,24.2285 -1.192,1.8587 -2.050275,2.1907 -4.359375,1.6836 -2.5462,-0.5593 -3.185764,-0.1647 -5.568359,3.4356 -2.990201,4.5186 -4.962122,5.3399 -4.044922,1.6855 0.8584,-3.4203 0.951228,-30.7868 0.111328,-32.8691 -0.3882,-0.9625 -0.993956,-1.7461 -1.347656,-1.7461 -0.353601,0 -0.715735,9.4517 -0.802735,21 -0.087,11.5482 0.203881,20.9961 0.646485,20.9961 1.240898,0 6.751671,-6.6071 7.513671,-9.0078 0.5877,-1.8518 1.18316,-2.0528 4.44336,-1.502 3.6521,0.617 3.860659,0.4895 6.943359,-4.3144 2.5122,-3.9149 3.484531,-6.9993 4.644531,-14.7266 0.807,-5.3759 1.487719,-11.1633 1.511719,-12.8613 0.0241,-1.6979 0.631963,-4.7355 1.351563,-6.75 1.964296,-5.4996 10.261806,-17.5942 12.574216,-18.3281 2.4018,-0.7623 2.63493,-2.0649 0.51367,-2.8789 -1.36804,-0.525 -17.577855,4.3155 -21.630855,6.4589 -2.4526,1.2971 -4.643513,-2.5811 -6.382813,-11.3027 -1.1496,-5.7641 -5.583,-11.7334 -10.75,-14.4746 l -3.220703,-1.709 4,-0.7441 c 6.0282,-1.1216 12.753653,-0.9976 18.564453,0.3437 7.304998,1.6862 21.475138,9.1664 21.291008,11.2383 -0.11225,1.2639 0.16014,1.3753 1.21485,0.5 1.99908,-1.6591 7.00719,2.2481 8.4375,6.582 0.96567,2.926 0.82186,4.4964 -0.89063,9.7325 -1.12316,3.4342 -2.97517,9.7887 -4.11718,14.121 -1.33987,5.083 -6.69657,17.2318 -15.09961,34.25 -7.162139,14.5052 -13.22255,26.3731 -13.46875,26.3731 -0.2462,0 -0.17248,-2.3625 0.166015,-5.25 0.442803,-3.7772 0.165919,-6.2319 -0.988281,-8.75 l -1.603515,-3.5 0.373046,3.5 c 0.205602,1.925 -0.08192,6.425 -0.640624,10 -0.558701,3.575 -0.991938,7.625 -0.960938,9 0.0308,1.375 -0.549065,3.1749 -1.289062,4 -1.079501,1.2036 -1.113376,2.2418 -0.171876,5.25 l 0,0.01 c 0.6455,2.0624 1.512335,3.75 1.927735,3.75 1.1975,0 0.877494,-3.4779 -0.441406,-4.7969 -0.9298,-0.9297 -0.702782,-1.8137 1.011718,-3.9512 1.2144,-1.514 3.636013,-5.5388 5.382813,-8.9453 1.7469,-3.4064 3.468972,-6.0138 3.826172,-5.793 0.3573,0.2208 0.711156,2.0205 0.785156,4 0.1835,4.8797 5.888177,15.4864 8.330077,15.4864 2.47195,0 2.34784,-1.0355 -0.61328,-5.1016 -2.80356,-3.8498 -4.5174,-7.3892 -5.125,-10.582 -0.2285,-1.2006 -0.783775,-3.1782 -1.234375,-4.3965 -0.6411,-1.733 0.739155,-5.2857 6.339845,-16.3184 3.93732,-7.7561 9.021,-17.3262 11.29687,-21.2676 2.55834,-4.4306 4.97474,-10.5385 6.33203,-16 1.20743,-4.8586 3.02214,-10.7848 4.03125,-13.1679 2.39909,-5.6656 2.35561,-11.6262 -0.10937,-15.0879 -2.28994,-3.2159 -21.37207,-14.7513 -28.556641,-17.2637 -2.75,-0.9617 -6.525925,-1.7632 -8.390625,-1.7812 -1.8648,-0.018 -5.324453,-1.0006 -7.689453,-2.1817 -3.8323,-1.914 -4.972609,-2.0383 -10.474609,-1.1523 -5.6587,0.9114 -6.362625,0.8182 -8.453125,-1.1192 -4.7538,-4.4057 -6.775703,-10.1488 -7.283203,-20.6894 -0.2658,-5.4405 -0.2641,-9.8906 0,-9.8906 0.264,0 1.787765,0.6216 3.384765,1.3828 5.8227,2.7733 7.972206,2.7719 10.753906,-0.01 2.2337,-2.2336 2.535872,-3.243 2.138672,-7.168 -0.2543,-2.513 -1.089968,-6.4008 -1.855468,-8.6386 -1.2808,-3.7447 -2.031041,-6.4393 -4.681641,-16.8008 -0.5251,-2.053 -1.399859,-6.8691 -1.943359,-10.7012 -1.1496,-8.1056 -5.293875,-17.5523 -8.671875,-19.7656 -1.2953,-0.8488 -4.025057,-2.1173 -6.064453,-2.8184 -3.768502,-1.2956 -5.819663,-4.8919 -4.601563,-8.0664 0.7128,-1.8575 -0.682444,-1.7965 -3.464844,0.1524 -2.5473,1.7842 -2.07999,3.4316 0.97461,3.4316 1.7207,0 1.856559,0.2491 0.818359,1.5 -1.6677,2.0056 -12.506381,2.0017 -16.363281,-0.01 -3.3747,-1.76 -3.636719,-1.7983 -3.636719,-0.5293 0,1.48 3.417725,2.981 8.140625,3.5743 2.3471,0.2949 4.313187,0.6311 4.367187,0.748 0.256302,0.5541 3.783044,18.5715 4.152344,21.2129 1.3159,9.4117 3.66555,18.5909 5.84375,22.8281 1.7143,3.3347 2.209963,5.3459 1.601563,6.5 -1.0505,1.9925 -3.186732,12.0514 -3.707031,17.4531 -0.4094,4.251 1.227146,8.8757 5.560546,15.7071 1.5743,2.4818 3.456441,6.5306 4.181641,8.998 1.6227,5.5217 8.670059,12.6171 13.943359,14.0371 2.034,0.5477 4.354097,2.004 5.154297,3.2364 1.13,1.7402 5.761719,13.7885 5.761719,14.9941 2e-4,0.1353 -2.5873,0.304 -5.75,0.375 -3.1628,0.071 -8.343872,0.4648 -11.513672,0.875 -4.8396,0.6262 -6.9233,0.341 -13,-1.7813 -3.9802,-1.3898 -10.469675,-3.088 -14.421875,-3.7734 l -7.185547,-1.2461 -0.998047,-4.6015 c -2.5595,-11.8139 -1.997453,-19.6533 3.373047,-47.1016 1.4528,-7.425 2.870091,-14.85 3.150391,-16.5 0.2803,-1.65 1.527131,-8.0625 2.769531,-14.25 1.2425,-6.1875 1.880569,-11.25 1.417969,-11.25 -0.4625,0 -0.841797,0.3252 -0.841797,0.7226 0,0.3978 -1.323506,7.0352 -2.941406,14.75 -8.5422,40.7349 -10.336578,51.1884 -10.392578,60.5274 -0.0379,6.3738 0.47022,10.9197 1.544922,13.8164 1.470798,3.9521 1.470965,4.3708 0.0098,4.9316 -0.8779,0.3369 -1.771981,0.081 -1.988281,-0.5683 -0.2163,-0.6489 -0.792297,-1.1797 -1.279297,-1.1797 -0.4869,0 -0.64125,0.6344 -0.34375,1.4102 0.3365,0.8768 -0.33665,1.6792 -1.78125,2.123 -1.2773,0.3924 -4.97625,2.0173 -8.21875,3.6113 -3.2425,1.594 -6.0751219,2.7179 -6.2949219,2.4981 -1.2097,-1.2097 -0.5852156,-13.9311 0.6464844,-13.17 0.5256,0.3252 0.7892375,1.1387 0.5859375,1.8086 -1.0401,3.4257 -1.3908594,7.7188 -0.6308594,7.7188 1.1823,0 2.88335,-10.4672 3.65625,-22.5 0.5981,-9.3132 1.3283703,-13.9961 4.4804684,-28.75 1.2276,-5.7458 2.930563,-7.7486 2.976563,-3.5 0.0639,5.9437 1.103247,23.6175 1.560547,26.5273 0.2887,1.837 0.956278,3.0051 1.517578,2.6582 1.1175,-0.6907 0.503247,-14.6697 -1.251953,-28.5097 -0.9515,-7.5028 -0.808935,-10.2533 1.134765,-22 1.2217,-7.3838 2.675469,-13.8758 3.230469,-14.4258 0.677,-0.6708 0.827885,-0.3416 0.458985,1 -0.302501,1.1 -0.781254,5.6 -1.064454,10 -0.3304,5.1343 -0.21684,6.9254 0.31836,5 0.4587,-1.65 0.888125,-4.8537 0.953125,-7.1191 0.2245,-7.8182 3.099075,-21.1777 6.734375,-31.2989 3.7496,-10.4394 5.286587,-12.7054 3.367187,-4.9648 -5.8793,23.711 -9.18359,45.8828 -6.83789,45.8828 0.4703,0 0.863953,-1.6875 0.876953,-3.75 0.0128,-2.0625 1.187175,-9.375 2.609375,-16.25 5.6529,-27.3277 6.186087,-30.8562 4.742187,-31.4102 -0.739,-0.2836 -1.888234,0.4803 -2.552734,1.6973 -5.507,10.0845 -9.165885,19.4478 -11.708984,29.957 -1.6313,6.741 -4.631516,19.2309 -6.666016,27.7559 -4.4261006,18.5459 -4.9649314,19.8076 -5.9570314,13.9355 -0.7209,-4.2669 -5.0328156,-16.9803 -10.0410156,-29.6054 -2.6319,-6.6345 -3.0335656,-8.8105 -1.4472656,-7.8301 1.582,0.9777 1.1624,-1.1204 -0.5,-2.5 -0.825,-0.6847 -1.5,-2.6791 -1.5,-4.4316 0,-1.7525 -0.66125,-4.0593 -1.46875,-5.127 -1.4488,-1.9152 -1.469,-1.9148 -1.5,0.059 -0.0426,2.6937 2.7374562,17.1794 4.0976562,21.3516 1.9721,6.0491 -3.7057012,23.7394 -9.2207036,28.7304 -1.688898,1.5284 -1.850993,1.4257 -2.683593,-1.7265 -0.4875,-1.845 -0.5153,-4.0305 -0.0625,-4.8555 0.4528,-0.825 1.977172,-7.35 3.388672,-14.5 2.0156,-10.2098 2.42495,-14.5192 1.90625,-20.0762 -0.5318,-5.6988 -0.229213,-8.6178 1.554687,-15 1.2182004,-4.3584 2.8174876,-9.0987 3.5546876,-10.5351 1.8029,-3.5129 7.23276581,-4.3967 13.4472656,-2.1895 4.5213998,1.6059 4.6742278,1.5914 7.7988278,-0.7187 1.7529,-1.296 3.185547,-3.2011 3.185547,-4.2344 0,-1.0332 1.150841,-3.3874 2.556641,-5.2305 2.742,-3.595 3.136353,-5.4983 2.001953,-9.6562 -0.8432,-3.091 -0.311925,-3.5428 4.984375,-4.2442 2.1766,-0.2883 5.030697,-0.8394 6.341797,-1.2226 1.7791,-0.52 2.267581,-0.3478 1.925781,0.6777 -0.252,0.7557 -1.548612,1.6318 -2.882812,1.9473 -2.1921,0.5183 -2.243857,0.6442 -0.535157,1.3008 1.8424,0.708 6.62675,-1.5352 6.59375,-3.0918 -0.0465,-2.2093 -1.959106,-3.4511 -4.378906,-2.8438 -3.0049,0.7542 -3.250231,-0.018 -1.019531,-3.2031 1.25,-1.7846 1.332972,-2.5713 0.388672,-3.709 -1.438,-1.7328 -0.598506,-4.4707 1.371093,-4.4707 0.7749,0 1.967644,-0.675 2.652344,-1.5 0.9994,-1.2047 0.985928,-1.5 -0.07617,-1.5 -1.0671,0 -1.07934,-0.2413 -0.05664,-1.25 2.8899,-2.8504 6.197725,7.3198 4.140625,12.7305 -0.9899,2.6035 -0.796235,3.192 1.947265,5.9355 2.1312,2.1312 3.044922,2.575 3.044922,1.4805 0,-0.8602 -0.251393,-1.8138 -0.558594,-2.1211 -0.307199,-0.3072 -0.681031,-3.8711 -0.832031,-7.918 -0.2171,-5.8185 0.108994,-7.9127 1.558594,-10.0117 1.0083,-1.4599 1.832031,-3.2191 1.832031,-3.9102 0,-1.1263 -5.513187,-6.7453 -6.929687,-7.0625 -2.3969,-0.5368 -6.143563,-0.8984 -9.226563,-0.8984 -2.0112,0 -4.9362,-0.6629 -6.5,-1.4785 -1.666162,-0.869 -3.216309,-1.3392 -4.835937,-1.3809 z m -4.447266,3.8848 c 0.5176,0 0.939453,0.45 0.939453,1 0,0.55 -0.701194,1 -1.558594,1 -0.857998,0 -1.281306,-0.45 -0.941406,-1 0.3399,-0.55 1.043047,-1 1.560547,-1 z m -5.583984,3.4102 c 0.108622,-0.016 0.198621,-0.015 0.269531,0 0.472734,0.1016 0.103984,0.8843 -1.1738281,2.1621 -1.6621,1.6621 -2.5722655,1.8252 -2.5722657,0.4629 0,-0.5308 0.9000001,-1.4465 2,-2.0352 0.6563535,-0.3513 1.1506968,-0.5427 1.4765628,-0.5898 z m 2.925781,7.7792 c 0.17163,0.041 0.404674,0.2172 0.710938,0.5235 0.6119,0.6119 0.939315,1.6292 0.728515,2.2617 -0.497,1.4909 -1.841797,0.1461 -1.841797,-1.8418 0,-0.7035 0.116294,-1.011 0.402344,-0.9434 z m 4.658203,4.8106 c 0.5825,0 0.779353,0.45 0.439453,1 -0.3399,0.55 -0.816094,1 -1.058594,1 -0.242599,0 -0.441406,-0.45 -0.441406,-1 0,-0.55 0.478147,-1 1.060547,-1 z m -8.6718749,3.3828 c 0.3585939,0.016 0.6113279,0.4155 0.6113279,1.0586 0,0.8574 -0.4499994,1.5586 -0.9999998,1.5586 -0.5499998,0 -1,-0.4238 -1,-0.9414 0,-0.5175 0.45,-1.2187 1,-1.5586 0.1375002,-0.085 0.2691407,-0.1225 0.3886719,-0.1172 z m -5.7753906,5 c 0.1195312,-0.01 0.2492188,0.032 0.3867187,0.1172 0.55,0.3399 1,1.0411 1,1.5586 0,0.5176 -0.4499998,0.9414 -1,0.9414 -0.5499999,0 -0.9999999,-0.7012 -1,-1.5586 0,-0.6435 0.2546876,-1.0428 0.6132813,-1.0586 z m 8.3867185,5.6172 c 0.55,0 1,0.4238 1,0.9414 0,0.5175 -0.45,1.2187 -1,1.5586 -0.55,0.3399 -1,-0.084 -1,-0.9414 0,-0.8574 0.45,-1.5586 1,-1.5586 z m 34.427735,3.1035 c -0.298463,10e-4 -0.77276,0.083 -1.427735,0.2461 -1.375,0.3423 -3.313693,0.6267 -4.308594,0.6367 -1.039799,0.01 -1.524625,0.4725 -1.140624,1.0938 0.755499,1.2226 5.400818,0.3623 6.949218,-1.2871 0.436625,-0.4652 0.425172,-0.6911 -0.07227,-0.6895 z m -5.894532,14.1602 c 2.965857,-0.088 8.422372,1.1033 10.466797,2.5976 3.786,2.7673 6.783741,8.8142 8.494141,17.1387 0.8475,4.125 2.381103,10.65 3.408203,14.5 3.951,14.8102 6.346025,26.4112 5.765625,27.9238 -0.7317,1.907 -2.827553,1.8942 -8.314453,-0.051 -3.4966,-1.2395 -4.217056,-1.9721 -4.597656,-4.6718 -0.2482,-1.7606 -0.768504,-4.1012 -1.158204,-5.2012 -0.617899,-1.7438 -0.494448,-1.7118 0.96875,0.25 0.9231,1.2375 2.103047,2.25 2.623047,2.25 1.4467,0 -0.05389,-4.0499 -3.15039,-8.5 -3.517,-5.0544 -4.264247,-8.6356 -3.185547,-15.2813 0.8957,-5.518 -0.0046,-7.6724 -1.802734,-4.3125 -1.7801,3.326 -1.255782,12.7716 0.949218,17.0938 2.208,4.328 2.372497,5 1.216797,5 -1.0797,0 -4.179225,-5.4056 -5.328125,-9.293 -0.5211,-1.7634 -1.364747,-6.357 -1.873047,-10.207 -0.5083,-3.85 -2.275987,-11.6834 -3.929687,-17.4082 -1.6537,-5.7249 -2.766103,-10.8013 -2.470703,-11.2793 0.216125,-0.3497 0.92935,-0.5196 1.917968,-0.5488 z m -29.605468,10.7324 c -2.3983021,0 -2.2793732,24.5921 0.173828,36.0312 0.6023,2.8084 1.227725,4.9626 1.390625,4.7871 0.6859,-0.7387 -0.850253,-40.8183 -1.564453,-40.8183 z m -26.246094,10.3164 -0.173828,10.5937 c -0.0957,5.8265 -0.53195,12.5063 -0.96875,14.8438 -0.4368,2.3375 -1.234838,4.25 -1.773438,4.25 -0.5385,0 -0.731287,-0.6437 -0.429687,-1.4297 1.7246,-4.4943 1.655381,-8.7745 -0.261719,-16.2832 -1.1403,-4.4659 -2.074219,-8.3503 -2.074219,-8.6309 0,-0.2806 1.279597,-1.1464 2.841797,-1.9257 l 2.839844,-1.418 z m 55.904297,19.7754 c -0.583761,-0.1234 -2.217697,5.1473 -4.056641,13.9023 -2.8362,13.5026 -3.552606,29.2307 -1.566406,34.4258 0.6139,1.6056 2.706037,4.4181 4.648437,6.25 4.271,4.028 7.462182,4.5587 3.488282,0.5801 -1.5107,-1.5125 -3.570272,-4.9065 -4.576172,-7.543 -1.6522,-4.3306 -1.721258,-5.9244 -0.722656,-16.5 1.247098,-13.2082 1.773443,-18.296 2.714843,-26.207 0.392597,-3.2989 0.376092,-4.8436 0.07031,-4.9082 z m 8.355468,9.9121 c 0.5824,0 1.058594,0.45 1.058594,1 0,0.55 -0.196853,1 -0.439453,1 -0.2425,0 -0.720647,-0.45 -1.060547,-1 -0.3399,-0.55 -0.141094,-1 0.441406,-1 z m 2.261719,3.0918 c 0.571408,0.074 0.796875,0.6975 0.796875,1.9082 0,2.2139 -0.7517,2.4603 -3,0.9844 -1.3333,-0.8753 -1.3333,-1.0935 0,-1.9688 0.843113,-0.5534 1.476025,-0.8658 1.9375,-0.9219 0.09614,-0.012 0.183996,-0.013 0.265625,0 z m -3.394531,4.9082 c 0.4448,0 1.630966,0.6 2.634766,1.334 1.5455,1.1301 1.854878,2.968 2.017578,12 0.1055,5.866 0.06184,10.666 -0.09766,10.666 -0.1594,0 -1.431272,-1.6798 -2.826172,-3.7324 -2.2093,-3.2513 -2.53711,-4.7974 -2.53711,-12 0,-4.5474 0.363694,-8.2676 0.808594,-8.2676 z m 9.576172,33.3262 c 0.272106,-0.072 0.67595,0.3882 0.960937,1.1308 0.6762,1.7621 0.09928,2.072 -0.886718,0.4766 -0.3626,-0.5866 -0.443741,-1.2808 -0.181641,-1.543 0.03276,-0.033 0.06855,-0.054 0.107422,-0.064 z m -52.466797,0.5879 c 0.5468728,-0.029 0.5665062,1.8643 0.2734375,7.8359 -0.2076,4.2299 -0.7977689,7.25 -1.4179687,7.25 -1.0800001,0 -0.4523125,-13.6532 0.6796874,-14.7852 0.1848188,-0.1848 0.3386424,-0.2941 0.4648438,-0.3007 z m 69.056641,5.2168 c 3.030575,-0.011 6.148793,0.2583 6.496093,0.8203 0.3805,0.6157 -0.305156,1.0505 -1.660156,1.0605 -1.2699,0.01 -3.885547,0.2706 -5.810547,0.5879 -3.2656,0.5383 -5,-0.017 -5,-1.6016 0,-0.5634 2.944035,-0.8558 5.97461,-0.8671 z m -9.97461,0.8691 c 0.55,0 1,0.45 1,1 0,0.55 -0.45,1 -1,1 -0.55,0 -1,-0.45 -1,-1 0,-0.55 0.45,-1 1,-1 z m -49.189453,14.9961 c -1.0995,0 -0.082,3.8505 1.5625,5.9141 0.9308,1.1675 1.185278,1.0278 1.455078,-0.8047 0.3355,-2.2795 -1.336478,-5.1094 -3.017578,-5.1094 z m 65.257813,6.0039 c 0.5132,0 0.93164,0.7997 0.93164,1.7773 0,0.9776 0.700441,2.7776 1.556641,4 1.6366,2.3365 1.023656,2.7931 -1.652344,1.2286 -1.6966,-0.9919 -2.414137,-7.0059 -0.835937,-7.0059 z m 15.449218,16.1738 c -0.01942,-0.014 -0.03873,-0.012 -0.05664,0.01 -0.119395,0.1188 -0.20211,0.9414 -0.208985,2.3164 l 0.002,0 c -0.0111,2.1997 0.183294,3.2177 0.433594,2.2617 0.2501,-0.9561 0.258627,-2.7561 0.01953,-4 -0.06727,-0.3499 -0.131189,-0.5407 -0.189454,-0.584 z m -73.83789,0.1797 c -0.888651,0.024 -1.509547,4.6061 -2.216797,16.1426 -0.4942,8.0609 -1.892306,16.5698 -3.003906,18.2773 -0.0996,0.1529 -1.429578,-0.1973 -2.955079,-0.7773 -2.1645,-0.8229 -3.293071,-0.7132 -5.1386714,0.4961 -1.3007,0.8523 -2.3652344,2.2149 -2.3652344,3.0273 0,1.9102 0.9108657,1.8682 3.1347657,-0.1445 2.1480001,-1.9439 4.8652341,-1.1629 4.8652341,1.3984 0,1.0121 0.66125,2.7136 1.46875,3.7813 0.8075,1.0676 1.537094,2.8414 1.621094,3.9414 0.0839,1.1 0.580816,-0.7 1.103516,-4 0.5227,-3.3 1.367906,-6.4287 1.878906,-6.9512 0.5109,-0.5225 0.967672,-5.9225 1.013672,-12 0.0464,-6.0775 0.409892,-13.6625 0.808594,-16.8574 0.398499,-3.1949 0.382143,-6.0214 -0.03516,-6.2793 -0.06174,-0.038 -0.120444,-0.056 -0.179687,-0.055 z m -15.6796878,0.6426 c -1.0999999,0 -2,0.45 -2,1 0,0.55 0.9000001,1 2,1 1.1000001,0 2,-0.45 2,-1 0,-0.55 -0.8999999,-1 -2,-1 z m 50.5371098,2.4512 c -0.834216,0.015 -0.533625,0.6988 0.890625,2.123 0.7853,0.7853 2.40285,4.0169 3.59375,7.1797 1.8833,5.0021 2.201672,8.1582 2.451171,24.25 0.324801,20.9509 3.012069,38.6977 7.230469,47.7559 2.5995,5.5819 5.948605,8.4259 7.316407,6.2128 0.5511,-0.8917 1.085403,-0.641 1.908203,0.8965 1.3122,2.4518 5.232006,2.8539 7.003906,0.7188 0.9368,-1.1288 0.7711,-1.5444 -0.8125,-2.0469 -1.0924,-0.3468 -3.602978,-3.573 -5.580078,-7.1699 l -3.595703,-6.5391 3.064453,-5.6562 c 2.3113,-4.2673 3.2003,-7.4376 3.625,-12.9141 0.5926,-7.6425 -0.893563,-10.2786 -1.976563,-3.5059 -0.33,2.0636 -2.1864,6.9011 -4.125,10.75 -4.1127,8.1654 -4.16925,8.3854 -1.53125,5.9981 1.1,-0.9955 2,-1.3149 2,-0.7109 0,0.6041 -0.985053,1.7872 -2.189453,2.6308 -2.178,1.5255 -2.180941,1.5623 -0.431641,6.8067 0.9674,2.9001 1.990538,5.8359 2.273438,6.5234 1.0613,2.5791 -1.662609,1.1305 -3.099609,-1.6484 -3.3428,-6.4643 -5.314957,-19.7368 -6.035157,-40.6016 -0.8133,-23.559 -1.197684,-25.9806 -5.333984,-33.5996 -2.0254,-3.7306 -4.471094,-6.9921 -5.433594,-7.2481 -0.53075,-0.1411 -0.934819,-0.21 -1.21289,-0.205 z m -14.851563,13.5879 c -0.327884,0.038 -0.642203,0.4169 -0.923828,1.1679 -0.7353,1.9613 1.0436,14.8512 2.25,16.3047 0.5828,0.7023 0.958084,1.6624 0.833984,2.1328 -0.1241,0.4704 0.124335,2.3364 0.552735,4.1465 0.4784,2.0209 0.36699,3.786 -0.28711,4.5742 -1.1412,1.375 2.10006,13.3149 5.19336,19.1348 0.8769,1.65 1.839472,3.8151 2.138672,4.8125 0.2992,0.9973 1.028393,1.5147 1.621093,1.1484 1.2269,-0.7583 0.296275,-8.2338 -1.265625,-10.1699 -0.5362,-0.6647 -1.164584,-4.2254 -1.396484,-7.9121 -0.232,-3.6866 -1.3843,-9.6673 -2.5625,-13.291 -1.1782,-3.6237 -2.648678,-9.9296 -3.267578,-14.0137 -0.787425,-5.1957 -1.903066,-8.15 -2.886719,-8.0351 z m 40.390625,5.4609 c -2.2407,0 -2.7642,16.7996 -0.625,20.0644 1.7192,2.6238 3.498555,3.2053 3.63086,1.1856 0.195199,-2.9794 -0.342447,-12.6144 -0.935547,-16.75 -0.4195,-2.9258 -1.143913,-4.5 -2.070313,-4.5 z m -82.07617175,16.5039 c 0.55,0 1.00000015,0.4523 0.99999995,1.0059 0,0.5537 1.125,1.9861 2.5,3.1816 3.1654,2.7523 3.2938,4.8292 0.25,4.0449 -2.0164,-0.5196 -2.1053218,-0.4021 -0.8574218,1.1192 2.2534,2.7471 0.66125,2.87 -1.71875,0.1328 -2.23300016,-2.5682 -3.0889281,-9.4844 -1.17382815,-9.4844 z m 43.96289075,31.0976 c -0.617135,0 -0.308934,1.2932 1.083984,3.7715 1.1958,2.1278 3.948788,4.9403 6.117188,6.25 7.1652,4.3277 8.77659,5.9474 9.83789,9.8887 0.5778,2.1458 1.746008,4.5975 2.595703,5.4473 1.5255,1.5254 3.402344,2.0708 3.402344,0.9883 0,-0.3064 -0.510165,-2.6689 -1.134765,-5.25 -1.3614,-5.626 -4.616394,-9.4108 -11.433594,-13.293 -2.7884,-1.5879 -6.130781,-4.0161 -7.425781,-5.3945 -1.523419,-1.6216 -2.562975,-2.4069 -3.042969,-2.4083 z" id="path6776" inkscape:connector-curvature="0"/>
  </g>
</svg>